<mxfile host="65bd71144e">
    <diagram id="QMfWRcjElOZhVJZ7Hwns" name="第 1 页">
        <mxGraphModel dx="776" dy="619" grid="1" gridSize="10" guides="1" tooltips="1" connect="1" arrows="1" fold="1" page="1" pageScale="1" pageWidth="850" pageHeight="1100" math="0" shadow="0">
            <root>
                <mxCell id="0"/>
                <mxCell id="1" parent="0"/>
                <mxCell id="3" value="" style="shape=image;verticalLabelPosition=bottom;labelBackgroundColor=default;verticalAlign=top;aspect=fixed;imageAspect=0;image=data:image/png,iVBORw0KGgoAAAANSUhEUgAAAPgAAAEyCAYAAADX1R1tAAAgAElEQVR4nOy9d5xU1f3//zznTts6W1h6EaQugigiohQ7YI1+8onRmORjjR8/fvxojIkhGuPPTxKTGL8fgzFNo0nA3pVogjUgICKrgvTel21sn3LvOb8/7tw7ZWcb7CIL8/IxLjNz5txzzz3v8+7vIyyttSSDDDI4GpGh7QwyOIqRIfAMMjiKkSHwDDI4iuH5sgeQQddDa40Q4ku5LvClXLuj0FonjfNIHmtX4KAI3DRNdu3aRSAQoLi4GI/Hc9RPVE9AOBymqamJ/Px8pLSFs9aeS2NjIwcOHKCgoICcnJwuu35NTQ0AhYWFBAKBLum3ozBNE6UUHo/Hvf9EhEIhamtriUQi+P1+gsEgfr//sI7xcKPTInokEmHz5s1cfPHFnHfeeZx88slcdNFF3TG2DDoIrTU1NTX85S9/YcqUKYwdO5bbb78dpVSrv3n//feZMWMGJ510EqNHj+buu+92OdvBYuPGjdx7772cc845TJgwgXvvvfeQ+usMtNYsW7aMb37zm/z7v/87b731FtFoNKnNggUL+OpXv8rs2bO59tpr+ec//wnAokWLuO6663j88ccP23gPF1oQeHsPubm5maefftptm5OTwxVXXNE9o+tmHOqCPlIghODAgQNs2LABn8+Hz+cDQErZ6j0ahoHf78fn85Gfn09WVtYhjUEpxdq1a/nggw8wDIPi4mJ69+59SH12Ftu2bWP9+vWsXbuW22+/nYceeijpeyklHo/HlTi11ixatIi5c+eybNkyli1bRllZ2WEdc3cjSURXSlFXV5dWrNNaE41G2b17Ny+88IKrv+Tk5HDppZdSXV3d6YsLISgsLGyzjXPdaDRKJBIhOzv7oMQqpRSWZRGNRjFNEyklWVlZSCnbVC80oNAI7DYipsM53FEI0W4fbd2bUsr9G4lEEELg8Xjwer2d0hH37dvHihUrXB3TNM1Wf7tq1SqeeeYZd5FPmTKF2267rdPjT8RHH33Es88+624uZ511Ftdccw319fVJem9Hkdje7/e3uwF9+umnvP/++5imiWEYFBQU0KdPn6Q2fr8fv9+PZVlYluWug0AggMfjYenSpSxdupQbbriBW2+99ahQO10CN02TRYsWcfPNN7epUzsGHOdvRUUFM2bMwLKsTj1EwzA44YQTmD9/ftrvm5qa+Mc//sGTTz7J559/Tm5urksIBQUFfOtb3+Laa691F1RbqK+v56233uJPf/oT27ZtwzAMLMvC5/MxefJkrrnmGqZOnZr2t5s2bOTuOfewYcMG+/5RaAkyYQ7y8vIYOHAgM2fOZMqUKYwYMaLdxaG1prKykpdeeon58+ezc+dO916UUhQVFXHJJZdw9dVXM3jw4LY3Ia1paGigsrISKSV9+vRh4sSJadsJIdi3bx+ffvopQghM08SyLLKzs9sdb+oYEj8rLy9n48aN7nevvvoqr732mtsu8TeQbBtob91cdtll/OAHPyA3N7fVNuvXr3fvSWvNKaecwplnnpnUxuv1unPs6Ounn346JSUlPProoyxcuBCPx8Pjjz+O1pr//u//xjCMNsd2pCOJgwshXI4CbVtjE7lL4m/StUsHrTXNzc1YlpU0iVprtm7dys0338zOnTsxDMN9sEIIDMOgvr6euXPn8tZbbzFv3rxWH7zWmvXr13PLLbdQXl6O1hqfz+dySYCPP/6Ybdu2cfPNN3P55Ze3WHhKKyzsl32zGoVCJdxuTU0N1dXVrFq1Cq01w4cP5/vf/z5Tpkxp9f6XLVvGTTfdRDQade8xcfE3NTXx9NNP88Ybb3DZZZdx5513thib076yspI1a9a43w8ePJgzzzzTbeN87ix+Z3EDFBQUMGjQoKR+082j1rqFpOL8+91332Xu3Llt9tEWnHGlQ6K01BrKy8vZvHkzoVDIlagGDhzIcccdl9QuEAi4G5lpmkSjUfd53XzzzUgpWbhwIQAvvvgivXr14hvf+EaP5uSeRCU8cSEk/k0keMMw3PeOOOQQe2d2ZSEEXq+3xQ65bds2LrvsMizLch+8UgopJYZhuA9bSsnmzZv59re/zXPPPZd2p123bl2SfSB1ITnvy8vLeeihh9i7dy833XQTUsoWVliX+FLmKrU/gM2bN/PDH/6Qq666iu985zstxrVs2TL+8z//s8Xmlm589fX1/PWvf2X79u088sgj7jXq6up44YUXeOihh5Keidaajz/+mEsuucTtx7IszjnnHB5++GFWrVrFc889537X2NjIvHnzmDdvXotxOlBKccEFF/CrX/2qxZxs27aNd955h4qKiiS1JXVu0iFxA0pn9XbatPadg7feeounnnoqSeWYOXNmi3aBQMAV9R21z7FTjBgxgtGjR7Nw4UKEEHz1q1/lyiuvbPO6PQE2G9M2wYwePZpHHnkEoMWk19fX8+CDD1JbWwtAfn4+9913X6vumI7s4tnZ2UkcZseOHVx//fVJnzmLwOv1un0qpZKI6cYbb2xhAV27di1f//rXWxCM1+sF7M0pEbW1tbz55ptMnDiRyZMntzF+jdIaHRtDa5tadXU1CxYsoLS0lKlTp7rtVq9ezQMPPNDi+lJK17bgcJdEWJZFOBxOcj11hlM6c1peXk5ZWVmnf5uufUNDA//85z95+eWX3Y1q1KhRzJ49m/z8/LS/KSsr4+9//7vLLE4++WRmzpzZKpdUSjFs2LA2dfBEO4hhGIwePZoxY8a0aOf3+935S+TgTh/XX389QghCoRC33HKL+/mXFVfQFXBFdCls3e28885r0cg0TVauXElNTY07mYMGDeKcc87p0hu3LIt9+/YlcbX+/fvzi1/8gpNOOgmlFDt37uSHP/wha9eudQ0lu3fvZsWKFZxyyimAzZU+++wzVwpwxlhaWsq8efPweDzU1NQwb948HnnkEddvun37dh5++GHmz5+fJJUk65Bw0oQJzI9xPK01VVVVzJs3j0cffRS/3+/+ZtOmTfz+979n2rRpbtsDBw6wadMmdx69Xi9nnHEGDzzwgPvbffv28dhjj7mGMCEEK1eu5Je//CU//vGPgfQqUuJnbRFMNBptt53zXar+7LSPRCK8+uqrPPTQQ/j9fpRSKKUYPXp0i0068dpCCP7+97+7/Y8cOZKvf/3rLS+euDe0scQ+//xzPvzwQ3ecp59+OhdeeGFaiS4QCBAIBFzDbSQSSfo+Eolw9tlns2XLFp555hnWrFnDe++9x2WXXcYdd9zR+iCOYCQHumiSJlNrjWlZfFK2khtjuxvYQQyPP/44kUgErTUej6fDHMERtVNRUVHBr3/9a6SUbrBCaWkpTz31lDsWKSVDhgzh//7v/3jwwQd54403kFKyZ88e5s6dy5NPPokQgp07d/LTn/406T7GjBnD/PnzXTG/sLCQW265hWnTpvEf//Ef7mawZcsWfvKTn3D//fcn/d4VFUXyfQohKC4u5n/+5384++yzueOOO9i7d6/LTRyrrWEYbN++nWeffdZd/IZhMH36dNed43zer18/7rrrLiZNmsQdd9zh6uSbNm1iz5499O/fP2m+A4EAs2fP5r777nPHtGzZMu655x7X9qC1pqysjCeffNLldueddx4/+clPXGkhccMIhUL84x//SBqbgx07dvDYY4/xyiuv4PP60JZCGpLLL788aQzpkG7TbAGNvZPaP2i12apVq/jd737Hhx9+6G6Yw4YNY9SoUUntHA9KbW0tdXV1gB2U89vf/pa5c+cmbYyOyJ44Rr/f32O5eMtINmfeRczSW1HBdf9xjUuUQgiqq6uZMmVKkgjfniEEYODAgcybN4+ioqIW3zU3N7uio/OwHBHeua6D/Px8pk+fzptvvolSCtM0qaysdG0CiXo72Bb7wsLCpHtw/gaDQcaPH+/6P5ubm9m6dWsL/didnjTr0umvV69eTJ48mVdffTXpO+ceIpEItbW1SeKkszmmivter5dAIIBpmq5hMBqNUl1dTf/+/ZPaOgs4sY9EF5xjPN2zZw+rV68GbEPc1KlTycvLS/usQqEQgUAgrXQQDAbp378/aI2IfXfRhRdx9913tyvSJhpknXGnQ7rnnohIJMKyZcv44IMP3OfsSCcrVqzg5ZdfZunSpezevdu19SSqGombbDo1y5Y2pLu+eiriBJ44j7FFXFVVxezZs12u50ykMwmtPZzWEI1GCYfDab+zLIvGxkZ7KEJQUFDA1772tbRtvV4vQ4cOZezYseTk5Lhcr6GhgcLCwhb2g5KSEi699NL4rSY80AEDBnDddde5Opdzf0qppA0haRFA0nw48Pv9lJSUuNzeWVDOfBUUFDBu3Dg+/fRTwN5M9u/fT21tLcFgsMViPvPMM1m3bl2SsTFxjIn3k44QEtsvWrSIFStWuH2NHj2aSy+91BWbU3+fajhN/N4lcCFAwgWzL2DOnDm89NJL3Hvvve2GyTobnNaaZ599lmeeeaYFRxcalGVx5VVXcc+9P27Rx4svvshvf/vbFpuwEIKysjJeeOEF1++ttXY3QKdNql3BIeRAIMCgQYPo168fRUVFTJw4kTPPPLNHcm9oLRZda+rq67n//vvdiUkkbsuykha343pJhRDC5VCJ3LTl5WydKHFBBoNBzj333LTDMwyDsWPHugsjdbdPXSyBQIDjjz8+LVfwer0t3GyRSIT9+/czYMCApHtBt81ZwuEwVVVVLcaUyOFPPfVU/vKXv7ifr1ixguuuu457772XsWPHpl2wzt/U71I5UuKmBHFCAtv4dcoppzBv3jxOPvlkrrvuujb18HTzmojzzz+furo6Vq1axY9/8hM3MCddHLgQztpJL+WlbjACm8B1K1LhW2+9xZ///Oe0wTyOsTIrK8vdvBLnKHEdDxs2jLPOOosxY8YwcOBABg4cSDAYTBpXsjGg5yEtgdc3NvCzn/2M9957r4W+FAwGufvuu1slPgdSSkKhEG+++aarl7UGZ9OA+GJKfd8aUheHZVmunpX4fWuL2VmUiTBNk/r6+pbjRCOEzbjSiaG7d+/m1VdfTVrgiYQppWTAgAGcdtppfPTRR26bdevWcfXVVzNs2DCuvPJKLr/88lZtFenQlq/YGWO/fv0477zz2Lx5M5MmTWLMmDGuYczxLKTeU2v+bwB/IMA3rr7aFfzakuaU6tizjF/X+V9L7Nmzh+XLl7Nv375Wx9yrVy/69u3Lnj17KCoqYtKkSUyZMoWRI0eycOFCHn/8cZRSnHLKKdxwww1uso39XFVsQ+qZHDsV8ZUdM7BpbUdYLViwIP6VTg6W8Hg8LXQXp53TBuLxzu1Ba+0a7A4VjoEonaGkowssGo1SWVnZeoMUFUApxUcffeT6thPnKpWbDRs2jBtvvJF169ZRW1ubZHTavHkz999/Pz//+c+ZPn06d911F/369WtXrwVbeigvL3fbVlVVYZpm0pyefPLJ/PGPf0QpRVlZGb/61a/o1asXDz30kMuBE5Fqy0hFgrmmBYLBIH369HE3EQf19fVUVFS49xMMBikpKUmeXmzx3Iya9CrplfRdv379GDZsmPv+jDPOoLCwkAULFrjjP//885k9e3ba+1myZIlrq9m3bx87d+5McKmlm+OeTehJOnhNTQ133nknS5YscblHVlYWV199NStWrKCsrIza2lruvPNO/H6/a31tLRjBEb07QripHKg1vbKzSLKAt3LdVFEOaFWPFELw2aefMm7cuLT9Of0YhsHUqVN5+OGHk/qQUnLqqacyf/585s6dy5tvvun6+J1xWJbFe++9x3vvvUdeXp4bydba9aLRKAsXLuTtt99O+jz130II16X3hz/8Aa/Xi2VZ3H777fzyl79MCldNNdy1R+SpOOecc7jvvvuSNiatNS+++CL333+/u3HMnj2bH/3oR613LJLfay0IBLLIyclh1qxZfPe73+WFF15gwYIF7vNrLTdACMHw4cMZM2YMGzduZNeuXWzZsoXRo0fH2gt6OkGnwn1qFRUVXHrppSxZssRdpFlZWVx++eV885vfTDIYOQYxx5foGM9SXw5Xbi1QIhFdwb3T9Zkqonf02nGC7/wDz8/P54orruA3v/lNC/HfweDBg3nggQd47rnnmDJlihtVlRr260Sy3XLLLR2ao1RLeqo1vVevXsyYMYMJEya4RPbee+9xzz33JPWfuOE4/R4JEALOPfdcnnvuOW6//fYWMfTtzVGfPn0YOHAgYAcjtSmpHQWQYOuWhmFQUlKCYRhuhs3ll1/OD37wg6QfpONoif9OJahUMTEd0unBB0vwQsSj1RI/64zFP537JBWtbVpOMM2cOXPa1KGdey4tLWXu3Ll8+umn/OlPf2L48OFp2zY1Nbl6ZzpkZWUxcOBABgwYQP/+/SkuLk5KF028l5NOOolrrrnGvUcpJaZpul4M5/7ayjHodqQy09h7IaCgIMjgwYOTDGKJaG3MWmuCwaDrpq2srKS8vLxrx32EwQMgsNM2//CHPzBr1iy8Xi933XVXkmvJWQyBQIBZs2YliajOInE4kINoNMrnn3+e5BdudSBdROBOGmiq4aU191y66/l8PoqLi+3PlUJqkNq2+2igsLCIaWecgRB2TEBiJNWGDRt4+OGHefjhhzs03sTN7dRTT+WVV15h7dq1PPDAA6xcudJtV1ZWxkMPPdQiHtwZ78yZM7n//vtdyWPJkiX86Ec/oqqqKi2hnnXWWcyZM4c5c+aQnZ3NsmXLmDt3LnfddZfbx5dK4N0ArTV9+/Z1s/O8Xi+1tbXs37+fPn36tGvnaNEf8diwI0O+aQmXqoSwifyZZ57hnnvuSSJuiEf4eL1epk+f3q4VHexgCa/Xy2uvvdbm5Akh3DS+RPGyqakpqZxQqgiZGHXk6Ixer7dF5FE0GnVLCaVD6iL2eDwUFhba+rlWaKlBKNeyO3TIEH72s58BtlX30Ucf5eWXX3Y5YXV1tVsOKfEajhurhc/XnRZb8iktLeV///d/+d3vfsfrr78O2K67vXv3snv3btd9lyqKp4rTidb11Ll3QmS/9a1v8fzzz9PU1MTKlStZvHgx06ZNa2FBb+H6IoXBCoHH8CARbrBf6n2ms/ZrwIop2NLNum+JjhJfW+qYs14SDX87d+5k27Zt9OnTJ40Hwemv3csesUiyohuGwfDhw92KLQ4c4nF0snA4nOSKgvQ6WigUIhQKtTuIdCJxRUUFDz30kBsdldg2Eonw4Ycf8l//9V+un33w4ME89dRTrtiWuCBqa2t5//33mTx5cotrV1ZW8sYbbyR95vV6yc/PTyIUS+u023S/fv24+OKLk3KfV69ezY9//OMkA1skEmHhwoXcc889gL3YJk2axMMPP4zP58EhbgeDBw9m5syZvPTSS/h8PqSUWJZFdXV1kn/euWZrRsq2FvzAgQOZMWMGb7/9NjU1NXzxxRc8//zznHrqqW6cf6J0loiPPvooKQNNa83evXvdOVq6dCm33nprEpELIdi7d6/7mVKKRf/6F/v27k07PgdSSs444wwuv/zyFupXR+w7qfPiVHWxLIuPPvqIE044ocXaiPvAW7fDHMmc20GbsejpUFdX51o9nUXV1gSncpfWkJubyxlnnMHixYsRQtDQ0MAnn3yS1hpcUVHB008/7XJDx92Sn5/vtkuMvquvr2f58uUtwk+d5JUXX3zR/czv93Pcccelja9PtbQ7n5166qn84Q9/4MYbb3T1/bKyMn7zm9+4lUG8Xi/BYDAp0WPnzh28++47zJo1q8V8OJFViXPckXDgzuLMM89kzpw5PPHEE9x6661MnToVre0ab01NTe4GkapClZeX8/7777foTwMI2Lt3r03w7WDPnj3s2bOn3XbFxcVYltUlBT6nTJnC559/zttvv43X62Xz5s18/vnnjB8/PqndM888w9KlS/nGN77BqaeeesQYGjuDtL6PtoImHD3bqeCSGCWU7tVR9OrVi+9+97vu7wzDYM+ePS0K94XDYVatWsWyZcvc6+bm5iYVVwgGg5x11llJv9u4cSPXXXddkmV53bp13H333Uncafjw4dx1110dHrezwSSGpoLtciwrK3NdiVJK8vPzk8TrHTt28vTTz1Bevh8n2itxvE899ZSb3uioR717926xYbbmxuqoq/Gcc87hiSeeSKpqkxh81Jmgm+5CVxLXqFGjOOGEE9x+Fy9e7BZ6SEQkEmHJkiXMmTOHF198sUfaI9L6cNpKvldKkZeX16FSu1prQqFQm/qvA2eROiVtwY7VfvXVV/nkk0/42te+Rl1dHW+88QY7duxwF5zWmpKSEm666Sa3r759+3LTTTfx7rvvJvm416xZw7e+9S0GDhzIpk2b2LVrF/X19e7iyc7OZsSIEe2WL0odN9jhsEVFRVRXV7v3snXrVv785z+7YxszZgy33XYb3//+991xlZWVceGFFzJhwgSuuOIKCgsLef7551m8eHFSfTzHSt6rVy/3M+c5WZbFF198wYMPPuhuvHv37nWj8drbbBMLNTr3FI1GXQ7uJL4kBg8VFBQwYcKEVvt0OLmrj8feV1dXs3PnTrsvbW/sjtuqLQwePLhdz0ZnMH78eCZOnMjHH3+MlJLly5fzwQcfMGPGDHeuQqEQ4XCYPXv2sHPnzi657uFGp+ui5+Xl8bOf/Yxp06a1W2kjHA6zcOFCfvjDH3Zo9+vbty933303v/zlL4E4B9qxY4drPXYMVc5CKykp4dprr21RGWXQoEHcdddd/PSnP3V1yObmZj799FM32SOVww0fPpx77733oBZRaWkpd999t1u8UEpJZWWlW5oJbEIqLS1l1qxZvPXWWy7BhMNhli9fzvLly9MSoxCCE088ke9973tpOalSis2bN7t55g4S4wA6i2g06rrNvF5vUsEFIQTTp09389zTIR2Ba2Enidz//90P2Aa8c889N32gSzdj4sSJnH766Sz/+COEkKxatYpPPvmE6dOn2+NNMMYFg0EKCgrcNdeTRPVO10V3iLo94oZ4CGri+7aQk5PDxRdfzDXXXEM4HHbFxESRP9GFEwwGue6667jkkktaxH/n5ORw3nnnce2117ao3JHOujt27Fj++Mc/Jul4rYm+6eD1ehkyZAjjx493r+H8NtG/PGTIEO644w6uuOKKpPJTidd0Xs7n2dnZDB06lF69erW8cALSWegPVqysqKhwC036/X7y8vLSxkC09pJC2FbxhPdCabAUQmtsx4QGpeO2LOfV3YhZx2fMmM55552LVgqP12DTpk1uOu0XX3zBqlWrEEIwYMAAt25dTyJu6CAHT9Wr2wsAcYxZDQ0NrpvHedDtVUEtLCzkjjvu4LbbbmP16tV897vfZffu3fh8PpewS0pKuO+++zjjjDPaDEvs3bs33/ve97j11ltZsWIF999/Pzt37nQJ0OPxMGPGDObMmdNqDW/H7VVTU+PaH6qqqtLmi48aNYrbbruNq666iqamJgAWLlzId77zHf7yl7+4Y3Ukle9+97u8//77PPjgg2zfvj2pIKDX6+Xcc8/lzjvvpG/fvmnvMVH/P/nkk7n22mvd79auXctf//pXN/+8LR168eLF/P73v3dz5isqKti4caMrohcWFjJ48OA2n1tHkWpVF1IePlN0YvirhpEjR/H9O+8iLzfISy+9xKJFi1i8eDF9+/Z11RzDMDj77LM555xzDtMguxadEtFT88FTUV9fz6OPPsr8+fPdlNJ0VvCOwDAMTjzxxCTjhxN40VldzOfzcdppp/H6668nhYOmprKmQ2lpKe+9916bSReJOO2009iyZUuStAHp7z07O5vZs2cze/bspHt0Kto4aI24nb49Hg8DBgxwjWQO0TvloVMTPlL7qaur47PPPktrvAO7bNaJJ57Y7r0fDA4rQ3SyABN2lL59+zJz5ky2bt3KZ599BtgeAme+nLLSPY1zO+i0Dt6WwSYrK4uzzz6bv/3tb0nJGoZhuD7V1iqItIZU0dsZQ+pnHeknnXrRmd93Bokid0faJV6nvYIJiXCqmESjkaTfTJ482U3AaE9y8vl85OTk0NDQkPS51pp+/foxefLkdg+o6AictSClRFkKIW3RvSuQTvVqrV2iO1hK6RbF/O1vf8uqVauSXJOJhRp7ItKXbGplzt3IJpne2ODxeOjfvz8+n4/m5mbXjyuEYNKkSTzyyCNd4m7p+G6ayLW+3JOS2+LkiejoveXn5/P1r3/dFR3z8nKTuKHH42lRa721602ZMoUbb7yRH//4x0lS2gknnMCdd97p1ljvzPhag1v0EdBCYKlDU7oTjWEOkberSqb5+PTTTyccDvPwww+zbt06VyX89re/zQ033HBIY/wyIbTWOq1hI2EStNbxMr7SDkUU0g5NTIXWGtXGGmgtGLEj5Jduh+7YgnMI/Wg/Dr2tDO1D7LmLrMe7du3iiy++cJnFwEGDGDNmzEGP2DRNysvL2b9/P4b00KukF3379um0xOXgYKTDIxlxAk9zL62RhUr4LLXNocZadQ8JHjmcvPvRPUR+pLuHump8XSWpHCmwCbwTSEfcxD7rykDKo50MM8jgcEB2lii7ilNn0B4SHcOKw+MgzuBoQ6et6K0hkbN3VX8OWu+3q696pCA14qMn5C1lcCTioAk8VSTvajLrWH9HK3GDG42RIe4MDgGHxMGPRvL6cpFqIMsQdgaHhi4T0TPoCmQIOoOuRYYJZ5DBUYyeTeBHgGG5JxYByODYQc8m8CNAoj1aAiIyODrRswncteMrMp75DDJoiR5O4Kk4DISekcgz6EHo4QQuE/7KlM8yyCCDo4waDsPtZFTuDHoQejiBZ/TuDDJoCz2cwL+E4Wd08Ax6EHo4gWeQQQ/EYWQSmVDVziKjgx+d0DpexL0FOprwk3reaGriUOy9OHwJRBkCzyAD6CKis/twMvhBoLVCCPsIauf7FsFR3Vdpq2cTeGezwY/0skMZHBnQWqGxawtqnGONlU1/2iHS+MrTaJm8szcAACAASURBVBQhotTRxAE2Vq1iS8UaTBVGEEXqKEJLhDAIeLM5rmQUAwpHEqAQP8V4RU6sVqGkq6lcWFrrY0ERP9qK6WXQXdAobREVTURpQgAGfgwCGBgxQhSIGGvRQIQDVJmb2VCxkl21mzBlCCWiKDRaWjEObROv1iC1gQcfRTkljCw+kSGBk8iiNza/zRC4C4VKw8F76t1kcDihY/85nFljYdFIHfvY2bCJ3dVbaQ7XAeARPorz+jKwaARF3oFkUYgXHyZRavV+1lR/yNbqT7FUCISFJSwsqRFaIIQCLdBOnXyXzwiEFniUhxHFp1FaPJ1c0QcPgS4l8R5L4LbJQiMRtPSHt31HR1vlzAw6j3jFOxOLBhrYx7qq5WypLMOUEUxAabsWnsTCQIOZTY6nL6N6T+S4guFUNe5lw/6P2R/aTtSIgLBDpZW00MI+c03otsRugdASr5VNSdZwSkum0D97OF4CMQnh0EX2Hkvgh4KMLp4B2AQepY4DbGJN1cdsqV6DKRsRaISWaJTNcrUtkgstQXtBB+hbPACJyb7q7VjCRAunMKZKtsa3SeAgUEgUUmVR7BnGuJLpDMgrxUO2qwYcCnq0ke1gkSHuDDRg0kR5eC1fVCxid9M2op6wberSGrCSD/8Am4hFBClM9tdutE9QkTHO7bDJVFeb+13ra04JsIwQVdHNbKz24zWy6JM9DIMAgkM7CahHc/CjtaZqBt0Jm3jDNLG5biWrK9+jIboXpGkbyImfZZ78M8fKHUfc261skfyQh2ZgWLkE1XGc0Hsqw4rH4iX5XLTOSp89mj569OAz+JKgUZg0U011dDtN0UqUjGJJm5MqkYa4webMwkp6aWGhhNU1xA12n0Y9DXoz+5vW0xg5QGrYW2elzwyNZHCMQaCxKK/Zyu7q9VgiAuLQD8TsEmgDtEQbYbYdWM3uAxtQRA+py2NSB++ZyByG0FWwdJgmVU2TVY+WMUVPG9hm7y8vQ1FJjUKhpIHWIZSsB5oBI/bqPDIcvMcileAz6BgEUcKExAGEDCOFjMWQadua3VZIejdDaoXUGqFNtNFAvVFJE/UcSlp0jybwozsb3IlotsD2yqZ8n+HgnYcCTKqb91PRuA9LCDQytk86bi6NQH+phK4FWEKx88B69tVtQhHmYFd7jxbRe/Tu1BqURiuFsCIQaoSqWtSOfUQrqzECPjyD+kD/PpCVA4YAnxcMR4TLEH170IBlWViWIjHjSxAjaIEdeYYAIYnFq7QqKwktWj3zPtYA0Ghhx7d3bJAShCYUbSRk1qGIHvST7dEE3rOhbPcKBoIoQpsQMgmv287u1xew9+OP8ZbvQ4ej+BUYGrTQaCFQhkE0mEf26JEcd8n55J42CfKCaK8f7YZHZIg9nd1CYBDw+wgEvBBVbvSZnezlBLMIDBVAWAEQRuyzxL7SzW36bUALDcJEGWGUjKISCd0NjoGkvmN2AJMQIRoxMTGwYt93jq1lCPxLQyxpQVmI+ibU5+upee5lti9eQiBqUqyjWFpjKPDEOIslY4vAtND7qzArlrJx6UfkDR3C0Cu/jnHWmYjiQtsqLByDUYbQwYk9NzFpJCz3o2QTcTUIQIA2EMqLNPPYu7GJT5d+wf49NWAK27otYu06SNwASEVhn2wmTDueQaODYDSihQlCobWMRcAljCEtYhJFGy1aQ48OdOnR0AoizbB5GzV/e4GNCxaSa4YRwsJriaTFJGLcQyVGVrn/FlhCEJaQc/wwjr/uGoyzp0F2ICHH+VglcCdjAaKEOBDdxoaKZWyrXUXEUx8jLrCt6B6EykIdyObTD7ax8sPNqCY/wvIhkMjOKoSxB6SFwjJMZE6YqeefwInTBhD1VaJkGB3zpbcmukvLw7heMxhXdD5+iuxw2U4+ywyBf1loDtHw/ofs+H+PIHbvQWkrloyo8SgdJ3Ad0xOFdsKigZTaIdrOTIoagkheFoXnz2DQf98CvXuRIXBNhGZ21a9m7f4PqTR3oI1mlLZiBC4AD0Y0j33rI3z8z43s3ViPVH7QXrQ27Fh0N8CkJbdO/Ka1z7TQGH6TCacP4aQZ/fEUN2B6G7GMaJsEfmKvszmh6Dx8FGQI/EiHjv0v0ljP3r//neqf/pqAqfHEcxrixh7iIZN2oQHdoYgpJQQhA/TUSRz/k3vJ790nwXp07BF6VDezeX8Zqyr+RYN3D5bRDGBbKrREaC91+xSfvL2FDR9XIMxspPYhlAehHcNlKtp3UTqzrSCeKgpoTxTLe4ARJxUx8Zwh5A0AZUTS9mET+FmcUHT+QRN4Rgc/zAiHm9n0rw9Y+3+/Z5xpc+XER5YaB+0QvG4thJJkd47UENCSik9Ws/ShR5hx5//g71WIEyhxLJG4RlFZt5cdtetpMiqwZMiVekAh0DRWSzaWNdNUXsjQ/gMReGyBXMertmhnZ07pvf04BBFzusXaxx6UElHCVQfYtTrEsJxsvMWJ9dsSf20g8KYQdefqO2WY92GFRpsRAk0RikMKQ3XS0SpUwiv+22TC10jLIr85hLlkKYse+zPaMkHrY4q4QRNVTZQ3bGVf8yZMT1PCPDkikg9DZxOw8vCobITw2MQUc5NprWO1A7Rrjou/3ETPVl/JM24b6tASqXx4rAI8VjGGbqXAg5Z4PTl4PFkQq3ogDiK4KUPghxFagzcnl8KxxxMYe3yLfF87VdF52dVGEh+o0PFXPKxStwzIEBqfMulXV0vkvQ949/Gn0MriWIOpmgjLGpQ3hMaCOC+NpX5adq005UO6Irn9EjHduy04+WXpXo547iSvtNDalURaBkKlv45AEPDl4PPmxDi502vnVK0MgR8GaK2prKti+YYl7GveTfawIYy+4t9oNjQCyyZkoWPBFTaHFoChDEAS8WgiUmEqhdIarQVS+TAsH4by2n5aYZcF0kKiYos0YGqKyyvxfLycynXrObZCWwX1zQ3UNlUiZNQmjxRCEsJ+SRRCq4TN067KEjJD1Dc1ELFMNJpQOERTcxOWZW+WoXCYxuZmLAu0jnFtLdFaoFBoI4SvsIl+o70UD/aAJwQ6Gtu4bXuJxotUfqSWsU3dLjZhaEWODBCUhSkpoxkd/AiDxiLKltqt/OFf8xlXOpFrTv8asqiIsEfij9iLRwt7cVhOESohMA0NBujcbHRhHlJ7QdhuM4vYgpT2KlVap2EEAr80qGho5OMPP+TC0rHOx8cEQqEmmkL1aK8JIkryIZVxOAGqibpuOBTmwIFqmpubKCwswucPUFNdTSQSoaCggJzcXOrq6mlsbKaoqJD8/Hy7L8fLYYQYOCbAiFMLCQQFRjTI+mUH2LyyHKHsKq12dJvhjkILWwiXgFReigIDyPf3SRhz5x9chsAPCh0tNaGxiPDF/g3M/fAvbC+oYG/tIrwbPPzHxAs5/md3seHuX1EYiiA0WFLRaHgIDRxA36suZvSFF6ODOVhSojHwtLChWqAjICJAlPQcWnMSGo0HCKO1Y7Q5+q3qebn5FDQXUdu03d5ARfvPTGuoq6ul5kANWmsKg0VoDeX79iGEpKCgEMOQlO/bh9Ka4uJC8vLykvsALMPEX6TwF4axZBNCRjC9dZgijEd44k8qJja4Ynws2MYbzSdoDiRAkEOpzZYh8ING+0SugWat2GkdYL+uwDLC1IfDrNq/mj0jpzFo+GiCp51K0+KPyFYWYelFjh/Lyd//b/xjxxASHpo01DRAQz14fNCvALIleARIbSKiW6HxY4SoBaIgzJjZV2CzfwEShPCBHIXIORko5mgnboAsX5A8oxdGxIeZFSF5A9Rorey5Etiyuo5/J4D8/Hzy8vOpr69HGob9PjeX2ro6ItEowWCQnJzs2OEG8fkUgCeaxYFNmtpCHyUDS4g2Gug6MLSZ0ArsRCJ7cxZC2CqDMsg1epPt6Y3Ez6E8qwyBdxMce2ddQy1rN39B1FCuq2tTzS5e+eSf3Dn+G/T+yizWrFiJClnsz89BlQ5lwvhS6qOS5Wsa+dvru9nVaOAlgLai5HginHFSkK/N6k3fHGiob2D76nfoF1lKlqp3K8ba2pzjx5WY5GIFJ5M7Mo+84gLQnqOexn1GNtlGHzy6iKgOo0UkFnPeRvKIgNzcPLKzszEMAyEkwWA++fn5SMPe0AsLCigsLLTDknS6ngRCB6jZF+ajf+7Dl12NFVGYjRqhfbE2yXHtjqFUaA9GOJ/BvUrpWziIdlJZ2kXGyHZQ6Pi01TXWs27neiLSXlxKWDTpRnaG9lHvE+SNG8+Iy/+Ncr8Pa+Jopn7neiobLV5etJ//98wW9tQFgXws7SfsyeEA+Sz8pJ6H561lc6VFMDiM44bOolkXgGXiI4xPNOKjHj8H8IoapKzBKyowmjYRrtoKTuLCUW5zk3gYUDSMoUWleKJZiI64CgV4vB68Pj9SGjGuKpFSuru2EDKJuNOXUdKgfOjmXMLVXsx6H0L5Y66y1Pa2CC6UxBfJZkj2GAbmjcErcrpgDo4JqIS/XZVF3v7UKaBZW9RajZjSjiWPSoFGUR2uYnXFOlTvIjhzCg2lI/BNmIQ3q5AVa+p44R+7iVr90NKLRqKExlC2fqZEARu2Z/HMa5upjubiCQ7Hm38SWuZhCYkSEi09IPx4lB+v6QE0WjWhoxXYonzH3GbpOVTPgAByfUH65B5PnhyCjOa52WK2Oyym26YQnO36bv++beJvLdIt7i13NhbHrRaLUre/i+X8Cy3xRnMJMpjBheMpzO13UJFrqegSEf3Irm7q2CUTEgs68+s0VSyVUpimSSQSwTRNwuEwStl6mNfrxev1YhgGvmwfzYRoFI1IKdFC47NsK/iuml28VvYWw88fSf64Us750T2ogiCbqmp59cOdhI2hKOUkmIhYWqkd9mhpQVjlsn2fYtHynVx42iACxSfQWLOEPGpjsdOghYkVu3WPBtOqxYrsBcJAjhuL3XIRxSPde16JaZ3wsrn4oMKRSCVZvc+gKrqVqLcJS0QRCDvmQCm0slAJQdsCgRQxLq1tCzfCIU2dtAGkRiMmjSZJHRDu0JSUKNMHlkIoL0Jlk2UOZFTfaQwsGonE0yJO4mBwyAR+5FdVcaa+HYNYwo04xtYDBw7w7rvvUlZWxpo1awiFQpimSX5+PqWlpRQVFZGfn092drZNwFpjWRZNTU34/X4mTZmMzrZPyFAoNxhdS42JYlX1ev76j3nccu41FI4YghKSbeurKS+PoHQUJZIfjxZOlJXGlFBRr9iwrZkLZ/QnOziQsJGHk3LmRGChcYMkBAqpo5AQ9NEy9DEpjaWzk30EIDWsU2DoAAOKR9CnuD/V4Z18Ufkhu+rXIZVBNGxQe2A/O3ftRkU9rq88kTvbhwu2vIqrN+PEmiVcWSRsM4mhx9pOXFXCJK9kAEOb+9I7MJrRvSfRP2s4foJpwlMPHse8kc3h0ELanHnHjl08/fR8Nm/eTFVVFYFAgHHjxnHfffdRXFxMMBgkOzu7A31CVJtU7FsF0g55dDYBsCOpGj0NbAxt4eNtK5l0/CQC2kBZknDEj/alBGU4VUZiEWxaKKLai+kcaie8KCnR2mwR2abQ9hlZqJho7rjUUt0vPZ24HTjjdyhQIPHjw0dffz5FA46jiSrC1HOgn0njtmXs22oilc/tIZUwk6B1m/aLRLUmXW4BwibwMSMncO6E6fTr1ZcsXYCBj66e+2OewAH27NnD/PnzWbx4MYZhUFxczMyZM5k9ezY5OTmdFlPt5o5on17U1QIihsmmxq28vWERJxw/Dp/wgZQYXo99dI5ISTSJHVIvNBhaYtcOi2Bg2VZibYKMoLWIhV26I7LF9uQREE9VS2jXowk7Fc786wSOaOAjBy/ZgCTbF6FP7h7ysze4UneHIr6FIxkBOhYunLKzOpq4jm2mycqQoih3IEX+YWTrbGQ3lW4+Zgk8HA7z2Wef8frrr7Nu3TqGDRvG9ddfzwUXXICU8hB0z/jycBxVGhmLbVbJ9CPA8plsa9rMh6veY+bY2WgZISBqMK0+RIXPPfNKuJFqdtqoKRQ+mlGymbCl0NEIQkdB+4kXELSvIURMj8RASz/EOIVwhns00XQLiBb/Fm7mvQBMWz1T2tWx3TAgYR/3q2KfJmaV2b+P9RpTm5z3SthqmKGwjWi28cTuVdtkL1BIBYb2IIRtBHXFhi58HsccgVdXV/Paa6+xcOFCotEo48eP56c//SkjR47sokMJE3VZiYEHL0a8WENKFljUgF3ROpbt+YLTRkyjb6GXk04oYNGqRttXrSUC5/SMuL4steL4vgHOnzQQGa6hrnYDfl0D2IY5owULkijhRcl8wM+RbBbtXiQHpDix5/Gc+QRoiEYjaAQerx/LiqK1wuOxz/GORiMoS+H1+ZBSuL3alnqFJcN4s0PkFviINAkaaxQythbctu5GK5Ku21VE3iUELuGQB3VwNu6Oo6GhgbfffpsnnniCPn36cPPNNzNhwgSys7Ndou46i3EseAHwSz95Xj8HaEClKapvSU2T1+SLms28tPQ1vn7WVZx12gDWbN5CZaOfiPDFNvXE868UAW8DIwYrThzjJ1S5g6byLygg1OojUEiUzEV6CgFvF91nT0UiMcUF6cRFHI1GOXDgAE2NjQQLCvEFFDU11YRCIQoLC8nLy6e+rp66ujoKCgspKAjiPHeJRmmLkqFeRp5WRLB3Ft5wAWuX1bDhsz1Iy2ObUpIN/t2CQyZwxwElwZ0nZcS9CFLbhl23znTKRqUEWDGpxBPrqKvcbrW1tSxYsIBnn32WYDDIrFmzeOWVV4BkYu6+44Q1vbMKObPPJF7f+QEHskMoGUkxumiQESp8VbxW9T6NHymun3w1v/3eiXywcisv/nM9leH+CJ2DkI3kyComjDL4xvkTGNA3gFn1EZHVv6VX6EMkEVtHJ5nbAyiy0P4ReIKjsR+749s5quXzNqEh4eDPWM63hvqGempqqlFKURAMYmmLvXt3ARAMBvH5PFTs30coHKKgsIBgMI+4IC9QQmN6IgT7Bcjr24zlrULIRiL+ekwZQqo8W1qXsXLKXSuVJ6HL3GTRGKFqYnFSwilXY4cUWGluQmN/5/QRiImWxiHe7YEDB3jhhRdYsGABRUVFfO9732Pq1KlAei7dXb5eoaEwp4Axx43jza2L7M2ulbZKKup0PWtDG1irNzAqezCzpx7PaROHsGNHJTU1IXxZJQztN4wBJblIIZC6mqi5HtW8HkEERLQFW9CAJXyERBDyRlJUUkrcen7sErcDxx3mFnbQGsuMopUiLzeX3Nw8GhsbEUKQn59PMFhAfX0dzaFm8oNB8oNBuw8S7fYaoQW1+xXN5fkEexWjw9kYEYGho7FdxZbIujuM6JAI3FmsFppNKsSa+j3URBqJmCYejwchDNulE2snWqn+pgVkGz6mFwxjgDIOet0ppdi2bRsPPvggzc3N3H777UybNs2+tmgtbvigrkRHZAyBwCf89Pb1oZ+nH43RnZit1N/SQmMaUdZUrePBhf/HpeNmcna/GeRlBRk/cgAGGiF0zOcKmgYIr0bWvotP7rHrqjuBFK4qELOmaz+Wvz+enFFIeWjZSUc7pJQEgwXk5wdtY6sU5Mk8srOz8Hg8SGmQm5dPlhOrnnYeBYbyUrHZZOneCnLyvURDFo11CmkG0rTvPnSJDl7dVM9P/v4ke7M0TT6BUDq+MyJRMuGA9ATomHtBauidk8eQqQPor7PQStBWZp8dXWT7kIQQKKXYtWsXv//979mwYQPjxo1jzpw5sU0mwajSJZy64wqE497qW9Kbsyafydbl891xtwwwEW5I6u7GCv685GneyX6XU0onMm7ACeR7ClCmIifsZWhOf3xUE6n7lMbtZUg3cEWTenieEgYRcpF5YykcdCpIHxnijiMux8TmThAzmDkuMDAMA8MwXJ+2YUgMafvM48EwcQ1eaoHSBkJ4iTbAgXrTNpgikbFQ5XiYavfy8EMm8DCaT0SIfVnQ6LEVaB3jJAIDLUAp28eXHPJrE77WGo9WaCSG1pimicfvbTOQXwiB0gqBoK6ujueff55XXnmFESNG8Itf/IJhw4a1+ttDR+etA1mebErzj2eYpx9fWBEiItzCZxr3mtoadEhabAjtYePKvTy78u94IgZDzAH8++gLGDGxAOo/R+x6B6kqkG4KIjhxVbbXRQJZhDwDiGaNpX+gr6tvtoy+OPYQL4FlVz7X2jmnLPYsnGOHsNe0Ju7pjL8MNHbBjfhG4Xjc4jkQUtruSoepaW3Zl+jmyT8kAneWuiU0zR675Iwl4gfnKB0P8XPKezu/Uq7fSMcWIggh8Xi9mKatyRuG0cIA5hB+Q0MDL7/8Mh988AGXXHIJL7zwAn6/vxsNZp2Hwwc8SEb2GcY3z/waD77/GOVyvx0jLhzOK2x3WALRJcZCKW2R5c9m0tBxzJh4CoQ207jnTRoqVhHQUVztL2nTkGh8hD39ye13IcUjLwKyOHbdY2kgICsrwEUXXcDZ55yTEK6cbOKOFVKy00IsRXVlFTXV1eTm5ZEXDFJXV09tXR3FRUX07tULr5Q4h9A4XD85Ms7uPzsQIDvb36232KV+cCtBrk7lTzY9t1xcjpU96TNhWzMtyyZyt88Yh1+7di2/+tWvKCgo4He/+x0+n68bXF1dC4nBCX3GcO30K5j77mM0ZDVhpQabkUyjCe5ShvY5jstPvYgAdUTrl9G4YxEB3YR0F6KIqy2xmImwzEP3mkrxiK+Ap4hYBsphuuOeASkhN8dHTo6vXWFZA8rS6EiISHMTedlZ5AV8KNOHZfkpLMild0kwVowj9hs3O9Q1v7mdCdH9ps4uMLLZR+hZrTrCnfOXUj6NBRgogR3xo+LVqUAgpUQplUTklZWVPProo6xfv54LLriAK6+80uXyRyy0vWFpJDnkMLnkRCqnXM68j5+jwbBwH7GW8WqpMQjn/1qSrX0UYWDWbqB28+v4rXK8OozlELg2EvyQApNcZNFUCkf9G/hKAC+uP+YInq4vC4mE1pprui1iFMJO7pTgaEgJYnzc3hLfjm3O5gS4HbFuMid8T6KwRAI3jhnVkom7NUK3ubOMTYQSscJzMSJvampiyZIl/PGPf2TQoEH8/Oc/Z8iQIe0k3B8ZEEkPT1LkKeDcgafTFGnmqTUvY8YmwCFuh8GKhNDFwcX9OXPcVKRZjXXgY0TtBoQwsXACDhKCDGJJKf6i0WSNugERGA/kOp0m/z2G0UL1IylaNQkiqY1GJZw0qrVGKJCWRlsKpTSGTNCsE2IN3PVKXGxPrBTVHY+lSwjcMQ+1JG5IzsVuox+ISQGxMzgSRO49e/bw5JNPcuWVV/KVr3zFrq7RQ2Hgob+vL6f1nsD7O5awq26P6/hXiYvBaa8l/UUJJ+cdj1W1gtotb+Cnzj2Q0IYEJUFYKDyIrMH4+81E5E0Assn4vJNRXl7Oju27iEQtdOLcJHk34tBa4/F4KCnpTTC/gGjExO/34/V60FpjGAaBQACtNXV1DVRVVlFVWYHWyuXQbcsEmiFDBjKgf39kFzOrbolF1yJZr5bp7i0RAkI6yqaKnZzSazRKaPc3UkqGDRvGE088gdfrTThtoudCYjCmaAw/mHE7b2x6kw/W/IuINNEyJaNIa44vHsq/n3Y5uaFawpXvIKNb07hXFFpqLHIQ+WMIjvwKFJ8POov4CaMZONi6dSsvvPga+yvrsfPM7AQee6rSry2fz8eZM85k6rSpBLJzyM7KdttmZ2eRk2OnEIdCYZZ+tJz33n8frds/i8Q+SSXKV796Kf379e/yR9XlBG77cqFT1loNNdFmnlr7EcPP6EeJEcQjNF4gjMAyDDAMBJpcIchD40P0YL6kycJgon8EE0pHcseY/2TN/jU8V/YSG/Zvpd4fQqMZUzCGaydcwYm+obD/TRo3v4IfEyUNtPYSFVlEKEL5huEfdBYFg2fg8R8HBICDDxj6stHdnhDLsrBUTKp0o8kkWrWyomIG4qb6EFX7q3G09JZDtDPO6htDWNouCdV+0UTlJnPomIccktUC5/3BzEiXE3hnids9SVMb7A3Xcec7f8NrCQzLTqeztEDFrO+D8oq4/6wryELgpft9iN2H+OOSaLKFj5P6nsjo2WPYUr2ZVz98iw1bN3F8Xn9OyB+NaqymqmI3yGKUDtAsC7B0EBkYRK9Bp1I8aDJ4+oBwssTiQRo9cYq626ZiG8Rw1RxblTTcwwZbtlcIaWGpMJFIM8TKGyeb0uJQKgqYdnHGdrwWWsRSR1Mkra6SUbuWwLV9UHqq26t9xCZWGdRKC+HDnRgVd6CT4+/Zonk6xOOYBbkEGFdUyriLR6HRWEh8WtCsBaZ3FP6R95BXUEL/gn4YsgB0APCC8OBkiOlEDuBMXQ8k8u5EQUEBo0YNp39tU8xPrdomKA0eQzK4fx+Kg7nxD117uEjyPg4a2JemppH2RqU1QicfFhnvN5ZHrhRFhYWtXv5QJNUuIHA7nKP1UyNaN7C1KC0kBGCAsuIxQEK4mWgeZT8ID4np9j0T6Syn9kw6ZSLs+0RAdk4JQ4bPTDBmOEFCyTp7iz579hR1G0pLSyktLXXnxzknotXjmUnwQDrQjgcp2cyhgREjhyK4MP7bVsbhnLmQ2CAhqiHp+geLLuLg9i7lBKhIko1sZoz2/SaYBniseAqp1Pb3Ovbea9lRcaah8CiBJ1YW1IhVBrWJAGQ78epHOlIfWvIDTfnW9bWlRk8k+3XSqIQZtAXHeC6S3rbaNslg1or/2t52OzbxrbnkuvKxdQmBO0TXWqVtj4rvjl4r/t7QdoaXV4HPAqkg4rFTSw3thAXETwSRscKkHtJPztGPhBWZdNROBocDPdGo2y1usnTVbwwFWdLDCb0GcmKwP4OHDGP1nk0sXLmMPgW9uHjaLJpDtayPVvH2xx/GmVVPm9FuR6LflgyRZ9Amur0mmxbQ5IG8qKBI+BgZKMKobuTzzCQFSAAAIABJREFUyuUs2rKGPgP6c+nJ57DgzVfY23SA6jxB1CeJCPAogaGkbaTIgLQ8JLMBfik4kpKa2kK3E7jQkGUCSlOumnhj40oGNXvIG9SHnJIiZpw0iXcWLqDCaiCU40ULC2lq/E5WWoZDJQX3uPpiD1hcRzOcOgTAER1ZeViqqmqlUdKOvzK9Ein87Kwop9EvWL9tM1d95QqaiNLQGOWBxfOTf+vEsh/DhL59+3YWLlxIaWkpp59+eoa4jxAsWbKEpUuXMmXKFKZMmZKU+XikoNsI3EkDNTT4tMTUGlNbZHsCjDl+NG+tWk6z16BsyzrWr1tPnvIw+LghSRKnEgrZSpmnYwVaa5RSRKPRHh+ie7RBCOFWezlSN91upR4BFGXn8c1pF5BrSfJMg16Wl4EDBuIzPBgImnyCA3kejIJcxo09yebYzjE7Gbi15CzL6jF637ECZ/OF7lWZdMKrs0WePIdC4RIn9kLEMshkzAdu5zYLpWluaKRq115+esGNNNLE7sZaHnnnJbzZASaNKGX60FMIRyOs2LiSx955Dp0Vzz6zpQBHz1EoYR/ip1PirI+M003b25AO3sniLB5nMWXw5SNRmmr9GOGuwaEEvXSvDi4EIRQLtpbx7sYy16JuZhkIony4/jOWbPgcQ4HWAtNn2KVkY2VlOx/y+mXiy99iMsggFd3vJgOiQmN5Ej6IxWhEjNgHEuKxfgk5zkecmJ46ngxRZ3Bk47CdTZbIjd16izFo4gcjtDxT60hChqAz6Fn40lZsUnHBJFE8Q0QZZNBV6FpqcgxiHYw8c4hc6vQDabcSTAYZfEk40qv4OjgkAteAKTRS6/jhgi46T+RGrL6blWZUQjtH9qSjepXwauuzDDI4tnDIHFxJQRaQZToF5uIurs4Rl02MIpYamgihwWNJ/CZ409RxkW4VE5n0acvPkpE+cCSzMWRw9OCgjWz2ITvgR9CbHJcTO8a0rs4Ck4BXSPIwYmmkCeVt0hBqW6KTwi7X09axrbqVEroZZNCTcNAErrG5tF9Ab8PDpF6DWLl/J6ZhW8Q7oz+rVkIwnT68QjAi2If/nvFV7NqVscAPp51zAFwn6qTbByOm3JPWCXW5MgaADHo+Ds1NpkBI6OXL4vunf4Utug6P8GPgbZM87HpjFgKBgdGKXp1QvQUIIumLxIj9XsWSoWWsiLBDlgdr9IhLAYmiuciEh2bQo3HQBG64/7M7KUJSJAqA2GEI2j73ScQ2AfcQQqCyuoZnnnmGb1x1FQUFwTZTQhNpK65NOxxcuOK209A0TTd9T0qZRKA2EccK0woR093jsNMyFVJKLMtiw4Z1PP/880w9YzpnnX0Wh5oVWFtby+7du+16YBlk0FkcRAHNLnOTyaSXxhA6Rng66XsD8KLxopHKwoN9sEdrr3SmMsuyWLRoERPGj+dAdTUPPvggs2bN4vPPP+eiiy4iHA7T3NzMs88+yxVXXEFZWRljxozhscceY9asC5gx4yy0ayTQrFr9GRdfchFvv/02UnowTcUHHyzihhtu5N577+Xss88CDcqCdB7ARYsWccEFF9i9tZHxtWbNGn7xi1/Q0NBwaJOdQbfgiM/WOwhBsluiStoTabUSMQKTBzWpUkqGDh3KN7/5TT777DPmz5/PX//6VzweWyBRSrn9Oql8vXv35vrrr+fXv/41wWCQ7du3O6OlsaGZyooqzvv/2Tvz+Lqqcv1/19r7TDmZ56Rpk05p6VwKpbSU0VJARETBiuBlkIsKevU64eVyweF3/XBRryJcVEAFRRzQMiNVQSxCC23pXNomTYe0mefkjHuv9ftj73NykiYd6JSW8/RzkvScPay9z37Wete73vd5Fy1i8+bNXHDBBXz60zezdu06LrzwA/z2t79Da82+hn3851138oEPfIBwOEwoFGLp0qXcfPPNLF++nLlz5/Kd73wHrTWhUIjf/va3nH322axYsWJA+//617+yaNEitm/fPvIfqvcRTsWp2DELG0tk2Agh9hv1pAFa22htv6ebKoRg1KhRXHzxxVxxxRXMmTOHwsJChBBEo1F27drF5s2baWlpAUimW8atOJFoiPb2VjIy/IDTGWRkZDB16lRisRiVlZX87Gc/4z//87+YPHkyjz76KB+8/IPU7qjh85//PNu2beOmm27ikksuwe/3c+GFF/Ltb3+badOm8cQTT3DrrbdiWRbLli3j3nvv5aqrruKWW27hl7/8JQBvvvkmP//5z/nEJz7B5z73uUMezYUQI1o5JI3DwHHs049LLPpgeWNnjp5IMT1MKNdTDsmR+dZbbwWc+fe+fQ3ceeddSClpa2uhvLwcrTWrV68m4A9QXFzMnXfeSXFxKQCRSISMjAx+9rOfYRgGPp+PCRMmsHPnbgIBP2PHVgKwaVMrdXW13HXXXezZs4fc3Fzq6+sZM2YMZWVlBINBJk6cCMA777zDz3/+c2688UY++9nPcsUVV7Bnzx4A5s+fzwMPPMDGjRsZM2YM4XCYrKysA17yqVCP7VTEoX4v+zlqE2KZx8FgOC5DwtF9QJ286t5QH3v37uX222/nS1/6EkIITNNk3LhxPPHEEzz2y1/y2c/cluxEZs+ezdtvv82sWbM444wzkkfbsWMH//3f/z3IkhBoNbDNWms6Ojp45513aGtrY/HixXi93v2uT2tNT08P9fX1ZGZm4vF4qK6u5qKLLnKOnBLiaJrmiJT5SePoYkgr9Tgp4h4XgqcmxGvtFFnTQjkVdziwc0NrPdDEl2Api1Vvr+GOO+7g5ptv5lOf+hQf+tCHUEphmk4JH2mIZDXSBGbMmME3v/lNvvCFL9DR0UEoFGLjxo3s3bt3kPmrEXJgcbmCggKqqyfy6t//RmXVaJYu/VNy5PV6vUgpWbVqFWvWrGH+/Pl861vf4uGHH+YnP/kJs2bN4sknn9zviz7WQgFpjHAch6/euOeee+459qfphxCavkiI9RvXM2PmDHw+L7Ydx5ASpWyUwFVtcepsKdeTrkV//Fpbezt/+dtfuObjH2fKlGmUlZbR1NLChAkT8HhNzp43z1G91DbZ2VlMnz4d0zSZN28eXq+X7OxswuEwAI8//jjf+MY3KC8vH9DOaDQKwMKFCwEoLCzk0ksvxTQ97K3fx1e/+lXKy8sRQjB69GjOPPNM7r//fjweD2eccQaVlZWcdtpprFy5km984xssXryYSCSCEIJp06ZhGAZer5cpU6bg8XgOeM86OjrYvn07paWlVFZWHuVvJI33it27d7N3717GjBlDRUXFiW7OkBD6OE/ubGz2djbxoyfvIzDah9cL5cESJoyayMSqyRj4yNBZ+PAjhERhuEtrBpqEZJNGaYUpDEhoYkmJQiC1dENQncJuEkfedqjsn1gsRmdnJ0VFRfuNpMMFuAx3uw5nJD7c4Jna2lpefPFFZs2alexw0jjxWL58OStXruScc85h3rx5J7o5Q+K4CT70w0DiwSM95OZ66VSNvNm9jb82/4X4W3HsaAgj5sFjB8k08yjNLWXihGqmjK8my5tFRiSf3KxclND48GFIj+u0s1HCdkq2IpCYCLQTzCKdMkjOXJlkOKrXa1JcXMjAydCB0wCHe/9wSJs2y9M4XjjuBBdAQJuUqVFcddrlFBRkEcFCoRFI4kTopJ2IirCj+1027VjLW43L+NvuZ7FtBSHo6elDa02mL4dibznV48YxaeJUsqwygv4MsgOZZHmz8GoPMSWRQiKFQAiJRCCHCHHtx4AScwdBSmxdmrRpjEAce002d2RL/E5QwsDApzPJoNBNIIFEmmYpo0DC9Nw5fPD0TxAjhoVFhBAxQkQIEVZd7AntYndfM919vTyz7Wma9uwi1BvCtjQe7ac4UEhRbil52flk+jLJ8xYyZcJUSrIK8ckMPHgxMDExMfA4bdMSpTVK2kik0+24ElP7dwqDuoihagIPvh/0r5Cku4Q0jjVOgImekFuWCD0oCDWxLu4++Yb7p8ftArKTGyq01MzIFMgMCYUaPdZGn62QKFc7WiWTWiwdpyfWR6fdSVe0k39s/Qeb9qyhtbONSCxMT7gX24gjTIHhNTCkJiMrwKSJ1cyaMJt8UeR0SPgIkEsGBTgTAYEHkyA+BAYID06grnudGoQeSOVkJWCcTiO1TxiO8CcyyCWdbHNy44QQ/KAYJgjAWTp0TPnE30o66SMSM0ktmWJimwg8KPzeXErEGHQAzspbiJr0CZRUKGzCKkJYRIirKNF4Ly1tzWze/i671mzlhdUv06F6icYiRKJhLKnxBiQFxYWUl5dRVTGGfH8u+b5iShhFBtl4MZBIDOElIDLBba/jGzAQmANkK4Q7ridy7NEaW9lIKR1yCeuE5aanyX1yY2QSPAWDxZMHEsMx+UVylBHJTwYcQ/QHkySL90mvk9OOTQ4+cnSBs5tfMb5McmbJRQhpEZd9xHUcJSCm4/REetjVVEdbZxM9vT20ru/gncb1NHY20GN3g6Hx+wOUlpZTVlpGVmYQvyfA6LxyqoKV+MgmQAAfAQIEMTBchyCudwDWNb7NizV/4oMLP8JEJqG0jZ2OZEvjPWDEExyGV0hP5IUfaIwZMEtW2rGb3aorHm077wvh6rErEBqhpVPyRQkM24vfdEZhBBT5ixk3eiyM0iAMbKmxsIjKKGHdRygWoy/STldfMy1djWyqqeXdxk38I/QGfboX2xfBH/Dj8/sIBjLJzy5gbMU4KkpGk+8tIIifrcZaXu58njdee43LJ17JLGMuti901O7nyY9DcHakAYw0gqeG7w0y04cieYLah2VGKg29fbBjl5P7GfDB6GIad+xl+WNPcvU3vw4yAB5Jfc0OXvnt77nunjucsdVSdG7dwcZf/oryWbMYd+kHMPKyMAjg0wGyRQ7ap9C+CnSOQpdrLjvNRBFDYaG0ImZFCNsRuq1O6trr2Lx9HZteXccq9Sa9hIn6uujNbKcv0EG3auAXmx+ipG8Zs7LOfu/39ZRD4kE5TgHdJzFOKMGHjdEdBodX62Tglko5Qg4oRf2O7Tz+b7cxY85MujbUMXPqaTTX7sK3r4Gatjb6xo5h5u03oa02rMbdhDZvYPvGTWRaAtXQTPeGtXTvqsP0wpgrPwhmINl4gYHQru6MAMN9zzEbQHuyyfVAGaOZlDmFi0d/EKWdumu2iNPc18zSbU/wTP0viQibbLucilgVwT7fIV/5oeLkHgdPzlYfbxxzgh+xfvSgpzBhbtvuR8NfgEz5qZFOjioogRk3GZNTwlkLLmJFy9OUn7eQ5uZ25n/rZlb9/mkuOf9seuI2m5avpW/bVt54+UUuvmIJWBbh+t0EI3Eqrv4o5ARBBFwl2RQvt3DCbPubLdDsrwEHBlKATLk1GfEY1eZsvnn+LCqzKsmiiKYdPbz60iuHeeMOjmNBkVSvu1LKzQ8Y+ls6kIbe4OXVw9HbS6MfI8tEHwrDfJ+Hl4PlZnqhiQtFYXEx82fO5Y2HH6P6tGr+dO/3CObl8+i9/4sRF2y75wec9tErmT5hEuQWU51XzP+79pNMHjeWSEc7Z8w5k388/xTj58yl/Nwi169/4GYf6rp3SW4Bl+UuwtYWEj9oSZcKoVT8sK74eMOyLGzbxudzLI1IJEJjYyMAVVVV+22vtWbt2rXs2bOHRYsWEQgEkp8lOgbbtlm3bh29vb1UV1cTDoeZMGFCkvQJsvf09NDc3EwwGKSkpCTdCaRg5BP8qEJgCoMQilof2JPGMPmm6xlz3jzq7RCzLC+2VgSDWYydNY89HU3sLcllUtU4skqKmXfrv/D3e+/HLwS9u/Yw6tpPooXN0b2NAokPIRyiCCFBGIzUkk4JIr788svcd999dHd3s2vXLvr6+gbUz77lllt46KGHBuy7du1aHnzwQR577DFmz57NHXfcgWmaPPXUU2zevJlPfepTbNq0Cb/fT3t7O9u2beMLX/gCmZmZ2LbN0qVLaWlpYfHixbzzzjuMGTMGv9/PihUr8Pl8XHDBBSfilowovK8ILgSIuKZzbyNvvfAM4/NKuP/uu7n8vAvZ/fc1LPjX6wl7wZudhc73o9qiSCExpKRn5x7+9PVvklNWhB8FTe2Qm+OuaR898mk3gl646wMJs9442kLzRwmJAJxLLrmEzMxM3nzzTSZOnMiKFSvYs2cPhmEwefJk5syZw/Lly/nd736XHGE3b95MPB4nHA7z9NNPk5ubyyc/+Una29tpbW0lEong8XiYPHkys2fP5tlnn+XXv/41n/nMZwBoaGhg3759gGMRJMQyW1paBlgE72e8bwjer6GOI6AYt8iZOJYlX/wcDY3NrHvoCd669z5Ulp/pZ83lyhnTCGhNZOU7/DWmuXPZ07Q3NLD1z3+lpHIsl13yAfDYQBxwItiOFpzVAWOAEu1IrpVu2zbRaJS5c+cyb948YrEYkyZNYs2aNUgpueiii8jKykIpRWlpaXJO/fTTT7Nlyxa+9rWvIaUkKyuLzMxMlFI8+OCDPPjgg8lzJPYJBoPU19fzzW9+E6UUlmUNyPBLRP2lFXAcvG8InoQGQ2mCcYu+xmb+9syLVM09k6/88wV0Rwf73l7NqvXraGtuY/PaDSy5+z/487K/8J1FVzN70iSmTZ/MM4/+hpnXfIhlv/kj//qj/3X4fZQghvh7BHMbgNdff517772XcDiM1+ulo6MjObILIfjxj3/MFVdcwVlnncV9993HggULuOuuu8jJycHn89HY2MiPf/xjzjrrLL761a/yuc99jltuuYWf/OQn1NXV8d3vfhfbdvT7PB4Ppmli2za2bfPDH/6QH/7wh9i2E/lnmiZTp07ljjvuOApXdnKvM8D7guADl8tsKwZeg7P/53vMOGMOvtwgaMHOrdt44tv3MmfGFD785X9H5RVx3g03I7TNx6+4DKltdm19l2VLl3LJ/d/i1T8t5VNfvs29g8dmfpxY6VXi4KWgTmQSywUXXMCCBQtYtmwZ69evp6qqis2bN3PhhRfS19fH8uXLsSyLRYsWcc455/Diiy9y/vnnU1tbS3t7O+FwmMcee4zMzMzkMX/9619z5513smjRItavX4/P56Onp4eioiKqq6vZsmULU6dOpampia6uLtasWUNlZSVz5szhpZdeorOz8yhc2clL7AROeYJrnfC2KoeGGX5K586gzK1kqqSTNlI1ZTp3PvErt16SRCRqKQgJmCCgctIsbvn6DLSQXD/ldOcEx9Bjm9CVl1ojlePQGjq2Q7sLcQeh93BxIUchXiTVXG5paeH3v/89r776KkopotEoV1xxBQCBQIC+vj4mTpzI4sWLefXVV8nKyuKBBx7gq1/9KgB79+5l69atXH/99ZSXl/P4448zfvx4duzYwY9+9CMA2tra2L17N9OmTRugiSeEYNeuXUkP/rHEySC5NTJds0cRiS+gvwIpCGGAFAhp9Ae6CpxKC8IJSe1Xgk1d3xYgjQGS0McCbtAsSgjQ0s1IS7SBpOWY2M5Zc5ccEkuHm5oe4ZTVUbFtY/Xq1ezYsYPt27fz5ptv8tZbb7Fr1y601oTDYX7wgx/whz/8gS9/+cuUl5czY8YMrrnmGv785z9z++23I4Tg+eefp7W1lXvvvZclS5YQi8V47rnnWLJkSZLMCSnsZPNT3kt9//2OU57g+0MO+n3wm3C8b5IY9NLCxvKFsHwhbKJYIk6UCHFiWMSxiKOx6A//SXYRDGDusPmoR97m1tZW6urqyMrKYvHixfzxj3/Esizq6+uT8+GlS5fS2NjIE088QSAQoKGhAaUUCxcu5MEHH2TSpEn86Ec/oqCggKuvvpq7776bc889l5KSEm677Tb+4z/+gy996UvU1dUB8OSTT1JRUcH48eO55pprmDt3LqZp8oUvfIHe3t60o433gYl+MIz0Hk6j6PN0sSVjPXutOuobaynLHUWxv4wAXvz48BPAT6abiupF4ijXGG5aqkhmrx/A6jhCkpeXl/Ptb3+bSCRCTU0NkUiElpYW/v73v1NUVMQNN9xAUVER1157LXV1dfz5z3/Gtm2uuuoqtNZMnTqVKVNOo7u7i1gszubNWxg3bhxvv/12UhBzzpw5rFq1iubmZqqqqrj//vuZPHlyUr46cW0rVqygp6fnyC7oFMFxF10ERyX0ySef5JprrqGwsPAoHnloEaaTETrxTyverdnMz595mM7cNgwvhON9xHSIuBlD+zQenwdDGpiGh1Flo5g1eSajMyvJIA8vfgJkkYEXLyYmXgwCyU5AJqvFWQg0hmvqayfe1hHmEAJEokVAsrsYuuX9k/qEVry7zwifrx4uXn/9dVauXMmCBQvSoovHFoeegnLyIBHDL/GZASqzxnHZlMtZMP8cl2YKRYwoFhZxbFfWyiJOL13UhrZTt3cFbR2t9Ia66entoaunl2g0TjQcR8QFQSNIRVEFVaWjGVUwmpLsMjJ8ueRlFpDpyyZgZGAKr9sRkJK7nrqAJ5IuPkj4A5J5fqmXMvjPNI4DTgGCn4rkHpikAgaG8uG1MvDr4IDtgoAWGo2VHF8VmuqMWaiJMRQ2Npo4MeLYxLGI0ksvXeyL7aWhYw8dPS1s7l3Ha9teoa21nc6ObrQNPo+PgNdPQXYBZYUV5AeLKPTkk5+TT3nBaEqC5Zjag0d4cMKApTstMF2fvtsBDBrB5UFy+I9VFugA+anBdusp2vOc5AQfTO5TwzzfDxonjz3pdRv4sdACITxJ49gATHwIh/703yeB0o75j4ApXo0o0egSiyhRIkSw6CNGjDDd9NJDt+6lx+6hs6eV7TtqeKv2dXr7elFxC2GBx/ST4Q0SMAMERIAMbz6jysYyZdxplGcX4/cE8EgvXnwEyMDEiauXSZoPDu0ZgmlHiYyn2hThUHCSE/wUJbSLxOOeuMpE4sZwD/jQ9HAsgARSU1P73/XgJUAW/XP/xFxaCY0ybXSeTWxOlPCcMDY2ceKEibhKt2G6rWaauvawu3436/a8wuu7nsfSGtuysW2NsAQ+2yQ/q4Cy4tGU5o+morCS0uxSsr0BMkwffjMTSQBTOP4CQ7vGvnKKWAip3fVLgdLaLXChXZ0+3FL0Iql7n4phxSPF/kLZQ0UTHggjueM4eQl+8kcRjkj0u8+cx15qHLVb4cEnAmSSm5J861SasVFoU6MLFHaBhZqpnOU8wljutCBEL/tCe9m+t4aGjr3UxN5hw47Xae/qpKOzk2g0hqENfNqkJLOMyRVTKSsqJ9uXQ9CbRWYgh6KsEgq8hRja51gtuDEJiXa7hGdAWer+bs8heUpByZTwoMFdwvHwPB8PxdoRT3CbYXK/08Q+xnCJkXqf9SArQRjudCBRSW6I/VNwWsaZXDQxcSztSGYJUEKh3HrxWmgsoYjpOL1WmK6+dkKxHuIqwobdK9hUu4Vt9TvojnYTN2PEieL1GmTn5pARDODzeTEMk4L8PKZWTKcqaxwevHiFFx9ZeAhgIPEJDx48yWVEiQcx6EkTQIwQvboHKXxkkYWJh4Sq78mAEU9wAw7cnZ4sd/pkxqB7nAwLTboC30MEvBBunjtIDKQwEzY2XgQZQpDrgYrc/qJ+ukhzyQTHZrDdUlW2jhO2+uiIdNDY1cCu5h00tO6hvbGJZ1c9Q0iFsWWcOHFs4ajT5ucWUD2hmoryCvIz8smUOWTJHLJFDgECePFhYGJgEiXM77c+TkO8nmumXMcEYwYZ5Li+BAaEyY5EjHiCpzHycGzMyoN3EgLcinMmZqL2tBBkevIo8lQwIWs6Cyo0mjiamKs0r7FRRLEJ6T7ae5vYUreF7Tu3s71uF71qI53RNjp62+mL9eHxSPw+H5mBbMpKyigszmVzbDUbW9azoX49Hxn/Sa6sXkIBxcfgHhx9nBwET4/SaQAH6wTcTAMEXgROdFvCgeZHkyPyKM0qZ8qM2TAj8VliadEipPto7W2itbuR3kg3ITtMfWgnsa440rbpjDXxpzd/Q8/WEEvOuME52whPODk5CJ5Gvwc9jfcyIXDn2kbKPDuxWpBwKjoLeblZBUzImoLWCqUtWuL7iG8J0bMrzpyi+Vy66CNMLpxOtpnNjtraI7uO49AxpAl+pDjU6dcRfpcnqjbZ8cSxyGkf/lj7B9s6HnlnBUELAyEMYr2Ci0o/yien3UamkY1XBDAwnK1S5t4jtYbbiCH4SRlFfpzIDe+PEXzk0EMk19WrCsaidCVKJLRzRX8NudQ9RiC54STk1IjB4ThOR66TNY0hkAx8SYTSC+HqCYxMEh8II2YEHxYHI8eJuudHeN7U6KmjaZKezBhZxYj6M+f6MwNOPow4gicCWxKaHMbJeFcPgsGhkWk4GCkd3YHoPDgVQCmVXgc/XCTEiAdGUY8kvNf58P4ljEbKQ53GgXG48ekjBSOG4AlngAFga4ywjW0LtBo6eQAS0dCDek8tcWqFDYODfX5I27w3gmsS4gcAAiETOdQaYYIZkE4CRUpNrjTSOBKcMIIP+fBqhzrRhk7W/udvyG3UBGKeIU0gWzgv7yCupR53qP2EEEkZYuV+Lt2y4UNtM0TLnQ4g2eSBoYpymM7IvTxnW6HQSJRhYypJxJBEZ+cy/osXkFuSv991oE89b+jg4oKpcBYMNFIO+gJcJdyR0u8da/HNo4ETRvD9yKdSXBpK4In5MCzbkS8+gFEkxPBG/HD3XbodSWJPmTjxENsMB5kyEg/Y+UDTMe2O4MIRacCWGMrAFhrblXceWhVZM4KneYeFVHljrTUPP/ww77zzDg888ABSOvJQUoBtayylWfbyy7z19kquvfZaxo+b4NZqw8mDGQG8GsnkhhFkoh8uhMbp4U/Qgz9sKaEDJB8Mr2OW+Pzkmt8dLn7xi19w22234ff7mT17NqNHj2blypWEw2EWLlzIjBkzuOWWW1i5ciW33357suywbdt8+9vfRkoDwzC5/fbb+N737jvBV3NyYMQTvN9M7h+pE4UM3iu7E+RMjJZKDDQ7B4wbAAAgAElEQVTRwTH/lVYDTG4N2NLZXol+87w/uwoMBHbi+IOILgFzgImu8VlgSYl9qtngQ0BrzbXXXsvZZ5/NQw89xKWXXsr3vvc9cnNzeffdd3nllVdoampCa83nPvc5HnjgAWKxGJZl4fV6k9F8idpjI330HAk44QRPkkAkswWTUMIkZBp4lSKgFI2BKFJ4iHoNDAuyIhCwJVrYKMOm1yuJ2TG0V2FqTYblQymNPyawpaTXJ93jarS2MRRkRgS2spE+QVyCbUhChnKmCXgIhkwEFmFflN4Z+cz+wEJann6LppZmopOKUF6TODYZ4RjBhl7ijX2ECzzEJ+UT8yjQXgwhUX1RRF073l6NlBa548upXDiP+gdfQgiF1HbSJ3CqIkHK1LDbxx57jO9///ucfvrpnHvuuYDTge/cuZO1a9fS1NREbW0tV199Nb/73e/YsGED3//+9weUOUpjeJxwgqdCD1pklFrgs2xiRoyd+VBwyenkTCjGsi066/ZR+/cNTG7IwPJEacy26KkKMu3SDyBNk66GVmqfXUlZjx9bayLlfnKvmgZeE6EEsk/QWbuPPW9uoTjuRWhFd7lB6eIZZFQVEo6EaX+zBv9rnYSFzb6sKHZeDGusn5qSPkL5Jpd//ar+iXpY0ftGHe/+9HkyqkqZ8dmPQACIAhI629vY/vd3yBdZhEK99NQ3gR9saYMwnDn5+whKKZRS3HTTTeTk5PDkk09iGCkiUh4PGzduJBqNEo/HefLJJxFC4Pf7D4/cw2kxvU8wIgg+lOdbAMKwiUhF1yg/C75zI13dHfzlqWfxKPjwjZ+gesFMau56inhhNvNvuwJZHqR+9TY2/PVNFl57JdMumEP337az/vFXyfJ5qDhjEjvf3oQhJbLAz5Szz8FzzQJ6nltLT2eY0z57AQ07a3n1iaVMnTObcz/5YXpKd7HtH6uYefVifFNyCRZmUX3pQjatWM2+2l289dzfOGfhhWxe8RYzJ59BRNhIbRNq76R+zQb6ujrp6gsxe/FF+D0+yseOpamnhdC+hpQboA6+dHcKIPE9a60xDEduKVEVNPWVl5fH7Nmz6e7u5t1336W6upqamhqWLFlCdXX18Cc4ImGQoZTZTv4e4YQTfPA8KuFJ1lpjC+gp8JB1bjXNXa28/t+PMLbLQ9yAf/b9ntOv/RDhyhwio/yokgziz22k6U+vUiR9bHvoBeZ86UrsWUV0v2gRIE6spZu9j/yFDMNDn1ezaWYxl992I8YZk+let45grIM1y15nzE4Jbbupt1aRW1BOvLGdLY88gzWzkPOuWkz9C2/gEZYzEfeY2DmSsBVHCgNTmI7nX0tM00N3toeIJbC8ml6PTdy00VIRNxw5JEM4SqfyFFwKGwqtra3s3Lkz2ZE/9thjfPe73+WMM87Atm20VkyeXE1BQQFNTU34fD7OO+885s6dy4QJE8jLyxv+4EfEx1OD0INxwgk+HLRWoBVBbwbFp43Bausku1fgiwXIi0NoXTdrtj6BURJk/Ny50NbH7tc2kBvy4LMFsXgfW//wGpWfOI+iOZPp3bkPbYJWEhMfQdtC+wx0JEZ8dwuxSJzcvEIWXf9x2nLfoX71FrY9+xr+mIeMojymfOR8IiVeMgqymHzWHJqbG7BNTZ+pwJBI4UVYBh7tZB1LAdgGCpnUCDe1iVAGAoWtHCUzZRsYGFjK4FR8wBLQWqGxaWpuJKM2ACiEENxwww185StfYfXq1SxbtoxINEJObi65ufksWrQIy7IA+M1vfsMLL7zA3XffjdZ6xKTPjuQwVRjJBEehhCbuk4hMk8ZVW8mLewloAz8CaWuIaywFWUV5aMtGdYbx2CZxDMJaE2/rBEMgNNhKkVNRzAd+eDsoE4J+yBP01DSy/ulXwGeyc+kqxiw+g9IbzqH8ugWENzVS++Ay+nL9RCeX4ssysIMm4TG59Nld5GBSEMhCa01cWSRFCqUGUzgaxSoxNgik44d3lvgwHMHBRPDqKe4R1sBVH7mKyz/4IXJycnjuueeoqXEEE371q1/xxS9+kUsvvZT588+mo72dzZu3cMEFFwxIk9Va89hjj3HjjTdy9913H/02HtAzfyBx5ZGLEUvwBGzLJtTdS3FBMY1aooQkbIBtSnz5AeIBTU9bN/m5WXiDGaieXidv19SITBOkQEoTvyUIh0PsWL0awwwQKC2iIqMCj89LWV4uvS2d7H5hJZtf/CeyMMjoc2cwbc5Mxt6wmG0PPMXm/3qU6Kwizvvkh2l/aSW9nZ0YlRUEvD60rbCjcWcN3FZopYnHbASCrIwg8fZuUE6NbyfsViZ7fqU18hStzpIKKYRrXjsBLldddRWW5cy/r7vuOpYsWeI42YRDpDlz5nDdddcPG434XjFUok+qce6czxVz0hohXNVXlKu+Kt1CE2mCHxk0GEpjhuPEQhFKK8qpMRS5cUVUakLluUy9+RI2PP8Xamq2M/+CeWRXjaK56V38tiI7M5eqC86jOx6jrbmFfGkQa+2h4Rf/JDdQxF4zyoYzc7jsX66h8soF+MZU0tnRwKof/I68uijdu97g1dUbOOujl2FE4wSzfQTGj8ZXkEPx+bOp+dWz7F25mUmTqimdMJpFl15C/dKVCAwM7QEt8AX8FOZlsm9rHUIJhDYRSiK1RmgFSmAgnbX2oeNiT0kIITAMJ2glgX6TO0E/6QivHmUyD7edo9VqYes4Nha9qpOGznra2lvpCnfR2t5OddFk5k0+B78RPGkiC0cuwYWjnulrixH64xYy757OOQ/fTk/DPnSWj7ziYiI72/FtaEDWt9AcyKX0yxeQ1TePjq5OiopLifX20fL461SsacFTXoAZk+TFA+RaEr/pobdFIA0fcX+Amqf/zNSbL+GCH3+enrYeMDVZ/kwib+6gO8Omb0IRi+ecTcdv3mbthrcpP3MihWNLyJ04ioa63XjKMumuDjC+8mzeeu0Vau/fwWlXnEf11NMpzC1l0z9X0fqPDUTZgCKOOboIIcHQgLDfB2N4/zi5f51SNxx5mEDzfqIOR1mFThZgjBMn6v6OJf9FidFJFzUt29i0dSMt7c1YtkUsFiUejSMshRcfXiNIeekYpo+dzZj8KvLKyhjnmUSxUYBfZmJI30kzesNIJrgT8IVUCm9tJ7u/9msqrjmX3KIK6BZE1jdQ96dXyA6ZxKIWDb9bid7aSfkl8wlklhJZ2Ujds39F7erEZ/nQEQNzQ4RcnYHUioAl8TYb8HoLsqUX65+72LF3KeOuuYTcwhyIxQivrWPnb14lq7yYyoXn0F3fzqZlb5BbVcL0uWdgE2f30ysYVVqG/8Ix+ObPoePVLYgZYzjro+dTbAYJ/3E9MtfHlHPOYEt3nPj63eTMnICsKoe4RivljlRyv0CfUxepZHff2S+kP/WfwiKOxkajiRElTJgYESzC9NJOm9VMW6iTxo4WGpuaaGxppLW1FWXZeEwPXtNHQPvIMrKpLJ3IwtM+QEVRBXlZBXgNHz4M/HhdTXSvK87oVFlHn7iQ6CPFiCW4EBIDjYnEtEHv7qHmR0+jyEQZAlNBhqVR2sTUkswu6HrtXVpe2+QkLWiBRxl4lB9Dg9rbRd0vlxFw63AIpaC+l40/eQavZZOhJbGtLWz87uOYpkQrhWEpPErhiRmM7vQQWb2dvB6DSEhj13ax45nl6D0xWibGqMquwtPaQ2RrC+UTRpPX4WH383+ja00DmUW5lDbGKG4FlTOKcfMXY/d10vnnt5AabCEwVeIJH2Gjw1FT1Bl69HXqotpuDVSFRhElQpQQNpowvTSrelrCDXT1ddLS20pd004a9jUQ6Q5BTOBTQfIyiigpKCEvWECFmMDs4vmMP3M8o4oq8AqvU1xBO9VPvcKLkazHkoig7BdRdmqeyX6r4rCuc2RhxBIcIZK53kJrMEx8ynCq3SjHw65RaCkwtEAoMDHxYaakgblaWgIMNAYKWyikdpwlHq3wxgVKmKAVHiUhBsR0irNFoPd0s+P/nkVrSYb0EdjaS9PWl8kQAqEl9qa9bNv8BFooJODd2sie5zegNWRhIhp6aVy6Ei00CsnWux4BpZCWhSlN4tq9Rj3QUNc6UTnLuZZjhuFILNwPExGGyRh+nfxvUv0k1YcgEnNaG+WSVmO55QfiRIkTIkbcHYF76GNP7z6279lMY+teeqN99PT10dPdhxWK4lNe/GaA4pxCplZN4/JRV5I9MZvMQJBsbyG5RjE+6SNh8Cdqlzr1zBMpqRIt+sU2BrS//8f+d/kkJXYCI5Pgbo+q3TRJIQTJWaqMJ7fRQiC1QAmJ1GpQhpcA5JCJJMnthOx/tmW/L1vqhHOnv7QO2nBIrxOPt5E0qQVgagHaSKpxDoah3TxynUJYQ7pZss6Zh9pPo0FKxBGs+/Z3VUM9rzrlxIOIqp3P+ke1/vpjdsqoCwotFIo4FjHiWMSJESZElDARwtT37GHdrnXsa9pHR0c78UgEjcDWGhkzCNhBCvMKmFRZzcSxkynPGkOmN4dMbxZ+I+BS1RmBJSZot+KoK3UsDrDElXj7aNpHI339O4GRSfBBGDo10yEw9BN4MJGHwqFsM/g8WvV7dBMP1Xv6glMyzxIlepU7szQPcDhngHnvj+aBHuxEK1I3Th3lnPHXRhPDIua2VhGhj3aaaFFtdMf6iNh9tHY1s3HLJmp21brJQxLD8BD0BynKKKVAFjM5czaT5lQzsWQ8uYFCTPyYbhFDZwT2ILXEVIn8eIHWItnvJKqKp466HOH9OZUxMgl+SN+VEzRy+J9rJ0ruYE0Q/Say1qp/WUSCNQxjEjEutnDqYalBvYmBRCgBWie3BafsrZZiv2dUCJEUiTjY8/te0yeVtoiLMDZxwoRo6ttHzc5a9u2rpzPWTZtqo6Wtgb5wNxEdwvJaeDwGlaMrmT5lBnmZ+QQ9QYoDRUwNTufS8o/gw4efgFvJ03SmSVq4RQbdogHJ+D7cC3RvrpLJ+0xyhE7jvWJEEdwZMcDI8JJ9yXiyw3G82kQOmSwtEMID+gguQe9/XAlYkSg9O/fhiWsKqyuJ+GNo19TXSBDeYS2Bg1kIjpU/cCONxhgVJJiVOWjbxBxAo2yLxIRCaUVYdLF27xvU7djDxxZej5fEvXDoExdxYsSxsbGIEiNCnDgdoXZq9m5l596d7KzfQU+4A0uGsHSMGHHiQpOZkUlpSRmjx1ewsHwupdkVBMjAT4azlIQPPxkEyEQ6gbmkzmH758Ey+c5glu43m0r9Apybkh6VjwJGFMEFznfqLchg0qcuct6MH8JORxmx7jC7n/sn7zy7nBt+vATf4PP0zw72b8uBCK5TXkPt64ajDz0aa8AiRjd74jt5uu73vLjxaU4vn8tCfRE6JumJ9xJSUdojzazb8SZrN68moqLEjBhSCrxeDz6vH583g6A/kzFzKpledRmVgdF48OLBj0GG66z0YjjeB5xK2l4cV6VDWAlI3Z/eOXgl6Yi/ljS3jwpGFMHB4Y0WjnGtAcN7kCwrfQD5pKGOn+INHg5GQYBxHzyLmGXz8q9/zyXXfww8sl9EZjiCc/Bjv3doQnTzj+Y/8/NVD7FNbiWSF2NZ6wu8/sjfybRz8Ae8ZAT9jC4fw6jcSj58yRUUBEsoyiwjz8jHwMCDSQCfO74aSDyYeDHwJM8z8GIMRGICnOKA0wJiwrkNhhtP3++jHtwbptl6ojDiCA6uVxoYsgjUUBsf7sHhgCOtAWTnZ1I6cxx/u+tHyPwgF19+WX8VhmNF7oRFPig/XmuNkoJ2HWJv5zZqVB1hT4y4UMypnMa/fegOihiHDxMPEi8eTDLdZSLDLWbvmMsJEqbSUbr/J/nJoEWjhEMrxUIRuIq2Qvd/nnid5GvHpxJGJMGTOMSVIcmhK5Unixwe7OGTgjGnT+TG//k6f7j7YVpf2sIn7v8y2q+QiCHn74Nx2I6vlM4n6XcikWoqKJej+Ej1x7it+k5sbNpDTbT1NjJeTyBLFCUDNrRIoecwZBvcKjHsJ8NuuL8n+xAPkcbxw8hIqj0KkIfxOiS4ZnjplNFcfc+n6e7sYel3HkZHD+S5PwpwyT1UgyQmfvwE8JKJj9EZo5lZPJcsUThg6SixrK0T76UJ977FKUPwY4IEySeP4fIvXcfuN9bzyn2/B0sekhk6ePQ+1LXzYWpCpJzLaZhAIrXsnyMnPhL9+5wc4RhpHCukCX4wSMCEihkT+Mg9n2PNG//g9V8+4zrcNOogkwOtHYehgmSAzHAvIGUq6yx+D99/JDx9KWwe5tPE8mP/Jo5H/sBxBGmcCkgT/CDQgG2A9gsqZ09iye3/yraXVkKDzaHYvsJdPxcpcWFKDHxp4YR7omy0dl6OFIxyWeoIDvSrmyQo626TFG0c6qUHdwUuDmvCksZJipHtZBsBSAyoSoLMMKg4ezrndEf57d33seS+O5D5ckAixn7QNkKFgAgIhtcSS8aDaDfKKzVIpBNDduKR3UAn+xvfCrCHzNVynHSG+z+N85UHEPgO0Og0ThWMrOKDIxE6ZZyTIHN9jLl0DrFwlEdu+w8+/YP/hNKMoUmuY7Ttfot1S39MXrwBU8dQIsZQM2N3xbk/Vj1RJMC9T+ci4O3nWb/SdgZrN4LP+VS54beD5vwIFCa28IAQaMMg97R5jL/sK4A35cxpvFeM9Oc4PYIfDIlJrEtgIcCX5WfsxbNp2bObR7/2HW7+329CocdJZR0wQGs89FFsbaUitgNJzNFkGyTPlIgCG061yZmSC4iDQLlLdKbbJmf0PthFaCRRFYD4WISKumb9YGsiNUhguPyz9CI3jHxiJ5CehB0CNBot3DRRtwpqsCSP6ddejKcwi0e+9t/QPcSOrkyJ1MrRYEsQRwycOwsU0n2JQXNokXhPWEhiSCz3FUeKmPOeiCf3H/plI7H6j61TzY0DRZ8N5YdPbPfea8OlcfyQJvghYEBkWcJpLSFvXDmLbvo40b5efnXPfYcQdKeRWifrkcvUVOzkNgPX7AccU6R0EEnf/IG8+CnOuKRTTjtH1u5rCPfbwTG02y6NkYc0weGwBiKhnR9aaAytKZsyjo989V/xhyyadzUf8aB2QF22BCn1oNF2yKi6lMyWAZ72NN5PSBMcDmsgcpRNHMUupAATymdN4PRPXM7v/ut+eltCrvLSgfPVpQZTCWxp0ucNYnsL0GSAVvgtL0FdihAFWJbHPa9B3JNB1Mwmio+4ttBCYJkBbF8WMdNPVHqISmNg4Esa72uknWwHwLCRZylJFwCYgvFzp3F5xOD/PvEVzrv+SuYuWQT+AxwbDUqh7FwihefgO/sS4l21bFz9BjFfHjnjz2bU+DNZ88zPyZfNFJTmMOX8j0GwBEzo3buVXc8/ibdyGhMv+zStuzez86VHGd27GWm0YGqJSIzsiTA4bbqjf2JET3QE6XjWUxVpgh8AB/SUpgSQWQI8fsHYBZP4WPzT/OXR3zNh/AQKzhw17O62MOjxZdNbOBWq55GRXY3yj+K0+VWUTp4K2gfSZvRN/waqnc6d/2Tt8j8hfZXYtsGY8aV0ihzyM6vortmC16OomHcxjct7KYvFMe2eIc6qB/1OXEia3Kcq0gQ/QgjAg5OTLgMGY+dP54KeGL/9359z9TduxF88eA9nXiyQSOHBn5FN2YQpyIJy6KnDCIfYvXUVbfW7yYx1kT9zPlvWriKzs5aMiQvJKR/Hntpa8JeQM/tS8sbPYM2bf6O0uIxxUxdih0L0vf44GTqEE446eLlrqGWvobzqaZwKSM/BjxYE2IaGHA8V505jyoK5/OIHD1BbU4s9hKkvtSIQ66V3by1rV70N2ktbUztbduwjO68Q1bwZT/s2RF8Xk848j3YzH9sQGMogJ28UBYVVTB5fSXaoifMvOo+Jkyqgr4mskjIoKGU/J1uyna7rfoAXPe0RP1WRHsGPEgSuEo2p8ZYHOf0TC8iZnEFWZgNR4RarE2LAAGkLAzIKKCgbCx4/OaOnkJGfS0hoIhmFaGmQN2o8dk4R0xZ9kO6eHrQ/nzFjx9LRWMfOta9RVlhEZ2OAHZvWM756HKYZxtOx55hf73sVeUzj+CJN8KMEQUKUEeJS4y/PZnbZOfTuXk79fhFjoDCImAUYo2dTMWkm4fqtmHYr0h9DdnYwYf6HqduwhcJoJnt+8xB5uYoJ8y6EgA+lDXRuPrmTZ1I6/Uy6GnZTJnwEiwrprl+PLSLH/frTGJlIE/woIjGieRILaaK/utZQUCpKd+tmdq1+hpyCKgKda2hc8RyZpVMpueLfyL7oI9SvegnVuIKALsAOXYSRKZBaY4a6iO6pZ5fIINYXo6hqOtFoDw3bNlKl0wRPw0Ga4EcZh+qTFtImYHSS17SFqO3DU1ACloVGo3wSTIOA10dJQS57/Pl0yyy6Whqoe/2f5OWUUXXaBKy+Vjp2h2jb24yhzyKnpAKjL4SSEux0rncaaYKfOGiFtMIEgYDsxuOz8ZRVUXb55/GOm0Pdrjaaal5lznnnM/Uz/0XPur/Ssf4VzjvrAnT56cTNIKPnBckpK3eSRkQQLbwErvwXOv8WguZNR97E9Dz7pEea4McUqWloiaUox1w3lMSrTGJehbI76G6tQ/d2UNsUw/vuRnx71lMR6WJH7YuER00ilx603c7uzl784bfYs2k9Mcuiz5uFkCaGbWMoi4xYN7mhFrKTbRD9WWfvn/rEabhIE/w9YLiI7v1daYOWqFJgS40tLfwKdOsWeG0LADPcz4WWoE1yrAZ4911H0kECb9QAMG7wadylOAFIkcj0kkihkFqjFBhCotTAVg5MDBXuezoZ/Hbg8fsQRObTOKFIE/xwcdjPdMrIrRMCzwcqceLuJTRCqOTAb+jhyyLtN+8fEIsu6S8jcfTgmO6Dg2TSGGlIE/xwkRyR9x+ZlVv7crBUYiJ2TbjbIA6WSy1cEYi4oyKjEyVyD1aIT4AWaNE/JjvF0A5VOT61FELq/4faJh3iejIgTfChkFRKsVDEkHhTKn/A8A+2GjAuCzdUVCNR+IiaUUfbLaWm1/AQSG0i3LxvXyyIieEeXw+YTkvR37oB02wBCIESirhU2CIDr8oEyw9mHIQ3GdiW3EGkUFcnDqj3U7ZxNkgTfKQjTfChIDQxFaVDN9Fh7CU8oAJiojbKISiqYtMbqGPjeEXQ8hM3JUpwSL4uoSWG8qCFpjAsOX13ISVdmUOcVziB8AkeDjDPtaMkIyxMqfDJDGR7ENr2Am2uZJOEhBCklv0ZZvudRri5shK8PsgIgnmAdLk0RgTSBB8Smp5ID7/b/AS/bf8JcZQ753RMa6VsxMHqBAOJKl/ejBimjhA3rcMguMCjJL6YpLTepv6lBhZsdIQSB1dTFi6RhdCDju2QUiRFISS2eIfoHQ9jC6+r9ebosQp322TbUwjuONycz/sMk+yrLues//kWZKWVWUc6TgqCJ9Zjj+e6rMYm5OmlJbgPI5mUAWiJdp9+mTTl6f9M9rdPaId4fdqH1B6SHNLClW8CpzanRgu7fzUNsKQmZmhyIxqvX9BnC7yWB6kF1mB3fdKKdkZyLQZOFBJzetB4tMYXswDLFV4S2EKg3SILQjgK7jqh2+Zeq9NuhU9KPLGoW4gxTe6RjhGfTZZKaiEESil27drFXXfdhT0oWitRISQcDtPY2Jh8v7m5maeeegrbPjRPsgaU1ggbQLo+6Dha29hYya082sJrO2QBCy2sZOECrW00tuMsEzaWYWNJh0y2dKofxV1JdS2cUVm5vy23UrGhIGpobKHwKcAlo9ASoQ2ENhHaRGK6FUSdn6Y2kXiQwoPERAgDiUQIp2iwR0PA1viVoxFnoDC0jaFA2hrD1hhKO+9pCwMLQ1sIaSOIg4ozTAG1NEYYRjzBhRDYtk1rayv79u1j37591NTU8PTTT1NTU8POnTupr6+nra0NIQShUIh3332X/Pz8pCJLe3s7L730EpFI6LDOLW0DQxmYSiOVdIQShQ0ihpI2UUMRGWADKXd9u5+wzhw4BiKRm+1AC4023PdFHC2sQTqlrsd8QCXBxL4pf+OWPRCO8ITtOskMDTI1SxSBqQSGBiUEMUMSNSQxw9FtNZWj/qpR2EI51yAS3nxnf0NJdLoiykmFk8JEb2pq4p577iEWi2EYBlJK5syZw3e/+11M00QIwcSJE/na177Gjh07uPXWW3nkkUfo7OxECEFDQwMNDQ1s2bKF6dOn4/V6D2rqa61RQ+VxK/cB1wZgoiyNRxg4vm2FTMoju8qjWiCUM2+XpkiSU2iBiRcPHuLKQug42tCD1rDhYOvlqR5v7VrUNs6UOSo1tlIY0kAJR/FZaoGpHdNca2fObguBcDuGiAl+9wAxCcpWGFqghHavLU3ukwknBcHLysp46KGHqKur41Of+hRLlizh9ttvZ+PGjdx9990sXboUrTXt7e288sorNDc3s3z5crZv347Wms7OTmpqanjuuecoKyujrKzsPc/llTAQysRj+yjwFVBeUsbO2h0EM4KMr5yIXwdIkCCkQmzv2U4kEqW4pIjaXTUoGXUXzgwyrQzGFY5jzKgxvPDOC9go1CE47/oh0AgyRxUTGFfO1tXrCEY1XhtsQ+AryiEvO4vWhib8BblYWT7ihtsRxG1USzfRlk78OUEysrKJ72gkI+5YAeFsHzmnVZGtPTS9tRGpdNJZn8bJg5OC4Fpr1q1bx4033siVV17JZz/7WbTWVFVVcdFFF3HeeefxyiuvUF9fz5133smU06Zx3SevZ9PmjcyfP5+tW7dy33338fWvf51AIHBEjjoNWAYEdJwp3vEsmfh51hdtIN7VxVVjP4qXHGxM/Ag2xNby850PoOKKL477d3bm1PPLNT+lWTfhifvJs3KY6buIKl3BP9UK+nQnYbsPbSYshKFhSUnY6yPkNej0eSg97xxKzr+Q7TvuoTAUwmMphDAJXLCAcZ/5F+w3NhDOzWXihec4y1vKC0m4sPEAACAASURBVNFeGp76Azu+/1MqP34F9qSx1H71O3hQ9BoSVVaF+cGPEfSZ9KzfTHZEY6bqNKZxUmDEE1xrTU1NDTfddBM333wzdXV13HvvvXzjG9+gr6+PoqIilixZwi233ML//d//8cwzz/Jfd93Nzl07+eIXv8jjjz8OgG3bCGEesRdeAFJpoiLG2o71mG8/yUXjF/HbVa8S2xrl2sW3oZSPHV07WLryKXaqOsKihx8v/ynXnfFJbpnxWQpKSsgkn4D2UqSKiRtxCi8u5LW2F3hh/R+J2jHiB7CEQx4fsYsv5Py7v+AQ1p+D8uZy7eK5mPE+2mp3s+mR39Dw8t95xutl3rnns/z+R3n97RUs+tdPE8zOZc2yv/Hu439gYsjm7T++RODcMznjsZ+ROWUsmBLMIAQz0Xt3oW74KLt+8Qeyo0d069I4AThhBB9QE/sASMyv165dC0BnZyc//elPKSkpYd68eTz//PMA3HrrrQAUFxUhhGDmzBk8+uijfOYzn+HOO+8EBIY8ALlTV5Xc80qRiOzqLwootY2hNVlmDpPzZ+C1DJ5f9QeyrDxmT/4Aq1etYOaECdRu2siV0z7K7MAMnn/rOcbIMpateZmdzVsxlEledgH1nTs5t+SDVE0ezf++/f+IZHYSFxGUhMF1wxKKMba7pL17w0Yeue7zhEyT6nPOp3L+Qv7wve+SFenDqzRZmZkUXnU5mdWTWL3yHQJnzGHGVZfx2kt/pbJ6PN2xKPP+/bO89f0fc9HFF9IhYdXDjxIrK0buaaa1rY3q666i3Oej9hdLyY8KDNtE///2zjw+qur8/+9z7p0tC1kIEAgISMIeggsFlUUBN+pSN9y1rdZq22+t2n61i1Xrr7Xrt4ut2tq6dFFrFVtFUERAwLKogOwIEhISCAnZyDKZmXvP+f1x78wkIYAokEDumxcwmdy598685nPOc57zLK7z0JvKjw86dQY/nNnUsiyklFRUVDB79mxM00x4z7OzsxPns5WN0hZoGDWqkEWLFrF50xa3HddBruf+Ku6V1u6/UrvOMjeSXLhx3Rkp6UwtnMIoiqjd2cKcpXMZPjAf1d+ihxnkzElnYmNRubeEPlmZXH3GlVRXh3lp378wslqYMHgyLyx+0dlCEzEsaWOLGLY7qMSX4kI7grKkI+6IhLTRBVx/3/egoACd6kP17IHScPd5r5JWF4GmRurfX8nW514iWDSe1KmDeH/RAoaNPY1hRWMd93rM4sOF81GxGOHScmTvTELpQfwD+tDnzNPY/ee/oJTCb2nSYxpDKdCOA89xKcpWH9v+++4eXYPjon1wU1MTL774Ij/96U/x+/389re/ZdKkSXz44YeMGjWKPn368NBDD3HJJZe0eZ1t2VTV1LBu3Xpqa2s73LttHzwTf6TRkLAy4kEfoLVCSEX5vl08vuhRpvQ6l3PSLybcHGb5B/+lakc1Z086h7lLZjE4fzBqoGZN4yp+t+x3XDr0WmxsPm4uIdi4noKhQ4hWR9HYSKGx0U40qHYSS3Qi3ju5gebT0LJ6Pf+9/ibK00PY513A1Q8+AGY6patWsPSxx+m1ZhO9Ii2EtUDk9qTnjOnIaISm3btorNlLsHcWzQ1NALTsraV8wXLMk/rTzxekZddKTr4wB2PcVCqkD3QMtI10BxqP44suvwYHR+CVlZUsW7aM7OzshCDHjRvHzp07KSkpYdWqVUgpycrKYsqUKYm9o4o9Fby94G0mT56MP+Db79zCjfpSbraVkwlto7HaDUKWE/aNBuHuJ6OwhY3SGr/pp+j0MfhODxLUAS69/DKkhHdrFxOWMcKBFmcrSkJtSznLPq4gs24Ap2X1QiOwRTxo5+AzoLMvLak30lCnjWfw2DG88ZsnOHn6ONa/8y7Tb7iBt6t/j7ntI9IJYgZCaH8IBFRs2cLGZcvIGjGU0ooKigb0JxS20YakQVjgl+xbv46/FxdTVzCEU0cMwW5uJKoUwYTA41lq3nbZ8cBxIfA+ffpw7733JsJVlVJIN0HC5/ORn59Pfn4+AAMGDOAnP/mJ+zuTwtGFPP7YY/u3wm5FjBhN1KJQaGxMDBQWwmjtyTbdyDQnxNSwBcFYkBQ7DUNIorqFeetfo3RrOV+YfAVr165hRMFQoiktCNtEWH6wAxgRP+kEyeyRwxcGXs+A9AGUU4yto6BdwzfRXgjiYo8vFKISdmQFaZ4+mStuvonwgveoqNpDoCqK/40VpAayufhn9/H+U3+lZnMpOWeeji81lZSsHkRqq9m3bTuTL7yYieecy7Y338TUgsAp+Qy97vNUrlxFcanJwAvP4cYf3oddUcPuJ5/BDphYLbFWd+JxvHBcCBxaFRgQCi0Uzh8n9BKS4RdtZl0BCGdv2XlWESFMC1FaaKCRGqrtPWyq2MCitUvYt6+BgO1jZI+R3HLO1zu6i8SVfDpAQWoh1xbeiqhv4XPDx1O2rxThk+wz9hHLsqlOq+a9tUvo58vl3N4XMCJnGIFTDfYu2EVexkAmDJtMU7ieZR+tJL0pj0ZZQdQfwRaW2+QwSdw3IJWmqF8/8s86lb2zZrPxuVn0O28a2DGaayooe+7vFET2MmzqRDZmrmFEbjZVmzYx89Yv0VBbzbThJ9EkmolUfoTIDTLif25kcP9B5E45g8FnTePUu39IU2MDldv3gLIJfGEGvTL9lD/xNBkRG8N2k1c8nR8XHDcCdxA4Lh7ppiqLhGvHBpRQKKEcA1u30GLvY19zJdvLN7OldBNrdq+jQu0iLS2NlNQe9M7IozC/iLF5Ezg/7yICpOIjFYMA+xr3YlvWflcX2pF4dnYmhaPy+c/mf7DyoxVMHXwhM0ZchDScgah/UW+ihJkyfDLLN60izZ/Cfc/eSW7/ntxw2ZfJCfQjplow/QHOL7qEsUWnsKDmJd5Y+7oT+95eQ26UmtSCpvXbWPmtRwhaghwFZbPfYMeieRQ0WaRVtlD8+yep8/tJMw02/2MOwSbBogd+SdR0LKCIqbGEwrQ1GRZs1prVP4JQTNJkGLSgiRkSS0pELEZ2JEyeJQhZBjHpOgC9iJfjgi4p8ANljWkUEXfuBiee2yJGVEUJWw1s2bOZkj07qKiv4L0tK2ihnlCKwaBBgxg6ehjnfe5ixmSdSiY98GOSSip+Akj8gD/xpdUoGjv8aJx5VAtJWeMe/vTus/giPqKhMCUlxTz38TPu/bv3bthY/jC2Mnh3zTKsvi1sJsqi5UsIxkKEYiamLVBYRAJhWlKjxAyFJexWpnoSoXHCTLXGh4XUAiWgZxRy9oLhLiFCliBkxYjJGD6rBQNJDzsZp97eYRYxNBkxTVrEiVPXtA6pJVkv0lt7H3d0AYHH45sVtlZUVjthppdfdnm70kcamyhhaojpGJX1e1i5/n2WFC8marfQHGtGpEBu31zGjCzk29O+RjZ9SCeHAGkECRDAwMSPIF7CKG5yy9aX2c/8VO7qoPVBGpuobCAWNACDRrOOZmoB7eRlC+FUS0JgS03M0BjKh1QSUzXS5KujPp7GIYVTf03G49+TvvzWn5LAyTBDapSModzMMlPHBx6BxnCsDK3waYGpNLbhDIitpRm/gtAQsEEr3S7PXDiFHF2FC62d8wtQIrmZ2LGt3i6owKPT6HyBawnKxjLCrG9cy/3z7qevP4+xjCeASVQ3UlJVyutvvsbehkqiwWr8AQMtFTk5fbhh5tX0DPQhhRTSSCdEiBCpGATxJcTr/NUaRMLblnSgJVIoXAexcp9zGvSJxFre8V+32lKTGidVVKG1k80Fjh8gbs5rrUA62V1gg7CxDO0UVXQ+gOS/zojg7jMLYq0nTC3R2nSzvJw0T+coldirV+CKErRrAdmmk9HWel89IT/3QaJim07mjQviZZbdGqvCOTJRHKpD7bYemDxxdwU6X+BCERUR1u1ewY/eeoDy3J3UNpfy9T/NxKcMgj6Tvn3zGHTaIM7oO5XCrHGkkk6AAGmECOJD4wN82O7a3EBg7PcFkweMc2lrdCok2hGZ0ChpowFTJWd63aYUcgfFkuP77a6YtI7XdlHsZwwkX5UsstD67Br8tmOa42aEOemg2lW/cPLYDlAmRpEcp8AVeGvzO1Hlbb9Lt7s793jhvJP9D41v73mL865EJwtc0Rht4PWNs3j6/b9Q27ecsK+eXpn9+PL0mzk1bSxZ9CdICBMTH34MHXATMSTgCFCg3KJD5hGJo1KAJQwEJj4riBLKnR+Va66b7s/twkmdaZi2Wd20q5OWdNax/7M4Z3BMb0NLR9iJPG2BFO4QpE0QTgVV7ZrQwg2UaX/W/ZxiOvkgXnDigMOOiA8KyYg+qZMxQ97WWdemkwUuSfNncPXYLzGz6Gaa7AaWVy9mxdsrGVl1BoNTRyOEgdG6yGFCB/F1pST+Nj5JrdKDkyyJnBFK5fIR1zO5aTq2r941TZ0rOGZuB3WTEqWSDjyLHSgbNCk0EtdACGIGNIVK2Va+nIovFjJs2DBngNOB5F2LDtLIW53XZ2lMS9Hsc06stY3hD2Fb2m140nHXE0fSoo3DM4Qm0CsL4TPxhN316XwT3UUISaqZzll9pjLp2un4LR9Cm62+Q+3N16PhzXVWowKDkExjUPoQBqafjNJt66592ksnZtMO0LT1bAvtrtuFoLT3Dnb2tfCNLKTfxIm0HUScmVvoVtNqu4tq7boQ0DTtKKWxZCe9TyuCYAghfEDHAgfaJgTp5MDjVGL11tpdnS4jcACBJETIiefc786O1RdJuua3M3uhjYTwkvkqKhFgc9SIR4Rq7bi8hERK07WZnVm1jU/hQEZDfD9dA5aifM3HfPTmXC4aPx5kwPUTyP09b65tLlpn4Hn738cdXUrgDq5w2ug5PlMcq5JBMnHVjhIsjrq4WyGEcGdOpy+4s57XCBnfOIOkig92IkBrlI5g62a0EUO7A5VoMxknl0LaDSQSrc/hcVzRBQWe3Bdv66vWJDd0jo3Akqvu5Or8M1/5U4hEa4WyLZw98/bnONgJ23nW7EZEpAbhMxB+I77zdeiXdsRB38eRcHV6HAm6oMBl4v+Ov3udE0nV2fFbGjcIJhFR1nrB3vErHPvbDecVNqKxkb7+DFLPmgSmnzYZOJ9Uj4c8zhN2V6Kzv7cen4C4h10LlZwcW/89GPE4nahix39XsWr+AvqfMxEt5AH344kHtnhaPe7xBH5CE/fUQayqnqb1W7EFkJuDwN92g+LAr/Y4jvEEfsIiEua5irZQ8s47rJ73Fr3PPgNtphIXfvxQjxMTT+AnKm5UnbCilLz1Dm//8jF6nXUahdd8IXmMJ+wTni7oZPP41LTeyxYaWiJ8PGcBb/zs1wydMoFz7/9Omwg4jxMfT+BdhMPpnLqfZa2dtknxPXKUxc6li5n9/UdQg/KY8cdfMbhwFNrQbhqOONCZEs8nYs298sjHNZ7AuwCfpD58axKRae1j14lCdQ2lc95i/ksv0v/Cc7ng9jvwZaa74jb5JOFoXuPQEwdP4Mcj8WhSt3mgti1E4z5K317Mgl89SjQW5uQrZzD1f76JDIbQhhNf33FKmTdDn8h4Aj8OiOdgO4nd7pOWQoQtrIpqyufMZfWzz7In0szAGVOYfvcdiD79kMIE6cT4e0Hk3RNP4J2NdvPBhHbDYuMmdHIPWwiBISUCC6xmaA5jbdlGyXMv8+7ipdSETAq/dCnTr7qCtD790IkebJ6ouzuewDsJjVMJ1iReWYV4TmeyfIorUDNq06u+gaxFS3jv6RfYvm4DxY3VBIaexOR7v85pF10MgRBII1Gqif0caR7dkeNC4IfjYe46dLTG1U6NNpzWRIZo5SvTNlhhrIZGakvK2LF+HavemEP5hu1kKB/ZKak0jCtiwh03My5/EKSG0L4Ux/wWMp7HimgjaE/k3Z3ObT6ok83sVKtqKlILlGWhlcbw+RCibYHE1g7k1pE6cW90fDBo/3PywEPdWLuf2x9/sOSODp9PPkxUKg1HCO8sZXfZThq27WTXB6v5+L1lNDc0EJB++ucN4NSTB3Px1z6POayAD1atwjd2FHrc5xAItHKz6trkaycqMrS7thfP1F3p3PbBAgytwJJIQ6KJEanaw/vPPc/6Je9TdMtNnHH+hTh9wQwn4ULifMHdKmy0SSrV7rmdx0Iop0rhfgIVoH3tX5bQhRYiMeAINFLY7knd2TKeROqmZCvbuagUCrQCbbl1nRQt+xrZ+sGHrF6+knBFBYF91cT21lBfuotgQxQtBIGMHhScPpbLvnobvUcPx18wGDLSwC9BGJQU76B8I6T7Au6MTbu2Sq3fl2j782EjjkNryeNAdA0TXYBqibFn9QoWX38bvZrCDD6pN/mZfuxoNYb24dRXcQYCIQVIgY3AQiVKGcd7jserkzpFGNt+WZNat5OXbzcAaKHQxFr9rBFKE4tGiDU1EqmuY09xMbV7KtlbuYfdu3dTuXMnkV1V9GxWGFpjaPBpC2mHUZEoUkO/fnmMGHc6A6ZeQGBkAQzq56ydg0Hw+cAwQUi0MNzhy7n3mEglqs3EZ9Uhn8jK8OhudLrALaHQdiOly5ex+N6HOLm+kSAR5PYy5l33VZpMA1uALSEmNFFbYSGISYk2DJzios63WSmFVs43XbnVDDqajQwNUgi3brlOVinSGq00pq0JKo2BwIfAFCClgQH4BKT4AgRDIaRpYgpJHzQDUlLpPfp0CooKySwaDf16QzAEZgCCfkgxHRFLk0Sxc+FUS3WWIEmvdzKLyxmopPvejj7e3viJRqcL3FACZfRgyJTpnPSPAWz/yneoWrcWMTiP6//2OGTmQGMErBg0NEHEAtuCpmYIh6ElDLaNbdsoW6G1cjKobBusaMerT41b40ximgaGYTpFBH0mpKZCIAAprjB79IC0DAiFnCIJfgPMmOsMcIsPGoBhOOK1AUOQMOcTBd20W3VYuLtf2q1REy/REneP6Tby0riLkCNWkOGovdijC9LpAhfSwJAABr6hI8l/ZzYFdgtN9bXYmZkYMuUTncfgAGWTdasHwk52AhCybcJzfIIUuDMrrplsYyGdFkDSMfoVwpl5lUK26XoknVO7e9tObIpztBAgtHTW6PHOJzjNABEalfAqJCUfd9spAepQfrKOtOkVPe32dLrA2yMR2EaQ1OzebkueT0fCoHVnS5RCagsRjoGtQfudmTYg0LaFqqrHyEyDlCBohVAWwjLQ0QiGshHCREpFNC2AIUNg28imfRCNQq8e6EgM3diMFAY0tCD6Z6MMA20rjIgEaYC0wdLuzC/AkIiAo1yjA+s4Pv6Y2nnpYXOoj88bAE54upzAnc0fgcRMBn58CpzunO5fHFP6ow2bufPq60gJW6RFIWdAHjfe9y2yBg7g5Sf+wt0P/gBSTZorK9n22lvU7qqkYe8uht14KTWbd7D25be4+df/DzGogOqynaz681MU9epP7hUXUL52EyuefZHJF1/CxtfnMeEHtxMYNJDtazaw8IVZXPO1O1g46yVeefIplBZoIRg5fjx3PfErAllZ7Fdn7VggvDX3iU6XE3hbM/sz7t+6U2C8DuvQkSOZs2opMWkhS/ay59211AqJZSrCzfsgFgMhqK2o4sMF73DhNTNZ/a+tFAwaDSeNoK9M4++PPMKX//Q4LXuq2Pjm25T1y0V/uIKctB5UlW5nxasvEiuv5o035zH1ppvoe3J/8k8bzfPPPMn5Z07knEd/TfqEsWzfso1lr7yF3x9Ct3YGHkRrh5t1dnCnmSfu7kCXE/jRwJnNNVXrtzDri3dipJiY0oTMTMbcfgMpwnTEYwPaRFlQvHULL/7oYdLDYZ6YOZOADbFYlKa0FJ78zoMMystlxNlncMHtt4DPT9m6DayoqmHcReexdv5Cpl56KZYwCCjJOdPO5fRpZ/P+3LnM+scsgoZJU8wmc0xRchI9xsFmTqfV+IX3F/nxGT3o0Z5uIXAAWwjCpsAYdRLXPvoDVMwiaKQie2RTsn6re5TjeOs/dgz3L19Mzbo1fPjPfzH1u/dBzAZbodJSqdhbzZqFC7B22DxyxfUE8wZAXhambOFfb/4bw1as/8Oj9B9WyKYlS8lL78kN37uL4aNGc8o3+0EsjIppIrn9sGItmAQdp98xNNE7TkZJzuqeuE8Muo3ApdYYlmLvjjKe/doPwNYEe2Qx8rrLyc7pSaJzr3A8+7V7Knn3tf+QvmoDsXnzaa6sZdXKlaRNm0rRpZcwoGAASxcuJsefyvAxYxkx6XO8+89XEFg0qDAxIbnqtlvYdlohi/42C38wRO7wIURye1I9dz6hekXf6edAMOBOp3QBa7m1777Tb8bjCNBtBK6EpHdBPvc9/RhoA+qaqVu5gXUllZjZvd3YE+dLbdkRKrdsY+tLCxk48mQWle9hYI9MyiIG1115KSIQZNiQ0+g3PcymullMvGom4YBi7IxJZGdlsHdrMYs+3o4i5oS8toTZvGYNj95/PxmNTfS1IpgqwMb5cyj8/DRuu+eeoySng531QEL2hH0i0W0EDkAgCIPzHe/83gr0RyGUaEYZOhFkgq3Ys2k7S//6HLd+9y6iuWnM/cb3qc/J4bxHvosIOXHqZp8s9o3oxeY8yYRhPajdsoPqbSXU+E3CuysTPbR9QtKwdT11i3ry2CuzKHt3MQseeZSi8WfwtQfvgZwsiDf/O+ba6hJmg8dRpNukGQkUhrCwrBh1JaU0bCxm8wdrGDJoMELjtAWK2VRsK2Hu439hdJ9eNGekMOuhXzPszDOZMPUcnr3vQWb9/DfU7ixH2AoZUVS+t4FZN3+P6PoSdttN1EuLfcQQtsbQEjtmYZo+BvTOZcmLrzDnH//m2p89QtrVM3j64V/SsGsPWminx/eh3sQRXaN74u4OdJsZXLr7ZbUf72D2ww9jNvk498ovkFM4iu0lxViGD4RJalqIz110Pn3ys1n20ny+/MfH8Q3KBxXhrhuvZPObC1nw0qvMvPsueg7P5+Zf/Zi8oSOJ2BH8K/34U4PUhEqo2LAVkAwYPpLrHv4xkboGwktWctsvfgH9+jCkoYHQlBjL31nOuddddYjEL8EB4vQ8PA6K0Ie/ufqZqa2t5fnnn2fmzJnk5OQcuwtrnMIKSjmP3Wiy5O/i6aa6lZdZorRECI1AJePPE4J0dtm1dmPItftzYgsqnpOe9OJp7aS5Os8lA1O17sB7reHjj7czZ+5cxo4dw6RJkw7zDYM3Ux8dli5dyooVK5g4cSLjx4/v7NvpkG4zgwOuvgwnbLSD32kcYbeXg0y82OigjXD8t8JxhrvnFol2xx3R+ncdj6+JQcazpD0+A91L4IfgM+39itb1FTStZ+/2Km1dccbbbvY4mngCPyrEBX3wJgNtxS2Psdg987070G286MeGjgWdrDLzyTkykWQHs++F18GkG+DN4McEQceFIDtj9vTCUbsT3UzgblFEt5zTJ35NHC3dIqbx/LQ2NV1xPOHtkjQ0CO167eNdP4lfX3DsvWieqLsT3UfgWlFTXsKbzzxNVCl69h/M52/6IlVb1rLk6b9yxYMPgz8A0sf2DRv49+O/4+7f/MqpBYdN5Yfref7Bhzn94hmMOHsaPYcWsPW91cz709+54yc/oHRXObH6RohEMKQimJPB4KLTKd+4ntf//AxCgz8YJDunJ7t2lxESfoyMTEZdOI2icRPaVjtuc9+AFgjRfkDx8Dg03UbgWmtENEJus83wwhE8/tADvPz97zLIZ5Ki4d7X5sPYkTzy7N/QIkIPO8Leku28/dw/MW1FWmkFJ1c1EFm+mgXbdnHpt79OrGYvU8+ZwMJHf8kpZ02ibuUmtGVTWVXBzpDFST8rIC/Fx23XXMmu3cWs++cbnH/t5ZSv38Taef/l3FtvJdory9G1N7F6HAW6jcCFEAjDwMzticjtTcHQUdxz97fY9Os/MuyyGax/YxmTHv8xymqBqhoCTWFyIpqrz70YtKJ60xY2NjYz6eYvQt88ireVsPy517j9dw8zZvpkZHY2fadfADGb0qXvs/vfsxAxSe32Xaz881NUNe8jSwco3raFV37/GKnBHvzxD3/glofvT96kl8TlcYTpNgIHaK6rZ9Efn2W5YRG1ojz97btJawgz9/9Wk0OA3Xd8k7O/+y0WvvwK/nXFvPTzX7Bi/Vp6ZWYxekQBTekGO2ONLHr9Jc6aMInsqGR7STGPP/B9jLI6MnL6MPH26xmU0xcMCykMVMSguaKZFh1FZ6TTOyOHU8ecwopdxYzNzz/0TQsnVdzD49PQbQSuNfQbWMBtD9/H/Of/yaXfu4cd899h9FnjwTCIRm1qqhvonTeIGV+5mXfCTZxx661E/vAUl159Fatnv4ZoqkMXlzJ6yDBMEcPy1eKzoowdMJIb/vcWqst2sE03IYTCUAJiMXrm9uCyO293IuUyU6kTFs0oLA37Is1ETEEwfpPe7O1xhOkWc4PGaZxQ11DHR28tIVJRw9oP1pFVdCp/+fmTkNEb/0mDyT17GvTsiRAhjJYIZsM+mrMMXl4yj0DBEOrLG5m37APGnj8DRAqmCoH2OR09gxKCPqe9klLYSoHfDz2zqayvYPGqRYgRQ5CZGYjUFNKbNb3MFEJKHCIcxsPj09NpAj+WOS5OGwKBNDSRgEaelMOEa6+kwW+yrGwHd9xyG09845vse3cpDZWlrPvPq5R99DGLXp7FjZddwThSad68hQEn9+b8az6PaKzDUFFMaWH0CFGpItz74wd4Yu4rmClpTt1zQ0C4GYp3EynezXuzZvPkvfdSuWUjlSWlnDSukJKPtuEXJnTQPs3D40jQaSa6lMd2bBFaY0Q1osqiasNufvmNu/nfxx7lz4veoG7HHja++iopfQZQE4GW/n356uxX+eDthbz0zjKmTzoF38I1vL92Dbv/+hrzX3+L6TOvIRJMI29gPvf87vc45Vtj0FxN6bvL0WkGzdU1rH5tNmtWruTMqTMYftl5bFq5gHDOlwAAAilJREFUiqlfuZXc4SOo2V5GWUkZ/Uf1cPqQHdBET/Q38fA4LDpN4J0RRdWoobZwBJfd+RXyxxaCNKjcVcYLv/g/tJCc+fUh9M4IccktXwSlmXzNVcQaGtk0501W+WJM++FdvPDokwwfOY6Iz88eW4EUaOkUTKwr38PCx55g43sf0GvaBHZWVfF+rIlrnvotrz/zd16//6fIsios2yLi99GQncWoaZO580c/dNomHRSNF1vqcbh0Wj74Cy+8wFVXXXVM88G1Ai01UimnbJM2cFYpCoSNdqPThHaE6xRq0yhtYUmJT4GSyjH53Ubl2sA9TgA2CMsNVpNoIdFuo0Gn5Fu8uzlOXrlymw4eIi10+/btzJkzh6IxY5k0eeJR+nQ8DhcvH7yLoaXTM0xJgcTXSlDxKDHl9AcTcXHjis+H6b5eYCDRTothJ27VGQu0QAmJwnTbDTnibZtfbrQpdZgwYrycb4+jRLcSePsiDe0RSKdqC7KN4Nofrd0ZWsQ7h0pHrIb7R6PRouNlSELLnqg9jgHdSuCfDNdk3+85B611m+KHnzkIxYte8ziKdIt98CPKke4+4onb4yjizeAdcuBx75PM2F6etUdXwZvBPTxOYDyBHyM6YTfSw8MTuIfHiYwncA+PExhP4McIz/Hm0Rl4AvfwOIHxBH4M+DR10du/XinPSedx+HgCPwYI8dlrkDt9yvY/h+ed9zgYnsCPA4QQGMaRbB/s1ZDpLvx/lkbxyrqqv04AAAAASUVORK5CYII=;movable=0;resizable=0;rotatable=0;deletable=0;editable=0;connectable=0;" vertex="1" parent="1">
                    <mxGeometry x="30" y="10" width="235.03" height="290" as="geometry"/>
                </mxCell>
                <mxCell id="4" value="" style="shape=image;verticalLabelPosition=bottom;labelBackgroundColor=default;verticalAlign=top;aspect=fixed;imageAspect=0;image=data:image/png,iVBORw0KGgoAAAANSUhEUgAAARMAAAEiCAYAAADajzawAAAAAXNSR0IArs4c6QAAAARnQU1BAACxjwv8YQUAAAAJcEhZcwAADsMAAA7DAcdvqGQAAI0ISURBVHhe7V0FgBxF1v7G13037u4kSHB3C+5yyMEhh95hP3ZwcNzhDofD4QSXoAECIQkWLO622az7jv/vq57a7UxmN7ZJJtn6Zmu7u7q6urrkq/deVVc7ogIYGBgYbCScsa2BgYHBRsGQiYGBQbvAkImBgUG7wJCJgYFBu8CQiYGBQbvAkImBgUG7wJCJgYFBu8CQiYGBQbvAkImBgUG7wBmJ7RgYGBhsDIxkYmBg0C4wZGJgYNAuMGRiYGDQLjBkYmBg0C4wZGJgYNAuMGRiYGDQLjBkYmBg0C4wZGJgYNAuMGRi0GFhVixtXzjCkqPbKqMEAgEsW7YMqamp6NKlS8zXYEsiEokgGAyqfa/Xq7YOh0NtE6GpqUmVI8vQ7Xa3GXZdwPuXl5ejuroahYWFyM7Ojp1ZP2gi2pD08PmZDj6Py+WK+VpxhsNh1NTUoLa2Vh3zuXNycprzitjYPNhU2GAeYWasWLECX3zxRZsMz3CsDH6/Xznut+V0RsejtXvQP5Hjvb7++muMGzcO+++/Pw4//PDYFQZbEsuXL8e//vUvjBkzBttttx1uu+021YBYZvGg/6uvvqrCjRgxAjfeeKMq140ByemVV17BkUceiV133RXDhw/H3XffHTu77mCD3tBG/dZbb+HAAw9U+VBRUdH87IyPBPPSSy+p9NHdeeedWLJkiTr3n//8B//+979RVVWlwicbNohM+PB8QGbIFVdcgSuvvLK5EceDhLP99ttj9OjRyrFitOX22WcfRVDx0AWn72EvgESuuLhYZTz3yf4+n09Vzm0ZrZVBMmHBggX4/vvv4XQ6m8vK3jvbUVJSgqVLlyItLU2F0eW4MZg6dSo+//xzFRfvTTLZaaedYmfXDcxjdngbkte8jnWzrKwML7/8Ms4//3zV6dnBMLpD5TYUCuHFF1/Ehx9+iGeeeUaRCvMl2bBBZLJq1Socc8wxap+SxMcff4yxY8eqB+WxPZPJtKwA3GqnK0Yix0rWWqOgHysAM7i+vh51dXUJHQuKFZaFxrDdunXD9ddfr85RvF0fx15gbT0B08UCZ6/JayiiNjY2NleI9QVJr6GhQcXF56TElig/7OC9GI7p0PkX7xiG2/WFvlbfg2li+rQUuS5x6jiYl1Q9if322w8XXHCB2me5Eva4Zs+ejW+//Vad6969OwYNGhQ70wKG125t4L1//PFHzJkzp7keDRs2THVi9vrD8qOq0ZrjeR1OO/pT6mkrHTz3zjvv4IMPPlD3Z11nHuyxxx6xEC35pLe6A2TbYNvxeDx49913ceyxx+J///tfUnWQG2wzYeZdfvnliumZMXz4lJQUnHnmmbj44otVGPqzQR922GHNlVz7c9++JZh5eXl5SpxlJmt/O1iIr7/+uhL/NHQ4brWLvxfj1uHWB5mZmTjqqKNw9dVXx3xWB8VU9hr33nuv0m9ZQfS9WFH/+c9/on///mu9N4nol19+wWOPPaZ6KurI+prevXvjvPPOw0EHHaSIOVFcU6ZMwd///nfVYOzn+exME+OjjWDw4MHYd999seOOO6JTp07NYYhE8fJZKE3wGdkIGL+WKlimPXv2xBlnnKHUSer28bCXLys+Rfx//OMfioiOOOIIJeqzkehwesv7sue+9dZbVdqpFv31r39VUq6GTrdGfPrt9ybeeOMN3HPPPYoMec5+Pj6utUGH19czTyhlXHjhheo4EXjNww8/rMqYoL2GbeXkk09Wxxr3338/nnjiCbVPSf0vf/kLhg4dqvyffvpplTeMi3WTWsHxxx+vwm5pbLDNJCsrSzVoViBmKB0bxPPPP49bbrmlOZP54AQfntew8vz000+q4fz666/47bff8NFHH6nzOh59bVtg4Wlnv4bx6Hva47GHi3f2uOIdwUYTDzYMEiltMY8++qgiEnt83P7xxx847rjj8Le//U01ntZAKYZ5QCKmREVStktqVCmvu+46nHrqqSrf+IyJQP94RzA/2Gsynk8++QRXXXWVsiNddNFFzfo4XTzmzp2Lyy67TDX68ePHK6mEz8nekQTAdFIKvOuuu1THwvDxYLxMh84vdgQ8pkGcDYTPyGOGYxjd0zK9lH400fTp00dJENyns5exdrzWns/002B4ShCU9ng9YT9vj2dtTsPux/h12lsD1fcvv/yyOQ7WDZJwW9BpJSjFsQ4QjIMdK0mealsyYIPJhKAU8d57763Ww7GCnXTSSeqYYGXRBc99sinD6Qy1I5FfPNi4tAQQ73h9fIG2di+NdblnfBjGSSI899xzVeXkeX1/PquuADzm/qeffqp6l3jwHAmYUgWlMTYce1wEt3TMO4r9DMcKGQ8dTl8XD/rrfGJcBCUgGh/tUiO3dD///LPqFHgvkgf9+Gz6+ezhCXYQ1OVnzpzZ7EdQz6cKTHsZ82DGjBkqLSQhSnM0rFKCo9tll11U70uw4bEXZljGR6ki3uY2cuTI1RztH7fffvtq9yeY5okTJyoVg8+u8yj+GeygH51+Zu1YvxKFJ/Q1iUD/WbNmqTLUYL4msgHxPjoe1g+SONPMsCTt0047TZ1PT0/HKaecoiTNZEC7DA2XlpYqHY4ZTWmFVnIN6seHHHKI2qeYTfGtb9++zQVK0MJ/8MEHK7/c3FzVYJhB9jAEM5D3oM2GBRMPFgJF8oceekgdM3xBQYHq1ePjWhfwGhZ4586dMXDgwJgvlDR1+umnq16QYXgfTQAkBKZRkxr9CZIoeyGqIjotvG7y5MlKTaCR0Q4dn45Hg9fssMMOePDBB1WcGuz1KQHZ7TsMS6f3GR8bU7wf85riv04r8/Gzzz5TIjSh00vwej4jw8RLAUwrVTEavplvBFWjm266aTW7jz0+QvvrjohGfZKHlnDt17UWB8H08Hrezw7Wr//+979KuiKYdhLXAQccoI4JHS9Bcv3uu+8wadIkdUwypLqhiSg+DdpvyJAhihzj08b7scOgekOSJijRUzI88cQT1whPkn3qqaeUP0mT4XbeeWd1jveprKxURNurVy8l3cRfv6Xgjm3XGYkKkw2WRtivvvqqmUiYgXR28Jr8/Py1Pnz8dTy2N9auXbsmnDcyf/58pVeTwXkNGxuJjCJ9W/e0VyQ7El3D0Smqcoxfn+czsYegXYPp5Lnff/9dNW7ajAhKMNOnT1e2Jqp7vJbnqHZoFYnpoB599NFHK12atoJp06bhkksuUaoQzzMcKyQJkoSiwXO8rw5DOw1VlD333FMdU2WgCkUjOYlHN3aCNoSVK1eqfNXHJGw+i84b5iV1c/aM9KOjFPLAAw+oRsewdCTa1157rVkcJxiWRMN00Nmh47eD+cT6pElLh9HX62Nu6dqKkw2PhkqqV1rCYh2lbYMNX0tpdjCtzG/WZ56nOkaS4vMRbd0v/hxBlY1SIPOfz0SyIoHbO0z9HNzymZkG3pv1heqMBs8zHRxJZf1hXaSKzE6YpEPpbEthg4QSTvphD7Tbbrupys4H96amKOlCgz0RjW2HHnqoyiQ6ZkIiIx2hM5IGTRo7aYtgfHSJVAQdp3ZsrBSpWQBMD0HCIbmwx2IBtuYY3u6YDu3sYDwcCaA1XZMJHUcamEZd2bil2E2RW/feDEdpSveavH7hwoUqj3iO92J6SRzsmbX4SymEvRANpxpMI8Vfpt2eRp0eDYbToOTDUQP2eOylMzIymq9l433yySfVPq/nM1Il0OdJfmxMmkgYhs/IRsZ5In/+85/V8xAkJY6YJGoAjIdhtb2M7oYbblCNTaeVjZ+qFUdxmHdsfCQx+tFRXeGWDZ0NlGlKBKaR0g3rKe0KuhGTXGkzYo+fiEgIpoVhCf1cOl/t+atBP+3iwWdn+b3wwgsqDQTznkZ1Suo8T8f76Pqo85iOkjY7BeY1iYKqHp+Bqg47K2oCtM0tXrxYOZ3uLYG1kMnqEgIfko2dk2movrABX3LZpfjw4wmQR28OTVGbIjIt8RoUYZkJicB4ST4arEQ0DFI8pWMFTQRdECx8Gv8oRuoCZeFQP+WohX2ey7o49qqs/PGVg2lkj80eThMHCYBqiq50drCy8rl5jo69HSUbxssehz07oe/DkRGqi/qYW8ZBKYNqlfajY2OlJKbDxoP5Eg+mmfGRqCgB6Ws1ORG8jlIMy1mDJKAlQX2Njp89Yr9+/VS8jN/uCF1GBK/VTkOf0w2bJMJRHC1FjBo1SuUJ7XO8F7d6nx0TSTI+ToLXaiOuvgcJhKTI/KSf3bUGfT5R/PZr9TYeLCdKejo/COY3/Ul2HCkkSdBmxLrHuvrss8+q/NDPRaePNfT99HnWK3byOh+3BNogEzaO1U8z0WRXVh6HS845HSqjbpbe9tFHH1FhSsvKlB7HnkM/MDOS17AXSgSK85xDkKhBtgZ7Zi5atEipGJr5dTw8F1+p451u6CxgbnXh8Fw8SKB6yE5fz7RzpIHXxIMNlgRKnZsTo0hsrDi8jqSkJyvxWDdAXRns92fjZ+PR4L1I5PPmzYv5JIY9Dvs+GyHTrMHn1j0a46aNiCqABp+bNgQtZTEunU9ML6VIql6UcCh1sLfUNiAdToPX2p2GDkfC1iodiZgSGXtlexwa9rgZ3h6G++y9aaNiunlMKY+Sz1577aXipaOdg/HbHRs1R+hYHryOqiHLjed0ejQB0A0YMCDhLFrWKV5LqcQOxkvVlhPP2AnyHsxHnR/257CD50n6dJRumBZqBxzlefPNN1dTLbcEWiWTSCun2EAef/IJXH/d/0mmWBU/IIX1hIjJrET5BQVKrOSD64ZK4yV7m9ZAcY8ZTvWGejsrESsjGxEJgpnP+OIdM52iHcf3WXAauhIQ7J3odCHEO1Y0Ok0k9rjjwfCUlAgdhrYEVqZE4Wlopk2BqgVF3eeee66ZUNlgtD1FQz8nER8fe2rmiz7PNFO60cd20C/eX8dHf0oddiJiRdZqFcEy4LwOexwcXbnmmmtUY4wH081y0vdIlBcaPJfI6XvZy4NEzBEznifin0nD7m8ve25pM6N9hJ0NVUhCPy8dOwPmLf20YxzxoB/DMbwOY7/G/gwarNOcGs/z8aCfXcK113P78zIfSFyXXnopHnnkEWVjI2l/88036lUDzlth/Wdd0+nYUmiVTFo7wT4/zZeCo447Fg/GhvGYfPYo498cr+wJaemZovf/TbEn55XwodsCM4CNkkZMGpNoIGRPSIMVe7y3335bhbFnFPepT5KVOe06HrR0c0SCQ5F0NIgmcuxJqYefc84561QQLHCdFhY2SUxfx4JPBB1eO4KSgJ48RTBee4OOByue3d5EYiMp6PjssN8n0Xnel3mm721XYwiWG6UT+7V8ThpFOSJFwy9JRev36wqGTRRe34fnOGrCsqAky4mLVGn0dYmeJVF8hL6GHRUNkyQUNjbtb7/Ovh8P3tOevnhHsNx1Z6RBexBHcHQZt5Z2OpY9VVzWfw6Nkxy0PYWgJMU5SCRXhqNUw2fhdXqbDNigVLDJeN0eDB01EkOHDFUPTWYdLiIf7Sm+FC/22GM3ZeijOE0DEe0DbNTcT9So6U8DpW78dDQE6gy1gwVDHZGGSkomOowuGIJh2ACZLm51TxTvWDBaCloX2NOjCUBXlEQVJhF0OLs0xXRy3kBrcdDfXmlI3lR1WgPTGe+op/MlNxr07MRHsZ22BPu9WW5s2HbwPEmE5Urxeu+991ZDym2lIx5aItOOE8n47BpsRGw0f/rTn9SIBecxcTSOM4njwWeyg/lDp59X+9l7bL3VYUjQtKFQutSOx/ZRR0rjzA/6k+S41Y7HlAqohtrTw7lXev4VRzv5XPbyIygpcfSLkgY7YUrmzHMSuT1PSEjMt2THeg8N25Gfk4vnRZT79bdf4YhEMWr0dpAiUhWOlUFb9O2ZTNgrbfw5DfpzlIQjNPbw3KdEwlEeEgHBQioqKlJGyvvuu081FJIM5xHEF2AiMLxu2PZ7JQLP0yVK99qutUNXckJft7a08p76vvH78WAekWw1dHg6/Qx0nL/AESa7TYagaspekpIbZ7iywuv7MJ2s7CQRGgupxnHeBucHsedsLR9IHBymjbch2NNDRxsTOx/aO/RLn5RUaRfgsLmOX281eMy06XjWBez8OCpiB4matjGqEIyPRlKOGunyWheQSCgdUy3ie2y8lnaYeOgy1+VCUDWjLUWbC6haU5KkBJnMWHtLWwvY6+84ZntsJzq2M5bZJBQNXQHtoB8bcKJzdsRXCoan9EJRmxIB42BhsBfh6BErtAbDUvemvYSs3pZj5dEGyLbSpNOjw3DbVvi2wLTb80DH21Z8uqFo2PcTQcdnv4c9Dr4ASVWCRJwoLvpxNIWjZCRpSjC6x7Snkw2Fk+8494USpf2c/f4E40x0L3sYgoZRGnZ1704jO9UskiSh47XHxX3dONcV8elrL7BsaSBlvlFt0fexO0Lv25+DkrLuKHmOo3Z2CTxZsdFkQjT4mzBp0tdokoYpAiU8ogJRLGQvRRFPZxYrIqWNHj16qHF2bvUxw3PLcKycDEtWj68szGQaIjXYo5599tmKzVmRSCC6gOwjFG25dS0kHS+v0dB+6wumVTdsHYc2PMZDn7ef47XMn7bAayhx2UlLg3NOOLlMz8CMP6/Bc7ShUNVg+Ndff101cvaSOn8JlhelGKpAWiJNBKpyLGfWDTptE0kEEh0NsATj5+Q4SkK8L9NlLwcikd+WAstn1113xe67795MwOsDlhkdn4fGcs5JSnasN5nEX8BefcJHE9SMTUoG//zX7XB73EqUpeGUW2YswYb/+OOPqynW1IW5pcGVqgxFZeqVrChsAGwo1EnjQdGRFZoVkBIJmV/PwbCDvS17yptvvrlNRxGfYm78a+CJQH+mTzdqbvn8GwLmid1OQyJpbXSGFYp5QilLg9dSl28NJADOWaCITtXALrURlCA40qAb37o0Qoah+kOjOieO8bUFloc+x2fihDWOWvE56Oiv42aa+IYsy51lTsdJhXbbkQ6r84GzRM866yx1zPg5D4V2Hx0/oa/heTrtnwzQadNIdBzvR5B0tQ1NP1eicMmEDZJMeJF2jfX1eFR0S4eUXyQUxqcTPkZVRYV6eDIypQhKHwRf7qIUYS9s7rNB0gjLiqj9SDzXXnutOo4H4+b4PgmIQ5hEfAXifWnAo77aluOcGOrNFKtbK1gNXbCEvh8bAnvi+PsTJBt7Q9FgWEpfWpRlvAxLokqklzM8yUYbOnlMso23c9hBMuVkOs7C5eTB+HdAOMGJhMK812m3b/U+Yd8neEz1lpID7SQ0WuowJESK5ExvIjCcPR081uRMfzodho4dBufncB4Sj/keGGddc+4LjzV4DfOO6dLQaSK4r51G/HE89DnGm6hcWkOieOOP7WlPBNr7KNXo62hDaU06iY97S8Epjx3bXX+wobBQaSBi5rChsTC7de3W/IBUc9joeY5+bBDs2bjPa3QFoWWb+yw09mCc9dhaY6F4zOFmWtJby0jGxeFTWsLpaPxL5Fj5uaXtRF/XGig5kXg0GJbSAo2TiUBLPSUeTgDjXAESll67gs9GQyOhn6G1CkuSIWFxq0EiImEQbaWZ4HmWg/1lRYLDl5z/osFwJHwO/ZKk6ZhGvnBnz2f7/WhTISHbCYHpZH4mSld8efFYX6v37dex3nDkyP5CG9UdzlvS1xE8x7Ca7AnOgObcJw4Lc3iYdYySMgcIdFw08NKfkrV2nNOhX80gOLeD/hwFo+N5SlS8jo77PM96ba8L8c+6PqDEx/k++hkpCXKouTVszL3aC05pzrHd9QfnObBx6ALkXBG+Mcpje4VgRaYRj70VGx+nEVP0ZkMm49KgyswgOZFIqHbwHY516Q30feIzk9Px+V4QxXs6VsjWHNfroOV8bWAvyR6D99L3JZHyvRZ7xdbg8+pp6QxPaYLPx33O62Bc9nyicZF2CTt4L0ptbOA6n7nl8CHTvq6ViO8KcU4OpUV9DaUTGrR5rP1owyBJM+2UWkjETJee+h8Ppp+OBMI4mA9Mn73s7M+4vtDxk5A5ZEw7BMuKBncdr04/n81uZ+PQMyd3caYxCYgNks+rpUWmk1MM6G93vIazU/W92WFyRjfXDaEjAXFuknb6OkpMnNncHmDaWG85G5fgawEkaHtZ6X2qlSRX3SFuKbTQ+AZCZ7iu4OypdGFqUFqhZZuGO4IVjyIb5ylQAqEEweupI9KQSvXD3jh15q0veB3jodMZ35ZbG1hRqbKxx2B4pplxa5K0gz08KzGfXT8LbUDs1QjmEc8xDp1ffAeJtiQ2cg0OCdKuRHIkdFg2HPu1awPDsUFy8pMGn4FkaO/xdHxscNyn41ollGASqS6cWPj88883N2Kdj3ajoz1vdfx2JPIjtD+3HEninBbOKOY+ySr+OvrZ78vzrcVN2OuGHTyO97MjPt74sGu777qCRMJn1elhXbBPVOSWZcJ6c8cddyi1lqS3pbDBZMLKxuE6/aCsTOwpWZiJMpLGQjYkEokuQHvlZHx8d4JrtRLrIpW0BV5PcuPIgR41as1RfWH61wUchdLrfBB8DkoOlDIo7lKMpq2HhKhVCDZ6hqNUQt2f+8wjvnjGBYW03YKOIyIkVFYMxkMbEw2lujclKOm1ZitqDQxHyYoVlEOP+n7sqWnQ1JIF08UekWK7PW4SGsuXBmt2BBT9SUycf6EXN2Z4qm+UbOwjbhrsNDiETNVDOy4cZSeA1sB0sYzsRmtCPwfPU/Vjh6TTzQlp7MTYwTGvubU7+rXmKDnqeDg8TT/mHbetXcuGT8muvcByoj2K6izTwgENDo/rdMWDEz8pRbZ2flNjgxdHot55wgknKFZk4tlwWeFaIxOGod7PEQA2Djt4DY1sHFZkuETXrw28juPxHL0g2Oj1CBHjaytOPgsnU3GiEsPRtsEG1hpoYOQ6ppxIZZcO7PdheuzPQhKhTk3pxB6GkgGf274UAR1BQiTx6ni10zNPua9B6YLqoTbSclYm9XkaSQkdJ6UePitVMy1ZUdKiWqnXEqXfhAkT1Kv6vId+RhKajofHOq328xxC5nOyIRDvv/++eh9JkxVhTzehj0lANBTbybotMD6K9zQyMw6SGN/BoXobD4aNv29rYCfH/GFd5bOR0GkrWdv1rd2D/nyvRq/9SlIkWZ911lnquC1QdeGIpW4zHN3ichckSd6L57mYEusriYzkvralIDcVNkgyYWWjGK/f76C4zsbCbTx4nj0vdVZmHisyr9fgeRYeeyxar1mJ7b3whoIZzYqgK3pbYHrsaWoLTC8NwJSg+Cawjj/+HvqYjYhEy0KOH+pmGE4cYw+vLfd0Oj6dJh0XyYUzfynSbigo1bCHZS/OexG0G3DIVR/zmTitm89IP5aHPS06PQzHNOkw+hp73HbwOl7TXiAxMu0E46Ykoo3S8dBpXhcw7Xxe/Qz259/cYF5SPdVD8LTXcMU4DloQHGanasP0UTrWK7JtCWxQybInpwGVmc1C4gQmGgh5HJVjGovIwnxBafR224tIvgMuvPBizJo5Tyof7QRuEfmzpCc8URWUrmRcB4W9oRZD+b6IzjQiUQWNB+PSFUeHV+lK4AgWAisljcIE/ddW8XiePT8nUJEEOV9Fqyp8HhIIwUZL6YWiPFUEgtfqexM8Zo/KXpD2EuYr7S9MF+Mi0XJCH42OP/zwg+qFKerb06jvy1EpkjzzMX70h+H1NUwLVSjq3wzL8qRhka/R67SxEjP/OSJFgyTLhdKGbliMm70i1QpKNQzDZ0gkCepjxsnFijjXSDu+Ns+8WxuoVjE9lBI4MkNJgQZlGh8JpokSVvyI1YaC+aAd66adBHUexcP+zO0J2ho5vK+JgnWVxEGpk3lOAzHrDIlUzxjeElhvMiFR8AF0htIOQLGUmc25JhWlZWr4VL9ZGo4ErXPMaIewu4ShTs4ZszfeeL16Q/iEE05SlUEXGMPymLYIZhgnX/H197WB19ihCze+kGnMZKPlXBWyPkdz2BDXFfrZGS9HsGgfoe2BQ620ebABckv7if1N39bSQ7CHp2rGSsMhTV6v46IKxKFlItG1BEc5+IY1e2raMEgOnGeTCFQr+fyshHpon2mn9BQfP49p72KjpyrFMtHp4jOTTKlOtTaMb4+P96VUx7RqR1LW5ETiJFklAu1eJCoSKomLz8cRJl3mvI6SMcltY8HyZbp12nnM+7RGIpsDtMlQ/SZ0WjhyxI6Q+cqOq72IdEOx3mTCh6Buy4bPfRYgRW+V0ZL5Bfn5yrqvzkdoRLX0chY2G+5PUuEfeeRROKTx8PXjDJFqrrvuGul5X1YVRo+K8HqdaTQccnnA+IpuB8/pNGmnyYnQlYOOlZIL5/A8HZ+B6VPPINC2Cn1sh47DDu3HuFiwvD4+zPpAx8N00dnjSpQmDZ0OjbbSEH+Ox0x3Iuh46XTa6LgfH088mF4SBcuVZMF8tYOkRhLksGpryzAyDtoDqBJyn3HotOi85rAx7S2tPcP6QD+Tzmt9L27byv9NCd6bL8/SHsL8ZDp0mlh3aavakioOsd5kQlGXb3Oy8PlWJcVWGpSo3kSkDKLi+JAs8MamWnnYKP7v/67FZ599IoTxgpyUTHCzYgqXxO5OYhk5YriyVlMt4NuuNCQyHlYi3o/76wNmcnzF1SAZ0kque0KG40gDGwjXlCAZ8vpkASvOpqjE+hnXJ26dFn0Nt23lFQ2GNMxT16eExVEqO7Q0QQmXUh6P48H42QFQjKfay7qh1TOSB1+n4BIFuuduD7BO8Nm4ZePVdWlj64XOtw0BpT/apKhysl0wXXTsGDmpL36ka3Njoz510VpF4kQnrs/AnoLQYUg2hFCJtSNo694Uv2mPoP1lXXocFriddNZW0RMV7MZWlq0Ra8unjUF7xb0p0xgP1iMOf3N0kPtUP/V0fmJ908LwHKzQE9pYR2nboDF8Q5+Jceot49hcedMW2uW7OfHQ8oCON7F80DaR2KEzLhkybGuErnCtYW3n1wXtEUcyY1t/vvZAe/PIaiCJxBOJM+axPjc2hbhxWFv+tUf+mjIy2DDJZG1qn6lXBtsIjESy7tgkao6BgUHHg+ERAwODdoEhEwMDg3aBIRMDA4N2gSETAwODdoEhEwMDg3aBIRMDA4N2gSETAwODdoEhEwMDg3aBIRMDA4N2gSETAwODdoEhEwMDg3aBIRMDA4N2gSETAwODdoEhEwODdgSXLFhXMKRe88d+Ffebj3Uge4AkhVmCwMBgY2Fv6K0sfbK2dVEiEgl/ui1K6NhPHWwVawQZMjEw2GCw+UfkF1Zt3SFUQGe1fN36yQQW24QlZAiNsq0X14D5Vb9gbtl0NIUaJIjQR5Sr36ugSPFmomdRf/TOHoxMFMKNVHHpEjs/u5qczGLIxMBgvWFJEeEo6aEBUYf1eRYHXPJLkS0dicUC+YGSRxA1qAwuwNzSn7C0eh4Cjlq5yG+FcfLrDkIm/LYUr5BW6Yi64A6nIj+tGwYWDkX31GFCKV0lXq7gb1+WPTlgyMTAoA1YcoX+T+UjpCSL6mgpltTNRXHVPDT4K9TH5tyuVBTm9EWfnKEocHWGT2QKh/zndY2RSswqm4zZFdPQhErhipC0PmtVeaUC8Wb8ip2EtUyZLVRBicUZcaNf/s4Ykr8PMh1FQideCZFchGLIxMCgTVgkInKISBYNoqSUYV7pj5hd9jMCrjpp90E4IvwKoUtCuCScyCdRLzJd+RiYPwa9cgahtKYYc1b9gNLwAvjddUIODGV9QGtdEZFr3JE0dEobgCGFu6JrymAhlLSkIhRDJgYGbUEEBaooIUcNqrAAM8unYlHZTARdjaKS8FvO0pRjLUg3aqonzogHrrALnfIKERYVZkXVCkTkGuu8pQKtDwmoD9zJFa6wB/nuHhheuB96Zo6AWySfZCEUQyYGBmtBIFqH4sBvmFH+HVbWLZKGLaTgCJNnrA/LxVqyQw60rYQaC0mD4zNRp9CRhKepVgW2kUns0rWCtpSICu1UhNLZOxDDCvZF14xBQihUedY9rk0FQyYGBq0iDD/qsaj6F8ws+xJVoWKRMoJsNYpIorbWy2O2ZjuhqDD0J4koe0gM6kJbq9NG17agWql1Q5KUO5yOzFA3DOu8B/oWjBSVh0bfLQvDIwYGrYCyQD3KURKcK0SyEmGXX6k2SuWIa7k8VHwh/7QUkpBICCW2hFvc2oiEIOHEwjP+kKsB9a5ilAbmoi5YJjHo+205GDIxMGgFEQRRXLkAKyrmSiMWiUQ113Xs/5sJo/2auIpS7VBtCiHgFqmpkiNKyxV5rRMpbUIYMjEwaAVhBNAUKYc/UiPNlOKIV3zd1sktBDuhQAgl7KqG31Glxpq2NAyZbGVg38M+SDs1YzLWKXGXzvpnOzbYIHC+akgaaURacEQ13oD4cgRnS8Eq0WZCkf2oswGNzhL4USXH66gybSIYMtkKwYrEgqOLSs0KOWPidFS2UU6GCkmV4iRv0e+FbcKKcQzWB5xIVt5QjJUNixFxCYko24aV98zqNUHJxbXxLkYTiaHuLo6EQllJlBsp+yU1M7Cydo4ivy1Z0oZMkh6sHjHRo9nFNv4InDX1cJdXAAuXAJOmIPTWuwh/+DkcP0+He2UZXE1NcPn57gfnOFAUthqFQVuQhiqSSDgYEGdNd7dDjddIw1/dOVVjaosKWgOv0Z0DR2pai4VGX6v0Oe1enNqXUpU0NoZqhUr8yk/7b26YoeGkh716iFgbDcLhD8A/bxmWvfkuVk77Ce7ilXBKhXIKUTg59TpWrSMuLwI52fAN6Y2+R+yPrF12RjQjC1EP5yVwtiZnQWxI9e8IiKK4cQZ+rnwPxQ3z5JiEbocLjohbnM9ybEWS92pUpZUsVd4JZr3yKkoalDIpBVF1iXC6vRQ7Q7eQyJrgfV2RFIwo2AfD8vaBD9lyDUu1lURsQhgySXpINaL6wrpcL5Xs199QPn48Fn89GSkBkUwiltTCCscKxPc4NFTfJZU0JBU46HUhrW9v9D/ueLj23RPIywE81gtjBi0gwXJkJIR6FEd+xh+VX2Bl5dLYWcKSWhzhVLgCGSieXY/p3y1F2coahMPMy3jSWR2tTaGPRiPILkzD9nv2R88hGQh5aoVUaKOxaKRVQlFk4sWogr2FTPaFF1KuJDr127wwZJLsIFn4RUWZvQgVr7yOmR+9j6xwBB5xllRh/Q81FyKPdDWiXs1ejyRDBScKv9uNjEF90f/PZwK77wKkZkgU1NUNSCRhNKI8sBizSqdiac0vCLhrpCEzPy2S4J47nIFoTQ5+/moBfvp6PiK16ZK/JGbCIvd4KI5nOTSXzeqgVBJ2B+HMbMKuB47CqF26I+wrRdhVr+wiCYmEIJmEPRhZsBeG5e8nkkmueBoyMYgDjYCOxiAavpyGxXfdgVDZSniD1qRqh/RkFJlVRZdKqqZ1C5yt1jqrIbBSB5xyXXoasg/YCz0vOR/Rwq7q7Pq8eLatgXkddjRiSc0f+H3Vl6gML0bU5UdE8lMRgYCk7A5monimH1M/WYBlCxvhDHtFMhBCV0ShikSQqBAkzxmRjiwODqo4UnhhGtN9TRiz2wDsIFKKO6dGpMoqUX9oD0kQr7Rep5DJiMK9MDxvf6QImRg1x2B1SOUO1tZi5QcTsOrfdyM1GIVHvZ2qq6r8V8MKLRWUG+W1GnQ4whZWXKPLDey5C/rcfDUyC4rkrPRoLUG2QHXcQpDM4JySmaXf47eSLxDwliLo9Kt8U3kgGcI1RGpLHJj+2UrMnVaGSMAjxO2WINLEVQuiI8FbEkxCNIdbHZZsaeU7y4VSiiIykYr6j87H9vv1RHY36TDcCQhF4qSas13BfqLm7CepzJLYrN/mhiGTZASJpKEeCyd+hRm334chlTVS4VixY++EWKFiYKXRFWfNsxbEb02WEWnGgVWpPtTvtxd2//sVSM8vVAZcBXu0HQDFNQswfdUnKAnNREhNmydxx5qlkEZDhRtzplajeEYQvlCOZB5ViZYs0uuSaHUoMdYtU61YOG0+gLCnDt2GpqLf2FSkFDTJudXLkcXqDvswqnB/DBUy8cbIZF3u094wPJIk0NWQTrVnqZiuhgDSRc1xsveLhUmMts+qisUuQ7mWSsZeNScQAqb8gElPP4FwU734sne1zncUBMINKK1djIrGpQhzNCVOumCD9UR8SBES8YalsYokYNFMPDjzw9mKoyqqxnrEtZQ1nS49XYKM15JW3HBGMoUscqUOpKxWdnZ4vClwu32yt2ULzpBJkoDVgI5Vja+JOdJSkTO8H1JH9pUTQias0VKZXLKJrzKsY0o0ZiMQvZu9pOWkSjqoutDpolaB9R584TC6VNchOvEHfPPS63JOemTaYzoQ/JEGNDrKRQpoUjaLiFOeX71XQ+nEau7MfpJvJBJ7hU9lukXOJAGR8C3/ViHlIWFVaJZTzKmXAtXLgy0uipCEi0hZO4ROYtdI/InhhM/jg9dtGYApv8aUs80OQyZJAlYVVsayugpMnfs9yv0VyO0zACOPOxZ+FysiKyErrxCDqlesMKL8ULyW/YhTlCAXp6WJihQJIySEEBJisJwQlFwf5fXOmHO45dijnDfkQN5KaUxTf8KKWXNicXcc1NZXo7y2TNprGG5p4y71WjBnpFK5FKjssPLMJRuuqcbGTkfiDfj9qK+tRTAgUo3kc1NTE+rq6hAKCTHEjuvr6xEU4o7ESIjGBdXwhbhCQmK+ghC6DEpHfncfXCksa97TojJ2BE5RYJxRSyLS4BwTTpbLcheIK5J08d2hlvObG5I1BskCvgmyqGoRnv32f3j9h3dQL5UqmpeHoIuVhEVl9Zq656H4HBYyIdk0ud0IZmbD2aMnov36I9K3L6J9+wB9egF9e8h+T0R690K4Vx9x/cT1Rbh3b4R6dxf/rkjr3hmhqkr88NXn0juzx1S36BAIBBvhD1rzOqLq7WA24TVh9fokAtnSSbD6BlGRyspQWl6GhsYGNDTUo1z26UgonD9SX1+HVaWrUFdbF4vJavKUZUKiVnXpn44dD+mM0QenYbcjeqDf0M5kChXGmszGHSn/GBGpq2NkxG22V8jEWyQp81jXiNsSMAbYJAFVm99XzcZ9Xz2EuY6lyEzNwaH9DsLpPQ9F9KOvMPu2u5HTGBLRV6QMaewNItbW9y5Er5OPQrdDj4YjI1OIRkqS6k0szli1kwrHno4iO1dR16/SEzokj6XSqv/040I7rJh67sS2jfKmpfi19DMsqZ8u0l2jsm3oHCJcUQ+CpVmYNyWEZTPr4Qp5JUujqK2pQXV1tZRdCNk5WcqvqrJK2r0D2dnZIsW4UFVVrd6Pys3JRWZmppIy9BC8sqF4azBkbCb67JQhnYYfnmAGZk+pwoJpdSIxpkp6Qug2PAt9x3rhzZO4XDEjrLRaLg2ZEsjCdkX7Y2DRriKZWJ/B0L/NDcMjSYJANIjiYCmWh0TdEFm6NliNWaW/ojSlBinDhqBgx52lsnFtdDkn4m5oxBCM+ect6H7iaQhmZaNaqtLSOgemrwJmVEkDkV6zQeLlO67haABonA1UvinuBaD6OaDmGXFPy75sq+S46nk4xN9Z/ZJ0t19LA6iJXW1RzLaMdHcm8hx50pDZHCx7hSZizv+wiDgsjVd2YyJbNCLqZDCEsKguuVk5ylEZcbpcyM/LR052DsK0rwiRZAmJZGZlKSKxgzE5QykomR9A9VxRV+q6wlGeJxJiujLyKsOtUnE4c8Sy36jksPuXHdpUslxFkv58de+Wctr8REIYySQJwB6tuLYUL0x/HR+VfIkmD8XtMDIc6Tiw6164fORpqJ34DX7/v9uRHYigJCsN4QP3wSE3XI2GsBtTZlXh6bfnobguHSmOLKl2TUjz+rHzyHyccnAndE4Lo678dyz99UHkhSaJZl2nZA/2cIoqKLJL/YtITQgjDcjeBVkDz0Vq3k5yVq/fsWUq6OZAONqIBSt/UHNMalKLhcwpvWl7iSg2UReCq7KwYHIUy2c1iJdlm4jQBhIJwyUkz4ZM4uDPIRJi81CxisRqYVoi0VB5TyOs0w+nNwCX141w0IGwn8O9lAxdCLtD6DUsUyQTB9z5VSo8r3RFXPAE8jBCpJJBRWNFhkwVf7tUsvnLy/BIEoANuaqhCrOXz0PIKbJHlAa+KOoj9VjUWAy/x4WcEdthwHHHY6lPeqwxI7HXJRdgVX0UL08swb+fX46VDd3lmiIEImkIRfJQ4y/A59/X4J5n/8CCkigycnqjV599EQlJDyxSUCRK/b1O7lUnVbYO7mgDvLKfggo4GhagoXKxnNeSybYNh8ONTvn90C1/uKgwWSKBtL4AkiIA+YU5NVbKzSVSpB49cwqJUDLRpKH8ReXhYTyRKAhR0dsZEfWkKRvhmnSRIFPhCfsUga0OCaj8SCROuINZ6JQyFEUp/aTc2DUwfn0PK5WbG4ZMtjBYMWlSbZQGXhkuUzqyVSksyaEyUI5fV81GpFMe3PvsiqahUuG32xFIzcH3c6vx3mclIgoXSg/pltDSW7LOSamGRF8PuLLw20ofnv94NqqEZJA7As6cYRIuVQ0xU2y3wN5XhGpVB+XiYANCDSvlYMuv3rXpQZOqC2mePBSmDUCus6dIBWmWKqHOWmVB9YL5Y6kZsi8Swjo3HpKGUlp4L8ZmQQ0V66n4Kn6Wg+yoUJZjOixnXcXPaLhCGch29EDf3FEoyOxmkRbPqRBbDjTZMcfWDesaroNAibExqPkH6g3eFvBYDxOW0eJfWori4mKUlJSo46qqKtTW1EoFofnVjwArTcQjhBCrwKIvr6hciTd//QilrnpkjhiKfW+8GmMPPwCLVlbi7c/mi0yRL+E5G0GqqqpNFj2pShkWQgqmYfHSVEz8dhm8KV2QUjgafke2BLN6X44WsKIrcVtUK6ekwx2ukZ6vQs7SYJto1u22BJK2SBSOFPTIH4Th3fZBjnsInMFsKQuqKixXawQnJGpNMBKSbA2LasQhd37djz8Ow1v2EbK5WqE+zrFweNpSfSTPY1srBRZ1SEj58V60jkg5yk44KLGHGd4FZ8gDZyATmdGeGNppT0nvYAnNIWxKLFJ3Ytfr2DY3HFGVAzFs/vtv1WBh01VWVuLrr7/G9OnTlQsGRY0QIsnIyMCwYcOQl5eHrKws+Hw+5XhNKBRCQ4OoFqK27LTbWJT7avCPz+9BTVq91bBjb+w5pSLnBrKwf+GuOG+fs5BO46tcP2VuJe54bh7q0U9VtFjHFQOvtRxfl0+JVGPvwU247E99ESj5CDXT70RmZIGUN1cQayl+VQEkrkBUCKrz0SgcfYX4FUgsrKxWVd3WwS8CB1CD0uASzCqbguVVM+AMu9C0KgU/fFqM36aJxMZ3cprzIj7/ZEPH0/ZTCeCkxKIKzoqLu+pyKV9KG2rfGcbQ0d2ww4GF6DWoM/p32h5dUwaIbJlrEYm61rp+S8OQyXpCEwgljBdffBEzZ85UEobX68WYMWNwxBFHID8/Xw0NpqRwqM6SUJQoqiSOlspCRKRHC0pPN23lr7hl4j2oS7HIpLmRSw3zhL0Y6O2NM4Yeg137jRVPB76fWY1bnloEv7e7hGGlioeqihIyAp/IL3sMieLKMzohsOoTVP98J7KisyUajlzYil/VZpFNHLmIdjkKBaOuEt8CcZRiOljlkDLyO6qFrEtF8gigqiyA996ahK++mCaShj0/WvKPfpQMms/YmpYdylcFipXRasFYYqwzlC9ZDyLYa5+xOPq4/dGlqBBepEtpcPKaJYkkE5SWY7BuoHpy11134ZhjjsFll12GxYsX45BDDsFzzz2Hl19+GVdffTWGDh2KosJO8HktIiFomCM0EWlYlcqqEvQnsawuYQikpkWcQayoW4Yv532DKuk1GYg2jxSvXBuLj//XuFagCELE5Eg4oApbKUEMp3rFluLXl6pZsgKrSltQcVu72zj4lHxuaxjWhwzp/3sgP9obndN6ozC7BzLT85GZmY309MyYy1LbtPR0pKWlI5WO/hlZyJBwaRl0WeIykZqRJufSmsP6MtPhyc6AW1xqZoaSZOkyJSznpGRn5SAnOxd5uUVIT+ksFJIHfmyLEkmyEQlhyGQtoM1jypQpuO6663DBBRegoqIC5513Hl555RU8/PDDOOGEE5QKowmDYHuMm1LQLJnYJRQLlA3Uy//wNTduOc995RxqklqtrxEzGubhq1++ltNReNy0bzQoUZk/+nGzOqHIGRGTna5GeN01CHEJg5BcE21CVDHK6oRB0Dss1TYkPSDUpDWti3cE8ClZBiLpOSjtUZ2Rxuvg4kdpcIt64xKJQQmODB4PVba8zikdg5Sbyl4dJ2eCCA1IGO3cYa6Pwi3zXdQrVxBBVwQhUXGjahRI5A+pA55IClKiPjWNMJnLQdfe9UZLNdw2UV5ejv/+9784++yzlTSSlpaG22+/XblDDz0ULlci1WLt0H0fwYphVTWSiWwjseKwqzkxhKWClYTL8cOKX1HZUI3cXB+2G5YjV/rFSQwcFZDYlbFPgVuhKDnu3ikDu23fC1F/KQJVS+CJ1qt7qJcHBYqMVKrEyW7E6ZHKnCbHsWdU0g/Pr56mjgY16qJy2coJ5SSb+ZaOCH/iKF1G1US2UDCo8o2EQDU3FArKeZpV48DOQDoLjwiyeZ29yMiV+J2JvxpolekankmDDSYTQjeK9YYuiXWFDr8+16wntApSW1uLd955B+effz5++uknXHTRRXjppZdw7bXXYvDgwXFSxfqDV8dnOsnAhzT4XNYX7a1Hlf92UpGeKiS91szqhXjzm/eRnefDAbt0RUFmhZBQgxW+GVbDlyqODF8NhvXyY/TAHARqlqGm+Gd4I1xqgOctWE2EqRIf/gmRuDx5cmz1sspTSU36io4FXR4c7Vo9n4FAIIBVpSVYsmQx6upqEAz5USbHK4qXo6a2Gv5AA8rKV2L5iqXWuzqSh9YrgpKfIsUIzaCgN7DzkUXY7ZhC7HF0T/QZli/nOEVg60J8vV5n8MINuZjVnKyrnD5em4uFV3VZPOi3/lj9KhIHexCipqZGEcZRRx2FSy65RBlUX3vtNTz22GPYbbfdlHF1QyWRtYGPRGG6e3oB9u26EzIbfJKv1gtbFmJVWdIbEmJZlVKJNxs/xtPfP4NhfX148LLBuHhcHbr4vkRqdK64FUiPLkCR43sc3P8XPHhRIS6WCoqaKaid9QCyA9NExK4Xblo9P3hEc2xA1Jum1P5A9nDx4axKQQJJqeNBnl/lA3NKJAwpj+rqKiGJ5Wisb0BOZjYioQhKilcIgTQiPSNVqbplpWVobGhS9g/aQiwwLy1KcXtC6NTVhZxuDQhkLIUzqwLw1Uk30CRZLuQlzrqvdWUyY4PJZEPALGTz5VQozmDgl1y4/va6OIbnN8tqJcX8kgkLc/2w5qOSRJ588kmlynzyySfKgPrUU0/hzDPPXM0GsjmQnZGDEb23g6vRI/Us/t5W5eNWBGnUi5ryR3gOpkdnI5jahH137YUHrjkEN/+pJy4Zl4arT+qEuy4fi8vO2gc9ijLkycuEKX6Fs+l3RSQOrjOaAFGhtYAjB8gYiJyiQeLTMV70Wze0lAFtIzSWc94JJVUaTWk3Y4fDepmeno6s7Gy15ECj34/0zExkZGeJZLM6IzDGaMSFylVRkRhFMm3sDVdTJ7gi6XCJqklQMbJ+VvhkxmYdGuZaG79FarGgogQNnPjjcjZLB2sD16qiHpoqDW3vrkPRPdoybbktSJmvYQxlgS9btgx33323Ej3POuss7Lzzzs2VgdhYdWZ9wHuyos1cMQ93f/Yg5qWsRNDLIeJYAFWN5CA2BExRmb/uWZ0wbsRh2LNwe+QgV5o+KyBfBfTQWqJ+bn58q2EqggufQP3SL4RMGljqzRWz5SkdUj7pqHEPg7vHn9BtwHGSBy0jUh0ZzKu6+ka8/8EETPj4czm2JrFx4po17O9U9YUT3FiWqiMSPxJOOEJDuUPIgWFWr4g0yLKMubqbLz0i0owXTVxAvEYqbcitrmPnceD+++KIww9Bbla6+CUvNhuZkNMX1Vbhks+fQ5U7Cn+KS32ewRWWis33HNYCZiIzt1NKJq7Z82iMjWSuVfUgkWiwHFnQy5cvxxNPPIEZM2Zg+PDhyhbi8YhaoSqDZTDbnOCTs2mz4VeFajFh0UQ89cNraPDxEwtcB9QKZxVOzJFI1YUReET/65nbDbsN2wnDOg8TOkgTdduBbH86+qR3kjwrRaD0DTT8cj/c4QpVOXVutzwpK61TpL8c+PMPR9Gwi+FLGSjeyVx1Nx+YX81kMuEzNVLDErPKrgWq7sQylXVaUXasTsUTiQXxY3HqglALhjO8eMulvAMJ6oD998ORRxyCHCETHTQZsVlqCzOcJsIZngBKUpxokMYbFAkjKmwSlD405HSv1QXE+SWXmd0hEcdVb27jwXhoItFlSDvIM888owyq3L/hhhuUoz1EE8jmJpIWUHsW7cKdjlEZg9A3XASP36t0cJ6zismeNiGEmB4ddEWxoGYZ/vfdm7juzVtx5evX44HxjwpZzpI8aEC4dhoCSz+QBlCJsFzDHGNM9tjoF0Aqqt0DEc3YQYikhwTYLFVjqwDzyiX5wWFaNnJ2alJ71bC8y+Zo43AIIdBRkqZ51S3ZyLCOaMg6rxz3xUVCotJImLCEDYVlHyJJyr2EiLhujZudhZMjfXw9Qq6zkpO02CySCW9QKRkyqXElbv9yvJADs9dCeJ3rrIiTclH3lGxcu8dxGBvma+BSUEp8JPPHJV7CSjmhtrYGb731FiZ++QVOPPFEHHzwwbbwOhVbrpiYAnsquNDOT6W/455JT2FpZDHCUruU8Tl2nhKMTVxphjonEeU4MjCu6z44c6cT4PXPR8OSp9Gw6B14o1USRhqAuhnjiF0gu1Jl0eTqDUe3E1A06BTx6yQnOcsznsQ6LsIiQdfVNaLR3yRZInnCLGTWxNe7GIKBEEpLy9SrFtlZ2cjOzkFVdTXqamuRn1+AwoJCePjGcSy8BRaK5SiRKEjzTEtNRVp6Smu3ShpsNjKpkir7VWMx/vXlmxtPJnseh1342jZ9hTESEQoXrvn1199w9113o6hTIf797zua1RnGRbSInhv44HyIjcwzRqHzglFxRmujowkTi7/D/RMfR22KHyGXZVdS5/m/FTIhUYzpPAI37nIJCuBHU9lbqPz1MaQGV0gvyh5RrlZp1ndkVB6R+ArhLDwI+YPPA1L6i6+eLr5pRrC2VrTk2ur78WDOhUTSWL5iJVatKlULI2VkZimDP12XLp3RvVtnFW61wreBRSRCyRr+yYx1bsobAzZd5gm3zDudf7rHXR9QF23R+i3JhAiLqKjJvKy0XMjjP7jzP3fioIMPwL333iPqjFvCyvUiLhKrSya8sBWnE5zItQPWrC+cCevFmMIROHHsUcgIcm2L5lkgCWBp7yQShksN+9TbG/6qX1E9+32kBEqEEiwiaYmBiefzRRGKZADZuyG7/3FCJH3EzyfeJBNDJITOKb4bzJcArdX7rZy08txqRHa3RjmpWbMsJ3sZSFjZZZ1kn8bqaHeMiDWV0rWq10xIkoPPvsnBfGD+8J/uVNeXSBicK4d7JDL1wj2lEUl+s5MSaRIRdMJHn+DCCy9SM1jvf+A+nHHGGXKOUgsbh+i9Trk6tm85xqz3Eziebsu1A1aLSnaYvgJ3Pg7qsS+OHn2Y6N0elW51UmWmZTNpeSGQOnkUPXK7YP/huyEtWCV65VQ4a2fBrSY/8VlYlaV6csFkkkXUJ0deuHIHI2/oaXBnjJEwnPXKBMjGoLn9MjusOcpcHsJ6Q1u4QTV25WTf3t7VVuocDbCcFUtrB8+zHrppA5GtVSIWbLqB8tO1jwu4qb5SHNuLCmcLm2zYKDWHGaTBZ04ERs7q3CShP24qxh0xNUedW6/72dWcY7Gb9L9aEiH4luXiJYtx6y234rDDDsMxxx5jFYRgS4zSbCyYb+wNf6+Yhf9MewQL65dKJksFlUxQzgpmVT55Pm/EjR0774jLdz0dBeU/omr6/fAEfxcysRY4UpyjYNlg+Bqb09cDaX1OgKfXheJPtZFDy1tXPm1KrCotlTq1FP4Av2UjkH+U8NhkVJ1SoVrAVde4hGN+QR5y8/JRU1uHutp6pKSkIiU1BQ0NjfD7G5GZmaHmopSVVYgrV9equipiSFSN6BD22FUpSx2Oolev7qIidWuu28mETU4mBLOnoZ3IpJM3Hedsvw+OT6dI3gKKinwSzltxu7cdEd2PAGY3LsDbcz7EF3MmIShCBWfC6glQ3LglIwfk9sUFY0/HCOlBo0sehH/hW+LP6X0sZLVRO1wRPRzNgDNzMHIGHAkUHiwnaCcxE9Ti8e3k7/DGm2+jrJzTJS3pV9X0GJkQq3dSUXg8Luy1117Yc689pMHLOVZy/sWCWYZVXuvAx598holffiV9hJaw7XG1QIUWfSoaDeG4Y8bh8EMPgUsZVJILbXFAksEp5eLEKn8DXvrxa/zmbMIsZxjz5AkWiVsiIRZL/i4VIlkixLNKju1kt7XCJ6rIiNTB+L9RV+D9417BnbvdgL08I9CtMhXpDQ74GlwYnjEEF405C9v5esJd8zOa5r8l0kpInt8rWn4q6pwFqHL3R0XGwYgOvht5+05Czi4fCZFcKncYLM4QSWvgMg381IVakzX2FjeJQJGIkhQtL+XEn8uzNzb4Rc2uUiRUUl6G4tIScavElWJlaTlWrqpASUk5mhoDIjlygqFLEcoa8TXHK52AVOawHATlHlp2STZsRZKJhhSu5GxmQJIrBcqJa5GwSC3inLGhtp4Z+bht7xOal/XZFsBCshyX6qnHwooVeHfKJ5i1cB627zcCfz74T0BjJSoXvY7wsmcQlkrKGa2haB4iqV2R330HFHXfCQ53kcRC20jMBrO+hd6BMPm7KRj/5rsoL6NkQqKQvOIfJRMlHYq3+mflIf+7RTLZYYftMXrMGAaUWh8LR8iO9eYx96P4Ydo0/PjDj9YpOp6wxdcCOcv7UTI59qiklUy2SjIhtAGXhBLlpB9JvGUbEb0yMx+P7HIS9GyJbQ0sMK7CxcrFz1Nw7QsapRvqS1G+4iekOGuRnlWIjDyuWJ8jWeaTjKL0QcOr5J/SCXUGWhuDNfHH7zMw6ZtvUVvPt6ylflnezVnWorLEILtu6dD4dvnAgYOUJNE8X0SgVCNbc5s1axZmzZ6t6jAHFKyw9lYVg4pHtlK399xjD+w8didLhUoyJC2ZaLLg0JvkoQ1Ud2K7NugwXGW9V0YeHtrtZLAP3vYEeOtBlUgtWysrrD3Lh7lNX1ZAkqvsciSCxawySTwMkawXmGuxnFNZyKxU2Rmff3JMLxVWn+OBRnz49YS6J3c2Mp5NhbY4YAvB+ooZtzRK8RshnMZMp5PLacfekPQC0m5YuKqAYxnMsuMQ8rYLPqglKjM31GPbKyyJQzkaDPW+QNXu2BVWFAbrCFvOWdknB07JVm5Xc7F8XYNk2gmMl/aTZIVkQXKBEgnLwiNEwYmfXnE+IQ5KKD7ZT5X97IDQDHM2VmrNRBK7lmE7Eigmx7LAINnAgtGuHaAMv0mKpCKTsOQTXWbYhd069cMlow/CLQedg3GjdkFWYwQDMzvhyoPPwDn7HYmdd9oJfr4nYWBDO9ZaA4P1RNKQCYUJZScRl+HyoqcvG/Xzl+LHqV/j68nfIicnF0eP2g1vjn8ZT014E1OmTIXPZ9bbMEh+6Dkp2zq2MJnw9pajTcQljurNqnAj3pv3E75bMgfLow1w52Zg3E57Y9KXE1HlCiHidSPkcogUYxt2MzBIUthVk22ZWJJGMlEvTPElB0LynutHpKSlYHnJStQHmvDdbz/imMOPwgXjTsLF+5ygiIRvHOtRHwNg/vz5eOihh/Dtt992mN5wa8CkSZPwn//8B999913MZ9tEUpBJNBJFoL4BKWFO6gG8DhfyvWnYYfT2aBSWCUQimFG6DP945xk88e5r+PqXyeuxdEHHge4B+XlSg+SBnkeyrUsoSdEkmck9Crvg+L0PhzsUhaMpiIyoGwW5nRFwK0EFARdQ547Cm56GXUbtYkkyMRcPetF1NL5hBaVjftorrsGWR0cok5b2tgHPyYu1WxvajF5Ohhua4F9ejAcOPR83HXEmxu6+F+748iU0prowcsQo3HToObj+wNMwoFsPPDzxteb5JXTW9DnLqZe91fKEPLb+q2+2GhhsQWii19gWiWWLd97M3rC4yogf7877EZd/9F/848MX8OzX78DldCEgIvs3c37BjR89hbsmvIjPl8xAvbVio4GBQRJhi5MJwc/ENHmABnG1QhQ1PqBO9vkJmSZRc2gfobpTlWL5cVV7M4pjsDViW1Z1Ni+ZiBjCr/dbtg6npaaIt0e0EG3/4L46Fn/lF9sSJBDuMw4DA4PkwuYlE8G68oAmEL01MNhasS2O3CTCZicTo50YGGyb2Cxk0kIgUfXGLxF2ckFktMukM2tEpwU8ZLTcGsHGwGDzYNOSSawl8yZs3PzkAueLBIVRaFR1RPmlMrLLhjm9Qvtqxlg1LZ+LFzjVV/2tU5tdADMw6HDYLK2MKiNXJynkl3BD/D5uRC29yE8o2ueLbIjToITDQ35ekUsV8BVAEomhEQODzYPN1tbY0Itc6di5qBfyGqLI80eRGXQgPRjZKJcRsFyWP4K8pghGePNwyT4ngFNRvBRgbIRjYGCw6dCybKNdVWgvMGZKDLIV3uD30NAorlxONMAPt/za+hwzV5XiHFYqLa0t/8Nb0PHbPFy2MFNcD3iQKp4cCVLnZYcxENqy3tp4v56O3hrWdv2WBF/0+/DDDzFy5Ej1uQWD5ABf9Js6dSp233137LzzzjHfbQ+bVjKJtTe2O0oK6eK4YvwgOTFaFJERQibbwZXQjRTXs7IW3z32FHpX16ljuvhwo8WNEbeTuB0lvsFCJLwPiYXT6MORIKLhgCIBflOHLh72oTuShD62+2vw28b2OHg8Z84c/Otf/8LHH38c820bieK1gx+7/uWXX8wLewZbFZLWpMCE0fEbrfwWoz5eV5AU2Oi/+uprjBmzkzTQKtx15z045JBD8Mcff+Dggw9GIBBAfX09XnvtNZx88sn4+eefMXToUDzxxBPYf//9MXbsWNXwSRjE77//jqOPPlri/Er5h0IhtX/22Wfj2muvxYEHHqjCtQb2UIceeuhapZrZs2fj3nvvRUNDQ8zHwCD5kbRkosFGu7aevDV4PB4MGzZMfW94+vRf8NLLL+LN8W+pcyQIe7xaIsnPz8c555yDu+++G126dMGyZcvU6+MEiaekpAT77LOP+kzBfvvth3PPPVeR0L777qtIifGuWLECN954oyKXxsZGRQrjx4/H6aefjq+//lqR1C233KLu19TUpM7tueee+OGHH9T1mrxIVCS9efPmqWMDg2RG0pPJxqJz58444IADMG7cESKhjEZqWkrsGyVR1UgppZSVla2m3lCiodRRXFyMrKws5c8G7vP5MHz4cBW2X79+ePbZZ/GPf/xDfSflqaeewkEHHYS5c+fivPPOw4wZM5TEQjJISUlR56gK8frnn38ef/nLX9Q9Pv30U9x6661KYjnrrLPwv//9T6Vh8uTJePLJJ3HsscfiggsuUERmYJDM2ObJRKOoqAgXXnih+gIgQaK4+eabcccdd+CVV16Vhh1WJPHTTz8hPSUVR487CqefeioyMzNVeEoQqampeOSRR9Sx2+1Gt27dkJubq8iiT58+yM7OVpLL4sWLldpEqaagoEBJKvxQddeuXVUcgwYNQmFhoVKbqFL96U9/wpVXXonXX39dpZNkR2PdK6+8osinR48e6v4GBsmMbZpMKE1Q6igtL1fSwhVXXBE7A/Tq1Uv1/M899xz+etHFcLs8cEQcGD1yFH748QeRPPpihx13UgRDR4K45557FBnxWK+cxWOtBmnJprq6Wqk+tbW1SirieW201WEJShsktZycHKWSUcKhJMN4GJ7pZ3ie03EbGCQrtkoySdSwtK2BqoM+zwY5ffp0/P3vf1Nkcvzxx+OII45Q4ThS4vV6FRm43Rw4jqhhZGLEyJG4S4jj8ssua7Z5MJ4FCxYoiUSD99H3JdjwKXFQSpk4caLavvXWW0pVIvHwftxOmzZNjdbQdnL99dfj0UcfVRIKh3RfeOEFFRfDMX59DwODZIfr5ptE1ieSbtpEWET7Kvw661cMGjYQaT4vAtLc+fEt9ZMtoRscwcas5qTEzlVWVGLi51/ixBNPUOoC1ZLly5cre0dWRqZIHjuo+IKBINIy0jBy1Eg1NX/nncbCK9IA1ZZGUS9ISq+++iquvvpqZZTV0A2eBLPLLrsoP6o1tI8QS5Yswd/+9jd1X4alurLDDjvgvvvuU9fsuOOOinBoJCbBXHPNNepa3o/EQ3Jh/JRMOMpEm01b4JAybTadOnVC7969Y74GWxqsB6x3PXv2RPfu3WO+2x427aS1jUIE5VVluO/lu+DpHkJaqg+Fad0wpN926NapG1KRAlEwxHngRpp6gZBT3EL8bqM8jE/8+Uh89cdJmYPv8AhTkHB0T6/JQO83b+nFQw5LOx1qCJkNlVKHXU0heL2+1g57vHqfW17f2jUaPK/DtBUuHmbSWnKio0xaS3IyKcf9r96FTmOysbxxIapqK1HVUAV/Y0DIQ0gk6kYoCOnF09ElsxOG9x+BIX1EinFnINWbDZcjDSmuDHiFbtKFfJxCMBEuEhkNSiPlq4CUZFzKVqIbbWuNVxNC/Hntr7E+jb+9YcgkOWHIZIsjgrLKCvzv1Rdw0snHIjc7U9QciGtASH7VqEAdGuGPNmFRzRzMXvAHyqpWoT4gfn4/Guoa0FQfFBpJRborHb3Tu2HQwKHoWtQNmal5yPRkIcuXgzxvntBJuiIaqk8uua/QixwTlhRhB8kinlhWCyPSDz9ivRp4Oi5/eY11vb524wvAkElywpDJFoeQSUU1XnvlZZx44olqMllrCHNpAzQJxYThR1C2QiZCNwEhm1XBMiypKUZl03LU1JWjtGQllq5YhkCjH9GwqDthB3KFXHrk9EZBehdke/KQlZ6Fwf2HIiezAD5nJrxRj0g3HniUmkQ1SiQapQJRsqE2JPtUp2Iq0BrSieYLotV8tpEKdzegPBYsWIgPPiCZDDdkkkQwZJIEqKioUHMt1kYm8bAsIhqcik/VhlKGPKbN5hGN8j2biJzip0aFgiJNaIzWoiJagbKaVShetRDzF83B8orlQkwhNAYbUB9pgMMVhcvthDfFg6zMDPTt1RejB41GFgqEclJEGvJQHkIaspWKRcuOS7Ze8eV/ZSaOcUcL8dBOEttVhWE5/m/xj8ERk2rE336Oo00ffkQyGWHIJIlgyCQJsKFk0gw+mYPUohvn6rCrK5qASDXNakuERBOUaETiEbJpFKknrOQekXwCtVhZUYy5Sxdg0cp5qPSvQi0q0egX9aqpkdQAX1qaMtp2KuqCXj16ITMlG/mpBRAfoZlMIZYUoRaair3y8yjS0XYcyFlSCX+Ma3UwtRzb8suWIbKUL8nkI5FMRhk1J6lgyCQJsNFk0g5oJhxmkKg2PIqIJKMlCxF4xDuEaKRemngAQSGdgBBQTVMtFpcsR7EQTn24HmWNq7CgbDZKSksQiDZJxkdFsvGha7duyM7NRnZ2jqhXOaJudUO3tO4i1+QKvfhEuklXUg7lGVINi8n61Jgbfyz/CZ/MeRUH7nMM+qE/ShbW4OOPPsOoYYZMkgmGTJIAW5xMJGckfxAVQcFJYYA5FcsnUTQUkViSDCeuBeB0aNNtTM7hB36EeCJOP4LOgJBOBKFoGE3hJtSH6lDjr0F1bZWoVGWYt2IOFiydj/pAjahStQhl+NW8khRxaSkpyM7IRa+e/dCrS0/ke/KEXNLxy8qf8d/v7kZaXjYOHXAkxvh3wfQJczBm6I6GTJIIhkySAFuMTCRLOBfF2RQAZi8CPJJFKW6gawGWzZqND18cj/NuvQnwuYRoXFg6ez6+ePUtnHb9leorhI6QA9Xz5+PXZ19Ap5GjMPCwg4GsTOa2ipvzXUhEchdFRMqJAhWV8xFRy4LyawyLMhVqQqOQzuKyWfhj3h+Ys1zIRpStJlcd/K4qVKVWoDqjVMgqCHfAi05NvTGqcTcc0uU4QyZJhI5CJq6b+bYbkYRkwqnsfBmOs1fT0tJivpsBDlFqpGEvnzkLT/71StStXIFvnn0RqXMXY9lb78Pxyx8IzpyJlbNmofOwUagpq8L8iV9gUK8emPXll6j//Q/Ufv8jVk2eiNLlC+FJTUFu3x6S2x6J3JJWmOFKilHzXWig9cLl4AQ8kUYcotg4M5HtzkW+twC9cwZgh757YL9Rh+HIUeNw1MgjsVv/Q+F2+bCwdAEcgRTkBAvRJdgXuQ090De33zY3A7ZlKL1trGu4zYmOMgOWMvmaRGLJKlsculI0G0Q3F6jaiHOGosjLS8WYXbdDUVEusscORK3wwR63XI0VddUYtcNoVDdU4advvkSTSCJTP/8Mo3baEf22G4Ge2w3FyL0OxOE33YQ+Y3cT6SZVstX6UQuiXZh2E217icgOd+mnnpdbGoAjQjkRDzzi0qOp8EXSkBrJR3pDGrqFeuC6nW/G84e/hf+N+xBXjb4ZBdUiwQkRMo71dVsCvC+lQP0iZDx0ulqrC/ZjxqOP48Np0F+HszuDjYfrRpFMEvJ4EpA7X7unZMJ3VzanZKLUDeHZ1FAEmdKrTHvnQ+lVemDiy28gJNrOF19NRF15JX6Y+iMawg6M7jMQVTNmYPiY7fHINTdj6fTfMPfLb5DbKQ9zli6A25OOlJ7dYvNQJGOZt7b81YfKS/2zKjcbkN0pP/7kdHpaOgZ26o9eaX2Qj0KkRrNQU1WPeQvmoVNRJ/Tutf6Sib7HpoT9bWiCZcwlGurq6tS7UHbohs6XLL///nvVq/M9JYJpZVyhUEi9tMmlI/heEu1Mq1atUktD2EmC+3ybe+nSpeqajIyM1fN1Ez57x5JMDOIQRTgaQFO0CYt9AaSN6ocRF5+M46++FHucdjoO+vN52Pviv2DcZZfhoONPRrRndzR2zkeoZxG8BTnY+y9nweFzIcPpQfmCpegyZBA8zpa3jdcOVuxElVsah0N6cGdYCMUBdzgd3ki2SDc+uB0uS8ppj6+abSKQRN5//31lzxk1apQiDzb6gQMHom/fvurlx/PPP1+F1UTARs7lHKiNn3LKKbjtttvUOcbFle14TDJip8PtlClT8MYbb6jlHXS4N998E4899phajoJvay9atAhVVVWYMGECvvjiC3UfO/EYbBgMmSQA39Vxh6UnK6vE5AmfYNXMeXj86luwYnkxZr79GYZld0a3ws7IKcgDslOlwnL+bRM8IaBx3jK8dv1tQkSWmhQtrwVyucT1+oAVu63KrVgDUSEVGmxJLFSHaNjlb/WvkiUPKI2MGzdOLUhFYuBKdRdffDGOOuooHHfccbjhhhvUGrvffvst/vrXvyp36aWXKiM8pQkuBfH222/j8ccfVy9elpeXK4KgbY1xDxgwQF1PSfbll19Wy0uQJFauXKkkEi2JkLRIMqWlpep6g/aBIZNEoFFUJAlHKAyXqDGFQwfizw/fg7xdxmLW3F/w8IP34/EHH8MXH0+UxuyGOxhBzaSf8Omrr+GGyR/g9Pv/jV47b48uQwfjyHMukMYtldcZWQ+hgQETBaafNBC4hS9i0/rFRSmix4Inaw/LdPGdKaoaY8aMUSRBCeW0007D4YcfjiOPPFKtOcMRD5KBJhJuucDUdttth/vvv18ta3nYYYepletIIFz5jgZ6LnnJkRKqQYzr73//u1pSk6A6RKdVGaaFhMKwmmAMNh6GTBLC6vnZ4/uEAaqXl+DbV99Ho9uJy778GJc9fh9OPf5IpNRXorJ8OWZMn4YzbrkNDq8HN+53CL69+yF0j3ox/vmnsXDW73jiwsvhbBSC4nhwB8Y333yjFqjiFwIooZAUuBbugw8+qNZ4OeaYY9Q+7SOUWLiGTP/+/dVKdFw+k7YQLiZFqYNEwLVxuTzEQw89pJa9pP2lpqZGrXBHaYRhCdpUuNo/SerUU09Va89wecx///vfSkIxaB84hKWTsysTUJRlxTnhhBPUokObE+GmRhTPmIPlJSsweuyO8OYWICK929JFv+GlG2/FiAFDcfiFF4sKUySCh+jmjihc6v2fAJbOmo3P3n4fBx46Dl+9+RqO/dMZSOnTy5ImqILQgroJMHf+fHz00QfWdPo99475tg1d/Lp33tS9NBs2F9GmUZV2Eto6uMo/bRycj0GJg+oOSYJvQJMEFi5cqOYcsR6QOBhG45lnnsHll1+uvg7Az43QUE/ph/WFthjGTxWHC1HRyEv7Cw2ho0ePVt85YljGuykllI4yz0Rqf2zPYDW4fKnoPmYExh5yELx5eUqNcLpd6NV/JK596XUcThG6UyFfoVFLDrhYEVkhXV70HDYCZ//fNei23WCccsvN8EmjsdQSwSYiEkbrEme922OTgJLQfkICY8OlzYKLaN90001q5f7PPvusWVKg5MGGTsmEnxNhIyRRPPDAA+p6Oo6Q8ANotL9sv/32eOmll1QcNMzSfkLQJsL1e6liMW6qO7yWKhJJil8n2FzY1ES9paHIxAh6CaDKnY1SOw27nzg1AS22r67hP8vPwen1JJiY2ySQ8qPBWN3TQWbzkdmUfYa2FM5fsfat4PGwp22TpdEGNmau2s9RF35qhMO5NLh+99136kVFnqe6QvsI18+l+sJlL2kXOemkkxRZXHTRRSrcu+++q8iCBl1KFzTEfvDBB2rGNJ9FkxZBIuExr6Mxl8fc2sMYbBzYCgy2YpAkIlKKlHdCjiCCrmpEnfzGTo10EjVoEteIagS53osjhLDDGgFS3NOuUhLjWnt8HIGh2qHXyqVkQtWHw7q0cbBhc8SG9hF+X4gqDdVdYtddd1Ukw0+FPPzwwyoOPVxMVYnfSKIRl2vpkoQ4BEyyoO2Fqg2lHBIS4+Eau/xagfmESPvBEQ1Ho6yMycgqW9JmsinAit2eaO5VJVryw4zlP+ORifcgpW8aRg4ehqKczsj3dkGW/Lhmbpr8rPVWfGr6PlPDPplqkf5ZfbT13w4rXCIk9rXQ+jnaRLgyHId7OZFr4sQvxM+vRnby8vgelvV5kU8++UQZUznyw68eanCeCImAX1bk51Q5vMyFtJknnCTGBbr5nSIaWhmWC3JTTdISC0FDLw22tLfoSXSbAtpmsscee6gvEmyrMGSyGbHJyIT7ImXMXjAbz7/7DIpTFysDSlO4ASFXg0gqEs4DuH0ekWLC8Mi2d89eGNp/GHqk90IuihTVcE0Vrqzilh+XP+B6K1xbhXXDKUdO8ROlSLZccCokvm5Jg1VztJTD/9qRmmKpU//tkBTJf33WusLaWtSmacj+jK1B52tzXshxouvWFs+mgiGTJEBHJRNWeh02UaMg9Pnmc7KZv3A+Pvr0QwwZMRi7qk9vsHlG5Mf3kAPwi+OKcVxUm+vo1or6s6RxLuavnINVFaWoq61BfX2DcgF/GE0NAREhosh0pqBzXjf06NIbvbr0Q1FWZ+R4c5CTkiUuHV5XmtzHWrBbL+/En7VPkHgIppWOk8lixzESsp5C5w+vsny2BRgySQIYMll3MuGWoxMTPpqA4UNHSMXdvbk9UjIhpRASsxS6HMvl1jtIEYQcAf4XF4xtuaZuADVcSTfSgBWNK7Gyaimqmlagtr4C5aVVKCupQkNNPRf6h9PhRLrPi4LcTuiS1xP5aZ1RkFqI7Kw8dBa/okyRfJyc8k/phonif1INj5mm2DOobex/LKsSPTvDWC45oEu1tRQZMkkCbO1ksq7k0RYSkYkemaA/dX19fv6CBep9kxFDh6uKa/lbJGKN5tjTQw86+ln+DK5UDQksscsm1sy5Vi6Nu0qeoXzDBSwb1HEjmlClfhVoEOIpryvDosULsWDBfNTW1MAVdsEV8sDjcCEjPQM+Vyp8jhSkp2aJpNMTQ/oMReesrnBGXXA7PchwZorClSn1kYTD/9aPKbTXUZUu9d/aI1SeyI/P0LyVZ1itHCS4Ohfzi8/bTQFDJkkAQyZrwi9SwYqpv4n2EUH+kD7I7d9T+nerQcyXBsyhUX7qgsbK9W0oG9qwKN+QZEgufGJ+LYBqFaUeyjiNolDViZzjl72KcBWKq0uwZNlSLF66EHV1lUKOYURDYUS4uHcYcIdTkJ9RhG4F3dAlv7NIO11RlNsZWaJWZbiy4XOnCzn5wKUsad+hhUdJWiQPIULl1LPQyQn1WDwrP/Gn1MMw6oQORsSKSz1DzI8btg0dJB4MS0fKZpjYbKLVoMlk219pzZDJJsOmIJOaZdIQJ/+Mzj26wZOfjZxBvazaLDXZ/t2cFslk3bHhZGL9eHV8DPRlQ7OsNNaC3JYqZalY/HGVOdIO/9cL6Sypn4vFKxZgRdVy1EYq4Q/4UVlVjapqIaSA6FWUYuRXlJGPwV0HoEeBkGpKITI9KchIzUBBZj5yPQVCNpnyTB4JL1IOCUZ+UY7aSH5R1SPin5nHPKNLzv5Mlj+faPWz1vOFFZFwmat4GDJJAhgyWROOcFRNznr9k/fx6ksvY/xLryLF41VqjPrUhZDJiBEb9qmLDSWTDYWVP7Emaru31UT1npWHDBt1WOqOMiBH/da8mkgIDaEa1AREzfI3oN7fiNL6KsxdPAvz5s9AbWMFXF4Hwu4QwqlRpKSJEpUh6pbkmdftRdeCTujffTC6ZPVUHyfxQdQw8NOzNCZzbIvD6NbPGsciSEtsM1oVg1L7mkQK80bTkOpIVf76KQyZJAEMmawJxtnkb8I7776L0045FYcdeijGvzFeCtChJoORTDhbdGsgkxZYhGI1vkRp0PnIczqsBS67QOi06zynBMHJeZSHLEuPH/WROiGbWpSULcOSFXOwqrIE5bUVKPeXozpUiVBEVDMHJ/bJtdIg8gvyMbB3P/Ts2h15Iu34XOnIhkg9KFJD59qETOJpFCJ5fdb/sDKwDCcNOQWDPcOFlrLlrNeQSTLAkMmaYJyc6PXOO++o1/cJTrri+yh8l2XrJJPNA0UwSinRe2oZb3VMFYsm5rDIF42RBpTWlWDuot8xd+Uc1EbrUBdqQmV9DeobqhAI18LhjKpV3dLSs1BU2AW5BdmYUf8LZpT/gp6hPjip7xk4cuCJ6sNskyZ9a8hkS8OQSWLoZQr5Rm1dbS1eeP551IvqQzKZOHFiEqo5Oh+SlKyYPJU0i1jUIlNSdvpH2uEXHyNqRCuAxnADqmqrVX5X+atQHS3Hsrp5+LrmM8wJz0RGIAd5VV1wUN7ROHH0GZg3Z16HIJNk5BCDNqDffB0yZIh6oc3t8cAv5MKp4lxZjC65kJxEQqJfk+xpWpUmQVLlkLtTFBmnG24nLSdpSI1mIytSiE7OXhiYNRI7dN8D+/Y7SCSQ43DiiPOwZ94hGFAyAuMip+Kfe9yPsw/4i5rO31FgyGQrg5YeqOr06tVLjdrceOONSE1NVauHkWiSC0xvchGJHYpQbMlrNbXaM9ZiFN8Ib7tdXngdKQhVNmKfrIPx2NGv4orDr8eoHmOQ5uSi1R2niRky2YRgw9euvcC4SBx8Q5bSCVXA6667TjWK9rzPto4NKhsdlNvmyzhU7EDPTn0xqs/2KErrAq8aDXLBzeU/WwJu8zBkspmw3hW3DWjxnAbALl26qA9u6TVR2+seBusCy8ZiMQunDnJsx/rZh4Y7CgyZbGa0Z2MneSSfjaQjgWVpyFvDkMlWDi3xrGlMNNg80ISipZSOC0MmBgYbDZJJx1Nr4mHIZAvA2DUMtkUkrbFZi+1ajN/WoJ9rXZ1GW+c2FlujqqTTbF953o4t/UxbY55uKJJWMmEj6UgF0d7YmvOOabeTA92TTz6pPsxFfw3OBOYnLEKhkHqNgN8j5pqwDK9XoU8mtCfxJyOMmmOQdOA3iDMyMpCfn6/eO+KnP++880689957ako6vwL4448/4qmnnkJWVpaa/csFpW+//Xb1XhKHzFNSUtQK9QabD4ZMDJISfInxnnvuUavH87Oe/LYOP11BAiFh8FMYlED4aQtKJ/xaH9+V4ar3XLWefvwsxrYuDSQTDJkYJBW0WqOhyYDf0OG3b6666qrVvnXDz1rwE6B8wZFEU1JSgkcffVR9qIsEY7D5YMhkGwMb38a4LQ17GriviYUfHOdHuvhOkv0bN5y0x+/f8Bs73OdXAAmqOZwVbCcmg00LQyYGSQdNKDSi0uCqj/XrAiQIbvPy8rDddtspVWjGjBmKTPjJUX6k/OCDD1Zh9LUGmx6GTAySEvyKH4mBBEJCefrpp5VBleRAPzp+JpQGWa51Q6Prbrvtpj7/2a9fPxx44IGxmDYlKPW0rGHLlU8sP+06FgyZGCQVKHVQIqGBlR84J0gc5557rpJA+JFyqjr19fVqJIfEQQLh94b5CdA//vhDLRqVaM5J+0OkHi6kJD9O2LIpaDHXsWDIxCCpQMmDyyrw4+WPP/44rr32WjWfhNLJM888gwMOOEARRm5uLioqKvD555+jT58+GDhwIPr27YubbroJL7zwgiIZ7tvnpbQrYsKHtRYbP/ERFPKSe0VIMLHzHQyOaESyQJ4/GVmFlYVfsGfl4pyDjgzdy7ZmA+B5ftHvo48+UkOnG/LdnGQEyYCO0ok+5nPpZ9PbRFKIPdzGg6RBxCQQOVC35BfjqerIlopOmOej1jIEXM+en9j45tuO8REuI5kYJDVIIlxBjqTAfRpZ6bhPp8lCHzudDEcioZGWrV3bMTS0nxBANIyIOFo86EMyoN3D+h//s2SQqPrYWA38jkrZK8PKwAL8WPodPp3zAd6c/hqemfgMvv59EhpDTerDYB0JRjLZStBRJZPWYTVtwpIV7M9Kf4s0GIacEpJ/oZiR1HItRtMmNMqvCgHUy34QFaFqLCxdhBkLfseq8mIgKEqMP4SmxgCiASDVk460tAx07tQVg3sOQa/8Xsh0ZyLbl4VcXz5SI+nwRDyS/24WGCZ9+02HkEwMmWwlSFYyaWnSVnOOKQGbGBZZaGKwfOjHr+txj58n9SuS4AcsaM/gfrlIFBXRctQFK7GyfBmWrFyGFSuLUV5WoT5N6hT1xOvyItOVijx3BroX9kP/7iPRtbA3sjNzkCLn0h2p6jNdrqj1/T5rjVc+NX8iMdFfZ0gMkzqImmPIZCtBMpOJbj1xbagZuqkxLMOsjXTWjFNfSerQSgclijo0CEHws6O18isJr0RZYxkaGmpRVVuF5cuXobh4OWpraxEW6cLjTENuVgGKMjujU3oR0rxpQhLZGNS1P3rkdpPzXrhEmiApWF/0SxXnldta0o3KTpVs+WclTEGlTLyaT8eh43y43JBJcsJWWRWkQqsKm4AgrGZmfR70481OJpbjnRLfzSICHUaH5H/6WfYLrX5QFSFJBMRHf5vYH9tvQCUqsKxhBeYum4mlJYtQ11SP2sZ61NU2INoQgTfgFULwoCC3EIP7DVGLPOemFCAnJQ95KfnI8eYIRaQoCcRae0M7qf8iYbR88DwOKvGxJ2UhaOZoeSgLdj9uuZEtDbDTpk1Tc2IMmWwhdHjJJFYhV4O98sbAYHQkE0omI7eUzYSJkFta1MFV20kRNHBaRk7rvxXI+pxVUEiC39BrkF+V8llevQi/LZ6KkrISVNZUo6lRyCQoqko4KqqFD55wGooyijC0zzAM7D4ERTldkOL0IY12DE+W+qC5RRXyIzkoKUP8SBZMo4KVPv0jVp8p0komb2B2fvPNN81kstNOO8V8tz0YMtlKYFX/1sFzCzcDmbDxaULQFgqqHZQiaKuwjilL+JU8QbqoRDmKw8tQF6hDU7RWSGIlZs2ehXkLFyGienlpyJLWzPRsdE4rQgHykZ9ZgP7dhqBvl0HITuU3e6lwUPVwK3pg46efZbuwYP/4OdNn0YfOtZZzLfnYQiaERSZWOHtMGwtDJkkAQyarg9W+pepb0JWeygIlkwkbSCbaJkPwOvsxwUZHighEAqiLVqOkvhiLFi/EkpLFqIpUojJQjtLKVahvrBXCaELIE4TT40LPXr0wYvgIZKZmIsuXiRyHEIWzE3zy8ypTZpooHm51ZNkpLJuFnqtBrP4cTBc/NEYi43mGTwz9BInO20lkUxOKIZMkQIe3mbBBq7rddrVWQcXNX2hJJqOETPbaY09EIiHUoRbTS6Zj8cIlOG63E6TJ+lS0yjlCErcQhMgPVEHYeP3RRjRGalEu5DC3ZB6WLF2MZcuWoryhFI2eWkQcIoeIyhGJRJGWkooenbugZ/fe6CGuUKQKUTaEIlKFFihHpMiPxxnS5D0SOxt+TAmhCiKO0oS1VY/SDE0gazM8bw0wZJIEMAbYGNahHVlkMl9JJsOHjcAue+6EFYEF+GDeW5jwx0sY3GU0ztv9RjgDqWgSdaMxXIaKxjL8sngGps2agkC4SeSBkGroLreoEl6RFnyp6jX+bt27Y0SfEeiX1keRA4lCzihyiCkb6r+1543teyRNVj/P1LU8Dvdi/b/9GeOw5clDJ27j02HIJAlgyMSGdajT86nmfDwBg4b3gXtgBP+d+gAWOn9Gk6cR3hqREKqy4HaJUuETiUFIonNBd/TO6YPuWV3QJa8ritK7KDXEI4RBy4RXSRItP4ss5ExUyELSQ5+oqCOca6EECGEH2lEspYtgounkvGybHykmcWky2WLEEZ/HGu2cnI5DJvHKcRKhw9tMdMmsY+VWozkff4j8wZlYUTQPr897DXXeckTT6jA6eywu2O4qFKGXslOQFKh6pMuPtgoLlCdII0IJonewk7GDHY5UGPkv1KAIQDuC/tyPbe2HhA7WAUEy4TwTksk2/24O+SSJOaXDgSWh+ndpgMrp47U5NtiIE90cvfHXYdfh83HT8MUhv+L1nabiiu53YVRkT/SLDkP3aB90jfREYbSLUEmWqC6pMedTsgerhVPIgnKJ3Slbhxp5scKszhB6P7a1H9qDdVB0hPaVjNpNh4duf5alQaQAqYgsKO14vIZfRI7DVviINHjO3vQhE3nojIEpozCqYEekOTIkXvnR2sk/K7iFbb+uG2xisB4aJBl0G7csFfJbB5uCg0YMcZQf4KSiIohaVNN8OXe4r0tdsZC1S3A5DqsHbc0ZGLQOVa1YWbe89byDQ9oqmys/G0VHtaW1ZtxmeTkjwikBuSYkYTg60+IcKuaY47Bw/LEzqLZq8pkwiyIWnRA76xgYJIDT2EqSACwCzsOSLZssLRJucVI4Sp2RVi1HAm7ouFAGXfOx5YRH4A6zf/DKtW45dov6IzHRybFyKubEzhH1SHhxYe4zFZIaSjyGSAzWAVrgNdiCIB+EpO1GhFBcIhwo20dUDkRKoDShJIqonIB2NolCOUuicLiicDvC8IbkWK6Pyj6dYirGR8dlDOnCNqf9NCNJPISyrVi7BgZrhSMSiUSTVcXpMEPDwiJzvpuE5867GANqo8gUfmjyhBCxzerirlY9tDTpjJ12xFYZE71GBAnZMqyQBMO1rEbGwLyWV8QujEHNAVGqEw+cCEgUnQ45EAffey/gixFKclaRrQIdZwmCJNZzOgaZSPaLxFD87WR8c9p56F9dDg+FEtsLbHa0VVzNpKGkEYJE0BIPCSNC4iB9kDxk66S0InsWb9Fa4obf6UbauMMw9L/3AylenlDnLBhWWV+QTPSktW1+nonBloYlVbhRB080ILsBZUR1YU3ndgThEecV1Sbe8doWx+NQ87FbOT+80SZ4I3bnV/5O+IUmgqLhyL3lPhHqW4o37OTFffuxgUELDJkkFWLzR6S9KsNrArB927SfOPBC2j5i+8oya6G16yzphIqOdV6Faf0GBgatwpBJEoENmrNMW4qFZMCGrV1rkHM2AqAqlEgdSkQoq68BEo+27mlgsDoMmSQFaLcQF04X/uCQLuCJiNoTcYlzIOwMo9btRpXTg6DDWusjIkUXjYpiIlzQ4HEiHPWqFdhFmRGFxQO/wyN+bkQljnAkFSFnCqKczCZxk1B4R8ZV53aikcZbiYvUwclvlj2lLZIxMFgThkySEDSSNrpdWJHmxpQcHz7IycaUw/ZFr/HP4vvhI/FeXi6+y0qV8z549twNw798F3jg/7DotOMxbPb3GLp8DoYsnS1uFrIevQczU6OoOGpfRJ74Dz7tU4g5uTlYkZ6HFQVdUTZyNFZtPxKlaakICwEpCKtYU/kNoRisOwyZJCGiIjrwl7fdCJz2zqv4++SJuPi+h9Flxz1w1pv/wxVffYCDHrwVdRle1H7zM36/4X4UFfRGoKwMb/3zPkRFXGmqacKib77HZ/fdj1yXBzklNRjgLcQ59z+KIya8jv2+fRP7f/oa9n/pKez/5KMYeflFtAHLXTlMrPhkNVhakyEXg9Zhhoa3OCgGhFA8+VtMPek8DKoqF7+IqCARlArVr0xNx9KMPGTssguOOf8cTLjuVgQXz0NeqAFZ4TBSA04sS/WiLMWLwbuMxQEP3A640+FwpQD1Naj9cSpm3XgPFqxYiWqfFym+KDoVSF66fcj0pSE1rxPSHE1wTPsBoZKVogY50CCqj/uowzHqsYcBuaZ1EtFVx5BMWzBDwwZbFL60TBTtuQv6/u1s7HDJmRhz/OFI7VyAAX8ah+GXnYue558M7D4ariP2wim/f4FDn7oflQU5KFlZjqlTvsPy5Yvx1bffIuz2IHVYdxx07zU47v2nMOSMEzDkkP3R96zj8MeSRaibPxd1CxejblUpHJwNqwlirfzAcHZn0NFhyCTpQAOoC56oC73CGRjddSC2E6lklwP3Q1bvLtjx8AMwbOAQ7NR9EHZMK4Bjwnf48dLbEG2MIhJ1ItgQQV15OQINdaiproA7FEFk1nKs/O87cH0zE9HiClR+9yu6FHTDjicdDoc7ChFW4I6NIq+bjGEIxGBNGDJJQvDTEY3+Siyc/CV+uO9RLP1tNvxzl6JBVJWyH35DQ/EifHDjbVj4zqfI8DcipbEeUU8YYW8TevQpxP577IlevfvgkAMPUNPpU8OQMPIvGIYzHECtSC6/XHYDyj77DgFXFOFIWAjMmhW7dhgiMUgMQyZJB5pAHdLAPXD07IqdTjoaoZUr8Oq/bkXDTzPw3YPPYFZJJXa+/z+oy89EozOCgNsHR4oP7vTOWDx9Lj588L9wBkJwi3TjDwVRVl2FpgwPPP26wJ3XCaVRD9JHDsD+zzyAMddchnCoCaFoIHb3xHNUDAzWBkMmSQehkogTuQW9MPKUs1DbuzuWP/oiCuGDLy0FBStKUPL6+5j840/oeuXFaNxrX/T960VSkm4cd/7ZyPJ6sNPAQSidPAXLJ00GlpehaPcdsKwoDd4B3TH81KMw7tX/YuhRR6Duj9kI+QMYcsbp6HfqySIPCWLqTmIYqcSgdRgySTqolVZRXboCX95/P77/2/XI8lfDG6qCs2YlskO16LdgLnzPvIJpd94LT0MpqqZ/jU/OvQIvn3Y+Zk6eiKbMMBoiVQj5/GhAPUqD1fh94R+499iT8OppZ+LTN17F/LoaVDQ1oskRhL9LDsJuriAvjhPW1kndMTBYHWZoeItDsp9vDU/+BlNPPgeDKmuESqz+P+IIifoRlkJyIODjjFYvMkMhhB1RuCIhRESCCYlE4neFRG5xwhN2o87nRJPbBWdQ1CWuUSJxuGUb9IpfxIGUMGfLOtEo11hrl/BLeoC3KShxq7uiweOC++jDMerRREPDDBNfZXjeEFBrMEPDBpsR0hDtSwVIg3byTWDh+XTxT5fGn9sURkFTAJ5IGF5xLvFzO4UcEEZ22IE0IQK+JZzbGEDnukYU+v0oDATQRUiiICj7DQ3Ia/IjPdCEnEADOst+l/ogOtfWo6CuDtlBvjFsTeG30mOlZU2QNFht7M4QiYEhk+QBp52qRsklocNwyjFtJ3Z/fppTTXPnn2q/ar6qeuvXMnaEJZhIMrweXAM2DK7iGHG44HLw+3sSli/mODlyI8HlHEdxuDIjj/XbwwYGGwJDJkmIiLTssLiQlA5dMObC0ur5GYsoV1OLNXtr9bXY4s9kGZLFGhDKEfaxCCge4hl3gkdOvYybgcE6grXSYIsjgogroOZ8KGlDqTwxg+hqznqzt8VxdVgf/I4c4QM3Am6nxME3i72Wc7oRlKgsR3LiG8gkpdUd/YNOXivKVewNYuszGVxomjDEYrB2GAPsFodkv0gWCydPwxvnnIcejQF4hCQoYCSWJGyQMFx7mgvVZ4cakR2IoNbnQWWqte6rXWpR0oZoQmrhJevqOJCouLyBkIuQT+Hhh2C/ex8AvGtLhMHa0FEMsIZMNjnamrgRa6gsgVAE4aZ6kQzqlYrjCXulcCgdJIIuMosw6hYtxh+PP4+Zv89E7iF7oesOI7Hz2J0RDkeEVOxx8H50vL6l2FUq5JDkpWwn4hPxeOH2pgMi0TTDtmuw7jCjOdsa2HbUt2b4qQg2cJtT7Yr/5Jxu+9wqf0IO1LVhmx9hC9zszx0uPUTo83Ywy8UpVYJxyiFbsNsFV0YWUtI6Iz2lEN70bHgyMhO4DHgy6ax9R2MTVn70BSqWLcOeF52Bskwfwr5MODPz4M0thCcn3+byxOXGti3+bjl25+bKNheu7Fw4s3PgTkuztBwSCMUVJSrJvoFBK+gQZKKatDSKiPTiCIaAQMwFpdFHQkoNaKyrQ8X8xRKQjYakEpFTTWgoq8DcX/5AOFSPuooS8a+VEBy8jSIkKkntilUSVxjRQBCNpSWoWb4UjeXlWDpvFsJBP8IRPwJNdXIvf+y+AUSbGhEJV4s04lef5BShxOIWNlwm1Cl6Bh0/EL6GY0CRYiSJsyb/iPtP+zMW/vQLjnzwP3Bvvx2CDp+l1jAcwcdZKwlQxVndLqOw2nVyoNaXjXdrjdygg6DDSCYULGpKK/D87XfhXwePwz8PPQoPnnomlrz/qQgcAaz6bRbee+ABESoiqK2qxHdvvoqfPvgAFbNn4uO770P50pX4+MH/AsWV0txCyvawdMYfeOyKCxFZthD1i2dg6XtvY/67b6P0y6/w+WNPwBGoxbzf/sB1Z56Hqa+/jUVzpuPWU0/FPw8/DrcfdCJuOvJEPHb7HdIcOTGNTVoQ4wAF7sc5NnhEfJg/9SeM/9tVGNmtGw574N9wdOsqaXKrCWirgde12eB5jmu7WY7HFqHoqrE2wuC5ts4bdBR0GDIhcnLzcMbfLse1bz2H6197BhfcegsyRFIIR4JwO0MoUF+3CyJYUYvqyZMxYlBPeERCKeySg4Ke3TH2iHF44sabAH8YAZFkmuYsQNclFXj35n9h9gtv4Kf/vY6Z49/Dj48/g+qff8MnL7+LQcNH4PK//Q3zJ01F3fQZ6FNQiBtefRLXv/AYTjnzVDSGGuChFKEafdtQEodIJeW//IwlDz2NQ3ffEwfedRuQnycn+bFy0UtabdetNXremNWAk/itPUs+kbwgwxkYrCM6DJnwQQOiavz+/VQ8d/8DePbe+/HFSy+pL985aQoR1cZJnUMaUKC2Dr+/8hYePvwUvHeWSC9vjMdNwwbjseNPQs2kyXj6zPNRLBLL5xM+wanP3IejHr0DI085CWOPORT9Dt4bO555PHK26409jjkE4bpqdO3XHafccR0y+/TC/Cm/4NrdD8C1+xyCF/91F1wOUX3W1mgpHIQlXTVV+FnS/PK5ZyOQFcTo664QhiyU633iXKImMSBdIpAq2mKstZ03MGgbHWM0h+1LGmxTxQrMG/8OMnO6oLBvD7jdXngLOyGck4bin3/GHy++hgMfuEcapRPOijKU/fYzpjzwCA6//v+AvCIyjkQkLicPpRXF+OD2O7Hqu++R4kuVNp2N7HK/yAYuBCIBlHtDmJ+fiuycIniLyzB63x0x9oorEZi5CK5wFTJEVfFHnPDndULW4EHqa+XazsG70ITrjt2OtpaKBTMw+cFHseqnGRg27hiM/etZQEaqnJRrHNZ8kAUL5uOjjz7CcJGG9tprL+VHrGZDWSv0TdcHhojaghnN2dYgDSpQVYuVM+bC0T0fYVFd/J0yEMz3SUNraWz8z3lbyBBCCUZR//tcPHfheXj45OPwzOnn4BO+/JaVhvyeg3HMtf/AuKv/hiPO+xMOuvk6lI4YiOUjB6B0zCDkH7IPrnvoIVzz/HM445+3wR3KQqi8Fgsnf4+S5z/B108/i8U//YzSpQvlnlycqKUxUlDh1HcaPP3VZZj+wtN44eS/wFURxan33oOdLj8boXRrJXnLaLu+jb8tqBywuZZ0GRi0hW2eTNjMIpytJY01q09v7HPb5cgb3gvpqSKV1NRhxWsfSAC+dq9CWheEoljx8xy8+cST2PWWG9AkUsmfbroWux62Nw78+9/UkGkYDahz16AyLYh6jwuOmnoUllfi6CMPxGG77YxBfjdKl6xAyCWE5JN45V5LvpqGia+/jW8/mIA5sv/++AmY8O4nKJk/l0m17k1VK1yPwMK5+OXWf+Gxo05ASUM9Lp30IQ5++SF4dh6BaIoPLqfQDQlIzUXRDZ7P4YKTn6zQ/KK2G0MI8eSSyBnCMVA1gTpA8oIi+sZoYlZTiFV4pweu9M7IyOoGZ04nIC0bLpcbnNflpk7BxilEUj1vEX57/AVsf/gB6LHb9jjumNPw5vlXYdavP4hU4pMsC8Pj9SKnqBNSc3PgSfFQX5Q7RBEMhhBxeYHUNPWCnSPogEskoqXff4fyJQtx/B1Xo2FQV4w84Uice/1fceHDtyN/4BCJU+7f1ITg7HmY9Z9H8fxxp2Pmd5Nx7FWX46CLL0U0M0fS6RapifNjRSeKGVztk9KYT5EIbTD8TjDLVZxsHWp/w/PQwGBd0FITt3XozpM9f201MHcRPLMWoyC3ULU7pzR6TmeLRkTSaKrCqpwUDB00Cj/c/yReGP8i+l/yZ1RndcL4a25DZO5itlxE6oKonLEc37z7Ob7832siUYQRrKhBXUk5Kqtq1HSVsPiV1Tci1K83RowYhd8/nIQdrrkI3Q4/GO888zLmvvoG3PXLEV00F4vuexgPH3sivv3qU4y++Gyc9Mbr6H7oESJ8cHq8lXw+CKWP1We2toC8y2VMrKK1u+YIDAw2CVw333zTzcla0RobG/H7779j2LBhSOOMzI2CtDAaGESqWLVwHh6/614UV1dj5MnHAl4P/KIulJSvQr+dd0Bap1z02GEY3n/3XbgG9cTJ//wHeuy5NwbtvTfqnH58PHkKtt95F1GfnHDlZWHHg/ZD1xFDsaS8FP0P3heuLgXwp6XC17krivr0QOcePdFFnuHjH6cha0gf7HH4IcjqnI+eA/qi9ONJcP88A+/ddQ8WLl6Evf5yNg684f/Qdfs9AI/oU8qeo6WKtsupsrISc+fORadOndC7d++Yr8GWxpIlS7B8+XL07NkT3bt3j/luexDpnK+KJe7ltjQ4mvPKK6+o0ZyCgoKY74ZCddfyPyRNMiDE4hGNRhQg9f1dzmhlLjSIKuGTTJH8CIu6wFmwsh/wCGlIOCoYbNBUaKzeX46cETh5QLuMavP8vq/skwRo11Dqj1wTCiPkjsATkHP1ITSJOjPvyafx09QvUJWdgpGnn4G9Tj1N1KM8pXap9Krb8WDdyGT+/Pn48MMPMXLkyNVGcwy2LMxozjYKLhHkQJr09h54hCA4Y5QqBFctczrT5RylAfF1+4RvfHD6vPDJsUUkFtRsUSEPF4lEZSEni9EJaYjOFHZJCJFalMoh52kOIQV5GkMonzIN448+Hg+fey4+XLUAQ267Due89xb2Pu+vcGTkWqO8jJJDSs2qjEViBgbJjA5HJomw5hwMSgJULyz/1c9bUsJqGafaOn2EciIuoRYaR4VIwk2oWjIHH939L9y2x154ZIed8esTz+LYpx/GlT99i6veexc7jjsZ6Xk9JEK5Yo10GBhsPTBk0i7giFNIpBBRn/gNmlWrsOyDCRh/4V/w8AFHovq9L3H5WRfiwtfHY5//PoBon76Ien1yHbPfEIjBtgFDJm1CiRyrOxFMrKFqHjP7Yu8QN9Ri2Sfv4ZHjT8RDBx+O8Zdfi7SKEG58422c8t7bSDv7FGBYXyAtRYQY2m04dhSKOb1kgYHB1osORCZ81EQuDuSJiLVr7dCJZ4RE4kBUrXXo4qAQ/A0NWPLL73jrn3fg7l12x8dXXI+uUScuu+tOXD75Kxz+yn+Bkf2A7BQaZeR6WmhoFKFdhhPLtK2F80as2yhnYLAVIkFr6rhQEkdM4NA0Yg0ny56Tn8+sQ1PNUvz2/ut489JLccew0XjvqFPg+nYazr3lFvx58jQc9crziO65AyI5GcIZ6XINp71LhEqoiWMK3iuRMzDYCmHIRMFqxdrQSlLhcK8jHBZCCSFYXYW5r76Dl47+Mx4cuS++vfha9K/y46rbbsdFUz7HuLdfRO6RhwM5maLGZMEhJOJ0W+/O2LGmodfAYNvBtksmzaLF6oggLL8mcUGEhTRCajlGOcFV0GpqgNmzUfrUo/jvwOF4aPB2uHXH3XH7uedhpTeCE154CFct+hUXLJmNUS88htRTjgU6FQEpaZKT/PIdI4rdmDNtGbWyrxgYbPvYdslEPxnbsjjaODjhg+/QRMN+uIKNcNVWwTV3Pmqf/R9+vPhK3D1se9xz6LF49ZnXkHXBKTh64mu4acpE3PTaa9hj3AlwZ+Yj6kxFmPNQaD9hXM1kwZsIgZCcNEHFYAjFoCNgqySTqDTWUIijIIlB2wTlj6iDqx5JA5ewTn8TUF8Fx+KlCI3/GD/+5Qq8fOChuP+gQ/HSfY+hIsWLwx/8Dy6a/DH++vXnOPHy/0PX7kMkh1Kon1jx2kmheYq7jUASgKqNUW8MOgKSnkzWaIiqzUYRafSjqbFReSk/1aCtfUc4Cld9AxyllcCKclR/NhlvHHocXtvrSDx44Djcddvt+HJVGYZeegUu/u4bnPnjJ9jvgTsw6Kij4SnsJhFwxIUf+nYq+6sG+YMzWfmtLLUfcwkRn+w46cRIKwbbGrYyySSCSLAJNb/8jnf+dQ9SPD5plcIgQa70XgZULgOmTEbdMy/h3RPPwD077oJH99sbz958NaqG9kK36y7H+VMn4dqfpuHKN9/AqOOPhbtTIVLcvuaMcMZmoqoJrVqq0LNTm511TvnrleTjHSNgOA2qRZJUOqpcYXHcKj/DKwbbALYiyURanb8GdZ9/ifeOOR65M6cAv09F5O13UHrzXfjs4D/jkZ0Pxx3nXIBHXn0Wdd17YPdbb8KZn3yKS7/+Buc+8BB2O+YYeLMy1ZogUbc0eBcbPONnNuisoLgh99KwN3QG1Y6wBVsfWDxEoop5GBhsA0h6MiGk2WH5b7Pxnz2PxKQ/X47BFfVw/vgrvrrpVjSWFqPwkN2x/8sP48LpX+Canybjqg/fxymP3I2dTjsRaT06WaShVlujs4ywjDMW+YZhI4lgNSIRwlJSipFQDLZibBVkQgJIz0zFIXsfAG+3TqhI86IuuwADrrgIaeeejfAeewKduiCanoOQzydShwcRUUHolCrikpbKrb216sYcjiLSFBB1IyZmRDjaE0E4EJTgJB8JyFNybZTDx+qLWTwWb2GApvoGhEPWh7yUHYTXyzYi8fFyolmVUTvi6B/zU/4CRS62YwODrQ1Jv57Ja6+9huOOOw75+bnS1urgbAwjtLIGxW9NRGDnwei7847CCy712r/VHldvjfRzsnE7wqgqXo4J9z2ExsompGZnYc8TjxSBJYo3HnwSl9xxB6K52YikeFE+fx4+f/JxHHPN5fBlFwo/hBCpqUT1N7+hMRxCUO7V6+BDUFlagi/eeBmZTQ5st/cemPHzr3L3MFz8Dk96BvLHjEGGSEXv3PlvBCJ+pGVmYsDA/vj1x+nIgBdVbic6Dx2J0y6/RMhEykAnXRPdesKsZ5KcMOuZJBm4VCEc2UBaDty9e6LHpaej3247gwsQ2T+uTUqx/+gTkW7fyZHkCj9Sl1fizHEH47D8Llj46pt44rSz4J/yJe7YbRfcsM+u+Or5R+AIB5BS04ia3+fiyUsuw9NnX4jXLroKX9//EKY8+ihmvPo6wssWItpUiTHDhqGusgr5mTkYmpohLh39g05k/LEIxd/8CFTXIq86iEsuuhTH7rI3BgZScM6hx2DXjM74+wmn4fRjj2EKJXHCJK0ODRkYJD+SftnGP/74A0OHDkWaWqCZcodFEhHp8fnxLPUCnsUZrUIxZjSMhhWlmPvNJAzYfSTC0sh9RZniHcKJ554nUkMG9jvwEIw6/VgEhRwqPpuE7sMGYtedxmLM9jtixHbDMaT/AAwddxgG7rcb6kSdmv3FN+iZn4MxRx0IV1EuMkb0R+bIAcga2AfOuiCWBxrRpUsRloz/CJUlxahcuBSrVqzAJ+PfQrbThS+mT8PUOTOxw357SyI5HE3EnmcDYJZtTE50lGUbtxrJhA2MSw7xG7+EWn6IEgnboGz4IK05ElDY6UH+4H447rorUPfdr5jfUIrvPv8WBx99HOpSnei7985oQAhPnX6peqcvTdQUvzeKN994FSsWzcVPL72DYKobNYvm4Yc3PoLD5YU3EEBawInS4lX4/qlnMPWOe/DWny5EdflihMOr4HQEkZadie57jJH4MpHVqxsKd9oOOf26o8sOI7DbsYfA1cglJLm2CRO6gSxiYJAEYFvb5sEmysGc4oXL8fCN/4SvMYSMgAPb77gTnrrzAbz273vxwJ334q3Pvsb+Z5+LiNeDJq8DQacD0Xo/Mp2pcLk9CEvDr/plNkbstZua1+Zi449GkZaRjuFHH4S+h+6DtLRMZIRccEv4xYsX4bbbb8Wr77+NV957Cy8+9wJuv/9uNISDKAnWw+HzIOhzIsxZcAYGWzm2OjLZ0Onp6opQGNHqBvhFpagIRxDp3wMpPbrgkv/8C/988klcdcdt6LXvWCEKF7y1AeTWhtF1zBB8+etURHsVoD7FgVlzZ8M3ejAQblKfoAhR9WoKwLmkHNGSOpGAvHD4XaI+udFLVI3L/3oJ9h0zFndcfQPu+Ne/8ej/nkNRWjZmfj0VacU16Nq3l/ARR3gMoRhs3egQkomGUxq+VySG1JR0DBg5Clmivy5paMBN9z2Eq668Co9cfh0iDX7UVFbgj19/xbuvv4kd+g3FgLQCLJ/0M1JWVqtPV6xcsVytNh/mR8/dXlT4m/DoS8/jxY/eQW2/QjhFtYnIeQ4PR+oa4SquRv3c5XjvkWfwyqNPICz+3Q/aWUjqRwSKK0Rbk2JQC0hLItefJw0MkgIdhEzY6weAYBDB+kb88t1EPHzrbfhBpIMb3nwZN778FC6/9ga4wg44fW70GD0U53z9Fnb5yxl4+a03sapnLnY49zS8+Np4LJm9FLOffQ3RykpERNXxerLQc+hIXHbPI7j87odx4sWXKRIJBBpRXr0MP0yZiECnTLwz8WPsfORh+NPZF2P3M0/BIRdcgsP/eiWGDhop/BEbzTEw2IrRMchE2inXaY24A3CMHIDOf7sSV3/yAY64+C8oWVGCa8+9FI/deQ92OOM4wCUMIQThTC9Ed1FPzrj7bvQfvSfe+PAL9D/rdMzvXITq/E5Abjc0RrxY4vADnJqvnBOLZ8/H1Wf9BS9/8Tn6jBqNBU0NOPLuG3HAAzfhsxVz8Y//uw73XnM7rt31aPzzhD9jwnsTsGzhEotLtDMw2Aqx1Uxa26iPcHFaqYMTTejYWlOAiDwzdx1CMqJacIoH7alquFmN0tryhOEoPMSm5NPEwaVgnXKB9QEuhuE/xinnxVFqkcDqMmou/JRxswrDsDwm7GqNertww2EmrSUnzKS1JEDzFPXY/gbDoRYOQBgeadyx5RRJIiJM8GNZbMTcRrh1s3WTAkISPiQ/7sv9GZanYqQhNGLFy+uVH88JyThcCPID6QFxUbfcza1+FkNpZ8VhvVlsc3zEjXpMSZWkh87AYHPDqnUbUYE3BzZk9CYebPz8PJazeYFn61t82nF01trnvaxGz/C8gl70VVfIdQ5prC51xA+KC8voZQdcDvVOoZcRcRVHe7Lj9xnG7kfwON5vA0CbjYHB5gartAEhjdhkhoHBhsO0HwMDg3aBIRMDA4N2gSETAwODdoEhEwMDg3aBIRMDA4N2gSETAwODdoEhEwMDg3aBIRMDA4N2gSETAwODdoEhEwMDg3aBIRMDA4N2gSETAwODdoEhEwMDg3YA8P+sbSSvSdg0agAAAABJRU5ErkJggg==;movable=0;resizable=0;rotatable=0;deletable=0;editable=0;connectable=0;" vertex="1" parent="1">
                    <mxGeometry x="30" y="320" width="293.97" height="310" as="geometry"/>
                </mxCell>
                <mxCell id="5" value="" style="shape=image;verticalLabelPosition=bottom;labelBackgroundColor=default;verticalAlign=top;aspect=fixed;imageAspect=0;image=data:image/png,iVBORw0KGgoAAAANSUhEUgAAASgAAACfCAYAAABKv0RgAAAAAXNSR0IArs4c6QAAAARnQU1BAACxjwv8YQUAAAAJcEhZcwAADsMAAA7DAcdvqGQAAEfaSURBVHhe7d0JvCVFdQbwBhUFo8E9UUFMjCjGJXGJUXFFCSAIoqIYCcPiAkYRkF0F1LggQRS3IKAjboC4gBjc4xJBR1HQKBATlwQ1qInGuKCMuf+a+Z41zX137nvvvsedmfrm19O3u6trOXXOV6eq+/XZ6LcDdA0NDQ1TiI1X7xsaGhqmDo2gGhoaphaNoBoaGqYWjaAaGhqmFo2gGhoaphaNoBoaGqYWjaAaGhqmFo2gGhoaphaNoBoaGqYWjaAaGhqmFo2gGhoaphaNoBoaGqYWjaAaGhqmFo2gGhoaphaNoBoaGqYWjaAaGhqmFo2gGhoaphaNoBoaGqYWjaAaGhqmFo2gGhoaphZTSVDiONTbuoT51Hdda2NDw1Jh4lFdrr322u4Xv/hF93//93/l90YbbdTd9KY37W52s5uV645rKP6aa64paf/t3/6t+4d/+Ifu4osv7u5+97t32267bff4xz++22yzzbob3/jGq+8YjZUrV3b/+7//23384x/vXve613W3uMUtur/6q7/qdt555+5Wt7pVd4Mb3GB1yuviV7/6Vfc///M/3SabbFLykfbmN795t/HGa/L4b37zm1KG9Oqubtp129vetlzXJtfIYJR45bvpppt2N7nJTcpxXzYNDRs6Jk5Q//Vf/9Xtscce3Q9/+MNicLZtttmme/vb3z5zHPz617/uvvzlL3dHHHFEua+GdKkaknnOc57TPeEJTyjHfUiHUP7lX/6lO+yww7rvfve7xfidq4Ggnve853W77LLLdUjnxz/+cfeWt7ylbCn3Rje6UfeIRzyiO/HEE8u51P2qq67qTj755O6CCy4ox/Dnf/7n5d6k+fznP9/9zd/8TckD6vuTP6jjLW95y27//ffvnvSkJxWyqtM2NGzImOgUrzY8qI/7BscDefWrX90tW7as+/73vz/SIJEHb+gTn/jE6jNr4pe//GX3oQ99qNtzzz0LOQHDR0LJ1/5HP/pR96Y3vam79NJLy/W6fn7XGyBQZAT9+tX3Qv94GOq8A3Xktb385S/vHve4x3Uf/ehHR8qioWFDwsQIahwDrfGTn/ykeBxQezsxzkwPwf7qq6/uXvayl3WXXHJJORe478orryxemHQ1KUF9zvYf//Ef3bHHHtv993//9xrpRmGubQtCSLnfPvUInAuZxjP7x3/8x9VXGxo2bCzZInmMkkH+7Gc/6973vvcVowz8vs1tbtMdf/zxxUCR161vfevVV1fdj1yOPPLIGTID61ZPecpTyvUYO/zBH/xBd8ghh3T77bdfWQOr8a//+q/lPBJcG3hkr3nNa1YfzR/aZ63KepppnN+mf9a5Uncbsj3zzDPL74aGDR2LTlA1MYFj3svrX//68tt2wxvesKzhWNjeddddu9vf/vbd/e9//7LG89KXvrTcB1m8/sY3vlH28nR/7SHBXe5yl+7888/v9tprr7J29cEPfrBMJUNe0pvunXrqqeV4FJDpV7/61bHIbDao153udKeylnXRRReV9akVK1aUhwEnnXRSIam0AWmRx09/+tPVdzc0bLhYMg8qYOieblnfCSwSv/jFL54hgRANL+MBD3hAd7/73a8cu27x3XoNg5bPZz/72ZIeWbn+x3/8x91pp51WDD35yN+CtU06G4L68Ic/XJ7CjYI8L7/88u7Nb37z6jPzQ+pSI4vwyNqTwaTxwODTn/50+d3QsCFj0Qmq9pyyz2P5kAWy+vd///frvAIgze///u8XT+iAAw7oDjzwwDI1e8xjHlOu8254I/Gm3M/LQkj9vOTz8Ic/fKYeCO7nP/9595WvfKUcjwKP71Of+lQhq7RnHKR9kHL7cN607w53uMNMWutzX//61+dUVkPD+ogl8aBqQ0UMpjBIChgob8bakqd1faP0nhAv45nPfGbZENVTn/rUco3X8YMf/KD8lo97ZyMChOWdphreVfrOd76z+uh3kEc2kK+6/dM//dOs+feRdtR5BP021vIARIg8Gxo2dCwZQdUGz8N59rOfPXMeeVhz2WGHHcqaE4/Ktb4hB8mnT1CM3FrPuEAEvLA+kn/qZm+B3tTRPZD6JS3Uv2tIl/Wvuk3JwysX3/72t1efXeXt/emf/ums+TU0bChY8jUoMKXZaaedijdVg6G++93v7h70oAeVqZxXCjJ9GwZk4R2iwJqOp3fjwv1ZjK7JIMSx1VZbdUcdddTqs11Zrxrm5c0Vykoe//mf/1kW9HlRgRdT73nPey64nMXGOPWb9jY0TDeWzIOqwUA333zz8vY0xCvJupGp1xe+8IVu7733LutGZ5999kyaGiGVEF2O462sDeol32H1A/lk49V985vf7I477riSXpqkGwe8PeTGE/Pqgqmlp5TeHv/ABz5Qrge/93u/1935zndefTR5IHVtqdutjbzRf/7nf+6++MUvdt/73veuIxdrY978/8xnPlMeHOinpJHnZZddVjzBnHMdAWtvP69JwYMSD07W9rCjD20h/wsvvLDIfr71MxUnS4NpNq+KTOIprFdoLCvk5eM+1Nl1fx7mryhq0GttNEMY1x6mEdcLQQEjNM1jEJ7g1U/dpM9mgdr1Rz3qUcXT6AM5JX/3972ytWEU0cjLn8dYlFc/ivytb32rGPCwNo0CQ33Ri15UprE77rhj+dtAL5fyGnlPyFmef/RHf9Tts88+a8hj0vBGvnfEQjDeO7vjHe/YPfaxjy2K7vULx7vttltRcn9b6Q1876U94xnPKK+DWAskFwOJPLwB728nvQ2PcAEJa/Pzn//8NTzdUajl6veoY4aHFBFNpvo1XPc0tP6TpEDfkm8/z7nCKyheZdGXiJtsyWaLLbboXvWqV61ONR5Sj+yH6WZd11yjl/0B3LH6eLgzH7JciEwmieuNoICAEZV3nz73uc+VkeDP/uzPZhi/7hzehz+N8e7QYqCuY37b3+52tyuG6s9pANG89a1vXWNKtjakHfbZ6uMo2N3udrfioZniLhWQD6/Hy6OI0dTau1mnnHJKGTzI3J8GnXXWWYV8kNkxxxxTCOu+973vzN8u2rRF2ve+970l78ixbvMoJB/9n3tr1HmkvL/4i7/o/vqv/7oQag152BBRyL8P92dAI3/bsHRrg3y8t/esZz2rO/jgg8vrKwcddFB5wvy1r32tpEm+yuCNR8f7oAtpf7Y+nJMu+Sg/skl6T7MNhDazlcD15G+f38OgrtHN+r6lxPhWtoggXAvcD3zgA4vCZS0KEWB/gqFI/mbPiHzeeefNTAcZFjcfCNO9Ubq1AcnkKwuzQTl/+Id/WP7gmcutDCQ1F4Kq0e9o7fbuljU5BBFFWyqQrykEA/fOmbpRbnXacsstZ14BMbXzFDXK7jqCQkb5syGysjfdSp+kneP0iVcrvNfmAQE9MF0yfeOpMXSDmGvq95GPfKSUJX91ojv3uc99Sj7a5IVYZOm6PpMXWNuzbADu1z5lGvikvfe979097GEPK+uk48A92dKvNu31PhvP7h73uEepE4+Gx6dcLyM/5CEPKeuc4F7TZvX2Z11kaT1VurTT3mCivrxT3j24Fpjy8Wq1GSwV8Gy9xhIgUB46W1EmGBz/8i//snyRQ34Gro997GPFo3bs4ZNzHAgyGtfGFoqZUq7L53ObtxJeoEG10HJcnwv65+SDNJYtW9adc845M96EdK6ZlnDb/UYSph3Jg5fDmIZBmnRaQMheY6hRt8NvaXTu0572tKJEoKO8zV6nHQVl63gjrBc+zzjjjO5tb3tbmXp4o/zcc88tnov8xs1zUmAElI7xv+IVrygy0uZM30yv1f9P/uRPukc/+tFr1M95r4iY9vrNqBAAgvLy6Vzgfk8vkY11E8fkrT42MkcmBiReLUKyIUqoDUYaA4r6MlDTLZ/c4U1oa/pcGYhL/ZGSa1dccUXxHF2bK9J/qQsiNQAha/JFKkgAMdFV5TjnHutYSFJa9XjoQx9aPBcEl7oYoPWJAcHLy/40DPHVHpm28uaUY2B1b78tjhGhciMj+uxPwORF3qbxBgX9vt1225V76rosFWZ69bp8uOaZCACGNTrou8l+18pjLeLv//7vu7/7u78rb4SbTnCFaxAc8mE8nqLVf5PHIPJnMjo/I0PqZFSo6zoK6tX/O71h7TKaUnjGk+v9PdS/1c+xPTAKeTAqnoo/7TF6xuuA7Bcb/bpvv/32pR8MCIzfVyEYD6iTzYhLDnWb7C0S83ICA4r1NZ4CZU8Z4/SJftafDES+jE9/e7Cgr5C8kZy3xwtixNbsoM4fMUiDLHkg7jPq3+te9yrH8kq9nN99991Lv5CDvoFxdQjIASmrL8Lxt5vvfOc7C1HYtAeZIH11JqOtt966pNU2QD48J+VLZ+/eeEnKsN6FQHmu1mQtPdAjOhQbQ9hkY0NWzqe/Am1HXtrufp8f4uWpizrwqHl/ylcX5T3xiU8s8uzntdi4Li8NAWUxut71rnctDbEZcQi+hsrbjA72BIFoMsqBTvQ+kTWNd7zjHd273vWu4q7PBgRCQCBPBGgEkTej6T/tiuL1wfOKMgRe3OT+jgNKTiHqDpqtrHFQ53N9oK67dUBv6Rs19ZVFboppsTd9rL51nf2m/LY+yTpnqvHa1762nBtHTu6Tj80gY/TWzwgTASIMulCvp9T1mSvUSZ7IrPai55OnfCyIIyH6eOihh5Z1VQvn8qdnyMCA6y8XPJVGNjXkEfINeILuV9d4NoiFTEJINTn14b5hspeePufFZTbqnPzVgyeFoLyvSOZkIo2ylhpjEZSKGdkIKwpo445qUMANp+QILR3NbddhOTYi+KhcHgu7x5MPI0gfhIvQ6r9LUxdKKj8CxOzJW3qjkvxTL+f8tn7kyVWgLdrknaNxYHT3BG7ctYlpAANnEPFwoqx1HyID6wymOUZ3UwhP7t7whjeUqahpKcX1KRh5RdYgP33AE0ye4Cuoz33uc8s64ly+b6VvkaVByGDCKGzqZAqESFLGQqFONm3IBtnPBfI5+uijy8BMVnTb7CDrm+SP9H20kdfv1RLeid/RU3loH1KqUdfT3j1kkjo7t1CZpAwbzEZ66jof+SwEY7WMUCzipgHgqZqpAJdQp+gcI8MJJ5ywOsUqaGg9NdIB3Gl55Rw33idTPvnJT5a8AqRlFEJ46RDM7wlJIB9kE/CU8uqC9AjQ1wzySRawN9L5tEvqsDZIx2U+/PDDV5+ZfpAD0om8tFu/WRjVLxTRKxO+VGoQIXtpGACZGrUNQkjZiGogibyQiPSI29cjnM816S2wy98DhXFlDAYMhmqaQVfoDsK0MfjkVZc3H9T31/nMN996oIY6D+s7pmYW+H3KGqSv7/Hb4Or9sxr6yZbXTlxnL8F86pv08uvf7zeviQ4g2vqa9EuNOVGvKV5AoJ4oWHx88IMfXOa8yKkmmGEgbG6sT+9Sco22J3Tvk1gglJ9FQItzfVcYWVpkjOC4zd6zCZznFbznPe8pT3U8DfJYXH0jYHlYD6q9p1r4wzrFnktszUN9g/q+UZBnne9SwAKnd5t4IJ6IxsP1Oof1BARiMZXH6cmohXr9l9cKELL1EjJ8+tOfXhb1EZnByBrLC17wgrKW0m+XY38/qT/T7nHaTpY8KARloHGM7MjdZv0I5KUPECgwJmmds6Us51xDyjzA3KeNfqfv7PPb+ZBH8lkbkle2/n2I1caTsnlaaY1OfwSZuiIzA7M68hrzkqt8Tb8NCMhOe9if6+SgvmDv3sjBFlklDeQa1G3325KKQcc0nS64/0tf+lKZhUDSLwXGJijG7N2XMHk2wiDoPFbOeTBX5r0whBoY2nSp9nwiSDCti4JGiEBBzfXrMigwLwGh9TsgSpZ8gcIiLq8rIMtRcG9dPpgW+mNl5/v1mzYgqH333bcop1cYGInphfa/8IUvLGn0gfUm019TEF6LhVOPxD1J9TJt2mzg8F4UEvHpGuuQpjbpC0jfmPrxGKyZ6H96Mw7k7V6esvrnN52xPCBvXp81UbrgkTmjp2emVR6Npz6pi+nr8uXLyz2enjpO3yfNJNAvF+iHwYAs8hKs6Z4nlVnfoaf6xOYptCe9HiJ5I90SSfIxlUYcvFLtMYX2ZC0EDdrPUSALD5+QisHJOSRTo9Zd9zu26SsDOHl7781DLa82sEmo71tszClogqSYm2cToeR2Qtbp9jYs7CU+6SDpIkgwbTAiewTLUCjybNUxclCuLCL28zPVpLB5a9j1uizH6kXwFubVq05jlLXmkhcPnTcNpNRxywMd/eQnP3kNgmXUFCH5UQ4vEGZNwZRHW/MOzlJBWwwi+s1oSMm1pz9oAMU3squr92L6aRC9UdsCNtnwqKXR70jQRrkjF/J2jkwysI0D5bg3upMBpj52Xbny1EYbOBfyAed5fEjMbwOtQU29yQXSztQveY1TX3loo7rNRsLyk5elCt698m3aoa7Kd11eBnoDdDzHuj3SuEcaecXbdE4etshG2mxBjl2vj9VP2fbaoTy/pWNXpnrk5q10Aw4irWW8mJhXVBe3qLSFTAxO+SmBJxWeRBCahtbCGQX5EbhpntHNUwSjts3o6elIP69Uu38+HahORlrGYlrG6JAcDKuX/IwQXoPwO4oRJaihjChbQDnUNXmTj0XqGAHlNRqaXq4LIAOb9gyT1yjkvnUV63r9Fwq2zDPlzVkCoLcGXHtT/tjRUmDBYaewbD2a2ebbwanKpJSjHkkmjXHqWsthvjJpaFhq0FXOgpc5TTMRloHeerNXjJYSE4+L19DQ0DApLM1EcgNF4/6GhoVhIgTFEJsxXhdtStfQsDBMhKCaITY0NCwGJjbFayTV0NAwabQ1qIaGhqlFI6iGhoapRSOohoaGqUUjqIaGhqlFI6iGhoapRSOohoaGqUX7U5f1BHPtxvZaSMO6gOZBNTQ0TC2aB7WOYqm6rXlaDdcnmgfV0NAwtWgE1dDQMLVoU7x1FNd3t7WpX8NSoBHUOoLrq5saETVcn2hTvOsByKZPOMPOwbB0S43Z6tbQsNjYIAjKt8kFOpjNyJx3vY8EYHB/IK3jvtHmuH8u8Fv0DyG6BFSo8wSeii33DMvHPYm+MQyuCeYwG7RHHdLWvnck39Qr14aV5Vx9vj4elr5G/7ry+n3jNxn5Fva4kA/Z1rHmxoGyhYAaJbfZoJ6pv73NuX4b+5Cu1oWG2bFoU7xkO2qKME6ahYIiiBIjvhfFGBYuR/li7okZF6iboIjvfe97SwBKkI5CCQsUIwd5iuoi6gVlF5rpXve6V8mjbpv8hLWS9sgjjyzXksbevaL+ih7rnAgwouSID+f44osvLrHQBMxUlnM2UB8fuRcXzfU+XBdCXogvMQkF89x///3LNWULFimskLYIXY7sRLghP9chZQmlJV6dY8El1SvycE6dBVQVnktbA/mIriMQaPpBZCBtdl7MNxDqiNzlecABB5Rz7rWlzfkdqMc73vGOEstNuPb62iiIvCPIq/Ri/SW01ThQByHMRD0WYkycuyDlS0PvHKfNzilXHEL9SO8SnqxhTYzfG0NAgYRrFift0Y9+9ExIJSPDRz7ykaJowjbtvvvupXPqDmLk559/fgn1JMCn4JE6kULrcGHQKbpIw9IL8SQ4I8OQ1rFQODrafTZhqgTwrJWMgYlMIUKxqBSUBbIHobMuueSSNQhK25wXiffCCy8soafUZddddy2EpS3O8bCUJ9qFCMfqJUiiYI39iMfqKK2ybc5pb66RF2MRUUNMNHJETuKQIS8huYz0ZKN8dRSSS0BNx+Sf2GzyBPkGyrLJtw6fDeKdkd/73ve+EjdP/2hHgjUG8lPe3/7t35bykIsQ6+SubISD2PQ7QkZ0zukHbXE+dQNRdkXKfdSjHlWOXROjkOwTSRiUa3M9Bl+j1q2k66cJtN+mL+gamSKIhBHTDrLVF+qNuLS1zi9tEC+O7iD8OuZhyrfJA3ki3fS788q3P/vss9dok/PK3G233crxhowFeVAELzyygJqvfe1rS2gaI7gAlgzs5JNPLkYnaq0gj8cff3xRJPG2RPYVwhyxiVZLqZ/whCd0O++8c4mGKhw3g2EkiEBQSSOjkfaUU04pQT8F1WRIoqgiKiG93Svo5Itf/OLS4ZRPnc4888xSvyhClAEoo3zlk2OEJj9lUuJzzjmnO/bYY0t0XorMWxF772lPe1ohQDI44ogjynVGJzJsQoYLmPmyl72slBnlzB7pHXXUUaVcdechCYop/pjfYpDtsccexdgRgTaQORIRNRjhMHpYsWJFGRjU+UMf+lAJXw5pa8oFe/VTZ0Qv2u0Tn/jEGULRD4H7bGSHHKU/8MADiyEjb2HQtZvcpEFWCPr0008v5SRsEcPTrmc84xmF2BgtWQUiRD/zmc/sPvrRjxbZI4W6vnQFkSEOpNBvD+82RA3qYiMjIeAFW1VHUXINPICAkTWCMlC6rp48SqHfn/KUpxSi5H3qD/oszxq1fANp9JG+Q8xkJBhnBkHyNkDvsssu3Y477ljqr+4CjEqrbJ7sho4FeVCgMwOjEgVmMEI86zAdfv/7338m5jxF5toaeRiSjjzmmGO6l7zkJcWodFYUAAm98Y1v7J73vOeVDswWRPm49fJj6Fxu0XERWqIQg9j3IvumvvKJQqkbo5cfJTFFe+UrX1mI6LnPfW4hSOmF/xbumwcnsCGS5UFJR9EzilNMZQlhjYxFWUZwDB95qzNi4HnyWEBdbOqQNjpm2PI1hUGI2ojszz333GJY4vUrm6ykQabKRD4MEuQnX4ZpOob809aUaVOWqan6Ol/XI78D53I/AzZtRFjIWl6IjqwRMNm7HwHTEXAd6AbPQ5/xEnlTX/nKV0qocEEj5W8TNpwu0R8BYk2N5Jkt7UZO5KMt7kvbDEBA9ojQBu5DeLDXXnsVHXWsztoUHdLv22677YwcDIg8IgNxSEd5QdIB4qSfSJF9aEfk8P73v79s6uUeeSBL7W+YAEHFKMHvuMIZiZCVtQ6jIqVkTAyTEaRDKANiitE5Jx8elJGWy+9cNrBnEPKTj43yUjwRhXlA7nde5xvFueGOc7+N8hq11D1tEYkY+YhJ/8hHPrKszSAnpGRKy9PiCTAaRET5eH+ZvsjXqMlzZBjydZ5MEJp0aQeoQ4iTwSDZeCXkQIFNA4zACJPnSiY8VEZlvcd160vyEgJelGPEav3NOcTDY1UPa0MGAwSmrYFr+sYAoq/SFu1DIg984ANn0tlA28hX+sjT3nX1QlBf/vKXS7rILHBOPYWN125l86jogClOHSRSvqa4BiOeVOoWICdyswTAa62vgfSIQjoDUOrPw3ZM/ggEUSJIdUrUbH3IK49+gD6gU/ooeaVOaT/4LW/58dAMUgYK+mEQcZ1eGCARE1KWXoj6hoGOrN4vGARNwJTYtIvh6kTnKZV1KEKPMdbhk92nAymQEZjCMy6dRUlM5QLXAnnXYPzISX5bb711URJlMRTTDqOeqaTNb0buN6IzkteQN3JgQPaUlDLK15SU4TFcRs5dt0gaIwULptbQIMpKEbVRedKSRSCNqd1xxx1XPBxegiml/D7zmc+UKRViRHoW2E2X1QGRyfPggw8u9yF+UyeLyzw5nqC6KYuBIfQQPgJPHRzb9J3pJDKUl42H5Hwf0msLo+ctvv71ry8DkXZqT9oN+a28/M4+hk8m+hcx2er7IXUcBmmVG7k6rjegHwYbyxGvec1rCsHz9OkM0n7Tm95UriNIU2XXpTOdTx7gN2KL16zcbHReHSD11SZTNvqM1BAiIrb0kKk7j8mapQFWunr9bUPGgj2oWmEYstFNBzESri/viEHnCUfS1/el8+0RB8PR8TqJcfFcnKcAtVGDY+sCpjg8Dcqms+Wh8xkvj0W9kj5Kk+OAt2ZqQJnUxWh30kknlfQMXhssECuLt7fnnnsWj0p76zyBAiMC7VD/eD2U3zlP87TJVNQ0j2IiQJ6EfKTRhn322adMB0xpQL0iO4Sm/sgk521+2xC1tigj59QjC8TIRTnORy6ODSg8pkc84hGlbQYN7exDPkjY9Nx9IC/58lblp8/0Adm5VkPeZK79pqfqa1r1iU98oqxTWRPbbrvtSt1Sv0A7eFy8M/maHnr6SaZ0zzkbkn7AAx5Q7jGg7LfffmWDpEFGvEa6yhPOVE6bIs/sA/1IrsiF9xpIZzMgZ+qX+7XBmpRryjSwxaPkqRmUlU1fG1ZhogQFSOpxj3tct/3223cXXHBBmXNTCE/QGJtOorR96MScz16HmRYgA4/OYwQ1eFh77713MQrejikZF5+innbaaUVp3afcEAgSYByegCnXNWlsPCRP6bQLQXpq5xWFgw46qCyS8iQs0Jo68XDkaaFT2RTPb7DewqNAjNZV5MdQ3c+4EIRzpiTaoM1I4IwzziiGal3LNBXRWUyVH6h3FN7G+Kzh1XAeeAy8G/knPXkYwbVT3dN28DtGmPSu5XcfvAAylg+yQhLIkty0R58oT909iazzyW/Ta4MKuVg7UgdtshaEGC2KOyc/dUvbyZJxW7zmITuXdSn1cmxASH6B89KQI4I766yzykBmQdoyQ712xdvRfjqde8E1BKUf6bQF+MB5eiINKEvdly9fXkgwemrwYSM8e09QtcM6JY/OAGtxfptttil5BPKC1GNDwNgEpTMoEsMi1AhLRzsHmWJZ17C4qNN1nrURT3RMWyiv9AxPHhRAHhTSyGFezjh1go41b/cEzBRG2nQ8uN91C+l+1x3nvGkQMEjTIx6PtQRKwGitMclPviGvtMtemxkORWVI6mzvnKkVAzJam4LWZTMMT7oookfFSE557pGHNhoxDz/88Jn7lIc4HauT+iBo8uKhmHqYhpgGRN5JV9fZOYZrLYW3p655XYPxuG5qkqd0KV8++a0/9IH0zml/H8pi+KbIjMvUXh211xSFnMiB7Bkgb09+yk05yIDnGC/Zwwp9gbT1lYFBX1n/Q4C5D/xWB+3ysCUyiSzgvPPOK/UA55Wvjjw0XrD+NYAYkJCVAYUnh7DIgOxN4Q16gXLVRf+xAwNvDffJV3mpi6e4+oF3BPKwWXcyiNOTEHsW88nN7743VctgQ8DYa1CU1Cjwute9rgieoBAS74bSc+GNoKZzJ554YjkH0lFQYJyMzoiXx8TAGCgT5TQK1kQkjXvqJ3Lgeq2Mw+C6vI2oFMA6k3Pyp4TcbSOVqUTeWUqdpEOaRj2u/Etf+tKixM6rj9cfXKPoCAQZ8n7AfZQva26UNusOFrV5E8iNcsrPViNt5lFQUp6V6QDSM23gqSF/HlyMgQGoiwECoWu3hVijsL6zAMyIyZH3QQYpK/DbZsrsaaOHG7xfj/zrdEG8Gn2PbLQR6Vuk5wUiKNMfRqYO2uypF6Td8s3elnrJjyeBBOgNXQsJ1ch9QY7754H3glzIhI7qf1Mt73QZQC3Cm1KaflsuMPCZ5vbzM61EptqS+gZkq0+kTRuRP3nQQbLgkekreqKfkKL+c11a7bQH99Oh9C9ZbEgY24MiYMZMWY3kPBSPrI0keVHQGoo1BCMfr8LUy6hleoaUeA4EbwrmPSHTP0ZsRNPhlCPuNKTzTcUsunuCNRdQEuV7B0q+FnKNiM7zKhhTlC6ECH7zMoxopnZGcaMsQtJeSgVRRkrjHptzRm1E4B0pCmaKYwGWF0EG7vGUyjtE3PwoI0Qh7Xkn1sEQjYEhdUV4vFLG5V7TTflTYFNMHpsBgNdpimfthbeDaHlXnua53yYNKA94QmcNpj0pC1xzrF722ZCGOvIQ9B/PGXF69QExebHW43nToPQrGVrPkyeCQ4aIO2/PO5/y8oSRDJTFgGskHRn43Uf/nMGPN+Y8wtQP9DVLBNoH0Tt66QGFaaalBvepi0Vzeou8kjZ9RhdsfkdOZg424EmTAZ22PkhfQPmmmB4OuCeQj/6woO63ewxQG8prCGMTFFan5AyUx0C5CJVXgjh0kFGfay6td0QYADB0JEVJpWOo3HIjvTyMllxtiqITgBHa6o52bxQh6WaD6+pqNGSgz372s8vLmwjLiE8x6jzqkZDyMpy8v6Ot2mQzRcz7W0ZSysO7Uj9pEYI1CAQORj4KzYsMwcrH1ISHoU6mejE+xJgFX96L1wPIO1CGqaBRlzzVmzx5cNoFSMjTNMTmxUfGxKNjGOqlXPWqDQHkPexc9n35IxaL4RaikaR6qbtFdu+KeQIYwwS/DQzqrRxttchswCNjJDAMjJoX6eXPun7arg7I2e/UywY8Il5ojVwL9DWvih6mD7WR7hlonDPlBH2ib5GUwbp+cJHyeZEIyrStRrxqmzrxTg3wyN2arfvoAlsxDfZUm/7RQ/1l6sxGOAj6d0MhqDm/SU6RMtpRdh1jq5FOtlBtdEMQNVy3IQlK7bo8pJWvewPHURxl+y1d0jjvuA8d+4Y3vKFM5RCKDvcbKao/ksh0Uh723G+jGMP2KJoSWE9BEIiCYiBkT5jUxToPheUNpg7S8NS8iKn9riEnL1hmegPK9ATLVAOxI2fysFZmdN1pp53KmgXZRAaMEeEybHlb3zM97UPeATmYPvMGjPjag6h4JO5FCgwlr0ogG/crL0CG8uCB8dLIxcuz3ufhYSBBxsxTNQ0mSwZPxvJxbC9fxm7dhiHyssiaV2P6yvAZq/uAh62u5EIm6pt3sZCAp3+8UPKNPtT1JiPply1bNtOmXJen5QkDjNlBrUPS6F/khSzIBYFIS4fUgywjZzMGm2NkYkahTfrbOXXUVnU0reQ1g/p7EMLrRd7qa9rPM1ZvTxSRVF7uNTXVD5YIeMnD9H59w1R+D6quUq1wMFt1k851v5Ouf/84cC/3n2dXg4IxtsAxRWeMk1aW2do5LoocfjPwdn76y27lwNhueMsBOar6xgPZDP7NpBnIh7eQ9vbbkTTDMB/ZrisYJf9JtTtljMpPGhsvTz8h0+jl+iz/YJ38YF2/ynVH1dfm24Hy6Oe51Mqw0G5x/+VfurT70vkf67bbYfvuFzfaqNvq3tusQVBrw9ravdQyWWqM6oNJtD35j8prnDTrM9acm60j0Fn1VmO283PBsDxHYZQizwXyybZgDPK4dqPfdt+75mfdVb/4SXeHO28xcPmuLednQ7/shchwfUD0aNg2CYyT1yTLWxexTnpQ6ysm2hWDrK655lflCeJb3nxad8WVV3bL335mt+lmm82sCdWYDzFtyIbTsDRYJz2ohjEw4I6NrJcNtt+sXNmdd8EHy6sNv/z56K84NtJpmCY0glrPgW5WDv7jIZ3/gfO6vQck9esBQXlKVQMxNXJqmDa0Kd4UYdJd4cmcKZ73tbyndPkVV5R3bVZe8+vujltu2d1ok1Vf35wvGqE1LDYaQU0RJt0VXoPgKXkp05/AeNfoNwPSOuz5h3WbbrbpqingAtAIqmGx0aZ46zEQnhcaeVJeVLVdOyCtTbzJPSCnNjY1TDuaBzVFWIyukKcNUfkzH7+9nXyLzW8x9vtQs6F5UA2LjUZQU4Z1qTsaQTUsNtoUb8rQjL6h4XdoBDWFaCTV0LAKjaCmFNcXSWWKOax85+qtoWGx0QhqijFtJIC82pJlw1JivSCopTYcZXl0vxQYRVLec7ItpO2RnS15ZQuGHTesApnRBe+bTaNcUqd1tc+uV4IitFHbOJBu1N+WTRLKoohIYyk/FhaSsu9vS4F+nyxFuSkr6B8vFpQzH9Jf6EAxLtZWhuv9NPXAA/ZLVd+F4gbH+vL+mNAoX8D0pcFhm3dtfFjLZ1999ZEAGLIPbfkqYx0QQRqb9NL6wqORyG95uce90iMFf7KxfPnymS8qgvJ8yVC4HnHc+lBO8oG6Q4SC8j1uX2r0/XBp64/RDYOvKhKXL1vmG9WwFAZblyHyrT9ZITvfsM7XCXzt0hcofb/aVx1Bu/pIXvXeN8V9Q9y34/WTczZ9pDyf3BXAIffUbfdl0FNOOaXIxcug6kNPRPoVwTjfoq+hXgYW/Z0+l2e+pumcP9GhN4l0krLBF0AFOvCN7gSBdb809r5+6euU3vnytU/97LxyvVHvT3/k67huky+k+sKodjjO3yzWZdcQEsyXRH1uWb5k4LPQ7gX3yUNfxT7SVu13zr7e1Cnycr8vbZIHOftaq3vucpe7lOsgr9RPsAd64DPPzmu7TyL7dryvl9Zt9XVW78b5ZPRs7avh08z61AcafRF1KTD2N8mB0gke4NvIdYPi3toCHeHD/SJjACH73Klvcfses+gvvjHtC4HuF/GD0vgcKiXV4YIogO85i7qCbBifTvTNZ59y9TlUnefTrK4jOd+9FkKI0fkWuvPqq+N1km+AMyh19MldwRPAt6J9crfu8CDtozgxoknD52QRDFmoK1AEkVx8EjbyVQefCc53tAPE4GuL+eY3A9fO5FWDAfpUr7zIzOd8GZtvyesPm+AKPm1LRmQco1EuHXC/OvnMLRn7FG3S+B64PJUjfWSaNugbAwtj9eloA5A2MSz9y8iUyRDpEfjUcKKs6APplYdEDXDgmnPabEtgD998pxeuuQ/BkTeC0+6AIWs7oolshZ3yCeYaaY+N3G3S+bSvKNC+WS6klnTsxueFfdIYGfgssoAQ5O5cwqrbXMvnjRHoihUrik6Io6eu6meg1C6fTyZ7g4B4AT5Xrc3KTBQYbWM/dNvnqMlNX5Gtsn1DX3uV6V5lsK20vYY8DVQJGrIUmNOLmtjYt6iFV+obaZ2N37777VveopFoOMWgtMhB0EhGJFQ34Wg47wib+/i/+ym1+3wwX6hvnUc5fWRfOG8KScGNKggPyVAK3/GW1v0+SE9hfGZECGsekwAHvonte9fO8xiUpxON1iKxACVwjzroLGkYDqLVlvqj+K4xLOS9EGgTkqaE2sDAkQxi961wsgKKJh4fL47hMDhKJ73vX1MgdVFP+fSVTX0DvwU+8DF+xiMyD4P33XWkQX48FAMLZeep8s6kow+8FCOrUZ2SG1gYJv0wOPmmurTKUX+BFATWQFCMlkHIDzFqNzmqP0PQJ/LRRyLF+C68NmuTcgXlIBvesIFKGWmb+7Rfmc6J3iK6TPQ29/u2N+JDFsCL1A+i/4A86CqSo2tkQyeAXH2XXl0NINqCjKTVJ3SRh+seng1CIQvfHNcWBIKctUGe6skOfEeeLiOot73tbeXelCddyjeAG3B9G56XiqDIkcyV/573vGeGgOStLcqnKwYG53ONTMlAxJ2ajF2L/ogp6DvqnIF8kz324f7FwJxcAQ00QmN5RIMEaqiwzhSmx8fvCSLCJAgGwEWkiAxCR8jHfRGW4AGEiIRMNZThY/GHHHJIUVgf/6cUlIEBISdKnUjGFDH5ubcmUkJEMNx/yoLgBDVARpRAqKwIHBkx+Hgj4Jo22RhnzutsZSmTjOYLo3yidagrckLIjJkXgwSSvzaajiBhMkNajDR12nfffct0mMLNBmkpsBHYCGvwQVZIzmBByRkBcuJtIiLphZYC7TaAyMc02TH58gDzfXPX1BsYvhE/cE07bX7zKrRFDD9EjTyM9AY7RqzP0gdkDe5lMKKegHxAfxoQyUE7UhaQHT0xUKmztDwq1+UNoq+4R3Qa3gxdICd76eRhH71FEjkP6kl/DcbORa/ojSAPiMtv3pFNGtfpK8/VMcJQH23XPgSJIHil6q9c0++0OXVyLI1+oxPKC+m4pi68UtNfJKjuBhd1CuRFNgYLg47NuRpsxABGd+rozZPE2ASlcjaNM6IZYRhlzoE9peRKp6MdI4Cjjz66hF1K8EzCt9eJPC3CAiT0ohe9qOQljTIopvmyDtF5jJECUXaszqgI3ihmjo7gxA5L3VI/oABGeNMm00wE55w2Qa1kzjFwHSAPI+XJJ59c2sdDkdaIybNAmgshJ9AuXhsvg2GRofbzWoyo6qWdSIkXK+acgcA5xm06JBQ5pROMEsmI+pv7Ar/JMkrJs+TFKos3g/wZzcWfu6i7yYCgr3jotmXaYjBJPpERxWXE5I2YeCAMiWzIto7KK3pwor7YGACD40kpG2HoT20z6GgHmSNF53i8yIpXgbTlgcQZhwEKieoD0yHXgJfEg1EPZIe06JW261/9h0QsIbjHgCAfU9iAntFb5USX0n59r87IlG6CdrkeYnSc+rjftJ3n5Dci4R0H+jZlkIlyETxi5Jlpg75iU/J2zV7+9vW9ZgnkrY1kwtsSuYgMDUKm5DxTsiQnyy30KH3sCxgISL+Qrzal3eA6+ctbue7LvZPCnDwoSq0iOjcx7FJh59MJKml+nwpLL7QO40MMjCCjK29KiCYjrrwYZe6Txrl0Am9GHTKy2Cs3e9eA0ThO/VIvoByIMiOTxWaeXSILg7LqPfgtL/sog+NJwlqEdTVKT6nIhkJRZm1LW2xko43gvN8MkdzJiSHyZkwZXNdehkLOqb+ovQhKeCSkTukRE8JnjKedcXr3rW9/a+DtnlqmxkiSQrs37VcveQe5hmAQqDRJW1/XD+TPA0Ok+lCdkZh76QwP0X2IhLehDoiAvliLZMz0iqyQhDbIQx0z4DBGJMeb4HGbGpOTKZH6MUyDXfQlcpVf5GQQEEaKByXsE28kHok0KYMspEfSZM/zMvDKz+acAVnbpHMOObEJUD5yNPUD1/UFAo8cDaYGwyzMG8xcs4E04JgsDKYG2FwHbSMDeqXveMn6nVelX0Ks2sTrdaydfQhhpn7yGHZ9EpgTQaXxOsITCyGuQwqAgSkCY6+nVgSpk3UOYVN+AgL3IAwdKX+dIyZdBGo+La6dzjUqOM/QKJtFPgpKgBQLpHEPoelgozmPTD15CkZloxGPTEczUmss1sOsUahbyFNZdcfKT745F3lkv1Ao14MDBqs+FMjoJHYaz41sM2Wr66Z8JE4eabNoyLwesQEpj6kAsqJUpmjOKY9cjMymx6bPpmpiB5YnUYO8Nx94r4cOptcMmweFPMjc9FH58rFHEkZ3dSFD0wr9aF2EZ1crsPSIVxm8NSSlD7WPd2udSd3SRnmSiTLkayrsfmkECQXLAKY92oEw3JP2IQTlMFZrJwxPmWRLt5APAkxZgTrT2egmQ1YHXoW0ppbyJ3PBWZGiZQteIRlnViAfm4FAPymbN6N+1onYRNpr2sQTc+wejoBByzWEbDrKq+LRqJNzyqvrDcpBLmTB1uQlhiFdp/fsxEDmvFmLcsnObIW3qU0GSP3B0xoGdbIWy8PUbnKeNOZEUBoTQegYjfG0DBkRgo5j/JB0Guo+wuA2a6yGxe2leMKLy0OnGEkZpms2aZGT6ZiRRr7KJhCdwLgoKwF7smE6cMIJJ5Sy3R+vxGK9aQ/Dt6BOmZ2Xxr2MyuitE+NNqZv26Uz1Y4DOqY81Mfdqn2N1ngSQuXUoCi9vQSMptvIoJ/IhE1A+eUhHUbOIbRQ2snoiac/4KJ37fO73s5/6dHkgsO9gCqbtDAbxkI0psjZD6cGVg7LIfFDGTjvtWDyHL35xRbdixRe6W93yNqXfufqMgUIzCCSCwExFyJ3nxagCdTat4AUhRP2OHA1WiMoUjn4gH9ek11bElcfr2uK8vfZrQ/pfHvIymNC7esoHuSew5qVf1TNlGSiRBx03tXSeHkiD7Eydrc9or2M6aNBDLh7rI7b0U8qTLy/P9Er75MnLMj3mnam3fjL402/1tj7Eu+EZRxbkbeChs4g5ZYDrQI8SYt7SAVmQHXLWN7xGxITsRaF2TjvoGvtCmrwj7dWWYVCWuutjA6C155Q/KcyJoIK6gwk9wumjfx55cc+t3zBqIw5ByIuwvGMUQqgbqgyjkfm6PAlbZ/GUjETIgaEwOtOUGtITuHtAJ+g4C8LKVY6NInP5hUgPnGNAygGEqBydamokXwaOJP2eFJRBISkxY1VfRMvgTXtMc2p4JG4UtQanzuqU96AYGS8GtPMmAyPYdKC8Px7If+XKa4tR8CLJQvusB1JSCnf5gEREt91kkxt337zym90XvviFgSH/eEDuq6Y3np6FUBmahW2jcClnQBCmUQzYlCLrLHW/BuQrLe/RdATR6kevMcgnqO/Nbx6Nuutn60d0xRTPVBYJut8Cs+uuQb8Ojq2l8ASkcUwWyI4HkfTZIyGeyFlnnVV0DrnzrpRrAKHnjDrpkycwYgNG1sucd905fYcs5OsJIJm5Ln+Du75CjNaJEBidS5tqpKzAsbLIiR451jZ65j1CRGsw4DxI45j+sTd928+vRh6GsGcyow+TxLwmjirMo+DtGLltjATJ9EkJnNMhFIhxm+cSrPSIwgghP+cYu5EcoegAZRGaEdpemVxU6xGUn0EZPbE4Q4C60wjPFsgDjCYeyWbjbUCIRj2NUB4GmPpxtbn0RkoK4tzTn/704oXxxhiXvNP+YXIYBemVbY+YeCEMlMJbG9Amo6V6kFWtNBTX1M2aDiUHbWacFI/xSy/v1Is8f/D9H8ycQ2q8Nmsb8qds3sH52le/Vtr1ne9+pyyCq1eN5BdEvuprAPI4Xf3kp31pYw3TBIMD0qcT1k7oilcdyJesvZSpjjXonTVE8pGOJ77XXnsVI2Q4SMJe+bVOBAyUMZINcrEMgfz1M0KoF4wDdefBeBhBtghHmwyqFpO1xXTY4nTSRybySpmRhc11npW1K1NzZdM7fane+tFAaXDVFvajbPexB1tfpvLl0SJeHqLpNtmwNX1vAGM/CJGXrZ9AeQY1uuDhQb+/a0Q25Iw402ZQn7RtIZgzQaVSOkRjNBw5mBogl7zV2wehmEIRPsFAOohigPwYllGRMYRYKJn1A6OMhfaTTjqpKIOR3prCoYceWqZfhIncaqVi7OqF8JSbjsw+xGgPuVde++23X1GM1KuvBIDIjHamYtK5nxvt9QUuP+UZB+5zP4UyVUZECMlGbkCJraH1wZB4Ce6vy5Mn78Q0Rd2zbTLou58MlNf0IekYAeXXT/JQjrabNn3/e9/vLv3qZeU75qvWY9y1Shb6T3+RrWmSfqhhWsYrzbQdIuMaytRXDJxxWgfzkq11Q9MPAxx41QERISxTIE8KeW88SE8+DRq8cn2gTsoynTE9rvuPN8pTIWu6wWM0bbLWR58ZssGhrqv68WANZgjNO3NkmzR039qTcxbflRGZazsjth4qX+1kvK65H0FrJ2/XgEfnA+li6PSULqZMHou8+p6L8pG311O0jY6anZiyGWQzkAEdoceRDz3Tjvrl4NngOllkGu3YQKIs/Uimsff5YF5TPORkWmAUqRvgdwQXg3aswjws56xFeBeKENzvHKXXCIpCUBZLKYrGMQAC1GkWfSk6UjTSGskYAKOgaLwYxmJ0Cbjg3qZWF2tPRh9l6iD7KAmoa21EaQvkuG4v1GkCoyRDQqhGWCPf2iBf5MQjJCOjF/CiIOVGCWzDys450y35kVvqbnPfpjfdrLvpzW/W/fDHP5o5Z0/JGYCpEQ/zwds+pLt60IavX/6N7orLr+yW7bOspAvITluNtt4pUzey91Q0SHr7bGkLIESerzUoIzky00cgnakDY0Vg7jVQWROiE37zDnjhjnk+vF4eGIJBanTPdAVZ0CV9bk936BzD1U+WCuiSNrkuvTWYwHQWOXlgYTCw9kJW6qjd0RuGyjDf+c53lvfq/HYOeLLW8NgPMs+rAvJUZ21QL/osf7KUf8hJWnWTVp2VaUqcKXzgHh5Spvk8G/exuegPmZvmGeSXL19e5PzYxz62HJvWB8ocBddNefOKBRgglHPccceVgUH7eNNry2sY5vwmuQVk76QMA6HzOig6xdMxyMSc3H28Am686Rl2x+yOjSrScxURk5HKaMPbMtemgIhJhxvpCZuHxZvyJBGpITeKyEUmbOtZRjRpKUSaSdE97fJ2OqHlPIFS0noNqg+KoX4M0IL7KIGbfiBgoy3PZBxoN8PIY+gajM0CvumDNsnTKOdpTkBW1oC035NRsECal2LJkPKZDq4c5KGEGwxkw5MiW7IgR7Io5Q+2lYNzG280MMDBtvLaVYay5Z22HBjeHoN63rp4LsiMF6PuZKv/4+mZqlk0NsUzIpuukbu1D143AzOtQizKBWXL57zzzit1QwSMpzacGjFgC9sGKm32QEW9HFtbQhTWU7TRYIlYrbHI2xSf7iI+umKqxbsic4RiakRvlIMs1dNCN0OUDx3WfvoDypDWHiEqXxkIJ7MFpGGg5unRczMC1xEqcqP/3rg39UrfaZ8XSnnM+pC98IasU3o7nV7QTV5SpmzqoCz52siUfFyXznTYVNALnWStHp7SZiak3fQnr2KoI09Vf80GfZ4ni3RCOdby5oM5ERRm5zoO+8Nc0BijEkHxULieFIDSEwJPSXG8H9MHv13zyoA9wTM8DUu17OUnH4jh6nRPgShQ7gFp5RUXOecD+ekoRqwT4kU5R9lme1QqDYI2Z1de3lweBh4Iby0vWEK/HnOFdpEhEo5s6+kF6B/TWYaVBVZ9ol0xLuThfLmPiO0GMom8k185dk3a3w5+DDig3LJaW0qyjX7nyeU+yDl75auP8jONBPLWJsdJX0N69XavOrs3OtCH+5OHe/R/dM3AZ88zSNrULaB/6pMFZHnwxNWN10FHco89WEdifK5Jo46Q69ImvTbwwAykCBm0Tz1BHkgvdbInG+e0OfkgUfkgK7aStJETqLO6hOyBroPzBlmyzJQsUB/6RUeQXtoByd85ba2nh8OgTuppIEDepoB1WXPBWAQVAY0DQo8i1fcRwLBK9vOuq7O2MpN23Lr1UZfdr8cwpLwoz2xCj1HGKBaKWiaBug6rc9KucT63D06N086gum0NOK+Yjesiqnzze1RZc6kHrC19v3wYlr6fz6h8kw/00wwrY1he46YbhTqPYfeyLXB+bfm6P3kk7Vzrszawj+RXlzMfzMmDavgdJt2pDQ0N18X8/K6GRk4NDUuARlANDQ1Ti0ZQDQ0NU4tGUA0NDVOLRlANDQ1Ti0ZQDQ0NU4tGUA0NDVOLRlANDQ1Ti0ZQDQ0NU4tGUA0NDVOLRlANDQ1Ti0ZQDQ0NU4tGUA0NDVOLRlDrAdoHKRrWV2zcV+5VX5ZpWJfQvqzQsL6ieVANDQ1Ti0ZQY6JNoxoalh4bFEEthGRMo+Z7v/uGbesC1qW6Nqx/2GAIipH5drO9D+T3IaKK6DN9Y8w9+e5zfve3/n01kFu2YNi6kTx8z3lYXgIi+Gj+2sqaFHxA3wf26+9LNzQsNTYaKPxvawVkhnNhLcaS+/22CRqwtsgPs6FvfPLOufxmpCJhBM71jSjE4bzIHqJMiEgj5I6wRy984QvXSCdGmai6wlWBSBZC/4hvl8gv8rJPsAS/lS38j6CL4tkJliCUUKKJ9OsVyMM1UTiEK/JbQEfBPsUzE2apvl+EDKGahJoSEadu/6ShXHHTRM0Rpj7RY2ZrS0PDYqEiqDy/G5+ejLKHHHJIMRaRREVzEYpH7DiGTdGFuBG7TcyxKDnjFXeMwUkj+okw1wzcNcH+hHcSrVfkYPcIt6Qs0VyFmkIC4uUlZA8Iq/OYxzymxEAT/kp0X+GBRAkWRkgsMJFn3cM7eOUrX1nyEvhQ6CFx2kS0BSGmli9fXsoRww8SBPSRj3xkiW+m7s6JS6ae8uKJCYjIG5sN2iPGmVhmgjlqO8hPPcQoQ6JCViFUXoxNXYR5FxMtQB5C+0wS6iGQ5gknnFAGmlX6sQquCdIY2Tc0LCY2rpVvrqCsph6mTJSV14GoBApksAL+HXPMMd3555/fvfGNbyzpBXAUINAmYKf4cQhGFGHRcHkljBGxCDLoHpBGGcqrPRiBBhEJYxIvTFmChYpOay/IKC9AwEH32eRpS9v7BgjOKc8mFphYYeKaOY+IkaFz9nVeCFlMuu22226NTYRhxCaAIaMX/57nhDADeYh3hmDJAIlqm4i2CJ3MQmDaxtsSzHMxoE0CbeoXASZt6qAugoI2cmpYCqx2l+b/9hOjslFo0xtTA0YmQq9QzkhDMExhuAGJ8VSc32abbcp0RYhkxCVSsOmhvBgob4F3AplOBSlTJFikIAw2w+FRMGwEh6xE4hUplsdiCoUYPvzhD5f8a6QdNZAZ8jX9E+lWHurBS+QhOS8IaUh1FORtDUnbtZOnJ9pyv0zH5CJysRDwovLy2hC/34heOHRek2MEV8tlrnBvtsjYph6IGJkK5mif4zpSc0PDYmL8+dwsqA0sSi7qL+OmyAiDF3XEEUeUawze+YROdg8vxLoLI4+BSIPYPv/5z5d7kneNBAgNEJVw19KKpio+vxFfOHB1Mh3jdfDMxoF8kJApmJDupnpIyv37779/OS+Me9or/TCotzDvSNuU7SUveUkJAd6vv/bzEEPSSBahCjVtOkjW2uAc+fBinKv7YK7I/RdddFEJ322NS4hxpKiu6mk6a3Pt1a9+9aztbGiYNBZEUBS1VlZTIIrMq3jWs55VzjEiXpKY8QyBASIk0x5wThpTMHklHDRy4hFZO5qNUKSvSY0Xdskll5TfW265ZYlxL0a8dSXnxOIXI9/0aG1TFOkRC8JDcLwwxmk9yzqYOomTf9JJJ5UQ6tKPAtIx7bQIL/x1n5zcr+577LFHmeIdf/zxZWppasjbQqzW9qz78VR32GGHGWJyL7kpIxtSn21zndy0L/X2+373u1/xOMnN5rep3dlnn10ISz0QMaTshobFxII9qCg4hUU8FsMZGZLaZZddyuhvwRoYhcVn5GDaEFB6Uwd5MR7wmxFbp0EQKSdwLD/lWIfhKR1++OHl3IMe9KByXZ1Mq84555xSpiney1/+8plr/TxruO6eEGaOGbLf8RCdSz7OD4PrIYPZ0jh/3/vetzv33HO7o446aibfzTffvBDWYYcd1l188cWFpEydrQ+lXOct9O++++5l4+mM2nbdddfyAAIBpT722uOpor6w8UhtmdZJM6oNDQ2TxtgERTGz9ZHzFJcX5ekTQ+OtHHTQQd2BBx4481jfEztpPa0LGG8WvxlIRmlelfUW6T01gr5xIDr33POe9+xOPfXUsqj8pCc9qaS76qqryiI8r8PCNQ/B+s4LXvCCQmQpZxhct17m6eGee+5ZtqOPPrqsPyFDpOGchX6e26SMVj416QU8OVMwbeEFmWqmTE8Cravx6Gy8O+tvs228QR4Skqrh6aM1MnK0P+2008reZoEcwTc0LCVWW+hg91s/ZzdY0wquvjWQGsgFeBqMhrfjdwxtiy22KNM7ZOEcL4vhX3jhhTNGKD0ikFd/6sODeOpTn1rudS33ODaqm17xPBCQkT5Ga4HdVA4RWvuRt6duiMy0ETklbY2cUydttlYWIzU9Ux8eiCdpzllfMxXrE0oNeQ4raxQiVyAbbcn6ldcNTjzxxPK0FOaa9zAoz4OAEBiSMz3OhgA9Qazr1dCw2JidkXrwfo9R1GPngFHyfBgtI0EGp59+ejFc12K0PBzXHZsy8DhWrFgxY1iIwLF0SMh5hmDPQ+L1IJdhHo802WrI8+qrr+723nvvNTwSU0bGLr1z9srKb/Cbp2SR2lqZspEQAlQHddQOZOtc7hmFfv1GQVrlqAMvFMFarPf+E4JFirwoJOn8QqHunqoecMABZQFeP/OATY29KqI/DU4eCKgD7zL3gYcEHgIguIaGSWJsgkIe1jl4JtY8PvnJT5bplymbPW8GUVnc9qqB6cFll11W3t258soriwEwPGmsFSGPTEWOPPLIkj/DCzHFSBmBPD12r0nAb2mzRpRr2ZseLlu2rCyMZ/0EkrcXIa3reC+pT3zyzUKzdIG8swXS2pDgbOjXbRQYu5dc5cnoTcWsK+UFUXW3yO4JIuK0vjdOvsPgPmTjtQzE5G11T/M8cVWHrN95Gmrw8USV56vvQlLettd/FtNNp72NP9/6NDT0MTZB8RisgZhOeSrmiRZS8S7P1ltvXdL4kw/X/NmHtRBPohjYzjvvXEZfRGHzfo/Fc96WFykZnamLVxICpGFzjcdy29vetnhrQa7DMIPg8Xh1wf3DwPPxpI+Ru186JIMYvKKAhK2nmaKCNK6lPo6RIxIzZXRuGJI3jCIx4DGZSnmlwFqTN+1N5Tx0kIfybMiBzBGDdbX5Qp5k6J0upPOwhz2seIXapP2eOiJ49Ub4FuY9lEBm7uMJe+jBq/MKhpdmM5VvaJgENhoY0Orh3VH5NRJJPhclZFTDDLg23mDYOUAOjCLX7Rmqc/30/WNehhcdve7g/aUQG2NCAIwOoe22227lz3JMmxCrVyWQbsCQnUewW221VXnhEtGZNnp6WT+ZBPmbhpm+SudPebLY34f28Jh4lDwYdbTW5Emb+mm/Le33W/u9sOl1jGEyGweXXnppWTdETgYWU/mPf/zjxZs6+OCDiyflbxg9eODJ+o2gkJHXDryA6+VRMiNfg5jzDQ2TwJwJCmIk/d+zIUXAfA1poQjB9THT/MG+f72+J+kWs/7KyAbK7pfn2qTrkDL7+ToOKY7y/kKW6rs2L7GhYS5YMEGtL2BkdZuuz/alS6axDv3zjqMPtvxuaJgE5kVQ6ysiimZgTRYN04Hrznk2YMQL2NAQMuqjkVPD9Y3mQTU0NEwtmgfV0NAwtWgE1dDQMLVoBNXQ0DC1aATV0NAwtWgE1dDQMLVoBNXQ0DC1aATV0NAwtWgE1dDQMLVoBNXQ0DCl6Lr/B8Lxme1UIn6KAAAAAElFTkSuQmCC;movable=0;resizable=0;rotatable=0;deletable=0;editable=0;connectable=0;" vertex="1" parent="1">
                    <mxGeometry x="400" y="20" width="353.71" height="190" as="geometry"/>
                </mxCell>
                <mxCell id="6" value="" style="shape=image;verticalLabelPosition=bottom;labelBackgroundColor=default;verticalAlign=top;aspect=fixed;imageAspect=0;image=data:image/png,iVBORw0KGgoAAAANSUhEUgAAARoAAAEiCAYAAAAmmh16AAAAAXNSR0IArs4c6QAAAARnQU1BAACxjwv8YQUAAAAJcEhZcwAADsMAAA7DAcdvqGQAAKPlSURBVHhe7Z0FYB3H1bbfS2KwzGzHsZ3YDjjMzNQ0abANN6UUU26/9k+Z+WtTTuErpk3TNIUkDTMzk5lJTJf+88zekdc3kizZkm3Z+8rjvbs7PHPeOWdmdjeWNyhChAgRBhHxwjFChAgRBg0R0USIEGHQERFNhAgRBh0R0USIEGHQERFNhAgRBh0R0USIEGHQERFNhAgRBh0R0USIEGHQERFNhAgRBh2DSjT93XSMf+8iRIiw/WBAHkEgivb2drW2tiqbzSoWi6m0tFTV1dXuPudh4D+TybgwL7/8sn7xi1/oySef1PTp03XYYYfpnHPOUWVlpZLJ5BvCdgfia2ho0J133qmf/OQnqqqq0sknn6wTTjhBo0ePViKRUDzePad2dHRo7dq1Kisrc3kqKSlRbW1t4e56cK+pqckdCUPeiJP4SZ98ptNp1dfXF0J0D8KUl5eroqKiK1yECNs7NptoCL5q1SpHDqtXr3aCgzDNmjVLf/zjH50fL0z4RVAff/xxffKTn3Th/L2wH4CwX3HFFXrrW9/ao0Dmcjm99tpr+sAHPuCOkEXYL8e6ujq9//3v11ve8hZ3LYw1a9boV7/6lX796193ERFEA9l997vfdeceS5cu1fe+9z395z//cefEPXfuXP32t7915+CRRx7RhRdeuFGChIyHDx+ud7zjHTrvvPMcKUeIsD1jwEwnBMs7TxbFaG5u1s9+9jNdfvnlWrlyZRcphIXS/0ZDwe+///1vd14MtKFbb71VZ555phYuXOgIopiQOIdMfvnLXzpyK85XOG3u4Yh3+fLlb/BbDO6H0wI+jo0BDYvyfeMb33AEeMcddzjy6UvYCBGGIgZ1jqZYkDFRrr766i4hxRULV/gckkCzePrppwtXgvsI5TPPPKOPfOQj7lo4HQ/8+XQWL16sL3zhC06D8vd6gs8TZtBAoKe0fN4WLFigb33rW7rlllveUIYIEbYXDCrRhIE2c+ONNzphCrvx48frS1/6kv773/+6+ZWxY8cWQgTAZPnoRz+6gcAinG9/+9tdeMAR02fcuHG68sorddFFF7k5Hn8fvPrqq3r3u9/tTDfQG9lATORlc0H6mHPkBce8TCqVctfDeZs/f77+/Oc/95qnCBGGMrYY0TBJ6rUZgPmwzz776KabbtKb3vQmjRkzRgcffLD+8Y9/6Ctf+YrzA7xAPvfcc+4ImJvhOkcf37Rp0/Svf/1Ll156qSMm5lL4jR8AEaHRXHPNNe6c8D0JdktLi5599tlN1mp8nqdMmeK0lQceeMC5hx56SA8//LC+//3vd80JAV8WNL4IEbZHbBGiQYjQaBBcL+AjR4505gwICzwrMgcccID23XffLpKAIL7+9a+787a2NjffEiaQXXbZRX/5y1+ctkBcOCaB0Wze9ra3OVMLMC+CidLZ2en8eEIoBlrPiy++6OaIwnkbCDBRfOSRRzrSJR3KQT6YSL/vvvsGPL0IEbYFDBrRhAUGMggvdXMO6bBSxHmxwNfU1DiSeM973qN3vetdbnXmuOOOc+EgrHvuucf5IxzpoB3hPHx8rFwdffTRG8SPtsKcjw/bE9Au7r///gEVfOLy8WFKTZgwwf3mGiT40ksvufMIEbY3bBGNBkFCq2A092Ci93Of+5wbyYuFmXmNo446Su973/vc0vR73/teRzz4Yw8LcygekA/Lwz6OMKmQ3rBhw5wff5/w8+bNc797gvdLHu+66y73GxTns78I5w1iJN/+GtoN+5AiRNgeMWhEg0mAYOIQJkwl5k68JsERreGkk07SV7/6VeffmxK9AT+YUl7oIRM2zXn0RAY+LxAeWg0IC74H1zDBAISG+RQuy6bApxOOg81/TGpzDwch7rbbbu5ehAjbGwbVdPJCBFhxYacuCAsscy5s7GNehpUkzJqeyIa4CNvY2NgVN6QwYsSIrnsbA0RF+O5A+J122kmf/vSnu+LDxEPr2lwQnz+yksb+IDQtD+aUdt999y5/2yL6Ur8RInSHLWI6AQSIUZvNenRY77iOw6R54okn3M5aduay3IuQb6xzI6yQmI+nL/BxhuP2eeEYnqTFzPryl7/s/ISJoS9Ae2K1DWJhUyGOlbGzzz5bN9xwQ1eeccxhTZ06daPl3VQwB8Qyejh+8kfemPN69NFHu/YZhUE4Hg9hvoo5JNrJx0HZ2M+EZuavcX/RokUuLepxMIBGCvkzqb8xhMtLWViNZCsFedvUumZwpF9QL/RZjq+88kqPA1h/8PrrrztznTrsDuSZ+2jazz//fOFqANqTMlI/G7MMtjS2GNEAnkFizoVl3quuusoJrq8QKtA3PA3G3homgFn+Bv4eR8IhnB7hsOHrYRRfx78XcuCP5AcNiWelAGRH4/N4AQ0Zzoc/+t8e/pzO8tnPftZpcqeccopOPfVUfepTn+rqkD4sS/MsxbO7uaf8by5uv/12t8fICycCx2T06aef7gjk5z//udtiwE5r8scOaa5h8jIZzy5s2u744493pAS4xqDA9oS///3v7hoE8//+3//TJz7xCWcebi58Xfoj7cNWh5tvvtntLi8G9++9994NHhXxCLe3j8+j+Lw3QK7MH1JGSJqd3dQN9clu7zDC8XaXhr/GERfOo4e/5/0CPxiGQV+9++673TN/YdILhwPF5x49XR8IbFGiAVQiKy5nnXWW67A8Z4TZ5CvSFxZ/zOF8+9vf1oMPPviGyvfAf5gANoZif5wXx82cz2mnndYllEuWLNFvfvObrsnbnvLSX0CYPBOGYLKHaEuA8jLioYXQDpdddpkzWdmB/cMf/tAJ6Xe+8x0nTNdee60jkdtuu80R5o9//GPtscce7vmwcD1i7qKhha/1tZ4IQ/t1N+B4+HP8EOd+++3nnhFjs2cY3Ccu6pXJ9uJ4ivOEX993+pLXYrAFg5XRD33oQ47YmINknxR1B3z6kIInhmJyAD2VP3zEhf2F8+vvs4hCv2VQw3oI3yOcP5IX4uoO3A/XSzjNzcH6ZaCtAOZX2LTHLlxWeNisxyjK6guFBDx3xH4bdhXTeehEVCjCQmVTET2prL6ScfjlSBwImG8of52jd+SLXcaQANoMDUM+ijWpvoC4faP6sMSPmYQQX3LJJRsIRX/j7y+Iny0CkCdlRGi5hvnJ0/MTJ07sWpnDJECbwawjf2he+L/++uu7HqAl7zhIGS3I558j9bUxvPDCC27/EBPhBx54oDNFMOHQZtFcEFzmrpj0x+Sh0xM3D6Xin3sA7YlNkeTZg/1W1D1xs83BtzMjP2kSN/HxcOzhhx/u6qAvIAxxeQeIF0feV6xY4dJct26dI27KwT3q9pBDDnFtzzlAm8QsJRz1iFZJu4SByU08LE5Qbh/WAy0GjZt+CphnPPTQQ52G5f1iGdDvqCfemADYf0Z+Ro0a5crhnx8kv5yTT+Rs7733dnXUl/bsCQOm0fgK7w+oBDKPo7CMrBAKG9q4R5wcsYmxSznHLxOnPj0qd9myZe53MXwcYdCYfk9Pb3mmkVhS96DCscP7AzoNT5b/9re/dRoRx3/+85+uUyCsaBPkZ0uDfNFxMGG/+c1vds2FIdyPPfaYm5OCOCCeE0880YWh3qlP8oumiYmEwHE+Z84c5x+NqLc6LQZ+2euEY7DgHGLA8Zs4IT2/sgixHHTQQU6QSDtM4Gib5INVzBkzZrj2w2TFXEXzgESIk3CQGfmHXPbaay8n7P3ZLEl6/uj7mM83wkxeyDd1CUmgsR9xxBGuPNQ5JA/oT5AjfYt8YIYSR9gkhLTQ/Jl7geQhIciCNvOEB4Fxz5NLT+UgbdqRdqYOKTekQ1ykC8mwIx4CwkTmWnfzdpuCjRINhQG+kYpBRZOhcOH47dkVUEmYQDi25LMFn0J7+AbD0aGwfREGzgHazo9+9CMXLw3pVWbOSZv4/Xn4SH6pRCqXa8SHYLAh0MNf5+jDcU7H3HXXXZ0K6u/5+xuDzze7nGk0OgEO7Y0G7m4upvh8MBAuA0KIucSOauZhMEUwUblPXhBuHNqjh88jxE+bAOqTURGBxoRCwADxdNdfikHaCArtSLwIEXEzv0UcDEA8yoEfiIFBCCIB5MfnCeHGD5oEz8vRjyDTPffc0wkffQAQJ9cw3SEu6oG2AX3Jrwfp0rfIL2Yo/fO6665zJjDxopXTzxBq9oRxjXxDcJAPYCIeIoEI8ef7CXXiQZ2yS52+g1aGWQQpUe+e/HfeeWdXN7QDROTrJAzKTT1QJ2goZ5xxhqsr8oB2Sp6od/IJyeDn3HPPdX7C9byp6JFoqCieOcJ8QD316meYQDzIBJ3EZwZBYnTxQFVnRGc+huPvfvc7Z/f3BDo3Qu5BmlQC8Xvh9YWnAj0j+/T9kev+lQ/eP42///77u/uAe8CHCQOyY7I0fA//Pkx/4NP3cYV/exSfDySK88zEPBshmSRGANC0jj32WHeNugTd5RFwDcLniHBypOOjdaLV9BWEg8wQGDSap556yrUz5MKoTtxon5gLvg03FYT14cl7mEBJ3xNRX+D7AIMmpICgf+xjH3PzIxyJnzzTzyA/NJtrr73Wlc/3VUD5INHJkyd35Y/+DWkSP/5wDKx+rxj59CRT3KYe3V0nbvJEu3Pfl9nnh136kB4DK1MLgHLQPgOBHmuXwsCAkAbwBSvevYpdR2eFaACVhzB/8IMfdOcA1ZgOTHicD4PJ090oQho0CvdwFJiVIMIS15vf/Gbnz8fHiMJEnI+La/xGLfzwhz/cdY0y0WjhEaM34I/Vp7AGtK2DeQFMAzoNoNwgLGiMwsyNMLqirmPKIegsmTLRywvHCMdoR1w+HOA3puukSZO6zgFtwqQoGhJzKeEwvYE28XNApMc5nRvhZJ4IwetrXFsS5In9VmhwCCp9mo2n3ixHS2Al7g9/+IMTXF4MhwnlhRhQVs4hFkCcvqwc6cMcIcWwwFNXvl37g3Dc/tjdb8Bv0vAytbnokWgoPOowCfmC0YnPP/98dwRULkzNkl44U1Qg7OmBGYI2BFkBCoEgEBcTYV5LIg4mvHjPDHs08EcY/5Y8XxGejX2+YGVMsa997WsuD+SLDXEXX3xxVxiOmC0sm/cVxM1ow9sAfTwexefbCrD5qWv/ag3ySXsxH0Cd0TYIMaYD9Uzd4YfrEDrnEBHtjzbIUqnvA7QTguVHcQ/CM1JSV6QBYfSnfmhfCIW5C/oKgwrERx/wI/Cm1HdfwxA/blNAGt6FwfwHdY5F4LVzX48e1CdkSn2Fr/u4aA/AfebFitMoPg+ju/J0l08P6pn0mEfyGtdAold9kUyxnOkbgorCdmZiC3bGJmQy0ROFJwBAx/UgHmxHJkYphK8EWJ/lQWxUbEzsU8iNRsIP4fBPJ+Q+58RPXMzjkB9fcUyoscMYG5S8QQ4IDcAflTh79uw3TAT78N2Be4w4pEcZw2F6CxeGD7OlAAEwgYuWQn3QcfwGL0xg6gE7HCJi8+A73/lOV0+s0DD6QsbMg1CHtA2rFez9IR4GFZbiER7fvuHyEQ6tBlDnfQV1TBszQNC+jODeZPJmBfGRTxx9wtc/v8OCwXXyBrmiMXOPtgv7GQhQbu+KwTXKBGlCEDg0SOZbvOYPIFjyS39n4CWfvDeJwZbrOCbkIV7maSBiiIn5FMrj06duCOvrPFw3XMOPrxd/rzjfzPvQ9qxgsepEOFblSM/nZXPQK9HQ0Njc4Qx6UGE0ejgTZA6hxN4P++c3jIkAMFKiBvpwOMLRGHTmcMUAbNwf/OAHXQQGaETIjgkr/IUrjd8+vL9O/iEglsm9Curj3xjwR2cPa0ce4TxtK5g5c6ZbkkbzuOCCC5zQMvHHBCgkQZ3QBkyCYlZCLrQN5MPKC1omu7cxMXnFBisZDCYIDbu2mdj8n//5n0JqQf14h6YDmfkJyb7WD6TC3ADhmS/iN/M0kI+fjIcI0VhxbNZjNYQVSjRUXv3h29rnBYHlFa68XoR5QeYgPLxfD86Lr20M+Pd9tTswp0mfg2DYvoFMIDNMRXgCQLiZ5GULBds6ML0gHUx1Hy9bCiB2tEvMWgYPCJQyejDfiVVBWdHsmTKgzJyjvRIXRIS89pRf8kWeaQOsAcJibUD+A4GNvpyc26huqOMIKUJbHMSzK52MJdzwRFsxmORD22CFg44YrjB+E49vQFYPqFwmzLoDGhEvDGe2n3wB4iSsjwuH6vr73/++yxb2YOKRCWocwC+sTiWj/YTBEiOPDiCUgPjpSDSoP2cEQBh9OuQb84SRfkuC+qNj0W5sHmM/hNdCwvWNPzTUYj9h0LaMsGx3Z16GiXhP1txjcKCTcs3XO9dxXOsr2ZAXwvg+4dvOx8t93y+478vBOWGK+xLzfJAR1xgw6ZP4IQ2u+TKA/ubX16+PJ5xuGOQNwicv9Any4MsYbgu/0sYAGp5y8G1BPCyo4A9ShvTD5fbaDP59/rkPfBqkC8LpekXB1zG/iYd6I9+QPNowgw6k2Je66Ql9+gqCzwQZY+IVdqUTY64wUiKUdDb8+EIAH647cA+Gp1B0dtRKBBMHwVDhxfH1BOKiMVEpYXAqBHJBMGBo7ndXSVQq4ZgL8I1EpTOiePvYA7+UlwYH5IsG96YYoH4gP9IDxEFj+Qn1bR3kG+frvLu692UrvhcO59Hdtf7Ah9/ceCJsHMgimiGyyBQGMoAWycDKkj0a5uag359b8d6761RgczuWx6bEQ3hcOOyW6KDhfIMtkWaECAMNpi9YTMB8g3jQsDCx0XQ3F5v9XSdQLNxbE744Wzo/21IdRIiwrWFAiGZHx9YitwgRhgo2fXYnQhc8wUScHSFC94g0mggRIgw6Io0mQoQIg46IaCJEiDDoiIgmQoQIg46IaCJEiDDoiIgmQoQIg46IaCJEiDDoiIgmQoQIg46IaCJEiDDoiIgmQoQIg46IaCJEiDDoiIgmQoQIg46IaCJEiDDoiIgmQoQIg46IaCJEiDDoiIgmQoQIg46IaCJEiDDo2G6JZnPf5xW9DyxChIHDIL9hz3+tMFKcIkToHsgIIoiM9Oed04QJRJf/c/a/O+aDr7cm8gkTbosvFvgLXje79d5pHb3KM0KErYiAJCCbgHBijgzi7hj8fiOyaleHGtRqbuHal7VgzdNqza5V1oiF+FxI+1GaKNX0MbM0Ydg0lWmkSlSnknyVErENP6S4JRARTYQIWxFZpZVRpxEE36/PGEXkjWZSXS4mvqgZEE7O6KVTzVqbWayXlj2kxQ0vKZNsVz6RVj6WMRcQFyQTNxezGPLZhAVMaFT1RO0yam9NKNtTFRpt9zb8IulgIyKaCBEGHXyO1sTMzJm8/c7F0vZ/p5oyK7S47RUtbVig1rYG5XJtipuJM3rYZE0ePkN1ycmmhYwwuig1l1GjVujZlQ9r4bonlI41GLGYLuTIBRGGWbwZ1j3iuTLNGnW4dh92qKpMw4nlSyyMkVEhTE8a1EAgIpoIEQYdngDyRi+tppOs1MLGZ/X6mmfV0rnapLDT+eI+ZlTGqSYp1cRHac7oAzVx2HSjmWY9u+IRvVb/jCkorc5vEKLwayMkA9B0kukKTR22l2aPPFR1qcmm1/C55sBMi4gmQoQhDTQa02SMZNZqoZ5edZ/mrX1O2USHYp4gTNvpWjSJZU0wMW6SSmbKNG74FHVkW7WicaFySTOTPKHkQxPIGyEab1aBVKbcTKhdtceoozWqfGbBROuKaVAQEU2ECIOOtJFMi9Z0zteTq+/UwpYXlItDGEz6In5eBPNO64jZf26ehXkUd9uoBaIwF5hKIUA2eN7w6gZwcToSQ2fJIfSKG4FNqthLu48+SiPKp9r1pLnBQ0Q0ESIMMjrVrsVNz+mFlXdqReZ1ZZMddhUNpBheFLsXeccnm0g0G4RzS99xlZhmMza+i2aPPUrjaqYrEWPieXBQ0NUiRIgwWMjk12lF87NabRpNPtluV7ojGQDB9KxXhM2fLvRhbuaN4ezMwmWSbZaneVrV/Lo6Ms12nbg2Ht+mICKaCBEGGUtWLdDixpeVLm1TdhCEuN8wksnHWP3KqrOkRa+ufULLG+YZxTCX1DvZbSoiookQYZDRpia31pRzk7fbksjl3FxRe7xeHbEmo8CeNK3NR0Q0ESIMONBavMuY+HaarpA1PQE3eMLcXwSTyxllUk1qTKxQuxrsKhsHI9MpQoQhh3zchNccE7CDYZZsLrJmQi1e94xWNr8SMp8GFhHR7ADwY2uErQWrfdcIJm5uv0xBkEPEw8pQ3M7jdj/sYvgvHDe+oa7/rYxWQ+LtmQZ1ZjGfIJqBR7S8vQPANzD7J5SzjpQvrC6k7XeHjbYd9tt1A3MJ6/wlCeVLksqnrHMnkoUnfz1cz1wfZ+EYoQAqZoNKyeqJ1f/Q4+tuchOwQd2xZyVnRGLOqjuWt7pOpxTLldr1Eqvv9QS0IQptxP/WXnkLH2zeY5dMgYgSbcomW5SLB4SRLyx9541RuiQ9tFLFbVJK5Mq1z+hTtOuwI5RSpbs3kIiIZrtE0Lk83C9eH9DZKTW2SIuWqvGBh/XqvQ+odekypZqbjXeCZ4iVsBG0okzD5+yiaaedqtQee0ojqqWylPWW9btXfeyDuW19KAPNoEONaswt0wtrbter9U/btbgJPs8WWTXnsybcSaUy1Vq9oEMP3/Oyli5YbXQRPEy5MXii8S3BTmJ+jZhYoz2Omq4xM1LKpprsNvNC3HfeAnRLNGVGNCcb0RxpqVe5ewOJiGi2O9CcoSblZ87+W7pU9ddfr9f+eZNiy9aqNMsOURv1rKehsazvjO6Xcnat3bSblsoyVeyzp2ZfcK7K5u4ulZba7UD956UGHPk/AmDdJngauzGzXC+tflDz1z6r9mS9solOZwrljUqo5lTWtJq2Kj12x0I9cdcCZZrLTNiNZLjp2mHj8FoK9c/DmLRjLtGujrJG7Xf8TO11+GQlKpuVjXdYlKFIuyOabJn2Hn2SZtVBNDawDDAiotnuQJda34nU1qnmp5/Wwmt+rc57H1Gpdc54wCgGjiG/XQgIhEt0yWw8odYyI5z999LMd1ygkt1nS8nywFuEAFZZvKohl+/QkraX9dzKe7Sq7XUjmBZljD0wYRI5IwMzk+JmpuQa6vTQLS/ryftfVyxTYdfsOhMmuD5X7Pp28r8VS8u9NsII5+CjZmnPwydJtY3KFMwp1zecCVcIxakdI6KJ0Cf4RnTdDrW6M615jzymB370Q01+bZ5GtKRNXfcdGN/B8zQ9o9BxDe75GnPpeExrq8tVefzR2vu971Rs1EjzwQiNVuPj9qF2HAS1mTHXoVdXP+OeZ2qIL1E83mbkwV3MpZzi6RK1rynRo3fO1/MPL7dBoNLNjQSTwgHC5tBGYQ0YDCoQmNW6a9AgLCtcibjpV6UN2uXgcZp79ERVjDbTOW4uNAkNeN1EShXaZ+SJmlV7eEQ0EXqGb0SIpqO1VS/eeqee+MH/asaaetUZ6STMQ+/E0jt8P84Y2awqtW556CHa94PvU2yqjZim8dBv1+dhxwLlhkjq25bq6eW3aV7bY8qUtFo9MOFLbRjR2LGzMaWX7m/WkudyKs3VGoObwNMuLhaO9sfEex8rENF10RficJPDjqiIKR5ortY07alGTd47pWn7lCpVDSHiZz0gmlIjl31HnaSZ1YcqFRv4yeD1VBphSIOORr/KdmQ0/74H9dx3f6jdlzdoRHunktavNpdkmDvgWeOkqTcjO7NK332fnvj+j9zEMqM56x8uD0GQHQqUGZ1lxdr5WtL4irLJNrsYCLwjAqsd3uGbzFeZ6TpCqWyt8tmkkQL3AjiN0P7l8lllcxll8ht3WSOVXM7IBsJxkUFUiWDVytJnT0wum3PvoEmla8w8KrF+sKE242Bx8EqKRMzuc28z+kpPiIhmCIP+sKGindeqlcv16iOPapJpNSnraJBDAI7ddLIiBIKxIYLXQgYwFVipXE7D09bZ775Hz/z4asXWrAvPL+6QYBI4HW9UOtFqpqZVRFdFstOW32ZiQggFYnDVVVjG9iTj7tsPVqeCPTfrHQQR7LMJuSCkQ444IR7IxRojSzB8WD4SRjYJ9gySKPlxjbUeiXhSlSXVKktUWggm+gcelp0IQxl0NN/ZEPSxo8dqz/33VX0KdgiWU7sjGM6CO6ZkW6cNRrrA5SxMLh4Oa477EIkJEWSTyGVV2dmh5rvu1rM//5li7c3mH0HZ8UCZWWnKxDuE+oj1Qz0FKHH1komlrU6DhxnZW+Nbw4U1gmjraFdDU6M6OzvdClJnulMdds2ZQuY5a+Tebvc6M0w4WzhrAwK7uRlDNtWm0tFNGjsrr+pxlofQPpqstSMuh19zMYvTrjjHMns8m9fYmkkaWTHB0mYbgws6oKAXRRjCcB3VXKt1mhUd67SwcYVG7L6rZr7ldLXxepGukTXoP4EJFJzR3axLdk32+pcq4Sdh/RsX7M+AfIIlb0dCruOaih5PqLy1XdkHH9eqW++ykITG7XhAR8g6TQEX1EFAvH6Fp+CsDjfYAGk/M5m06uvrtWr1ajU3N5trMs10pZYuXarGxiZ1dnRo1aqVWrZsqdpMU3UNSRyFaHLxTk2eU6aD3jxe+5wyUoedNU1T5gy3+/SMjbdHLJ9SRb7WKLGscGXgEU0GD2H47ttqo+m9Kx7WNQ/8WjOH7ayPHvE+dcxbqad++XNV3HS3hrdnbKBFAEDMTeg2lJRoeUWJWsbWaeTuszV81CgjDtNs2BncBWYegrfwo8UgOMCLCWKUMUHKmL9RM2dq1yOPsKtOCtz9HQXUSlrNemblf/XM2juUTrZYFRSJVS6pbEO1XrsvoyXPdNo5+5GkBiOYhvp15sE0kZoapRJJNTU1OTOorq7OmVpr7X7GNJnhdcM1rHaYCxeu5WyyQbseXqnJ+5Yrx36ddLUWPJDWgsfalG5HO01rytwKTd3PNNE60zx57srCocXikukROmDsmzRj+D7GX2wW9DEPHCKiGaKg0YLxMqc1Wqd/Lb1Vv7v3es2csJOuOOR8zc5N0aL7Htejn/u6dl61TpVs0LO/9mRcSyrL1Dx7jna7+G2atf9eRi7rd/wGe+L5wX98wsNSyDEfgNpvuk0+HSTu/FsO3G/za9pNLE4nDYjJd6qB77LbJnL5Tj298i49XX+r0qkGd+7URADp9EA09evWqrGhXjVGMjW1tWoxDabRiKamtkbV1dVat65e9Xa/qqpKdcPqlEq9cdcwq0YjpqY0a79ajRhdqnRHhZ69b60WvbCmcD+tnfaq1tT9Y0rUNhrRWPrWrjHLUzJdpUnJvbX7uKM0ompiSNsKDzibj4hohiggGf46jQweXvWkfvzoNVrYttK90/7QcXvp/Qe9XVVr4nr9rzdq9S9+o3HNbWq30XLxyDrFTj5eR7zvnSopL1faTKB2U3ayzBFa30oZT/B5sVLrFrE8b4NbaYktsZtNSJMdAwEhBxvMAPPpDk2w/jnJjl4Y8Og77nYMqwKk6JU1j+vJNf9RU2KhaRG8rpN7hclVO3ZHNPkc8zVW11S+Ac3RaZamdWazWedAnGsFP2+AEVkub1pKMqtUmaVjYwGOnchkLiCaGkc08VrTlpi/sbZL5JMqbR+jPUYdoxmj9lVpvNzyQpuSTkQ0EQyQDEvKTWrXLUvv0tX3/1JpXkdg16YMn6jz9zhDR9btrzWPPqunvvx9jXt9oeqrKhU77Xgd/cEPKVtWoiVt0s2PNuk/ty1Vh6nYTBIOH1aqow8bo5MPK9PIWJs62OH63I9Vkn5VqRjb6C0Nuoy54JUC5ETqjA9TydjTNWbWe5RPTgiNjDsKrC2ya/Tk8rv0Sv0DypXV2xXqKiAadgRn6qv06n1pLX3WWKBANIHuR306b1xyKJz2H85kC4fekGgSRjRoQKwupTK1mlq9v2aPOki1paPtmvUBF5ZcDGz79Uhb8E/EQds2HNHkmrQyu9I0k2A3S8aO89cu0y0vPag1sVaNmj1dO51/qhYPq1DZIfvooHdepHYjmccWtuvrv1ys6/+1Ts0dw9UZqzM3Uits1P3Lv5p0zZ/WWWylqhq1m0bvcoT137RKc6tM0zGn1SqNrVFZrN5co8rNVZkBF2udr8Z1C6yPpq3v+Dmh7bMv+TKtL1de5YkqTa6ao9FlMxXPVFudhcwcCAAN0BFBCJxuZtVACV4HcZP9JMWNIrg5NhsAErmEkh2VGpWcpmm1szSstNYtarswmHve5BtAJD5nKPzeAIxIO96otGXgO2d39cu9HE9SFxyqM0cPd5/5FpaIrEctbFqsm167VYtbV5ntTXyo4Tl15ltVEitz314uKS3XSktr+Nw9NH6PuXp6SV6//XerXl0SMy2ozPqVdVHy4uZnUJ5jamxpVS7ToBk7jVZZKqWkkUy6/lVjtw6nxgNSY97H9V/7ncmWKl82QxUjZtoFXltQ8Bcq5/bSp7x8rC8PpU2aZjBCVak6tbY0q72zxRQaJN80CFbqOkq0Zn5OjcvRPGnLjDlrWwiLYcN+e/Lqi6NfEIaJ43ze+olzwbnrM5a0+WT4Uc2olOomxJQqMV0mW60xqZnaY+yRGlOzs+Wb11PQVlYWyjMITRSZTlsIrBqsXr1aL7zwgp5//nm99NJLWrRokdLptCMTmiGZTLpJv4qKCjcRWFlZ6YSae+yvYDWC5c/6dfXaa++99ZkvfkYPLX9cX3/wR6ZjNLqBCKFnrSiRi2tmxTSdO/dMHTF2P5Uyh9uZNWJK6Ld31evuJ1iOLawwuBEMtqArcC4lY0022i3RmYdW6ZhDRyu7/E9qffp/HeF0B7P41RKfqtiEt2vc7IssGraxB0Szo4F1uA73jeylmr/uGS2rf1Ft6Ra11af0yL+X6MUHmfcK5k9cfTv43/584wiLLnM7QRwFQIKFvsPk79zDJ2mPo0Zr6oSJ2nXMARpTPt09agDBuMGiH+luCiKiGQRQpRDCE088oeuvv14tLS1atWqVG2USiYRGjRqlo48+Wvvss4/Ky8tVVlbmSIVjn2AtZoOWOhJp3b3sYX3tgR+akLd2EU3QZfJGLnEdMGo/XXnkezQ6X2NX4nrwpUZ9/88rtKZtlPk3n11qciFggXRiZv5U5xfrhD1adPn5c5Rc+291PP8dZVpec76LYSEsD+Ok8Zdo3Jy3W1zD7eqOSTSuLo1uWBPMqs3+1qrFNMzmhrRu/MtduuvWx+3+5hNNGMVEEzQjQ479xTp04slH6NTTDtPYutEqydfatVRX0296qn1HRDQDhI6ODr366qv673//qzvvvNORTWlpqSZOnKgjjzxS+++/v0aMGOE0FMhmc8GW87ZYp+5a+oi+ct8PlCnpRPm2DmPO7rENnm42Lj5CZ+50os7a7Uyl8ind+1yzvvm7FWqNjbBYjAg2IJpQV4hlVJJdrmNmten9b5uh0pa71fny99S57slCp94QpNwcN/Ia/1ZNmHOFhR9tVwe7+26boHaCiXKACZk2l1NHZ05/vf6fuulm6x/UPfVt9e/4nrp6Y7X2Ga7dQxHQrHl2c9ME+U6deuJxOumkY1VrGrMzk1xy+B98bQbsqEPOJiOwi62JzDU0NOiOO+7Q5z//eZ1zzjn64he/qLVr1+rMM8/Ur371K/35z3/Wd77zHb3pTW/S2LFj3R6IgSAZQOd0awTWV3gVQfF44bqP9bbV6bV6sPFpLXRL1JZ/c9mE3XMPvqzfCr8h7Kqp9uyLibNvI1FiohJXmhdl9QpntLnjjgzqNNH1R23wbetSa4+k1Y/VkSd0NA5cLmGOtqTeg1vdwbVxt/ctrAXNxLNKJ3LuUYe4peXe1mcmdCzH60HJg6UTw5FDekhgNm0JRETTD9DQK1as0NVXX60rrrhCb3vb2/TjH//YmTw/+MEP9Lvf/U7MrV944YUaPny4Ne5gN6J1Xx6IS7GHZT2CbhT8Ypx7ffl83fTI7W6MrSwv09jhZkZhe3G/u5UQFyov6KU80a5UPK1kvsk6bYu790bYNUswRseOY/6ZeHUrEBGKEWgzZmRls04rzhT2zXDOowl+9Y4BLpvNuCe7NxxUApKRkUyqOqvacdYK1RYf+3jM/KVd1jdG0Cu2BiKi2QhoYOZYMIc+8IEP6L3vfa+efPJJnXzyyfrJT36ia665Rh/60IeciYS24ldkBhN0GxyjZamlV5YIllHpRsWcwStPmvLtWta5Vpl8WpNGlWr/OVVK5qwTBiEssvCRCNjM1a6dx5fpkLm72oiYUWfrcrXWr34jJ+HfLjrVP1amhJsE5mVYEXpGob4NcAYLAmvWrHHPNjU1NaqtvU2rVq/SksVL3AIAZFNfv07Lli9XW1v7GwewWIfGzkjqoNNH69CzR+qo86Zq4sxKIyV2JzsPztvWxKBIRaCU88d0GMtrwbU+w/dSAvG74PodTz/gRwmOPOD2m9/8RmeccYbOPfdcXXXVVa4joLX87W9/089//nOddtppjlxYJWIuBpLxHWDwNZkANN7Y6jHafcpcIwZMJRP3Qt1xhDdYqs7G83pq1dP6zcN/UFV1m04+qERvOiynMs23uy3mj0DEZqq0BUrl8po5ulNnHJHUbrtaHGyrX3CjyuI80GctUOwsFZ6JyqXGSxU727XyLVYHQwHUrqslq5PgdQ/BYjKuqaleK1YuM22mVbW11aYdl6qxsVGtra0aNmyYe/Zp2ZKlalhXr6ryClVVVHSFResk5rhpnMPG51Qxpk2Z0jXKV61TzeiUyipLLc2gjfC7PtyWB+kOCrJWmZ1WpA5zbXbOJ8SbzDWaQwHvyVlXVpPVBP55p8aWxOLFi/WlL31Jl19+ue69915nHv3sZz/Tt771Lb3lLW9xwrOh2rp1QEcJXFwjK4ZrzqhdlMoY0TH557ug701oG2azN+db9WT9C3ps+VMaWZvQeYdP1LlHjVNNboUqs/Uqz9WrVPVm/KxRbWKB9tqpVYfsMU6JzHyp4UHFGl+yyBg2wuAsuJKOlSpfPl4VRnzBNHSE7uFbLwAPTWYzGVXagAWxdHR0qt20Fn6zxQFzCo2HLQ9+u8MGsPblyZCGFVm1rShTSfsoJVpHqnFV1siqbZtphwFfdWI1BHJZYmrbC2sWqt1G0/akuRx7ReB1XjPAsXu4fWim75eZhrD/sGmazUN6hRxyDwwU/2AWMXrcdddduvbaa52aOn36dF188cXaY489tuFRGVOFPxmZp3X34gf1rXt+qubSdiMY0y7cKFbUrMY8Jdmk9hq+iy7f762aWbGbq9eXltXr5tue07KVq1VSUaJZM6bosL1mauLwvI2mS5VZfbPanr/GRoB5Fqep4kY2ITEpONOLYlOUG3eZxs26VEqytM3VCMDXUkdnRtf97Z+6+Zbb7CyonWDuJesIBMdmO949E48nlIBUTJ7wQ18sJhnXB2hna+9sLK1UVaeqapPqaEqoo9HM6VyJ2wYRtz5y2snH6+QTjzXyqiiE3rIYFKJZ3tqs9/7rGq2pjKnZSCZbWGhxdWLFTmbt2IMQU5W8iGdkRY0+ceTZOjhXYX7tIhXudr5uPtHQcJDKww8/7OZZMH8OPfRQN7nrzaBtG55mAg3r1bb5+tWLf9V9rz+idDIdEI27XWhaIxlXhfYfn/nYpXpnnbvnGdp39O4qcQ9ABisS9MqYhWEtIpFvUrL1CaUX/UKt82+zK0wsQjRuNqYA4scl1JTYVZlJ79WEmWcrHgs683p/OzZ8LXVHNB60I63UNQjb7UBeCieFX+sR9AGnufKfhePb3rw0K28DNatZXgNnaf3ULqIZ+PcB9wUDpRx0ocNq57F4sxpLZSTD/ACsHDi6MNXYaX26wzSd7lybuVYjJ0jFfhq7W2UWVlULVRuc9AOeSyGYhQsX6hvf+IYuuugi/eUvf3FL07/+9a+ducTmOUaNAebeQQBdMphP4UG4ceVjtM+oOSrvsLy7lx0VOqtD0EkdPVix0om0nm95Sd++9wf6xj3f1yNNT5rBVG+m6ho1xFarPt+gdLbNOmyzOprvU9OS+y1OIy9eLRDE8gZwtdY0pXFTj7bcsJ39jWKxI8PVhzUJc2gJc8FnVbjDf7RVQPDMaLq33xUc1yEeZsA4o1+yDO52FUMkdt35JbyLP2n3eWWo/XaDTBAHybiw7nzrYMA1mlYrzK1tK/TVO681wuiex4K5hN6Q04SyWn3m8LN1YK7ciIaayxr5WOUaAbEFqj+YP3++PvvZz6qtrU1z5sxxcy/szoXxe9KshgQKLce0+9Lccl23+Gb95ckb7QyyoUN2Vzbq0jqoddiEtYN7KXU2pWTGKMKOB006QO864hwlVz2ixme/pIqOl5UwoolZnHTsABvGm4lVKjHhQtXM/qJFX2K3C+07hKt2sNDU0qbmFl6/QW1afRpnhPsg/OIlkqXulatWuXfSVFbWqLamRs1NreZaNHJknfXhWiUTPVSyIyXfXnKTyBUVZTaQFi5sYQwC0WR1c/syffnO62307L5UPIcTsG33gMUhmk8d/hYdkuN5DOxUEyer07iZNX0hGibRnn32WbdSxGTascce6zbVsefF28NDHqGWa4t16IG1j+uap/+g19YtMo7pqVnteuEee/aoSd4ny+dZdxu3qy454ALtER+r+LIb1fL0Z82oajY/EA1hfJy+/lH1S5UcPleVM94r1Zxil5hTK9zfeDPtcAi3iiOaDa4AKi2oOD6TvnjxMq1atdbM+xqVVZWZyd+sFiOqceNHacLYEUoVphO2dQyOtFndYfb0BLS/3pxHoit7pnnwBjcTiLyxfG/cyDNG1113nS699FJ9+9vf1uGHH+421V122WVuLoYHF7cLkgnD6qxUJZo7fI7eNOMEVaT5rAbzTJQzVKEOdu6IAJII3v1LTVeWVmhm7RTNjI+xYXeV1q54VKnYWvMVvJgpQBBuPUwrSo1Uqu4AqXq2nVp6Ecn0Cjie95Nj6gTL3IU/0y75wyiGgPhjvpO+ziIKZhWc4r7VlM9Yi5lWOoS08QGXOLokVmNvVeBXRnpyPqybxuKkIC8JKpZ6LiIazjGLnnvuOTfXcuONN7r9L7/45S91ydsvU3VtrdOfetahhiiom0Jl0UEr7W9qaqqml09XqZlCzAlAFIEBj6PezG1w5FtNcSOpWTp39smqybYqve5JZVY+U+j2wSoTA4fz7mDCkE8qayQTn3i0SqadZZcm2nVrqFCeIgSgu7opF19/Yf7nWuG6/0mtB3Uf9Nms/e9kIxc4rjgq8vENAQy46dRilXBT2wp9487r3Ptp+ws6MxU8trxanznsHB0kM3WCWw5kl0nd8MoQ+1/YVIe2guay3377WWN2n3b/czR0wGRfuzr12PJndM2Dv9HrmYXqTLVZnfHOmYKnLtgFRlQbSXceNkXn73GajhgxV9nVz2nNc79SdftdKo2tpsK9bycFPCeDqZWJ16l07HGqnnWZjQCz7GaVubAERfBYuGiJc/Rb4EmkGNQ07UTfHj1qlGrrhquBzXstrW6hoqSkRK02oLa1BZv5hlVXq5GvJ6xapbbODkdKPc45Wjsy8NBEO+88TePHjtmiLbVNEg2oKy3TxXscrguHzTBNJrgGfGO1t7frkUcecc8d0QB77723m+RNlfLG256xPRMNYKRrV0ZPrnhBv3rw//RS64tKl7N6QSX6irRjgXnYW3Pk2IP1oUPeoap0s+oX/V3Zl3+mithCqytWmkA4XMo0mbFKTD5B1Tufp3x8pqVYbXf6O0W/44Al7Rtu/I/Vj9WQtQNa+huJPwBkkDSiOfGE43XwwQe6uUl3vRsC4cNvDzzwoNsH1tzIdtieYbqQI6JMulMXX/RWHX/c0cENAzH3kJ0BwzZHNB6xfFZjy2r05cPPN4OgtPDFGSorGA060x1atnqRpteO1gTTfhxBmRFLZW7vZNIXUB1s5nthyYv6/V1/1XPpV9VU3awsb3yzSmJ+gEn5Q8burw8e8i6NzDWrc+nf1PjMT1UWW2lVaZ7cZEJauXyF2mPD1ByboNLRx2jinHOUT/IS8nJLh9oO2mSwO+tQxXXXQTQ3O22QSqJt3ih0vvaMaFJJHXrIodpzj91MEQlWEAlaLKpx6+9PPPGoHn30CdNyeLNZby0QpJrLpHXRRefpuGOPCi4bCNVbyIHANks0SAOvPyhP55S0aigrWhKH4ceX1+prR52n2mxeZcngCeaIaAIE3Qo7Pq0GNev2eQ/p13f/QW3lpu+wqc/u12XrdNL4o3TZoacpvfxurX7mx6rIPqPSfJur385YmblqI5mRylXsoeE7naDasQcYCY2yBrBato7t0rFeuiU661DFdX/7h9NoYItgJ1LvNYXpdNBBB2mPPeYWrnQPhtUnn3jMvWCttaPd9f3ugYnM/3ll0xnTaM7Xscft4ESDZhIQc1BtqJlBJQVHsuvmcazRdqqq09WHXKAauxd+UUJENJAMdRXUJxPBGdNuljQv0+3P3Kf7X35UzdlmzRo7U5ceeZ5Gl+TUsuha1b/8O1XE663+Ko1gatSUnKxY1R4aPelwDR+5i9V5lZlK7NS21iDeAvxAWjhEKMJ99z/oHO/0pd5ibnuHayF3fwNYJSZTKc2ePVvTdtrJTrvxUwDm0CuvvuJeuNbZkbG27qnn+5bJu1fKHn/CMdp3n70K1wxboOG22TkaZtmBJ5ouWHYd8Vhnn1I5wojmraqzy8GLEoI6i4gmANXmyMZ+wQ08R5OxI1+XbO5oVkdbu8ZWj1DTmuVa/PJ/VZJYqmQ8obLaSaodPlWVI3ZWLAGNU7vMwVjgfDKoZCLnGGGjoKogBdcOxsqBodkNrLEgbeYh6d8b3YZBxAUQLnS6AVxq3DRHP3AXwp6dh8HFIBHNsgLRWKcsAsRBudzzTnaENNzkmP3maW2IxhFJgV02eF6YvQah050q6/SDQ9+qkfa79yngCAGovFAFbhJoNVyEwUZPouk0yiGGQRz8u48aomBHKuTCTt+MeUvaeYkRT4UNt6V2TNl5WTqvqk4jkEwQZj2IlwVC9okEiuUgFmI7Ax00qL/1rrdOW+y/N78RBhoQSnduKILes8WBmkefrTB1fM+6Cbpk7lH6womX6Mw9D1Glkcu0qlH68AkX67JDTtRRBx6iEsvmhmQTYeBQTCZhV9ypCw0XIUI/QW/aokCTcfMuprXU5lPaffhEpRes0HOPPqwH7r9fI2uH6y17Ha3f3/A7/fau/+jmx+5XeyLvtB9nv0b9PEKEIYctTjTOdDIHYaxUu/7x4sN6aPErmp9uUsfwCh2/z2G67T83qJ331PI0PBNkoadQQUQ2EXYkDPA06lbBFicaDyZ+0VI6jEziibjmr1yqjnSnnnnxaV149tv0obMu0ZVHvbXgO0KEHRfMy9x3333uvUl84XQoYosTDRO/lflE1wRwXaxEB+y1j9qUVUtnhx5b9Iqu+vNP9PPr/6C7H7vTaT+RAjO44FmZBx54QK+//nrhSoQIA4tBJBpjkiLHTsa6imq95bAT3fMc5UpobEm1Jo6a5MykVDyuWElSnRUppaorddA+h1q4Yqx/+1iEgQHfBL/nnnvcd8EjbJvwK05D1YzashoNczPtncqvXKcvH3OpPnzS+TrygCP11bv/rFxNmfbZZ1+9/9RLdMWJ52v05In63l1/hVYsGEvZuCCaaI5mYOE773b3np7tAL5t/LJ2tLzdF1gdNeQ69PsX79fn/vULff3fv9P37/mrm6dp7mjXnU8/ou/859f6/i1/1P2vPe+0HBesQDBu92NEMhEiDDlsUaKBL9ig156SWkqk1iQvy7Zr5pgc5n67/eYeJMNkMYgIJkKEoY0triujnTAJDCAXzKDuNBb/u5hgvN8IESIMHWwxooFQiudW/J4aXIQIEbZfDDrRwCGYS8ATClqJ10y6I5losjdChO0LA0c0EIYnj4IDmEdea4E/wsQSJhwPSCbw42MJO7vpXx/h/g9eTxh2ESJE2PaA9A4Y4IeMRVnGO/HyOSXMsTEvTC7F2kp4DmZDklmPN4axSM15X8E74SNE2P4R7aOh/OZ47eZoVTjtxRGEEQLHLrIokAQu+LRK4MyHkQzHN1ak04YKDn8cyzNSTXr9K5kiRIiw7WJANRr4o9yOIxJJ7TNsgka32G9zwzpyqmnNqqo9v4GrLvrtztsyqmpNv8FVtuEyqmnJa1hrTrtUjNQ7jjxF1ZYeZDOgBYkQIcKAYuDesEcsWTuYxLeaa7QLq9WhTjvy0Y5S0zvQVwp78DYAMy3e+OFr0Hy6o3vwoisMpZjqTHfizXqVdsZ3pN1rWA0R4fQfzz//vP75z39q991310knnVS4GmFbAOLJbmCeRXv55Zd1wAEHaNdddy3cHToYOLnEeuF1shZjpf3k81RzVKa5puMcYG5PlWhvcxzDbg9zk9e26b4f/kqT17S7a7sb0cztxu1h2d3T9Je5ltAUS4N0eNeeJ5kIEbZHhB9DiB5BKAIR49BNwsdiF1zPK5UwPSYWfCWIz6xQucXO1K8NwuJA8XmECBG2LWyTsumZuzsXIUKEoYcuokFjKEaxRlHsPMK/NxWZTEaplP9oyoZpb20U5yV87q/1B4Thkxq44vDheL3rzt9AweeDJ7f5cNlgpePh04uwY6FrMphDWGPo6OjQH/7wB33+8593BJDNZge0g4RfSUC6xE9HJw3f4XGcF7K4xUB+wvkLl5vr/rw4X77+fFhfhrA/76f4Wm9hgA832BhssqHuzjrrLH3jG9/YoI4jdA/agrZnMviVV15xk8G77LJL4e7QQVdLd9eR6XQQTmdnpyOCsBBsrqPD4YiXNNLptHPcIz1+o+WEhTyZTHaF31wQL2mEQR1QZkC+vPNp4vw1wnNOGO9A2A/Oxxm+7+HDcY2y4sJxh8E518OOawPtfB4G05F3Xx8Rdgz0uLyN8P/pT39yGo3v1GHQUcrKytTW1la4sl5wEKxiIQ6jpqZGhx9+uB599FH3drfS0lKXRnV1tfbcc0/dcsstBZ8B2Y0fP16HHXZY1whIGq2trfrb3/7mzvsDylFSUqLp06c7t2TJEvftYl8+yGzy5Mnaa6/QJ0MLIN36+nrdf//9rn6mTZummTNn6pFHHtG+++7rhJR4yGdjY6PzhzY4ZswYtyRJeO6TxrBhw7Ro0SI3UnENf6TLp1AXL16sFStWqLa21gkmy5rbCyjreeed5zSaCBsH9UW/GeoaTeJzhsLvDUAHf+aZZ3THHXe4whYDYRk7dqwTKA8qBNIYN26cGhoaClffCAQSopg7d66WLl2qU0891Qn91KlTnXDNmTNHI0eO1MqVK3XIIYc4ASSd66+/Xq+99ppLm4oPkxlp43qCbzAEfP/99+8qH2lxj/fmAtInH//973/di6DZY/Lcc885h/BTZr51DDFCspQDLF++3P0mPHksLy93+a+oqHBkOm/ePEdqpEseHn74YXeNtDnfe++9VVdX58oGiVFH7GuZMGGCyw8E59Ma6thtt9103HHHFc4ibAz0WwaftWvXauLEiU42hhp6JZpnn33WEU0xKDjaB8LQ3t5euCo3KqN9QB4IYnfwpIXQQEp77LGHE9ibb75ZI0aM0L///W89+eSTWrBggfPb0tLihBzN5thjj3Ukxn1PcJ5cOPq4uwPaF1oKwkt4iAEBhkgQcu5DJBADmgqCjda18847O20EglmzZo2GDx/ujmgyVVVVrvEpN+FHjRrVla/Ro0dr3bp1jtS4P2nSJFdXxMfIRJqkhX/qAj+MVBA0BEc6zc3Nuuuuu9w18ra9ICKa/mF7IJpNmo1DKBiFEQAv3FQGZMD8Sk8kA/DnTTFG76amJqcFHHPMMU442Zl69NFHO/OmsrJSO+20k04//XRNmTLFEQRh8ItQcp80ISiEnjwhoGGHloDpcvDBB7v0b7zxRkcUXEPrQJO5++67HZFAMMRH+YiPrwLcdNNNTvsACD4CDwmTDxqd46xZsxwZQbLEQ5qQCmXgSBrkhfuQEek89thjLg20F0gL4UPjgfj4DQlighE/mpEn1Ag7FraXdt+oRnPnnXcWrgSg80MMaBoIiQfCiZqPpkBYiKSnSkJ4EEjiQBN48MEHHWMjjGg08+fPd9oO2gCa08KFC52QEx9hIDi0IIgCYcX8IW0EGQIhbu84Jz1MLeZEyBdhZsyY4TQHiIC4MIeIm9ECkwwSwwSCFPFPuRlR0D7whx/So7ykwXwMWhikQhqQGRofxAtREB8E4r84wDlzVeQJsoXUqE+0INIhT5ANfoh3e0Kk0fQf273pVEw0EIqfP/HaDEKINgEwBcIkw7HYQR4HHXSQMyH22Wcfd45pgSkBeQAEzk+I4g+Bwx/zGpAQJEDFkx7XvIOkih3xkC75xCHkpEf5PLhP+hAWRIaJ5c0otBAIgfQxqYiDOqAu8Is5hx9PYNQdBIQWhlYDEZJPruGfMvs5F4iMeSjSI07moyA94oBo0HL8/NH2goho+o8dynRCM2AUR+g8EFC0EkwOBNqTT09AWJn7+M9//uPCMJpjRhCOa5hHxIMwI4QQBWSDAEIuhEeA0RY2BcQLmaGRkD6gDPyGgCAMCOvPf/6z+zogc1S33367IwXSJRzhIRTmW1glI490AAgHMiG/xEden3rqKbeqhXkEcUGalJfyMJcF0GR8XTBXRR4xx9BqIKYIEYY6el3e/uMf/6irrrrKndP50Vo4ov4jnAT15LNs2TIn/N1Fh1/A6I5gQiQIGatOCCzh0A4gFgQaLQohYx4G9iYcwosQo83gmGsBPu6+grAQBOlAEB6UC6I46qijXD4gFH8dh4bBiHLbbbe5OSHKQZnJF4SEHzQa6gLSwC+T19SjryuOPj7KD4nhH1IhTtLE1KI+MJcw0Zj7geh6aKYhB8oRLW/3H0N9ebvPRIOQIEDFmoS/7udlegOEgZC/+OKLTgvCTME0QKCIB+cBITDqI3AIPvFz35tQYa2qPyAPCDWmC2TmgfCTJmVhPog0PbiGNoLDjCEf+GXSF9KlTtCGKBv1huaFH4gHwuF3uG7wy3wUYZlHwg+aC2TLPdLG1ILEuRbO51BHRDSbBk80Bx54oNOOhxr6bDrRQYpJBvjrGyMZwGjNZ1fxi/BgojAZiyDiwkBgqVhGeU9iCCAEsakkA8gDmkix8BI31yAZ4DUPHGmjAXnSAOSbeLzmQzjMPiaYvWbCPFMxyQCIlQlu0kOr8hPd1COEgwnFOeXenkgGFLdzhB0Dm7S8PVDwWkNvnQ8hLRbUrQHy4AmvOD/+vJhUuvPr4cvM/XC8xS5ChO0BW5VoImGKEKHvGMraYK9EUzxCD2VQju4aqj9k58P7etmadTNUO93WrLOhiHA/G8p1t1kaTU8F39wK6Y8Qhf32Fo57mCggnD+udxeuuAxhf9zz592F3RLw+SN95pE2B+GybK3yRNi+sdGntz/72c/2ufPhr4foNgD+WMHhSWXgV1lYDfLzFZzz1DK/WaFiKZxw7EvBPytBfqKU6yy9MxvPhCrL4KzYsGpFfEwg87wUK0U4JmO5zuoVD3MyGcvEs189A6SLAJMnnsxmNy8TwoD0SdOvRnEkXlaZeIzCL1WzLwh/xMORpXCe7WIC2D/LxXVWwljBYgKZcuPPb1zkPm3BChX+SYuNfJSVugCeaAjPZDLheXTj6aefdnVEfqkLwvG4hc8Pju0DrJYRN/DzZkxkUyesjvl2oWyPP/64yyu/mZT3E+S4voB0olWnvsO3C7vnh/KqU58equyuE9FZEW5WX8Lw+2oQmJ7gBRi/CBA7RYmLjWwICkIGGfjf7KSlYyPM7NRl7w2OiqchICIIg06P4EMICA+CyDX2x0AmJ598shNACI5wkBePDxCencIQD3t8WHI+7bTTnD/iIZ/ED0nQyBAKy9xs0ttvv/1cvliGZrWIHdMs37O7F1B3kAN+2f1L/OyD8DuDAXUNObA3B+ElPZwHpEV9ALYEkAeev4I8WO4n/9QT9Uo5IRfKQn6J94gjjnB+qXPyQJl5RIK2I25+Ux7qm3aAfNiJShtCPBAhGxlpA09q1Bd5gogoY3E/6A3RzuD+I7wzmHYcauiXRhMmHDo3nY9lWkA0dEI6NoJF5+0JhEVL8I8AIKx0VEZbiALWhsERXh6wREOhk/PqBoSEDW789svqjLA8jIngMqrz3NEpp5ziBAVBgpD4TTrEy6Y8CIHlaO6TX8iFBkQLID6WrkkfEkDo8Uda1AHn5JPNdCzXI6BcL65KriGIlBWBZSMifthhzGMJvI+HfFAO0oKwICsfNgzqFeIgrxCo30vEOXn0eQOkRVsQJ/mG+EmT9LiHf8roCQVigjjIE+0J6aDRUE5IEWKDbEiDe7QH8ZMepMsA0VeiIY5Io+k7fJ8a6hpNn4km3PHpZIx8dFAcUeDo2HRYBIAOXiwsHmxKe/Ob39y1X4TNSHRYhJeODQGhFZAOgsRoDbmgXaAJ3HrrrY5QSA/BwQHCIywIA5oSGgIjP3lB4LlHY6EVoQlANIz2kCJkgTlDeRBoNBKEBwKCpCAeCJL8QGgI6qGHHuryQD49KA91QRjygAZF3BClr2rySzrERX5wlJF6gQz5TTy+XJQH0488Ey8dDc0FTQ3SIH3iJj3SYvcoZWHHMu2B9sf+HggHjQoyISxaDmkTL+1NWSkz99i5TDtgbqGBeFLHHwTEU+YQFUSJ33Ad9AbiiIim7/B9ZocxnTxpeJIBdHp/nc5Hp2anL4IN/L0wuMbozAjJM0B0fgSJUZ97nkBQE4888kgXBhWdOLn20EMPuTC8zwWBhKzQRBixMbEQAAgHgSUvCCukwH3mRjAdIA3Ckl9efoVwIlxoCuQNwSI9hAsCRPjIL3FCQBAEadIJKANaAeSKAOPoEMSLUOOfexAFwg6BogUx/8RvtAPKTVqUE4IgbTYzcp90eScNadLBMJ3Q2EiH+2geEBSPKZAPiNhrSdwD/PZzKhAH9yk/GhR+MBEhcgjUz+ugOeKP+qN+yBvp4p/6ID7yRjm6a+feEJlO/cdQN50SH/vYxz4HSYBwhykmGg8vZJCDZ1vIx9vqvnOD7jognROtBbJCuL1GQFyo9lxDwwGYZpwjHDhvrjACMymJIKOdQB4Izb333usag9EegeM6eeWc0RehZq6FPOIPDQkggOSf+6QH2SFgjN4IMYJPPGgMhIV80AbQhNCayDvlwi/pQGwIJ3mFEEkTbQpiI7+cQxiA+AhLGEiT9MkLpEd5qSfySl1Q99QXr5TwdY9fhB6Cor6Jh7hpH0iTl33RvpAr6VLHnBMf5YNQyCthKQ9tw3XSJT3e4wNJ48/7JQ3KCZlCSt21c2+IiKb/GOpEE0dgECzfcXsDHY/OhkBARB4QBUKBoHr01PkQKioL84cRHq0DAYQM0EioTEZg8oTqjz80Edy//vUv974aRl06PP4QCtLnyOQujXDiiSd2Pf2MeYQwQwIIGKMxQkJ6hGGuA6FDUCkDeUOQAX5JlyN+0FQA/iAb6gESQqtBY8EvWgFCjQYAWUCakB4aB2WBICkXc0w8E0W9o11ADpAp7+Chjt/61re6F3z5PJM/tBi0SEiQcJAOzhMFIC6ImHzhmPdC86GcaIPUCfmHPCApyJq4iAMtivipKwiJOoKEefkX9cg9rlHf/KZcESL0BXEEG7KhM/s5gZ5Ap6djhzsY5EMnDpNPTyRDB0UIICQ6NwLlXy4FaTCKIqzcIy6EhnkQ4mfCEZJinoR5D9IgHOo9+UGAKQMEgFAg/JAVIzsCRz4hMkiHOBi9//rXvzoCIF3yhIARBj/EgQZDnhnlMYEIh180A4iF+kBwyRcOAUaLIE+UAUHGLCEscXINf36pHkd+mUOhXiCoG264wb0b+fe//707YgpSTjQ24vbxEJb8Eh4CCtc5Gg5x0iaYW8zZkC5aFXVBeAgDMvHaG9or9yizvw9Zki4T7RAtdUx6mK6kR3kjROgLEtaRPocaizCgJiOQdKJi0wmBQ2VmJKNDeiBsdEY6NR023OHDoPPSMZmLQSNB6NEeEEoIB8JDPeQlUAgOL8bC7IBgyBtkyGiPkCMcjLTklU7PNf+qBYQRDYkRGxCWfKE5MWJDDISDWCANPw9E+hAAcw683gH1njghNfKNxkFajPzUBflGcBFq/EFGmGKQHRoRJMOXG8gT4RB4hBVyIH3qkHgwrxBo8nf88cc7f8Tl46RuqQ/io1zM79A2xEt9QH6UkWvUMSAPxI3ZRFgmxGkXNDnuQWrUvS8T7Ur9Umdcp74gfvoD7Up7McAwEQlhMVdDOagb2oG0fNp9QWQ69R9D3XSKff/738+j3rO6hJAyR0CnRJiLl7cREDohCHcs7veno9ExISiEw3dSOjYgDa73FT4egNCRFwSXeIibeLnWGwkORYTrsLi+qM/NKasPy5G4+tO2GwNxRatOfYev+6G+6hRnZKEAmCmMeHSu7jop1zzJgLCf/nZE4oHIEBBGdk8yoD8kAwjrhQFthTkSn1cfL/e6K9NQBuVjjilcfo/NLauPjzTC8UaIsKmIo0azWsM8SFjgixF1uG0PEErYRYiwrSLOHINftfCTez2Rih/pvNtUeKHwcfQUVzitsF//OyxkxXH6843B++8LuouTa8SxsfSK0+F8Y2kTp3ce/cmvx8byFiHCYCPOJB+TsUw2+g7pj30RoE0BKjnOgzT8uVfXfdrdOQ/vzzsfB/MzYX/dAf8bQ0/xe5AG15kv2Vh6Pu/e+TDh+IvR3T0fhiPl7Ak+jPfvf0eIsDXQtW/cd8K+dsbN6byEQdAQFFZV/MQt1/nNJKc/D8dPmlwnjD/3+QDeL9f873D4MHzcEC0rKWH4OH3+cOF4fLoQD9fJbzEJeZBf7gP8+MlbnA/j8xKGj5c8+Px4f1zzv3HF4BphvfPXfJ1GiLCl0e/vOgE6Pp2WeR0mJMOgY2OOsQ+jN+APIWepk9Uuls1ZbmVWneVa4kcQWUZlHwj+Me1Y4mVZl2VXJrCZVObIUjJLf6w4EQ/xIlTsw2HPDPHxm+t+Vy/P9pAecUE2+GdyGu2OT8KwfMsMP88++WV0wnpiYvmdMDyawFwX9cKScHjnrt8nw/wXy5LEi18fH0vi7B0izyz9szGPspI3nsOibOyvAaRFnfkn2FnyJE7SJE423wHiYpsAflm6Ztma+sUvZrLH1iKdaHm7/xjyy9smEOtVghAgEP8VBLyEOyXnLCVDKOyj8ECYGf0hjvAu4TCIB+GDGPBPXAgupMKRfR6Qh39lBEKFUHqhoqLZG0I4/LKvhLAIGvtGSBdCIg8+LlbTWB6EVNhTwhPh5NtrFAg25YGk/BZ9iJayhPcM+XpAoyBfEBHAPxsDWfHymwnpFGzqYz8QAs85hEGcftMd+3jIp9+XAsFxnTTZ6MfOYgiKskFAnmQgPtLALwRCfgjDDmDKy34gyoPzO3jJG6RJXtlPxC5hH8eWBOlFy9t9h2+f7f6hSq/R0Ck9IAiEBMGkY3vQ4dmHw+5SwvcEwjDqMwJDHGxxhzzQVnjMgAplqRpCQlCpZEAe0KK4jxaCEJEH0kLQEGY0BIQWfwgVDsEmT8xFkSb3ISN2ukI2aF8c8Ydgs4mO3xAfxME10qHcOPJGGdA6IAo277HDGb88AIl/n0cceYEEuA95QnyUjfxCeBAMGgidivyjkUAspEV9cu5J15MWeaA+SBsSYWDgGmRG3tBiOIfsCMugwG/S8M+SbS1EGk3/MdQ1mr49218ERmWElQ7uQadHCBB4BK030Nm9P4iAo9duvIMIMB3wB4EhnOyWRYAZ4RFejlT6GWec4V5UBTFAEGglaDM8XsCb8djGD8lANsTDCI+gI9SkwzNGCCK7c8kPgo3WwG/yQt4oM8ILqREHO5t5PQJxYfogPD7fEBDCTb5x5Inr1JnXXCA26os84yAM4ibPbDeALLiOiQcxQHSQJOSB+UbZ6XjE5zUe8kLamGQ8QoF2R7m8JgPIF20VHjgiRBhs9Ilowp0SoWMUp1OHtRY6Mp0aYeiNaBBY5jaYj2CuBXCOuk8cPA3N1n7i9g9EevOAuBEuCIMjczmYLGhdCCZ+IA/epAeR8IwOjxNAEMxV4BetABIiDvySV7QrykUc5IHfCLTfaUy8CDQaCQRBftiWT1l4ghkSgHS5jtBDQNxD6DGBOHJOnvFHnJ6kIBLCoVXxfBblhpTII369tkKdExekSH4hDLQX4oCMqU/IlzrCNKItyBuaotesGA0h6ohkImxp9FujYZRFaBAuDwSTTo5wbkybQSjo/AgXwoNZhHAQB4LBKIyaSDxc57cXDASO0RxhQ+gQerQI7iOQCB8CDKGg1WDGcB2BhAA8eaBJkAcmWjHXAILIPTQkzCBAWSEZSIs0/YOUkBXaFmEhSbQbSJEyQEYIM3HxrBLx8rQ2piZ5Ix/440gZIRVeZ0F5mLeClNDc/CQuvykfxOMJEY0KAsbE4zoOzY26haQhcIiGtwySHzQ6/FA/pEmdRYiwJbFRoqFT+o6JkPFgIILrCQUh8Oo/o7O/1hOIi7AIECYCJgNCgzBjghA3oztxIGwIPcSGIEIM5AGB8i+DQmBZ9YGE8INQee2H+Q0mPUkT4WQSGE2GkZ10b7nlFie8+PMvvfIPLkIWmCMcISby5AkQkkT7IU2IjFcxQFCYLJAfWglCDfkQlnvkiXQfeeQRN/mL+QTx4Y8HV5mnggwgJEgS0qXs1ANpkg5lh5ggL65BOtQJE+dco8y0AffQdEif8lN2ykg9k78IEbY0+vyGPQSFzoowhJeu6fysCiG4dPDeSIY40AyYOUfgEAz8EweCh5bhganCKhLCDrEwmeo1C0wmhJ0waAEQA9qDF0ZIAL8IFSSF0GG2QGIINtoGpMZ9Rn40B+ZnmJfhOsvFxOcd5SYtjhAVS8sQAnlAiCEQ7mPCoZFAWGh8mGaQHPND5Jn4SQuNiPqFFFi6RyuCQKgPtBu/pA7p4Ye8EQ91T10QB+WEqP3qHvWIVkn9QPr4I18MDJAxpEVZ8M+93tppsBFNBvcfQ30yeKPL2//v//2/rk7Jsdi7v9bdvWIg4HQySCYcJ6M+xMCIyzmEBdEgGIzKHtzjOuYT5OLNOEZz7iFQ3AfESTyQAY77+CUM+UCoOSL0EBDEAFlAmABtwZtmAJLkN3EQDvLiPung0E4Iw33igdA4kg7XIQby580nCA5tCZA34kY7QYuDWIgTf5AmxA6hYSqxSgVZQDqE8yB/1KEvG+Dcm2zc5x5kDMltLVDOaHm77/D9b6gvb/eLaHqDF5ZNRXfhNzfOCNseaM+IaPoO3/+HOtH0OkeDoBeTTPG5x+YSgg8fjj8imQgRtg/0aTLYY0toGBG5RIiw/aFfy9uxnCeBuPKxuBI5c3YpPojckDcFJ+y2DqimYhcgnK+BzaePJGcRFj+lXbgX6zTX+3aCgYM1cixbcHnl4zkrp+XDftt/gQ875GNcZw6IB04zVlM4++3CD2JHibBNY73E9AE515/iRixxlWSSdkxazwqiGCyycWTmXNK5fmZ5QJEXE8Jl5srthCfIfV7sukrsWpm5lJ0HRIx/L4T9A2FwFr9Lh4c418fj7lh9J0z7S6hV8VirXRtMIYYkIIsOS6/F0u5kci/gDceqectpViX5VqXUZn5y7jwmJqzb7Gi/Cwzck+kdYftGv6SWzh3PJVTSUaFRqUmaPGE3uxZoNYMBumTKtKhUtkRl+Ro7VhQ69pYGo3ReWSO6ttZatTRXGdlUmnjFlDOyTeeHqz1Xp+Z0jTpVo4wJUy5v5JAjvz2/M6Y3IKrpWEppVas9U2q/Q0V37WAkk+3QpAklOuqIXQo3Bg8Qyx6zJ+n0U+colagvEIkRjF23nCoVb9QuO6W0/168FD6jWKJFkyeltfvuKSVi9U67iTSaHRf9Ipp8LKFhJTX64Nuv1Icu+7AO3PdIJ0gIBdqOI6KCC6Lum4tZvHk32iVUW1PnjuH75WWVOuygY3TaKW9RLI60bRh+Q9cP2CjdFyBKlG/shIn6+Me+oE989Es66OBjnDJHnUyaspc+9elv633v+3+atvNcC5HQzjvtpne/8xOWhtd8cOS9u/y/8ToaUdaIZuSYaTrgkGMt/ZB/8xqLd2rChKxOOWW65syeaueDJ8jkLGHk2dK4Ws1rXlNdFdpMqO7s96EHz9T73n2iylOm7RHCro0YVqMZ00epqhrzqcORFRQaYccDPbdvgAg6alSSHqeRsVm66qvf0f/98RrrNqYypytUGquzPpQwkkkp25Y0vxmVtuZU1loptdQq0VaqUvOXwm+6UqnOYUp21qk0W22aSkzJfFbjSqfoA6d9QVVNOynZOExxC9PaklTT2rzuu/Ne3XXbbdaH05ZpI59MteINlco1WcdurLDLwywvCVW2V1qaw5ToqFWphU+YZpGNJZWJb1hUNJR0PKHG+Ag15UeqIzNCGctXXkllTUtpS5eqsWOYmnPD1J6vVi5XrWUr5uvnv/umHnjlBXWkko6AErlWLZ//X/3hV183TafBIi4x/opbmJjWpEero2SaWkzjaYvVqMPSy5pLxypdmk3ZkVZ7w5WxektYurHYMMtDjaVV6eqx1MxTSLwzbhqNKtVsfpozZXafb4DntMuMMZo0bpp+/lOrl4IJC5hQx3kzxZ/nzGUt17GkEbvd4nc6l1VnJu2OnMvqKWsk4a5lM5Y+YaCHhBYsbrW8Vui8cw4wY67Z6MT8Wz3C/aWJhOYvXqG7H37e6psHZMs175UGvfbcc5o6JqaExRuZTTsu+rwzuKqiUheddZGOO+hY1STqdMChe2vuQXvp2aef1wmHnK6WjiY1N67T8OrRevfbP6p5ry3U+y/9uMaNnak3n3Ge9t7tCL3y4kJlOzo0vmqOPvTOj+jEI07S6JpxmrfoVR1wwIF680lv04jKnez3Htpz7kzNm/+qdt1plt5+wbt08N6HaXjdGD33+mMmyKZZlY/R+W+5SOe/6WLtsfMeWr5ghapLS3XuCRdr0uiddP7ZF2rWTrtr1dJVqm9bo1w8W9C0PEy4kyM1Y5fDdNFF79AhRx6j0qrhennBQlUPm6A3n3aF3vzmS7XHXgeqszOhVSuWmFDxDe5hGj3eTJV8s5YtesHyEkzGVlm5p+w8R4sXLVLDuvmqqRutffc7SbvM3EUnHne8Ro+crHmvz1d5abX2O+BYnX/hB3TA/scrUTJGry5eqRTPPO1/qi54+/u01z5HKJNJaPmyxSqpGqnq4ZPVvK5RBx10mPacM1cLXn1BdcPaNHc35oWqdf9DS0zjSZhWE9fO03bWW97yFrfb+KyzznKbG3mcgY2JH/jA+91DpmwGZKcywo+/D195pfbdZx+lO9NatHiR2xj4nvdcYdrSyZo4cZJee+1VRzxoKrvOmKg9dx+rx554QW2dkJvVow0SM6bVaey4Kt3z0AKr65TVS9budGjkCDZf5o2k0XxLoDntttvu0c7gfmKo7wzuM9Fk7Pyh55/Rc8+/oj1321+f//5VeuKZB1SSMAGZsY+am1dq7cqVqiwZoYP3P1pPPPq4Dtv/BP3j7zfqtnv+rZVLGnX88ceZIC7UBedcrv/90Zf0wEO3WSes1sw9d9Ktd9yqF5+Zb+Swh7579df08NMPqLWjUWtWrdSTjz2nfNrMiNFj9PhLD2rUiPG65Px36qnHn9Ofr/2z1ixdofPOPF9LFi7StCmzdMt/b9JdD9yp9uasjjv+RD1pceVivAkwPKLytPl0HXHUOfrh1d/UY48+qoqKUk2eMk4LjSwWLFqiu+67T4tXrdY+Bx6uZ5980gSqXiWlNRo9YYZVUIsRzfOmbzBXkVRVlRHNNIhmoerXvaZaI8VxE2brb3//le687SYT4jIddcTheua5+7S6YZ3lz+JeukRTp+ysbK5NVeWlmr37Abra8jLvlec0yTpUZ75TLdlK7bbPCTr8sCO1ZOlC3XH735WMN2unKTVWz2P14P0LtHBpxgmwMY17xQWPIfCVy3/84x9uZzWPMvDYxLV/vtba7wWNHjNalVVVZqbWOAL6yU9/qvnz5rnHIOjMO03bye0k/vnPf66RI0e4h0affvopZy4NH5bQlIkJNTQ1a+EyK7sR3Ii6hPbYY4xpMSk9/MQqq9syI3U0o7T2nzvZiHY3vfjyatU3pyKi2UQMdaLps+mE2p3MoX5njHRalEyaai0eGeCriGzVt8hyJU7llw3yCfMXN9U73dZoidSbjd9o9ntWZSWlau5YoyYtUktike576p+64ca/WoB2xVJtipd1Kp3Kq1Xtakt0qL2sQe0lTWpPtpmp0+lMfDoxI+mLr7+k+pLX1RBfrob2BlUMq1NbSYcaLF8tsbVqMlOmra0hmBsgTGhOBi0+ayVoaFxpJLRCmfZFeu7x2/XEA3dowshaXf72K3TJBe/XKcedp4rUaJWVVdhIbSaUaQHMICXIAhO9ZoNgXjhwYAuApRczkyKba1ZL50LFSqxMRibJknINGz5VZ555iT74gc/olJNON6GvVTwRU0dbpxqWLVRJbrmWLntYt9z+JyOQJaquHqmdZ+ym5qacXpu3wLiEZWM4xY5WTxkjYGcHhcDjFDyG4E0mnoHigdLPfPazuuK9V7hHO3I2cLz++jz3uMNXvvxl973y1+e9rorKCk0YP96VhUcs2k0DJQ5gxrNds99mK5UbKTEA5eNp7TxzjGlOw/XoQy9jADrN0f63OKjzmN0fq4MONXKOsMMCcekzEtZxEupUZ1m7cok2pzInsim15zpUmkKNL1HONGyWQWMqNWGw+yaRsSxzD1nlsxUm+OuUqOww4ao2+RilkeNmmqlwuGKZSiRfLZlWi9d0hFxKFfEKI61K69wppU0w8kkjNSO2fJ5XI7RozMgxKo+VKpkoUypZq/oVzUoauVWWJ21MNSFLWX5LqyzndH5IIVRcI0LWdEYNK1e5mUPJirgmTplubpZa2yv0wquv6Qc/+4Kuve7nynS2OYFRlnkqM1E6jEQtvk6LtzPOfIcRbDJheUhYhTJ3U23kVqFkvkyJnAljulQ15XVmgsVVWjJcHe0l+vxVV+nPpmGsXmVxW11VVJZrzLiRxlMx1dWM164z9zJTcZiyzU168d679MwTD+v4Y89QsnK42k1z6TTTJNPaqTIT+KwRFYvPIJPJuMdH0Ej8nAjPWr300kv6+Mc/pk998pP63ne/655yrxte556j+sIXv2hm6nydZGRTXVXtngd76aUXNWb0aE00DYmHXSEOVpgqS4IXpq9cu8bGEyu7tc3DD76mxx5+VccdvWehQ1lbGRGmyuJavny+fvKzv+uv1z4D/0bYQdFnoqGT5U3Ic9a98nneildqchcz1b5JK1cs1sknnKsjDj1Z77r8wyZorDy4qUY7ZuxXs3W8RmOqFrvW7papP/Kuz+qY/U/R2864UKtWrjZ/JhQpo6fylC666FIduP+Rbl5j1rQ9dbmZSUcfeJSmj95FF53xPtVVTNBdd92vk04+TScccI7OOvUCrV23TK2dppmYuZGOma7iVmHSpq3k1WZkkDMCCIrri2waR8a0DPu7+Jz36cTDL9dpJ1+gVhPsRDKrKZNn6rxzL9JFF15igmcqfzylUWN30rnnv1sz9tlfc4wcz7Fw4ybso9qxu+mI0y7WsEm76qg3naVTTj9XsURS48zUu+Siz+rMsy7XIUcfpudeftzVyfhxE/Sed35QZ73lrRo1brTFb4SVSauizrSdt16pI0+6THsdeJJpW82Wx0atrX9Br772gJaseFVvPvNSK99wrVjbrgXzV2r27MmmLXYaAQdfZeDhTh4iDQPthgdP3/2ud+t973uf1e9FTksZN3asM2GOOPxwN0dDuJqaas2aPdtpQMcdf7wjLp4SZ9KXjXiVVSnTZqu0cEHaWgxtCv2uzAYVI1jTOPNG4E7tzHVac7aZ5pS2/NMO1P+GmleEHQe9PlRZ/O3tYAtalcaPmKXFy181DcPMItMSSnJlGlc7Q1OnTNMLL7xsJkyFlq990fxN1PLVK9ScbVBZss6IY4pWLX/F4qjWhNHjbUQdrudefFbN8dU2ktsojBaTGK1dZ8w1DaZVL772lMpKSzW2doJpBaxoxW00b9a65nUuf7VVtdpl0mytsdF14aJXFa9sV3ntKC2vX2Y5bVaVCWT1mElaamki4G4J2CEwofImIInkNE2azJxETC+//LSScTM5TEuqHrm7xowfp/nzFyqVKlVb83Kps11jxuyqZlPeEmYK5TsbLe1VjoRGjJpqQlZp2lvW6mONkcRa1VSPV7sJ6uTJEzVv4dNaV79YqbjFXTnV0txVq9auVEvbWhPcVtWvXK7y8p01deokI5e0Ecuzlo81KkmahpEq07qmlSbk1Ro7eqLWrFiqZGapjjuwSkced5A++8W/K91Z5bSapGkjaCRoKr5p0Wh4VQXzNAuXLHav3mAOjsngMWPGutdZvPzyy1q1epV7up4J4v/+97/u6fOXXnzR/AbkEc+36KhDRmvu7lP03R/eo3RyuGlttEtaJx4zSXvPHaGvf+dOZWK1SsYyGlHVYqTapqZ0meYtqDVT0jRey9O5554fPVTZR/g23K6f3i4mmmCOwzooO2MTaWXMLLCBzs3dmLTY6GWjqmkImBFoC6kMk395ZUxDcCs+Zk7EkyyLViqbDuYPXNTxdovbiIAdwNlaxXNoSzZKl3SYWZBVLmMGiWlQGG4506piCcJmzGQydd6UpqwJTCf3MOdi1eowrSYeN/MsZ+aDpZmPmSbl0vIjKuUwkyZfakLBZ1aylt8WlbjJhbRdT1k6aEE2WscpI/NTNlq7oDUWX4fpaWnLmxGv5SFl+Va6xEiqSlYFVkMdFo/5t/phM1upaURxq4OOTLNpXJYfIzgG9xyjvsWdMBPTTWxlrd4gANPs8naNpe0MS/+mHSUtj/kcZiN0UqYSM1unT1irI0/ZRSvrp+n6vz5mfpm/CZaRKW+4ad25HdmHxH3vB8G3H8G53d9v330d0TARDEEFcZiz9EfWZTRlfLvql7dp+ZpatRghxzIQTVZ7zi7X2WfN1Uvz4vrtH/5rvSCrYw+fol13Gacf//IetWWGWb7ZQR0zojk3Ipo+wrfhDkM0OI/ugvj5SIgnQLFVtn4iduMoDhtGf+LpCb3FH5QvXN6NgYnfMHqo0gEE5Gcka2SWSBpZpUrU3pFwK4PBxscN26s/8HM7G74cy8pjg0zKTLyUEWZ7CxPEELivR0jMzCMjHJe2q19W49CCMK+MsIzgnH/LX0Q0fYfvS9v1ayL6A2RtQ3mDEMJu6GBThXSLAu3SzJZsulztrcFLumjOzc07GhXzMhvC4rS00h0xtbXwfFsVlVRo8KDhYzHTZNEOjVhY8o7FjGBiZcrFTdM18sLo7hqNIuxwGDCiGVoIE+BAuC0NE24b6fJmsuKwXFmtCmNztaruCQvzyvQUeMeRD37WH9Fk2DSIiRQ8RuLvc9i8/EQY2ujVdOINex/+8IfdOa+i9OhLJ8a+7w94BSZpEncwOm8ahoQ2MgDI5dm7xNyOF/QAznQp1EF3dRG+R12H/ft27b3+ze8GxOGP4bS4Fr5uFAQBWTpoTOeff75+8IMfBLcj9ArfJtvtHA3ImAqNzT7Y4F3Bv//9792yKy/2jrB56KVJHYqJhT027CLmUy18omXgECab9en59CNsHL7Otus5GrQYP+INpqMySYsJyAibj+7qOOw8/G+0DH73VwvtL8Lpb4wMI2xf2CbmaOjgm2MuRdg0IOq8JS/GZC3yP+CKRs+RhgkvwvaPbWYyOBrhBhvUr5+8dhRjFMBOHfttdc+EMhO52yr47MwNN9ygX/7yl04Dw91444364Q9/6D4hw0DFtXA/4suin//8593T7F/72te6voEVYctj2+1ZEQYYaBA0N9SCuWo/3YpVXryWileR8tzStgjIg1dbYF5DLhDHaaedpk9/+tP69re/rRNOOEEXXHCB/vOf/2ygKfkNh8w78c2s//3f/92AiCJsOWwTROPG2Djj6/oxd1McT1exErMprvsY++qGBhy32P/san5t5Qu6/Zkb1Rhbrky8zcynjN20smzDcghhoMHwrbGDDjrIPRjK6xMefvhh9ywXXxKFTFjBhGR4nOILX/iC3v72t+vKK6/UN7/5TX3mM5+x9o7IZktjG9FoAoGNxdlhmrVRNrNpLpdWpwnRpjgeW9gUF4Rt77drV5v9tahVzf12Lc4R9o1/beaImzQ6zaVz3rUpk2+13DapQUv0TOfD+s7zP9CX7vyilnW+omxJg5E9T6kHLbItgW0Pv/rVr9xngn/84x+79yTxvXO+386LvSAdvhzK99jf9a53uYdDWTHlXTwf+chH9KMf/cidz5s3z92P5oe2PHpd3t4SQCAeaL5LP/3HN9WYa7HOXqJsrtPu8NxO/ztELj50NIzNg5Fyt5vgrM66ZnbD9Ydf9s0YkSfb1VLepKbKNUrHUyppr9aYdaN0wuhT9N6jP6RyDbeQ/a/7wQJzL8zB/Pvf/9ZTTz3lNJS//vWvbo8X2y+49973vlff+973XJ/hyBsE9913X3396193D5hyne0TX/rSlwqxDg148dyu99FsCZD4qnWr9H/X/krnnHuuRg4b7bo4D1BuDDxgWJz9vpITDx+yh9Wj6+VVPYC0egJxdQ9Mud7i3XC5ua9A70PzeyPP9ByfD0M520wjumvxv/STh76heEmZhndM1WgjmiOmHKEzjj/HfJcFgbYhUI/MzzzxxBO65JJL3HwMe39OPvlk9y133jz35S9/2fnlVRn4/e1vf+vOMat4UBSziSfSN6XOtxZ8/4meddpM0OQpJVWeqVFVbpjKsuUqUal7T8xG/2I2GsdLN3CpWEm3rjRW6pw/Jzxk5t3G/kirJxf2t+FfkMeeXTLkt+9/hEpaLSVjZVaWMjtafbmyUW+U7Y15orxWW1azJarO12pU82TNrj9YV0z7qD6+28c1tmFnlVgb8EwSlNo77W4dIHSYURAHwHQ6/fTTNXfuXPdqDIB2c+211zrHu3Z4Demll17qiOgrX/nKRog/wmBhm5ijcY1vjOOWJ90VtI3u/4Isd+/8H2o/43d3WH+PJ3PW/4WFcmv/8d4d3AbXzPEMEeXk6K/yx5PcsENwxn3+936gJYgHx6tWjYjyZTp4xjH6zqXX6LTZF6o0P0LxHC/h5C2JEHAwAGxLQAthgvef//ynmxBmHgathRd5/frXv1ZDQ4PrR3/4wx/cHA7m0/HHH+/CEJbJ4LFjx+oTn/hERDZbGNQ3fWobgUkKTySbM3uucO2N4J53iF7eyKnFRrgNwtjPdEdamQzExbNTgcmAy9rv5uYm99jDtoiwEIR/I/iOTu2SM5kKt9hN3VBfr+amZn/J/PIXkG8Qcj28wHoB9GZE+Pe2COoCbYbnpFjSHj16tFvSfv/73+9eqs4gBXiMgqVvJotPPfVUd0SboWxXXHFF16pTuG4jDD5MPrd+jfN2d959c84553TZ0Bvr9H6DFqMXIxcTfdjo69at1dKlS/TgQw9p7t5zVVlRqfd/4AOaNm0nff5zX9CvfnWNXnjxJeUyOZ1g4bD3SWtznukK5xVhYPJxU+YCKBNzEF/96lfdebgeyN9+++2nD1hZli5dqv/85yatWLFS9fXr9Pzzz6msrEz77LePqquqtN++++uQQw4mBhd2Y3jxxRedpsByMHtS+pvvwcV6+twU0L23rfL0D148h+ocDfl3bWD/bXWiQbvgSXFeiISAgt46B1nGTmenKEuXd955px4yYmEpkxd13Xfffe7bRLvOnqX99t9X8+fP129+82snUKtXr3E7RNk6w4u3+RQJqrePd1PgKtLy6/PFO3qnTJni9nP4OP3RlwtSufXWW93eDiY2vZYB+iIYlJkRGg2tqanBaW8jRo7Q0UceYWbDD9zLsDYmnOQI98KLL+jGf/1Du+2+m44/7ljFeUufXUcv4n8MMY7O5KSs5ljY4nUR+An7DXiB+4Xyuv9B4X6/EcSzsbDhNvDoSz1u6/DlGYpEE+77Qc/eyvCdxGNjHQRN5vHHH3ekwmep7rnnHmejX3DhBWppa1Y6y5cX09ZFc65xPvnJTzpN4He/+52u+eU1zq5/7/uv0J/+8if9+Gc/VtZY57V5r+q8885z5MAkInnALLn99ttVV1fn7HuWSrnOVwF4Qxybw/jGzjHHHKPXX3/daUcjR4502hXv5QVededl3xzZCs8ms49//OM66aSTXPxoI6yekB6ki4aH4/eaNWuMHFd3ObSlZcuWueN3vvMdffITn9RJJ56it57/Nn3329/TKaecrmeeec7qdH1D9wb4AIu1M9eu19c9owdeu0lPLn1Iz616Vq81vKrlnUu1Jr9ajXzCRk1qiTWrKd5sxxa1q1UdanM7kTL2l+X/mB0tQm+q+hxwZJLZO5e1rpOCewOCG/6vN/g+w9G7QYPPb9hF6BXbjOn05z//2ZlOffk4FllmMvCWW25xG7nYko7wok0g9LfceotmmTaz5557qqamxtn1CDOTiGg9jQ2Namtpc19t/O53v6tly5fpi1/6ojrbO53Zcv/99+vQQw91hILW8KlPfcq92JvNYkwyohFBcGwII04+2MauVIji0UcfdcuqH/zgB92qCB/gY7/Hz372M/e9JTQwVkQQBO6h0aCZsWrCqAUJQiI8v4OrMlMIEuXDcJDY2972Np1xxhnOxHr66add2KOOOsqtrrAhjW847bXXXq7sfRI4q8tnX3pa/3fz79Q+pl2psTm1dKxVQ3O96hvXKpvOKp5NqSJZo6pUnWoqazWybqSG147QiLIac8NUW1WnEbUjVVNeq5KuFb1gEtprOmhFTHAzce3ea2y9jgc6ubexPLouWvCzkdJsGXiJITP8HsRMefEc6hpNj1+q3JJg3wMPwDGRx8TexuAFiNGeHaEf+tCH3HMwr732mhP6ea/Pc2YEpMX7bV555WU3x4Hw3XPnPWpva3fx+K3qc/ec68yFn/70p44MLr74YqfFEB8aCZoM5wjzsGHDHKFBbGhAkBVkRn5IAy0EsqFDQAxoNmhfaFWkh2kIafAbk+6BBx7QW9/6VhceM+7yyy935EZaEA2rJMzJ8MkT8sV16uiFF17Qu9/9bqfdUQePPfaYi/eQQw5xy73A11OvMIlHU1rwyquau9Puuvjoi3X09BN03OxTdOJep+uEfU7VkfsdrT333k3TdhuvSdNHqnZsmTpLmvXK2ud16/P/1c3P/MvcP/Wvx/6ufz5+vf755N/132f/rXvn3a2HF9+vB+fdo8fnPayFa19Ta6pJHRa2Pdle2FXdqs58m2lDnWaK8QJ4vrrJxC4T+Uzim15keXQPfVpZ6LuYbQGBbSWQtE9+C2VjqH+pcshqNEy6IqRoD3wuhJ2gCCrb0W+77TanTUBcCPThhx/uRgEmPBFKdphCTKxKQBKsYCCwmD8/+clPnKbA5DTP0vzP//yP29oedHJT4M0tWrTILaNCJkceeWSXMHOP71xfffXVG2g07EZF+1q5cqXbXHbYYYc54sJswgQjX+THA2KhPtg2Txkw0cgz8XvyQNtCmyIOTDa0GuZtmJ/6v//7v65VpY3CWv+FF17SP//1L+22xxydcMLxdimwZxBmPpSHYAfGS9aJftr9n7Vju3OYTBzbzbjiFw9m8HhFU2e9Fq9YrIVLFzoNqamlQa1trVYuM21NU+J1n+5zLeybypapPF6mMSPHaucpO2vi+EmqKq9SMl6iikSl6pK1qohXq0TlFsYGiKINlz1hQ0Lid3Dur1IqZz66C14U1vvb2qDNwVDXaIYk0QC0IEwcTAcesoN40EaYv2DOBm2C3aCzZ892D92xdR0hR9hJDzMHcwiNBDPpsssucysuaB5oC2hLaB9oDZAPmgzk8rGPfczd4/cBBxzgBNyTUHt7u0sLcw7NhFUcr81AXJhcvObgF7/4hQsDIbJSxkQ4aXmyoVMxQY0mxW9ee/kvIwLICmJlrgmt6Vvf+pYrB3FVVla653jQgiBg6qSvgFAhu913393NG20OAkKiS/lf0FNGHUZDHV1zOfyhxTQ5jaXNrq/J1WvJunl6bcErWrV2hToypu8Y+XemjbRaO5RuNWLKmdYYT6gkkVR5SYX7NtiUCdM1vGq8astqVVlSrdrSWg03E68qWWlExN4giMxRpuWJ//3vgiBY3XnKKlx1/wO+KMH9N1BOlxfCr/cfkFP/CMqH7goFx4PC7KkXz4hoBgCbQjSM9lQ+ZgfmBMTDSg4TxMyDQAYIMe8xYcRnMhjtBO1l+vTpzswhDNoQ8yf8RivCXGK+Bc2IqkEDIh3ihljIH8KMVjNq1Ch3jj+usarFdYAmhYZFPti7geaCiUJex48f39UIECOaCH4x89hYxnwNhEL8rEhBWqTN3A3aEBoaJMP3sgEaF0vfF154oSMozDW0qr5oNOQDYoXIIMbNJZruQVl9N/PC6K/Zb6cyBff5CRx5d/0FGhQ+IKZs3sjK/DPHk8m1qbFzlerb16m5vUXtna2qb12n5WuXa/HyRVq6aqmaO1vcM3D5ZFr50pxKystUUVWhyuoKlVeWqbS8XHVVozVuxCSNtmOt/VWp0v6CXepsdIzZ7zgfHLS/MvvFV8YC6vLlCgPiSlqR7NhLG1AWKFhGtOzojrsNk0Gs/AO+n0REMwDYFKIBjOYIMmYPxWDuAofpgaAzZ4Gmw8SxJwSIB5JC+wBoEZgxrjJ66BThe/zGAa45gQide/gwkAimE19+BMX+vT+OkB15hWC86UP+qR/yzcQwmg/XcBASc0KEpawc/T1MQp9GbyDM4BPNpoJ6wiHOOM5syLc8B0vwhTYp3PE+7Lb4xhSrX1nTOKApNKnONHXT6rSkdL5Ta5tXaMGKV7Vw+UItb1qhpnyTOrKmPZkz38qnLC22HMSNNmJJlabKNX7MeO22yxyNHznOPc6Rsr9So6QK1dgx+Mjh+gc+UnZkSrzCjqUud+QPB8ksW7NML9Q/oeoRSU0ftovFMNL5haTQxCgd7QMiohkAbCrRbAy+aGFhc4XuRvh6ug7C98Jxdhd/MTCXmPPBRMNfd357S7uvKI6jr3Hib5sjmuIeacXwl3yJOIdgoBt+s5SOOkSR8RMuOS/3Cvb1+Fi6B/ERG3ExA9WRbVFLZ5OaWhu0onGJFq5ZoBWrV2h562qtg5QyrU6D6ki3qzOLCZtXSSqlqopK1VRXafTIURo7ZpxGVNVpWLlpSaXDVBmrM92oxpHQ/DWv6m8v/lFPr3pSh8w6VGfPPF87x2arIj9MibxpN67cQZ4johkADDTR+CINllBvT6A+tl2NZvAQCHBBENz/3YB+RFexA4Zb8D0ryChjgtNphNRp16GknNJGMuua1mnJqsWqb2tQa7ZZrelmM+catWzdAi1Zu1jNZl53Zsw3mlY8o1xlWq0j1qmtrEmxbEJTK6br4hnv0fFjznQakku/gIhoBgADRTQUBed32HYHV+h+EE3Yv4+f8/6SFeFAb+H64megQZo7ItH0G9Y0rnmMUGifQEsKeIgNj86MK7RfQCRQEudBn3GvNOFdQLEOtWdbtTZfrztevVX/nvcXrdQit1epum24Tplytt6y20UaWz7OhfUY6kTTs0QOAVAA5lu8Cxp0feOEz/1vJnX9Ob/9/WJwjzkT16lCYbrz7+PhGHYePYXz4B7zTBG2YUAqJi1+EODY9RcvMA5Hc/EY8zJM7zJPE7yipCxervIYE8zDNDwxRlOSO2lSbrrGNkzTru176d27fUy/PPNvetfeH9LYsjEW//q0hirC+R+yRINwsmeFVRwmf1mC5o33V111lVuBgXgQXh66PPPMM93SN6sxPO2L9sSuXpa18cNSMZOp7FlhwxujOxO4xMPqD8vP+Gepmrh83OSBlSQmenluiWVoJqhvuukm9xgD19GuWOHyL9dmxYj8homHCW12+jJqvelNb9Lf/va3wp0I2yocrxSODvwIu27BDSZ5IaBynTDreF197i90zRnX6YKp79L4xGSlkqXb9NcoNhVDmmgQXB5eZEUGIWWHMHtWIByIByFnbwhLwVxHmNm7wlI3rxhgtyWkQzyYDdy79NJLHSmw1IwZR1iWu1nF8eRCWqxq8VgDOzV5LQEEAUERF+bH9ddf70iHvS2ou2PGjHH+WJ4mHEvqBx98sCM2rr/nPe9xS9vsFmbvDhv+wmQUYdNBPW6VuiTJsAOhbKD5xGPsndqAshy2Wp4HC1aYrQ4b0fNXX3113rSDwpWNY926dfmvfe1reRPafHl5eb6kpMT95ogzOzZ/xx135E3YnTOSyJsmkm9sbMw//PDDeSOGvJlG+Y6OjrxpKvkZM2bkL7nkkvzZZ5+d//73v5/ff//986tWrcp/5zvfyZ9xxhnO71/+8pe8EUn+mGOOyRtJ5Y248g899FD+nnvuydfX17vz1tbW/KuvvppfsmRJvr29Pb927dr8DTfckD/hhBPyDQ0NLn0zq7ruUY5Fixblb7/9dvcbt2zZMhfflgB5ee655/Lf+MY38v/+978LV7d90Ja+XSlDT+Be2A06fBIcix3wR/cjWzgWDl337GdRvu+///78b37zm/xLL71U8DE0QN5po21Go+mvPYrGwS5dnjvCRGFXL6YRjxFgmrB5DrOKXbq77LKL+7Y35s3NN9/stu2THhvd+O402gxb/I844ginIeGPbf9oRkY27iXXvMKCN+7z2MLPf/5z94AlO3zZBMjenZdfftltFGRilae3eS6JeNBoML3Yq8M1NhSiWfHsEpoPu5XRcDDByBu7enlIlEcMIqyH9Vk378URYI6yy5sNlmia4XuA3/QDthZQt+F7Ht1dG1SQHN3cJcuPgibjs8FxC2dpS2GbeKiSzXNsg2eOhA999QVuMs4cTyyzIxYB55EE5lQgF4gBc4cnmRFwCIh5GogD4ebxBAScDkv6PLzIk9+YPqbVODOGPTCEo6O+853vdPFBELxoi07M4wesBLDT10YbNz/E800QE/d5NQQv0ObRAYiIvGJy8QQ5O5JZPcA044lrdjH//e9/d/UAkfHoRH/Jd1NB+SgHu6Z5LGNbBOYqT87z+k42NVI/PNPFfJhfKaO+WMGE4Jnn4nEQBhi+mABx82gKbT1t2rSu/jPQyBd4gyMc8oYk/Hn4esFvl+sGQ/GhyjCRD+lZJ+ZAaAAEhS36CDATsgg+pEBH8kvdaEAQCATDg44QCM9JocWwk5ZHAdCOuMejCIAHFHHMt/C+GL9blx25kNA73vEON5JCFMyt0An8PA5H/POMFJoV3ySig+MXMsMPczQQHA9H8sQ2GhHPaA2V5cstCQiYVUDeC8TjFWh9zMlRdwwWaK08fsFOacich13ZJMncHM990c44Hj8ZDILpDhsoKFsmyW0WQ5ZoGJkwmXjXC0LOKx6uu+469z4XRjE6nxd4nldiohdNgxEQUkFrwDTCtMEf/iEnXiWBoKMdEZZRkS8k8pwRq074RSvimSbIBs0FsoMoMKd8mphnkBP5hKwYkVklg8zwg4bDM0yYX+SbVzvwRn/iYQKb/OEvwvqRkUcwIG7Ae3l4TxD3mDznAVTvDzJCM4NwqHu0XUgdLYgBZzCRt7+wYuLIxk780f1i4426c0H+t0cMSaJBkBF6vr2MmcTb6iAR5kF4yRWdDHOKd9wwH0Ing1wwV9BGeDMdDk2FezwQiT80Hkwj4vfXIBpWodBEeML7L3/5i3sAkg+WMQ8EQaBJYZ5BGICRlxGWeR9MN0ZZtCaIkfkgNDDiZQUKc4B5GYSBkRZzC/NvyZIlLq4IJoKFfUkQSXguhodKaQeeXKfNcNQ9czeYS7xLiHbj1arM5TAgMZgMJByBFBxUAcX48wBQD3/BtazdN13X/PJdcDua49vnGXePPysfwbYzDEmiwSRBgFlOxlzZf//93aQur8lkbgXTh1GOERByodOhVjMfwrwK5IDWgPbCfeKClCAE5lRYjmbJHHIifl4JQZo4NB/MG9KEtNBa6MQQFNoJZhH3WL7GH+o6/tgrgwAwv8N1Joz54iJvz4OwEBYA2WBqoW1tKRV/W4evewgG5+uFa554+M115jEYJDCraT80SuoY04u9UD6egQY5Qpi8809gBUTDAwwd5trsnId5241YmtUWqze3zs7W2R1elbrWfLVYqO1v8+Y28QgCAn7ttdc6jcK/nHxjCHc4X4RiwfR++uK3J4TDhlEcZ3e/w+juen/jGAyQ1rb+CAJ5ZLKdwYD5NzRRNl4yec11zCG0Q8gcDQaTljctMuAwMLAIgEaJtsOrUwembulHXltZb/b4c/8/T2kHLwjjifCM+HZ6sxrcd9Jb8k1asHqenn7+SS1ZvFTpzqzeus9lOmP3t7pnwMPA9I6eddpMbArRDDX4aqaTu4oPHT0499cGRhg2DtLb5onGHHNWH/nIh9Vpmsree+/jNjTWmhn07DPPuIn2ViOTeutHGdNwmDO7yExZCGeXXXdx2ul1f/mr03AvufTSINICfC1DDEFKwD1Y4H4FV4J763/zDpngzYL8oZ/wYCX3+LVGq7S4c7F7L866xnVasMzMtsWvqb5hnbL5nEoSpapMVaq2bJhGpsZpXNVkTRo7VWNGTtLOtdM1pnSMT7gLEdEMAHYEotlW8UaiCV6mtV4EPXw32TIEuAEs6UULF6qhsdGEbIaeee5ZvT7/dfdysrvuultXffYqjRo+Qu+/4r3Wl9bqm9/+tlLlJUqYmWSM7Ug77p5Hiuniiy/Rhz/8kcI2f8jDhMD9H8yS+IlZvozRkU+rLduuletWaNGqxVq2ZoVWrF2p5S0LtSazTG0ZnsbuUCwRN9O3QmPGjNKEcROsD080EhxjRFKj6hhPN1WrShX2x3trapVSuaW5/n06HpxxDYksHoAiohkARESzdQHR+A/IbUtEQ4rOBR3VCSEPMGayGWVzGSWNLDLZtNNySlIl5kqdH17BiT/MFqZXfd7zRh7Ek4tlHUG0ZhvVmF+rtW1r9dziF/XsgudU37zOfXqGN9+hsTA5G08m3NxbbXWtZkzfVbMnzdLw1DD3xFKZUUe1ahyF8LorXnDF+/f4jirv4HOfJc7bL5acjDx4K2BQkp5r0pU3IpqBR0Q0WxcbEs3WMZ1664bujsldoH9AHzypnws0FRNgrjohtjjyOaMWiCRnJky7aR/ty9TY0qT6lnV6efmLenH5C2pqbVQmn1EiGVdJaUpVNdUaXjNMo6rrNHbEaI0bOUFjKybynLUjEsiDt+ZBG5AH9IILMsUkdKCdeGooLgnv3OqijfX80SOcYEZEM/CIiGbr4g1EQ4/o6ue+e9iFDa5vOeTcu1wCmuEbCx38YdKYGbNo+QIjkZVa1bZcSxoWaVnjItV3rFPaNB4+0VJbO0zjx0/QyOEjVVc+SuNrJmjS8MmqSw5z5MFrHHgvcKkRR9IcRAJtBK8050nrYA3Ju1BtOMf5+mvoKt3B+wTd+wjDCWZENAOPiGi2LsJEc6Lfzu8EA7ODDl8QNrqKaQvcCToN98JuQ2CmOBQC5IwseClU3hzjPyKdQwPhq6LEay6T5yujHe4FUQ3tzXpu0at6et7jWtu5SO25FiORBrVkMWvITkylyZTGjx6nWdNnadzoie41mXXJUWbajHAmDe/0hTCCd/jyxzkk0jsCDWVjvrqKth5W5rjbkLfB1RCoS1zPcIIZEc3AIyKarYsNNJoTT0JWTNJMI4h12g+WWVPWWzARGLFxHvYr2O5qsEAWhmPwFyzxMldBdMyWpPPtRhZtas8biXQ0atna5Vq0cqEWrH5Vi9fO1+rG1SaDFrIsp85SXr6eVG1FjaaMmqRZE2drXN0kVScDcwZXbn+YMGgiwUvA3YyI5SoQ5oAoPGWEcx0I+vor2xacYEZEM/CIiGbrwhPNnN3m6NiTjnF7PJ5Y86BufepP2qPyMB1/wDkmyLw3hSVdZkiMNOyvze0HWaOmTKMW1y/S0rWLtWbdWq1YuUxrGxvVls65vSFM0o6sGamRVSM0vLJOwytGauqo6Zo5epYqSyvNbOEzuhgr5ozQYDr3m4/EMf/BNUdagRkF3HU/L+N6cCCY7lpBSMNEskVJxfLj+NeOLt2whHFhI5lxghkRzcAjIpqtC4iGp6JnzZmlw085WA+sulm/ev5qLcsu06Fjj9XBU4/Ua4tf18LVC9XUXq+Wxla1NLUpnzUNJpdzqyp1ZbWaMWmmdp0yS2Mrx5iOUamKVIWqyoapurTOyKTS5IvPiHhNAwSahluRoRf6nmhajUlacM6hIHj+2Bv64mdbR3EZOI+IZgDAtnHedMerHSKi2fKAaNhHM2HieLWNa9BfG3+jNamV6jTTqaZ1uCZ1TNW45GgNKzczZtJ07TltT1WU1KgsUa3SBPMgzIDwx8pMMJmKmDCHEnQyeMOusJclwkbh6mw7I5reZ6Ui7FAYVjdMh8w+XEeUnajxLVOV7CzTISNO0DfO+7G+9JYf6VMnfVvn7P5uza44SNNSszU+Plkj8sNVqxpV5MuVyqWUyBnN8F0ScxCMM3EKG+ci7LiIiCaCg3s4MZPTjJE76yPHfFTfO+Z/dWndJRrfOlrVuUrTVkqVN40kaYQRPMCYcKNuzL/ygGMcZ6doLt7BL95F2GEREU2ELsTiTMCWKRmv0pRhc/SeQ/5H7z3ho6qK1TrOYP0pPMMSsIdjlpCLGCXCGxERTYQeEWgsgYsQYXMQEU2ECBEGHRHRRBg4sMjQm4uwwyIimggDByys3lyEHRYR0USIEGHQERFNhH6DDVjduQgRekKfiaa/HWlzOl648/bXRegfqDP/BQH20vQF4dWosNscFLejdxG2D/T6CAJvkuerjt5LfzpTf/zy8mi+LsgLpvluz+Z22i2NoSwQkAtfcXzqqafcFyF4/25v5aFturvP9c1ptzDJET/nfJ9pS37wbVsB5Q+XmfPt+lknPg/Cpz94kzwNP1gNHo53MNOJ0DN8N/B130u36BGb027h9Hw8fCTui1/8YtenVHYUUBfh8nK+XT/rhAfeIB8ebQYDpEMaA0UyxOcL6dHdta0Bn4+w8wj/DqOn6wMJ6j0s0D21A9d7cuH7fUHYnw+H2xLljbBl0SvR0OiDSTK+Q/ljuOOB4nMEAfgOWYxwB+0truL0Ntax8Yef4vjD4TcWRxjhvIR/e/i4i+/1J43+grSI37e3T4vraLS8nNufe0Ly93y7AH8d+DiIk9/d+Q3H5a/hz59H2D7QK9GEMdANT8fzLjwR6c85+nNAR+dzpnyeFvjO60H++CIk1/jt7+N8/PwOX+c38Y0ZM6bX8hEvHysDPqx3CAXfC/Lh8cuneb1AkYafbPVpZjIZdwRe0ABHzikr+SJunBdyQBz9BXniw2rdlZH4yBvzceSLc/zhitOi/idMmKCysjKVl5e7cofr1ucXUA7u8eE27wftmN/Ap0uaOH6HrxWnHWFoY6NzNHPmzHGdCoQ7KsHoVHwlkBdXeeCHj6vTYei83YGwxMmnYxcsWOAEgQ/x84lavqnN52FnzZqlu+66y33SlPPjjjvOdWyfLh2Z/N18882uE5OPY445xn3Tmk/c3nPPPW5yGdsWweCjYhAA32smj8TLt5hHjBjhrr/++usuv3zzmjROOOEEdwwTAef8bmxs1KOPPuo+9j9t2jT3Dh2Eg3xSdia0+d4z+ePrihAZeWJiHT+jRo3S0qVL3ed28U9eiZt8MBnLp1spE44JUb7jzXe7vUD3FeTdT6hSv9TzY4891hUHR9KHhGgvyA03ZcoU55f6p7zkf9y4ce7TslynbJAO+ae+iYe8UZfklXRJD//UM+AzwFyn3nhlKGF5Dw5fnqS+mH+AUCEm2op0L7jggmiOxsD5UJ+jSXzO4M66Ad8wvvrqq13nK25ozhEaPjNKJ/Ogs9DhuA58YsWoqKjQ3nvv7Toeny8lDT5hymdN6Vg77bST+542HZzvWwNWR2655Rbnh/Rvu+22rvgRFhoAASA/kB8kAAHRyfm+NYTDfYSf0ZUOfuedd+rZZ591/sk3Yck7AsVH+hEG7rMqg3vmmWdcviAbCIYP/iNsvLwL0oSsENqHHnrIERFlIX0EkDLhH6KhzBDm008/7eqZ8ntSQAhnzJjhysM1CAvho6yU2zsQPvfXAHGTBnFA3hAh59TB6tWrnR/iJk/UK/lG6CF7vllNemhx1AMLAuQJBxlSbuobx0BEHZNH6oSwkBdlhjQIQ52yskja1DP+yStETz/AH98vpz1wPn+Q7tFHH/2Gsu0IKC4v7UEfoz7pp0MNfSaaMKgEPzIXazN0Ju7R6cIEVAy0E4QAzYWO6z+qf9ppp7kRldGfzsl1BJl7sDmdDyFCk+FImgg2eYVAGG3p5HzUnTAQFYREh548ebIbZckjJDB79mznl/SJi3QRSsgSIUQ4+U26kCB+DznkECcU3EcjY+SGRIiPNIirubnZOcKjuVFPxAup8JnW+++/32k0CKoXcsKRH8pMXOTTOzoY9QxpgfBIQR1z9NcgBgj20EMPddeoO8iBvKGtzZ0719W910o4J23KAUFA4txHi6HuIQOIl3qkH1CnOPxA3tT9E0884epm3333dXngGn2AMkIi9AXSWrRokQsHiZJH0sYU8xqfbx/C0a4R0azHUCeaXk0nOnzYdPKgEhASOh4d04NzRkXCedsc+CR85dGhEVTuI0CYM1xDU8Av6jYCCBBy/EIkdOympiaXJ/wjLGgRCBLakSc2BJJ4cPymgVA9IQYEDxMLUgKEJR+QBx3/pptuckREmnT0++67zwkBZIWwICRoNggMwgKJoOUwEkNKPg/kl7whxAcccIATdMgMR3rUBYJH/Pwmn/ghDs6JBwdZQT6UF2H380m+LsMgXsKTBloYZEc7oUUh7L6uKBsdl7zRaRFsNCnKNG/ePBeOdqHdIQzCU9eQAnHst99+rn0gHNob7Q1/3KcP0H7ER1p+kEIzpO7RoKgrBhJvdkJUgDDcw7wD3nTqqbzbK+i34fJyvsOYTmEgFHR4CMULFqCT45eOWkwyHlQgfhj96OSo5wgSxIRQMD+x++67Ow2Ca3RmOh6CQSXTQbmHQHh1nXzgj47NvAKNwjmjLL/RJhBUBIZ4aCi0CK6TT0ZS4kKwEDD8ESdChIAxiqCJIOg0NmWAjLjPiE95ERDK5QUdYUMTwEwgTbQJTALuYy4isKSFX8p97LHHOhLDvGHjHA5B5Brpo3HgH2Inrzjy6H97B3mRJ9Kn7hFkiAVBp6y0KfmA1Kgv4iB+6oDy4wdCJ+/UP0RHe3Of634AIc+A+uAadUN85AH/1Bf1RFt5TcbPifk2pw9Rb/yGsAnvtTfCRhrNegx1jaZfq050XFRzTAwK7smEe3RSOjSd2F/3JOM7incIPYAEGAkRvJdfftnFAZmgIaC245cOzUh51FFHOWGhMyKMCCZCg+AShvt08MMPP9yZIFwDaBN0WEgH0qBjEw/nmG2MsMQDuUFo5IfrEAn5JB+UFUGgfBAr1yEABAwNC9JCeNAiEDz8IOjcR8ggIu4jjNyDfNAiIENMBYT97rvvdmGZg/LaHHFAqFwj7+STuHpy3IcYwqBOaAfi8ufUK+VkPoa6QpvDrEPjgAD5GgWmF+1IfVHntBX55jf1QVp0fMpPmXCQF21FfVNHaI2UDwKGcKgD/GDW4p+8UmbIk3bEUV/kDxQPUhGGLvpMNDQ6HQAyoNPSSXxHYFRGcBEeOhDX/T3faQDX6IBoFKjL+PUCTWdDCDj3gkYaCDqmEh0SgkAoGS3pkABhQFDQhJi3wfyCEP7zn//o3nvvdaMlnZyRAA0EE4trpEF8zJdwhEDp6JABhEF+mAxGUBBy8kx85Jnyk38EDaJC+4AsideXkZGdusIcO/jgg12+PbGgMWGOAeoHAYQQEWTC4K6//nqXPloXfjxB+DDheu0JxEN9kjbhPXwbQWIPPPCA01aoZ8ieurr99tudP8J4sjn11FOdVkJd4J/2phw+L9QfGgpp0j4QMaSP5so96pN4fH44kg/qiSN9CMfvCNsf+jxHQ2eiIyCsmAG+swLuM9JxvTcB4B7zHNj4jJAIL6TgOxiEwTVGZ+z+gw46yMXNaI8qz6QrGg5xIAwIB50fIeXIKMtoyRwMcRDGmxKEZYQlPIJNXtFEIAJGWUZmBI00Gd3RiLwQIXCUFaHAdPOmDeRH3AgdGgD5gaxQ/SEi4oIA0RJQd8kDczJoExAefiFGtClPtJSfcmASkqbPF/f7C0gT84s5JerDgzogTUgSUEYv4L5dIRTqiKVoT+5ei+MedUEckC1lpA25j6lG2xEPxEJ4yAqSheypW8iW+kNLJB7qgjJD8H6QATyC8KUvfamrHXYUUP/h8nKOvNDf6Jf0kaEA8u2P/SIavHpSCAfzHbUvnQE/Xk2mI9JRvVlDhyQeRjs/kmKK+XQhM0AY7nONeCAeOi8gPB2YOQ3IBwH1+UOQ8c8Ii/bBb7QICIdz7hMnnZ7fvjz8BuTDl9OX35eHOPCHNgNxkW64jqhD0vJzF+G4SROSCsfJdUwOrnFvU0A+IBXaMdw+xEs+KaevlzC4RxtATmiV3g9Hn0efb9oh3BbcJwxpkT5x0Ra+TL6NOcdx7uHz4dOIiCYA5zsM0Xj4CvDBOO8lim7hEg6F8785+vh9ZwzH7e9zz5+H4f2H48fRgcPnoLhT9wbvpzi9YvTV37aC7sru8x4uC7/DZfLXitHTdY/ieDaGiGgCcD7UiWbDoawPIJCPAIR/9xW+EsMdqLhii/34c3/Pn4fh8xK+Fw4XzmvxeW/oKb1i9NXfUEC4LMVl6qneNlaf20vdROg/+k00g42+Cn9fEBYW4M+jDh8gXB9RvUQYTPSTaPAedj2ArxbGMiEXPuc3ZMIEq9n8Yg4Agtmwo5vhZF6CB/T6DtN24mbzx7J2LCYsi5GkcwlzllY+4z4uH88nlcglFc9aWvm4slasnOWPT7t6F7fr7rvz5ixIlwPB76A+An92wRLKuzIWPHXBTAslzSX4YmyQlrkgLu6Rh6RzMXPxfCKI0/6S5if4RL6Ft3ry6W/vGMiBJ8LWQy9sEaBPDR1IsHN5jibUZcYpJRmLPl2ibNqExwTcnZvgGB2YDzNdVKVYIqVcNhecm8BCMI50LF0nq/0AWUWQE4mSwpUAwWjNPI3dzWVUlmuw/HUqlTdCIr1OyyvO8peEpyxMJh5TNsE8UU4JI0SIgevkCWe3HPgKbCqLDZo2v+xVSVse8Mv/uA1BuShlMkdessFXZInTEoh3Wh21JFXRllQqnbPrZMYq0kgxn291JAo5xy0DVppCjNs/Ik1raCLcbhslmg1gJOHcRgCRdCbTxjFJ1Y6dppET9lLF8EkmuFVuJI6nyjR+3GyNGb2ramvHKlmaUjJRqrpRE1VTN8ZCo8lAOG8U1F4RM0KLVbg4Myb8hIfAvFM+rYrylA48aIYOOWwndxUNZM7o6fr0hZ/Q+aecaeFhEMskwuzIIG1E0+nIwGMDZQmvppUljBTKjRMqM1mVZTvshulqRVVFtUMyCSOOEouzPBu4EstryoiwpqRGB+68vz578VU6+6jzLR2LINehWbuN0JUfOVtl8TVKxlmBKrBchAjbMMLy2z+i8eginELwNxBQSvlsjcqrhumCC96pt134AZ11yZXqiPPelpRGjZulN597hS667CqdevoHzHRKKFlVq8NOeIumzNrXyCihPCqEQyidXoHEJ1U3fIbe/JaLlTXB9eaF6QGWRtbEs02zd6/UJZefprsfeFJpizaRMVrriKlxZUbXX3+D+TaCMZKpTnVqZm253nnScXrz0Uc5cnHVVojTazgJ05DG11Xqg2edrR985GP68uXv1Jvn7KHK1pYNCQlYxacsH7MmTNA3r/yofvThj+tjZ52hnSrKlMhm1J5p1auvz9PtN91u5MMDoxbG/lu2bLlWrXpNV37wZAu/1mlDhWxEiDAk0BcJXg8b7Z1pUzBxMjaw+vmJvEqUTqeUzpgplDMNJZdUW8Ma/eB7V+kXP/u+CXW1Oo1QsiaY8xc9qx9c/Q3dcd8tUjLQPDBtcipVPlFr+oEzLhB5RxbBcSOOeQ8Lk8tXKZuvVoepE+zQMJ3FIogrEY9r+vSJOudtB+vHP/2qkjEegzADxMggTr7MTzsWnpWxLJHUgTN31fvOPkPTUkkNb+OVF2/UIjD+ErmcxiaTKmvv0Oc//T/6yx9+r92mTtLw5BvnlyybmjJ5gk4+6gjd/99b9dXPfVbznn1Upx91pGk0GXWmmtSabFXOTCTyy4AQs3ptWBvXyy+u1Jix5Ro3ptJKuX7vSYQIQwH9IJqYypKjdPQpV+j893xXtWMO0/nv+KY6s9VKlU/Quz75Pe17zOUas/NpevuHfqSmEiMNpDjWoU41KtXOZESn0UFcZbm46TxtFiMGTdIJVcpYqzxWpj33OkYTZ5+o8y7/si6/4n9VUjlWJ7/1IzrxvM+oesLRuvADv9RRJ16hymEzdPxpn9J5b/+G6iYdoYve9zUdcOS5SidL1KxhKqnbS+df/lW9+Zx3W5olUJiqS9ZZGiv15COmPcRqjDtKoBoT6IQyJc2mnjBjk1JHZ6fufvYFffNP1+r1tka15XrYMGcsmDYt6tE19frGzf/WulF1StSNVEmqUm0d2TdoNHnTRF5buEjf+b/f6YZHH1fNxBnaddIc5VvWmlVnlGiEp7jZX3EjdCO+jGl2TBijnb3yyho9+MALOu3MnS2/DRZXIdIIEYYA+k40CI11+GlzdtXPr/m+1q14XL//5dc1depkNTW16atf+aYefPB++91go+980xTKHYkEmkDhTXvOvCKiYimx66a5dHam9eSTj+q1F+/QP/7xW7Xn2lXf2K4//umvuu66v2ltQ4Nuu/MuTZ66s0pKqzR95i76v1//RMsWP2GaxE9Nu7B0LOqKmqk68/x3y6wUXfeXvzgtCm2s0kyUrBGaM0lQldx8jKXuCMG0HnjRrmFkZbNGgglWoXoxUrhlJJlFx0inNW3UOJ1y+OF6+IXn1Vqy4RPv62HmU6pE++6/ry668CKVlZa5561ils6Gk55kymXMHRrrW7RoyRoNH1njNKPeshUhwraGPhONm++w3p2xobS9hbfqdVqHb9OCxa+qorZWV37487rssst04MF7afjwartXZnKIeRLoLUFS5oxsciYpmF4Bgt+sNGWMGbJGNgnTdvJ5XF4VFcN03LEn6IMfulKHH3aodt9jV0cUSTNN0ulmC9OoWLJR6xpf15133+RirKio1JjRE41H8kpn0RAwzRBkVrjsaPwS7C72gsySd7DsvR5BfmNGImHNBDMua+SSM+eRMkKbUzlSbznoIC1cvkB3vPiU0iniMueWqzGj4lZ9ZghZXCWNrXrp4cf1lW99Vbc8+oCOtvIlmJeyeJyZ6FwhB6xGcYZ2aPWRNwLEZI0QYShhvbRsDCYzOZO4WjtOHTPehHuMCe0ITRw/S6lkuUYOr9H3f/i/uuPO+7V6TYNRhcyEiakzUWW/xpqQVyiWGKZWE/bWrAlVosatDLV2ZtUcKzUNwIybeFK1lcOU7hypXEetUnYeSw3TzjvN1tXfv1q33nKLXnl6nkl2Rs3ZFjMppOHD5ijdMVUTJxyhk0841wTRtKAVT+lXP/gfJcvKdPpZl5qZVKUmE/L65rQjQMpiyoodAq3FLX0X9tOI/TRUCxqGCXQ8a3lIlBv5MTcliyum1ZavjniwFwYValxdmd588L5qW7dMf7/hb8qkgxdbMWXbbvE2YgKZFsOk9E6TJ+qDF16o3SaPMz+dzmTKmLmXMUIkHxAuZhEajtMALTyEW1Yi08iyWrN2jcXKYxgu8QgRhgT6TjSGjo5G3fLva/W+d1+mj374Sn3wfR/UooULjHDa1Nrerk9/+rP64Ac+6N7nUmKkNKy2Th//8Ff0/nd+SmNGjtZ73nmlRtbN0E5T5lr4q3TkESdo54m76V2Xf8rktUylpgUcvP8++n//8yW974or1dy4SqXlK5VuX6OPf/Rj+viVH9eZpx9npJAzU6Jejz96v959xTv1iY99WWecfqFefvkl0z/aVR5vVnPDPN14w5+109Rxmjt3d8t93DSBClVXjTdrJ2saxPqnmQOTBRdsukvYH+cZO7YnUuosMXJyZp9UXTdMp5x3ti58z7ucZobP4RXl2nnGNPd09mc+/il9+V1X6ILjT1baohyz52y9/0ufU7rSyMTinL9yme58/nGd8ebT9bn3f1jHnnqqXlywxJEWczhxI180MYAm5SarjaLGjivX3vvsonWr7SxvZhlL+REiDBFs9KFKXozEU7jOdHLCByEMU2V1ldauWWnXTW8x0yAZL1cyYaO8aQSZDG9la7XxO+0mRXPxlIVM2bW8aRI5J8is8mBSuBHcXCzR5OJPxCts9B5uplFMLa2rjBDabfSuUsI0o8rquFasWmjeMiotMxHPlyhl14fX8Sa8ZRba0jQBDPLabvdJF/MtbcLarJ0nVOqS8/bSiy88phv+M08dudEqy1VrRunOOvyg4/XrW36h1tImC888TrBRL2kmFhWUiZWo07JcPnqMDjr9DJWmO/TP3/5GpaaJlGTaVdPRaeWW+UmoNNeuxrJyNZbXaOycuXrz287W/375i6pq7lB5Jm3aUFrlibzqEqVqajYz1OqjM2laUi6ukenh2nv83ho1a4L+eu+flEukzU5co/33Ha+zTj1AX/j8n9ScHmHUw56kTXuqe6jAf6mSJ8N3JASrsK4TO3C+gz1UaQFM8NOd67R27WIjjiZ2zDAVavfWmKCtVi7Pe1Wa3Aa2pKVTXhpXVSpvxzaVJztVamSTMiEujXXY71aVJVpN6DpUZtfLrHJTubQynYvV3rbASKbFbW5LmuCmO1aryUyTitJOVaSM2GzUZ/I301Gv1SufNqJbY/6zjuBisVY7b1VJzPKXbzXXYffSWrxkjX7/+5s1Y/oM7X/QDOO5YOJ3XcNa3X//A6aB1QbFNFBFFptpNHFHHphpoKOtTY/fe5+u/dVvXPmowjbTeFZVVWndsFq1VNdqbe0YdZZVGcUZvS1eqRt+83uVtnXYmZlJ2GxJMx+NApdmO43YStVRkjJCiRvBlrjXM9Q3Nujhxx9mGFDaSGzGzKk68dQT9PWv/EmZ9uqASK3+IkQYKuinRuNnIbvjpw3v8YwQYF8K+1z8faY2E0x6dhE21zeMjyVd7z/Y6s8Esjs1+HQ81sfNbxcv2hJaiVsDXh83W/ohylSqw0ikVOmsaT85owNXA8zTmH8LR6gg+0G8RBl3F4JJWkwmB5+GHUEQDzM/jMBcY15nffWu/8mIZa5wHguYw8Xti7k+lP0qeFwfPpj/2d6naSKNJgDnO4xGQyePmQAHzp/T5RE2jt6xhsSzQYELwhb8mAtmOrnuHQifB8Lr/SNMQTzeFSN8zeclOAZYHy5njZdTiTrSZeJdUnk37+LzmjFSCMyk9eihesiPy1MBLh7ixxHD+nu+HOvzAwJzEbIgLEd/m2OXo0ILfgJ/gbPSubQiRBgq6DPR9IiCkHlh6HK9YAOZG3B4IQ8RgQPnSCeuxP7nwcu+SCtl6b08mwqIJCCTDeFJhmNAXt37ixBhqGBwJGgj8MLTk9t8FJOMBxpNQIR5v3zczyoge91rKQVsQLLdedgQYTLxrify6e3+9oJik8Gr3xGGNvolZXSCwXBbDgEBIazrCWE9KYUFeQMy6err+C12BRDfBiSzMRQS2obQF8Ee7PYKp8+mygxLeRGGPPokGf4F1GFHJ/Ads7+OzsPLvL0DvNia69353xYcm+286+7+UHfUvX8Xc2/A75YCpEa/iDD00euqE18G+PWvf+2+GgCKR7NNHd2KkyQdPhrH5zt4EfrmrDJsSUHw2LJa2cCDT57wFUq+HsEnU/yL27c22ADJN7F2NLKhD4f7FOfb9VcQPHryMlACxneQ/vjHP+r88893n1gZ6oI7lEDb8i0sPrjHN5hOOOGEqP63MpxgbmdE06ehi0J354hgU1yECBF2LGyWjtwd+fTFRdi24NskapsIg4VtwxiPsNUQkX+ELYGIaCI4RIQTYTAREU2ECBEGHRHRRHCIJukjDCYiookQIcKgIyKaCBEiDDKk/w8ujrZc02XslAAAAABJRU5ErkJggg==;movable=0;resizable=0;rotatable=0;deletable=0;editable=0;connectable=0;" vertex="1" parent="1">
                    <mxGeometry x="400" y="260" width="359.79" height="370" as="geometry"/>
                </mxCell>
            </root>
        </mxGraphModel>
    </diagram>
</mxfile>